<svg width="146" height="54" viewBox="0 0 146 54" fill="none" xmlns="http://www.w3.org/2000/svg">
<g id="PINK SKIES-21 5">
<g id="Group">
<g id="Group_2">
<path id="Vector" d="M69.5717 5.10896C71.8908 5.10896 73.6049 5.60984 74.9157 6.71175C76.1256 7.81367 76.8314 9.31629 76.8314 11.3198C76.8314 13.4234 76.2264 15.0262 74.9157 16.2283C73.6049 17.4304 71.8908 17.9313 69.5717 17.9313H66.9502V22.4391L66.4461 22.94H62.8162L62.3121 22.4391V5.50966L62.8162 5.00879H69.5717V5.10896ZM69.3701 14.325C70.3784 14.325 71.185 14.1247 71.6891 13.6238C72.1933 13.1229 72.4958 12.4217 72.4958 11.5201C72.4958 10.6186 72.1933 9.91733 71.6891 9.41646C71.185 8.91559 70.3784 8.71524 69.3701 8.71524H66.9502V14.4252H69.3701V14.325Z" fill="#2F2D2C"/>
<path id="Vector_2" d="M84.2928 5.50966V22.339L83.7887 22.8398H80.1589L79.7556 22.339V5.50966L80.1589 5.00879H83.7887L84.2928 5.50966Z" fill="#2F2D2C"/>
<path id="Vector_3" d="M106.173 5.50966V22.4391L105.769 22.94H99.4172L93.8716 10.5184H93.6699V22.4391L93.1658 22.8398H89.5359L89.1326 22.4391V5.50966L89.5359 5.00879H95.7873L101.333 17.4304H101.635V5.50966L102.14 5.00879H105.769L106.173 5.50966Z" fill="#2F2D2C"/>
<path id="Vector_4" d="M120.894 13.0227L127.246 22.4391L126.843 22.94H122.305L121.801 22.6395L117.768 16.629L115.55 19.1334V22.5393L115.046 23.0402H111.416L110.912 22.5393V5.50966L111.416 5.00879H115.046L115.55 5.50966V13.0227L122.104 5.30931L122.809 5.00879H126.843L127.246 5.50966L120.894 13.0227Z" fill="#2F2D2C"/>
<path id="Vector_5" d="M69.3701 30.2527C70.0759 30.2527 70.7817 30.2527 71.3867 30.3529C71.9917 30.453 72.5967 30.5532 73 30.6534C73.5041 30.7536 74.0083 30.9539 74.4116 31.0541L74.8149 31.555L74.6132 34.7605L74.1091 35.0611C73.6049 34.8607 73.1008 34.7605 72.4958 34.5602C71.9917 34.46 71.4875 34.3598 70.8826 34.2597C70.2776 34.1595 69.6726 34.1595 69.0676 34.1595C68.1602 34.1595 67.4544 34.2597 67.0511 34.46C66.6478 34.6604 66.4461 34.9609 66.4461 35.4618C66.4461 35.9626 66.6478 36.3633 67.1519 36.5637C67.656 36.8642 68.1602 37.0645 68.866 37.2649C69.5718 37.4652 70.2776 37.6656 71.1851 37.9661C71.9917 38.1665 72.7983 38.467 73.5041 38.8677C74.2099 39.2684 74.8149 39.7693 75.2182 40.4705C75.7223 41.1717 75.924 41.9731 75.924 43.075C75.924 43.9766 75.7223 44.778 75.319 45.379C74.9157 46.0802 74.4116 46.5811 73.7058 47.082C73 47.5828 72.1933 47.8834 71.2859 48.0837C70.3784 48.2841 69.3701 48.4844 68.261 48.4844C67.3536 48.4844 66.5469 48.3842 65.8411 48.2841C65.1353 48.1839 64.5304 48.0837 63.9254 47.8834C63.3204 47.683 62.7154 47.4827 62.2113 47.2823L61.808 46.7815L62.1105 43.8764L62.6146 43.4757C63.1188 43.6761 63.7237 43.8764 64.2279 44.0767C64.732 44.1769 65.337 44.3773 66.0428 44.4774C66.7486 44.5776 67.4544 44.6778 68.1602 44.6778C69.1685 44.6778 69.9751 44.5776 70.3784 44.2771C70.7817 44.0767 71.0842 43.676 71.0842 43.1752C71.0842 42.6743 70.8826 42.2736 70.3784 41.9731C69.8743 41.6726 69.3701 41.4722 68.6643 41.2719C67.9585 41.0715 67.2527 40.8712 66.3453 40.6708C65.5386 40.4705 64.732 40.1699 64.0262 39.7693C63.3204 39.3686 62.7154 38.8677 62.3121 38.2666C61.808 37.6656 61.6063 36.764 61.6063 35.7623C61.6063 34.1595 62.2113 32.8572 63.4212 31.8555C64.732 30.7536 66.7486 30.2527 69.3701 30.2527Z" fill="#2F2D2C"/>
<path id="Vector_6" d="M89.6368 38.3667L95.989 47.783L95.5857 48.2839H91.0484L90.5442 47.9834L86.5111 41.9729L84.2928 44.4773V47.8832L83.7887 48.3841H80.1589L79.6547 47.8832V30.9538L80.1589 30.4529H83.7887L84.2928 30.9538V38.4668L90.8467 30.7534L91.5525 30.4529H95.5857L95.989 30.9538L89.6368 38.3667Z" fill="#2F2D2C"/>
<path id="Vector_7" d="M103.954 30.9538V47.783L103.45 48.2839H99.8204L99.4171 47.783V30.9538L99.8204 30.4529H103.45L103.954 30.9538Z" fill="#2F2D2C"/>
<path id="Vector_8" d="M113.332 34.0592V37.6654H118.575L119.079 38.1663V40.6707L118.575 41.0714H113.332V44.7778H122.305L122.809 45.2787V47.8832L122.305 48.3841H109.198L108.794 47.8832V30.9538L109.198 30.4529H122.305L122.809 30.9538V33.5583L122.305 34.0592H113.332Z" fill="#2F2D2C"/>
<path id="Vector_9" d="M134.001 30.2527C134.707 30.2527 135.413 30.2527 136.018 30.3529C136.623 30.453 137.228 30.5532 137.631 30.6534C138.135 30.7536 138.64 30.9539 139.043 31.0541L139.446 31.555L139.144 34.6604L138.539 34.9609C138.035 34.7605 137.53 34.6604 136.925 34.46C136.421 34.3598 135.917 34.2597 135.312 34.1595C134.707 34.0593 134.102 34.0593 133.497 34.0593C132.59 34.0593 131.884 34.1595 131.481 34.3598C131.077 34.5602 130.876 34.8607 130.876 35.3616C130.876 35.8624 131.077 36.2631 131.582 36.4635C132.086 36.764 132.59 36.9644 133.296 37.1647C134.001 37.3651 134.707 37.5654 135.615 37.8659C136.421 38.0663 137.228 38.3668 137.934 38.7675C138.64 39.1682 139.245 39.6691 139.648 40.3703C140.152 41.0715 140.354 41.8729 140.354 42.9748C140.354 43.8764 140.152 44.6778 139.749 45.2788C139.345 45.9801 138.841 46.4809 138.135 46.9818C137.43 47.4827 136.623 47.7832 135.716 47.9835C134.808 48.1839 133.8 48.3842 132.691 48.3842C131.783 48.3842 130.977 48.2841 130.271 48.1839C129.565 48.0837 128.96 47.9835 128.355 47.7832C127.75 47.5828 127.145 47.3825 126.641 47.1821L126.238 46.6813L126.54 43.7762L127.044 43.3755C127.548 43.5759 128.153 43.7762 128.657 43.9766C129.162 44.0767 129.767 44.2771 130.472 44.3773C131.178 44.4774 131.884 44.5776 132.59 44.5776C133.598 44.5776 134.405 44.4774 134.808 44.1769C135.211 43.9766 135.514 43.5759 135.514 43.075C135.514 42.5741 135.312 42.1734 134.808 41.8729C134.304 41.5724 133.8 41.372 133.094 41.1717C132.388 40.9713 131.682 40.771 130.775 40.5706C129.968 40.3703 129.162 40.0698 128.456 39.6691C127.75 39.2684 127.145 38.7675 126.742 38.1665C126.238 37.5654 126.036 36.6638 126.036 35.6621C126.036 34.0593 126.641 32.757 127.851 31.7553C129.363 30.7536 131.279 30.2527 134.001 30.2527Z" fill="#2F2D2C"/>
</g>
</g>
<g id="Group_3">
<path id="Vector_10" d="M31.4586 18.432C31.257 18.5322 31.0553 18.3318 31.1561 18.1315C34.5843 13.7238 37.0042 9.31612 38.1133 5.50949C29.5429 1.80304 19.2583 3.40583 12.3012 10.3179C5.34397 17.3301 3.73071 27.5478 7.46138 36.0627C11.2929 34.9608 15.7293 32.5566 20.1658 29.1506C20.3675 29.0505 20.5691 29.2508 20.4683 29.4512C14.8219 35.8623 10.9904 41.7726 12.402 43.2752C13.8136 44.6777 19.8633 40.9712 27.0221 34.6602C27.123 34.5601 27.2238 34.6602 27.123 34.7604C21.1741 41.2717 17.5442 46.4808 18.4517 47.4826C19.6616 48.6846 27.6271 42.7744 36.1976 34.1594C44.768 25.6445 50.8177 17.7308 49.6078 16.5287C48.5995 15.5269 43.3564 19.2334 36.8025 25.1437C36.7017 25.2438 36.6009 25.1437 36.7017 25.0435C43.0539 17.9311 46.7846 11.9206 45.373 10.5182C43.9614 9.11577 37.9116 12.8222 31.4586 18.432Z" fill="#FF5419"/>
<path id="Vector_11" d="M43.1548 41.0715C40.3316 43.8764 38.5167 46.5811 39.1217 47.1821C39.7266 47.7832 42.449 45.98 45.2722 43.1751C48.0954 40.3703 49.9103 37.6655 49.3054 37.0645C48.7004 36.4635 45.978 38.1664 43.1548 41.0715Z" fill="#FF5419"/>
<path id="Vector_12" d="M41.1801 39.0565C48.1102 32.1713 52.9302 25.797 51.9458 24.819C50.9614 23.841 44.5454 28.6296 37.6153 35.5148C30.6852 42.3999 25.8652 48.7743 26.8496 49.7523C27.834 50.7303 34.25 45.9416 41.1801 39.0565Z" fill="#FF5419"/>
</g>
</g>
</svg>
