<svg width="111" height="40" viewBox="0 0 111 40" fill="none" xmlns="http://www.w3.org/2000/svg">
<g id="PINK SKIES-21 7">
<g id="Group">
<g id="Group_2">
<path id="Vector" d="M52.8935 3.82027C54.6567 3.82027 55.9598 4.1948 56.9564 5.01877C57.8763 5.84274 58.4129 6.96634 58.4129 8.46446C58.4129 10.0375 57.9529 11.236 56.9564 12.1349C55.9598 13.0338 54.6567 13.4083 52.8935 13.4083H50.9005V16.7791L50.5172 17.1536H47.7575L47.3742 16.7791V4.11989L47.7575 3.74536H52.8935V3.82027ZM52.7402 10.7117C53.5068 10.7117 54.1201 10.5618 54.5033 10.1873C54.8866 9.81278 55.1166 9.28843 55.1166 8.61427C55.1166 7.94012 54.8866 7.41577 54.5033 7.04124C54.1201 6.66671 53.5068 6.5169 52.7402 6.5169H50.9005V10.7866H52.7402V10.7117Z" fill="#FAFAFA"/>
<path id="Vector_2" d="M64.0856 4.11989V16.7042L63.7023 17.0787H60.9427L60.636 16.7042V4.11989L60.9427 3.74536H63.7023L64.0856 4.11989Z" fill="#FAFAFA"/>
<path id="Vector_3" d="M80.7203 4.11989V16.7791L80.4137 17.1536H75.5843L71.3681 7.86521H71.2148V16.7791L70.8315 17.0787H68.0718L67.7652 16.7791V4.11989L68.0718 3.74536H72.8246L77.0407 13.0338H77.2707V4.11989L77.654 3.74536H80.4137L80.7203 4.11989Z" fill="#FAFAFA"/>
<path id="Vector_4" d="M91.9123 9.73787L96.7417 16.7791L96.4351 17.1536H92.9855L92.6022 16.9289L89.5359 12.4345L87.8494 14.3072V16.854L87.4661 17.2285H84.7065L84.3232 16.854V4.11989L84.7065 3.74536H87.4661L87.8494 4.11989V9.73787L92.8322 3.97008L93.3688 3.74536H96.4351L96.7417 4.11989L91.9123 9.73787Z" fill="#FAFAFA"/>
<path id="Vector_5" d="M52.7403 22.6216C53.2769 22.6216 53.8135 22.6216 54.2734 22.6965C54.7334 22.7714 55.1933 22.8463 55.4999 22.9212C55.8832 22.9961 56.2665 23.1459 56.5731 23.2208L56.8798 23.5954L56.7265 25.9924L56.3432 26.2171C55.9599 26.0673 55.5766 25.9924 55.1167 25.8426C54.7334 25.7676 54.3501 25.6927 53.8901 25.6178C53.4302 25.5429 52.9702 25.5429 52.5103 25.5429C51.8204 25.5429 51.2838 25.6178 50.9771 25.7677C50.6705 25.9175 50.5172 26.1422 50.5172 26.5167C50.5172 26.8912 50.6705 27.1909 51.0538 27.3407C51.4371 27.5654 51.8204 27.7152 52.357 27.865C52.8936 28.0148 53.4302 28.1647 54.1201 28.3894C54.7334 28.5392 55.3466 28.7639 55.8832 29.0635C56.4198 29.3632 56.8798 29.7377 57.1864 30.262C57.5697 30.7864 57.723 31.3856 57.723 32.2096C57.723 32.8838 57.5697 33.483 57.2631 33.9324C56.9564 34.4568 56.5731 34.8313 56.0365 35.2059C55.4999 35.5804 54.8867 35.8051 54.1968 35.9549C53.5068 36.1047 52.7403 36.2545 51.897 36.2545C51.2071 36.2545 50.5939 36.1796 50.0573 36.1047C49.5207 36.0298 49.0607 35.9549 48.6008 35.8051C48.1408 35.6553 47.6809 35.5055 47.2976 35.3557L46.991 34.9811L47.2209 32.8088L47.6042 32.5092C47.9875 32.659 48.4475 32.8088 48.8307 32.9587C49.214 33.0336 49.674 33.1834 50.2106 33.2583C50.7472 33.3332 51.2838 33.4081 51.8204 33.4081C52.587 33.4081 53.2002 33.3332 53.5068 33.1085C53.8135 32.9587 54.0434 32.659 54.0434 32.2845C54.0434 31.91 53.8901 31.6103 53.5068 31.3856C53.1236 31.1609 52.7403 31.0111 52.2037 30.8613C51.6671 30.7115 51.1305 30.5617 50.4406 30.4118C49.8273 30.262 49.214 30.0373 48.6774 29.7377C48.1408 29.4381 47.6809 29.0635 47.3742 28.6141C46.991 28.1647 46.8376 27.4905 46.8376 26.7414C46.8376 25.5429 47.2976 24.5691 48.2175 23.8201C49.214 22.9961 50.7472 22.6216 52.7403 22.6216Z" fill="#FAFAFA"/>
<path id="Vector_6" d="M68.1485 28.6891L72.9779 35.7303L72.6713 36.1048H69.2217L68.8384 35.8801L65.7721 31.3857L64.0856 33.2584V35.8052L63.7023 36.1797H60.9427L60.5594 35.8052V23.146L60.9427 22.7715H63.7023L64.0856 23.146V28.764L69.0684 22.9962L69.605 22.7715H72.6713L72.9779 23.146L68.1485 28.6891Z" fill="#FAFAFA"/>
<path id="Vector_7" d="M79.0338 23.146V35.7303L78.6505 36.1048H75.8908L75.5842 35.7303V23.146L75.8908 22.7715H78.6505L79.0338 23.146Z" fill="#FAFAFA"/>
<path id="Vector_8" d="M86.163 25.4681V28.1647H90.1492L90.5324 28.5393V30.4119L90.1492 30.7116H86.163V33.4831H92.9855L93.3688 33.8576V35.8052L92.9855 36.1797H83.02L82.7134 35.8052V23.146L83.02 22.7715H92.9855L93.3688 23.146V25.0936L92.9855 25.4681H86.163Z" fill="#FAFAFA"/>
<path id="Vector_9" d="M101.878 22.6216C102.414 22.6216 102.951 22.6216 103.411 22.6965C103.871 22.7714 104.331 22.8463 104.637 22.9212C105.021 22.9961 105.404 23.1459 105.711 23.2208L106.017 23.5954L105.787 25.9175L105.327 26.1422C104.944 25.9924 104.561 25.9175 104.101 25.7676C103.717 25.6927 103.334 25.6178 102.874 25.5429C102.414 25.468 101.954 25.468 101.494 25.468C100.805 25.468 100.268 25.5429 99.9613 25.6927C99.6546 25.8426 99.5013 26.0673 99.5013 26.4418C99.5013 26.8163 99.6547 27.116 100.038 27.2658C100.421 27.4905 100.805 27.6403 101.341 27.7901C101.878 27.9399 102.414 28.0897 103.104 28.3145C103.717 28.4643 104.331 28.689 104.867 28.9886C105.404 29.2882 105.864 29.6628 106.171 30.1871C106.554 30.7115 106.707 31.3107 106.707 32.1347C106.707 32.8088 106.554 33.4081 106.247 33.8575C105.941 34.3819 105.557 34.7564 105.021 35.1309C104.484 35.5055 103.871 35.7302 103.181 35.88C102.491 36.0298 101.724 36.1796 100.881 36.1796C100.191 36.1796 99.578 36.1047 99.0414 36.0298C98.5048 35.9549 98.0448 35.88 97.5849 35.7302C97.125 35.5804 96.665 35.4306 96.2817 35.2808L95.9751 34.9062L96.2051 32.7339L96.5884 32.4343C96.9716 32.5841 97.4316 32.7339 97.8149 32.8838C98.1982 32.9587 98.6581 33.1085 99.1947 33.1834C99.7313 33.2583 100.268 33.3332 100.805 33.3332C101.571 33.3332 102.184 33.2583 102.491 33.0336C102.798 32.8837 103.028 32.5841 103.028 32.2096C103.028 31.8351 102.874 31.5354 102.491 31.3107C102.108 31.086 101.724 30.9362 101.188 30.7864C100.651 30.6366 100.115 30.4867 99.4247 30.3369C98.8114 30.1871 98.1982 29.9624 97.6616 29.6628C97.125 29.3632 96.665 28.9886 96.3584 28.5392C95.9751 28.0897 95.8218 27.4156 95.8218 26.6665C95.8218 25.468 96.2817 24.4942 97.2016 23.7452C98.3515 22.9961 99.808 22.6216 101.878 22.6216Z" fill="#FAFAFA"/>
</g>
</g>
<g id="Group_3">
<path id="Vector_10" d="M23.9172 13.7828C23.7638 13.8577 23.6105 13.7079 23.6872 13.558C26.2935 10.2622 28.1333 6.96628 28.9765 4.11984C22.4607 1.3483 14.6416 2.5468 9.35224 7.71534C4.06287 12.9588 2.83635 20.5992 5.67268 26.9663C8.58566 26.1423 11.9586 24.3446 15.3315 21.7977C15.4848 21.7228 15.6381 21.8726 15.5615 22.0225C11.2687 26.8165 8.35569 31.2359 9.42889 32.3595C10.5021 33.4082 15.1015 30.6367 20.5442 25.9176C20.6209 25.8427 20.6975 25.9176 20.6209 25.9925C16.0981 30.8614 13.3384 34.7565 14.0283 35.5056C14.9482 36.4045 21.0042 31.985 27.5201 25.5431C34.0359 19.176 38.6354 13.2584 37.7155 12.3595C36.9489 11.6105 32.9627 14.382 27.98 18.8015C27.9033 18.8764 27.8267 18.8015 27.9033 18.7266C32.7328 13.4082 35.5691 8.91384 34.4959 7.86515C33.4227 6.81646 28.8232 9.588 23.9172 13.7828Z" fill="#FAFAFA"/>
<path id="Vector_11" d="M32.8095 30.7116C30.6631 32.809 29.2832 34.8314 29.7432 35.2809C30.2031 35.7303 32.2729 34.382 34.4193 32.2846C36.5657 30.1873 37.9455 28.1648 37.4856 27.7153C37.0256 27.2659 34.9559 28.5393 32.8095 30.7116Z" fill="#FAFAFA"/>
<path id="Vector_12" d="M31.3081 29.2049C36.5769 24.0565 40.2414 19.29 39.493 18.5587C38.7446 17.8274 33.8667 21.4082 28.5979 26.5566C23.3291 31.705 19.6646 36.4715 20.413 37.2028C21.1614 37.9341 26.0393 34.3533 31.3081 29.2049Z" fill="#FAFAFA"/>
</g>
</g>
</svg>
