<svg width="133" height="28" viewBox="0 0 133 28" fill="none" xmlns="http://www.w3.org/2000/svg">
<path d="M125.717 18.4851H120.17V13.494H132.963C132.963 13.6539 132.986 13.8248 132.986 13.9979C132.986 17.7774 132.986 21.5569 133 25.3342C133 25.7548 132.863 25.9345 132.452 26.0506C129.36 26.9115 126.189 27.4896 122.983 27.7771C118.722 28.1917 114.421 28.0295 110.206 27.2951C107.468 26.8065 104.997 25.7614 103.208 23.5857C101.974 22.0871 101.312 20.3453 100.99 18.4807C100.437 15.3909 100.476 12.2299 101.107 9.15364C102.04 4.67086 104.915 1.98031 109.487 0.900149C111.983 0.30858 114.537 0.188074 117.09 0.0829064C122.171 -0.136193 127.189 0.398411 132.174 1.29891C132.286 1.32082 132.402 1.36464 132.553 1.41284C132.19 3.63451 131.829 5.83866 131.467 8.05376C130.136 7.83466 128.868 7.61556 127.588 7.42275C123.296 6.78736 118.988 6.52006 114.655 6.98455C114.148 7.03636 113.645 7.12128 113.149 7.23871C110.64 7.84342 109.15 9.37493 108.684 11.8069C108.354 13.4839 108.38 15.2078 108.762 16.8747C109.143 18.5267 110.179 19.6704 111.764 20.3672C113.489 21.1253 115.333 21.3093 117.195 21.3706C119.904 21.4277 122.612 21.217 125.277 20.7418C125.616 20.6849 125.733 20.5622 125.719 20.2335C125.699 19.6704 125.717 19.1073 125.717 18.4851Z" fill="#B0B0B0"/>
<path d="M77.7036 17.2392V27.4032H69.234V0.758512H77.6762V10.4668C78.2056 10.5808 78.6003 10.5369 79.0019 10.1667C82.2852 7.12555 85.5936 4.10636 88.8883 1.07401C89.0091 0.952394 89.1553 0.856712 89.3173 0.793268C89.4793 0.729823 89.6535 0.700056 89.8284 0.705926C93.4563 0.721263 97.0841 0.705926 100.888 0.705926L85.8857 13.7796L102.592 27.3923C102.398 27.4098 102.275 27.4339 102.149 27.4339C98.5216 27.4339 94.8937 27.4339 91.2659 27.4208C90.9703 27.4084 90.6873 27.3029 90.4604 27.1206C86.6546 23.9626 82.8586 20.7857 79.0726 17.5898C78.8965 17.4211 78.6773 17.2999 78.437 17.2384C78.1967 17.1768 77.9437 17.1771 77.7036 17.2392Z" fill="#B0B0B0"/>
<path d="M67.0003 27.4493H61.7023C60.8672 27.4493 60.0321 27.4318 59.1924 27.4493C59.036 27.4721 58.8763 27.4404 58.742 27.3601C58.6077 27.2797 58.5077 27.156 58.46 27.0111C57.844 25.6965 57.1846 24.4104 56.5594 23.1046C56.517 22.9874 56.4347 22.8874 56.3258 22.8206C56.2169 22.7538 56.0878 22.7242 55.9593 22.7365C51.1906 22.7453 46.4219 22.7453 41.6532 22.7365C41.529 22.7221 41.4034 22.7502 41.2987 22.816C41.1939 22.8817 41.1167 22.9808 41.0805 23.0958C40.4804 24.4301 39.8689 25.7601 39.2324 27.0791C39.1833 27.1711 39.1133 27.2513 39.0276 27.3139C38.9419 27.3765 38.8427 27.4198 38.7372 27.4406C36.1658 27.4625 33.5921 27.4559 31.0206 27.4537C30.9221 27.445 30.8244 27.4289 30.7285 27.4055C31.1415 26.5598 31.5363 25.7491 31.9355 24.9428C35.8403 17.0319 39.7419 9.11944 43.6405 1.20556C43.6946 1.0482 43.8036 0.913602 43.9491 0.824564C44.0947 0.735526 44.2678 0.697515 44.4391 0.716966C47.3293 0.737416 50.2247 0.737416 53.1255 0.716966C53.2814 0.698184 53.4393 0.731485 53.5726 0.811278C53.706 0.89107 53.8067 1.0125 53.8579 1.15517C58.155 9.75702 62.459 18.3538 66.7699 26.9454C66.8406 27.0791 66.9022 27.228 67.0003 27.4493ZM44.0672 16.9325H53.5567C51.9458 13.5957 50.3624 10.3223 48.7424 6.96131L44.0672 16.9325Z" fill="#B0B0B0"/>
<path d="M14.5834 27.9949C6.63174 27.9949 0.103875 21.7724 0.00119923 14.2704C-0.0237658 12.3954 0.341279 10.5344 1.07495 8.79657C1.80863 7.05874 2.89616 5.47901 4.27382 4.14998C5.65148 2.82095 7.29155 1.76935 9.0979 1.05682C10.9042 0.344286 12.8405 -0.0148459 14.7933 0.000470025C22.6491 0.0859189 29.1405 6.35436 29.1382 14.0053C29.1409 15.8421 28.7663 17.6613 28.036 19.3589C27.3057 21.0565 26.2339 22.5992 24.882 23.8986C23.5301 25.1979 21.9247 26.2286 20.1575 26.9315C18.3903 27.6344 16.4961 27.9957 14.5834 27.9949ZM6.93293 9.59047C4.23827 10.732 4.06942 13.3371 5.38823 15.2652C5.99294 16.1443 6.84951 16.8367 7.85472 17.259C8.00476 17.2987 8.13357 17.3915 8.21527 17.5187C8.29696 17.646 8.32547 17.7982 8.29508 17.9447C8.19697 19.4456 8.61451 20.793 9.70287 21.9105C10.9783 23.225 12.758 23.4442 14.3484 22.5195C14.4292 22.4823 14.5177 22.4629 14.6073 22.4629C14.697 22.4629 14.7855 22.4823 14.8663 22.5195C16.4133 23.4069 18.0606 23.247 19.3612 22.0397C20.5203 20.9596 20.9903 19.6055 20.9082 18.0959C20.8808 17.6161 20.9903 17.3904 21.4581 17.1845C22.5077 16.7279 23.3771 15.9599 23.9382 14.9935C25.1247 12.9821 24.6364 10.6947 22.4369 9.70002C22.3792 9.66444 22.3303 9.61718 22.2937 9.56154C22.257 9.5059 22.2335 9.44324 22.2247 9.37794C22.0581 6.90869 20.2967 5.49549 17.7366 5.77156C16.5884 5.9138 15.5034 6.35815 14.6016 7.05548C14.2006 6.79821 13.7864 6.56055 13.3604 6.34341C12.936 6.13742 12.4891 5.97723 12.0279 5.86577C9.48155 5.30707 6.7869 6.64577 6.93293 9.59047Z" fill="#B0B0B0"/>
<path d="M12.3976 12.6381C11.4994 12.9174 10.6847 13.4006 10.0226 14.0467C9.3604 14.6929 8.87035 15.4829 8.594 16.3497C7.07212 15.9663 5.74875 14.3537 5.71681 12.8748C5.69665 12.3216 5.88744 11.7805 6.25336 11.3528C6.61928 10.9252 7.13516 10.6406 7.70415 10.5523L8.32248 10.4471C8.27228 10.2587 8.24034 10.1207 8.19927 9.98265C7.76119 8.5344 8.48221 7.28553 10.0018 6.93716C11.3913 6.61728 12.612 7.02042 13.7597 7.85081C12.5687 9.26181 12.0485 10.8328 12.3976 12.6381Z" fill="#B0B0B0"/>
<path d="M15.382 7.84856C16.6347 6.97216 17.9329 6.55368 19.4092 7.01379C20.728 7.4257 21.3577 8.61979 20.9744 9.90372C20.9265 10.0593 20.8786 10.2148 20.8147 10.4296C21.0063 10.469 21.1798 10.5128 21.3554 10.5413C22.7769 10.7604 23.6554 11.9172 23.4089 13.2779C23.1078 14.794 22.081 15.7252 20.6618 16.3825C20.5454 16.1218 20.4519 15.8983 20.3469 15.6814C20.0437 15.0212 19.6076 14.4251 19.0637 13.9273C18.5198 13.4295 17.8789 13.0398 17.1777 12.7805C16.9838 12.7038 16.7487 12.6885 16.7967 12.3686C17.0476 10.6859 16.5274 9.20041 15.382 7.84856Z" fill="#B0B0B0"/>
<path d="M14.6107 20.7755C14.4054 20.9836 14.2365 21.1655 14.0563 21.3364C13.6605 21.7268 13.1297 21.9646 12.5639 22.0049C11.9982 22.0453 11.4366 21.8854 10.9851 21.5555C9.68687 20.6221 9.34004 19.3141 9.43359 17.7738C10.3191 17.9449 11.234 17.9151 12.1054 17.6869C12.9769 17.4586 13.7808 17.0383 14.4533 16.4592C15.3363 16.8821 16.1258 17.397 16.9996 17.638C17.8735 17.879 18.7976 17.8352 19.7376 17.9206C20.1369 19.2747 19.117 21.2991 17.6727 21.8513C17.2334 22.0118 16.7545 22.0445 16.2959 21.9451C15.8373 21.8457 15.4194 21.6188 15.0944 21.2926C14.9347 21.1304 14.7818 20.9595 14.6107 20.7755Z" fill="#B0B0B0"/>
<path d="M15.4138 15.6179L16.5136 13.6986C18.0195 14.1828 19.0234 15.1775 19.5436 16.6827C18.8168 16.8377 18.0618 16.8218 17.3428 16.6364C16.6238 16.4511 15.962 16.1016 15.4138 15.6179Z" fill="#B0B0B0"/>
<path d="M13.746 15.6113C12.6051 16.56 11.284 16.9741 9.75531 16.7068C9.83289 15.5565 11.1631 14.1872 12.6416 13.7271L13.746 15.6113Z" fill="#B0B0B0"/>
<path d="M14.5651 8.60669C15.5075 9.72848 15.8953 10.9248 15.6444 12.3204H13.5178C13.2235 10.9576 13.6502 9.76573 14.5651 8.60669Z" fill="#B0B0B0"/>
<path d="M13.7688 13.4138H15.3797L14.5834 14.8489L13.7688 13.4138Z" fill="#B0B0B0"/>
</svg>
