<svg width="97" height="60" viewBox="0 0 97 60" fill="none" xmlns="http://www.w3.org/2000/svg">
<path d="M39.3888 49.4287H35.4919V34.9988H32.8354V49.4287H28.9451V48.7697C28.9451 39.7423 28.9318 30.715 28.9651 21.6877C28.9615 20.8186 29.1231 19.9567 29.4416 19.1471C30.3714 16.8997 32.8785 15.8419 35.5334 16.4532C37.8281 16.9821 39.2477 18.661 39.3689 20.9957C39.3888 21.3895 39.3855 21.7849 39.3855 22.1787V49.4287H39.3888ZM32.8736 20.4306V31.0363H35.4438V20.4306H32.8736Z" fill="#B0B0B0"/>
<path d="M20.0223 35.0482H17.3458V49.4287H13.5137V16.641H17.3126V31.0264H20.0024V16.6641H23.881V49.4287H20.0273L20.0223 35.0482Z" fill="#B0B0B0"/>
<path d="M50.7556 5.49977L50.9582 5.87709L51.023 5.72385C51.3202 5.83918 51.6871 5.88861 51.8847 6.09786C51.9743 6.19507 51.7187 6.60533 51.4729 6.84094L51.7286 7.27427L52.1304 7.05184C51.8681 6.47023 51.9793 6.09128 52.7032 6.08469L52.6833 6.0682L53.1134 6.56248L53.5251 6.37137C53.3773 5.98912 53.1731 5.53602 53.8024 5.43386C54.0066 5.40091 54.2573 5.65465 54.5778 5.82435L55.0759 5.69583L55.0593 5.68101L55.5059 6.23956L55.8646 6.08632C55.9243 5.70736 55.9708 5.42727 56.0173 5.13893L56.8741 5.34161L56.8326 5.50637L57.4652 5.31854L57.4469 5.30535L57.8952 5.90838L58.3568 5.65959L58.204 5.61345L58.483 4.75669L59.4094 5.12246C59.7249 4.87697 60.057 4.9577 60.2529 5.5146L60.7759 5.28393C60.7062 5.08292 60.6365 4.88192 60.5684 4.68091L60.5518 4.70233L61.2691 4.37281C61.3521 4.63972 61.4351 4.90663 61.5198 5.17355L61.01 5.33831L61.3106 5.81777C61.7954 5.51955 62.1524 5.60027 62.3483 6.172L62.8364 5.96769C62.5575 5.48329 62.6056 5.09446 63.2416 4.90828L63.0124 4.81271L63.3694 4.00867C63.5604 4.09434 63.8576 4.13224 63.9223 4.27393C64.1049 4.67266 63.8509 4.88521 63.4358 4.96595L63.7314 5.48825L64.2411 5.26415L64.0867 5.22132L64.3009 4.37116L64.9451 4.56556L64.6828 5.37455L64.6296 5.36303C64.5715 5.57228 64.5831 5.87049 64.4453 5.97594C64.007 6.31535 63.8011 6.97604 63.1038 6.97604C63.0324 6.97604 62.8929 7.06667 62.8995 7.09138C63.0656 7.874 62.257 7.98934 61.9581 8.44902C61.8884 8.55612 61.6709 8.56435 61.5231 8.62531C61.4334 8.66156 61.279 8.69781 61.2674 8.75548C61.1113 9.63037 60.3957 9.99119 59.7598 10.4426C59.5672 10.5794 59.5041 10.8826 59.3297 11.0589C56.3212 14.0872 53.3076 17.1111 50.2891 20.1307C50.1015 20.3185 49.8906 20.4849 49.6249 20.7222C48.1987 19.2887 46.8123 17.8833 45.4126 16.4911C43.2823 14.3722 41.1239 12.2781 39.0169 10.1329C38.4025 9.50844 37.7401 8.93012 37.154 8.27766C37.0576 8.17057 37.0294 8.00417 36.9348 7.89542C36.8307 7.74894 36.6899 7.63194 36.5263 7.556C36.2042 7.45385 35.3276 6.49823 35.2562 6.13905C35.2213 5.9644 35.1233 5.80953 34.9722 5.7947L34.0889 5.3762C34.4625 4.72704 34.7348 4.74846 35.0719 5.25263H35.9419L36.171 5.81448C36.6177 5.36138 36.958 5.50307 37.2337 6.03525C37.7318 5.77163 38.0721 5.89191 38.2299 6.44551L38.6848 6.172C38.4739 5.43716 38.5769 5.27899 39.2958 5.21144L40.0778 5.42399C40.2588 5.63159 40.4381 5.84082 40.6175 6.04843C40.4514 6.37795 39.8371 6.59379 40.3186 7.09796L40.7503 6.81952C40.7005 6.54931 40.654 6.29393 40.6058 6.0402L41.2019 5.76834L41.016 5.6942L41.2451 4.90663L42.2413 5.23616C42.5335 5.01373 42.8789 5.14388 43.0931 5.69748C43.5463 5.40256 43.89 5.46847 44.0992 5.99241C44.5575 5.69749 44.9294 5.71561 45.1469 6.29722L45.6168 6.08962L45.3894 5.56733L45.3661 5.59203L46.0136 5.0681L45.9904 5.04668C46.6047 5.49813 46.6081 5.73045 46.002 6.22803L46.1896 6.65146L46.6595 6.42574C46.3424 5.66124 46.5599 5.39268 47.3851 5.49812H47.3751L47.5661 5.97759C48.0426 5.68266 48.4212 5.72385 48.5723 6.34171L49.0538 6.08139L48.8462 5.56403L48.7864 5.7288C48.5019 5.65869 48.2241 5.56386 47.9563 5.44541C47.9739 5.25591 48.0304 5.07199 48.1223 4.90498C48.4138 4.9491 48.7006 5.0197 48.979 5.11588L48.9359 5.28065L49.5668 5.09117L49.5436 5.07305L49.9686 5.5904L50.7739 5.50637L50.7556 5.49977Z" fill="#B0B0B0"/>
<path d="M54.9281 18.9872V19.7055C54.9281 28.0063 54.9281 36.3064 54.9281 44.6061C54.9281 46.5832 54.2191 48.2111 52.3794 49.1222C50.4086 50.1009 48.3946 50.0399 46.535 48.8322C45.0406 47.8651 44.5093 46.3509 44.5093 44.6407C44.5005 37.3362 44.5005 30.0317 44.5093 22.7273V19.4502L44.6837 19.3315C45.3196 20.0005 45.8791 20.7683 46.6064 21.3202C48.0642 22.4307 48.4627 23.7917 48.4328 25.604C48.3149 31.9919 48.3863 38.3847 48.3863 44.7758V45.5518H51.0429V44.7906C51.0429 37.6948 51.0395 30.5985 51.0329 23.5017C51.0218 23.2989 51.0565 23.0962 51.1343 22.9084C51.2122 22.7205 51.3312 22.5523 51.4829 22.4159C52.597 21.3334 53.6911 20.2196 54.9281 18.9872Z" fill="#B0B0B0"/>
<path d="M59.7398 16.6311H63.4142C63.7845 21.9958 64.1531 27.3407 64.5233 32.7119H65.4863C65.8184 27.3522 66.1355 22.0205 66.461 16.6492H70.2565C70.1935 17.3693 70.1403 18.0645 70.0722 18.7582C69.6682 22.8443 69.2631 26.9299 68.8569 31.0149C68.3709 35.905 67.8817 40.793 67.3891 45.6787C67.2828 46.7315 67.1633 47.7844 67.1052 48.8389C67.077 49.3562 66.8794 49.4979 66.3796 49.4814C65.2539 49.4452 64.1265 49.4699 62.9377 49.4699C61.8701 38.5181 60.8091 27.6076 59.7398 16.6311Z" fill="#B0B0B0"/>
<path d="M3.89687 45.5568H6.53518V40.9434H10.3656C10.3998 41.0114 10.4233 41.0842 10.4354 41.1593C10.4354 42.4461 10.4819 43.7345 10.4204 45.018C10.271 48.1386 7.84188 50.04 4.63904 49.7253C1.66865 49.4336 0.00166036 47.5059 0 44.5501C0 36.8513 0 29.153 0 21.4553C0 19.3909 0.810252 17.7416 2.76616 16.809C5.2567 15.6211 8.50105 16.5207 9.76459 18.7549C10.017 19.2014 10.2826 19.7105 10.3025 20.1998C10.369 21.8293 10.3274 23.4621 10.3274 25.1295H6.55344V20.5162H3.89687V45.5568Z" fill="#B0B0B0"/>
<path d="M84.0292 16.6723V20.4618H77.504V31.089H82.6843V34.979H77.5023V45.593H84.0093V49.4287C83.7802 49.4419 83.5411 49.4666 83.302 49.4666C81.148 49.4666 78.9945 49.4666 76.8415 49.4666C74.9836 49.4666 73.7981 48.3825 73.6304 46.5338C73.6138 46.3476 73.6121 46.1615 73.6121 45.9736C73.6121 37.3236 73.6121 28.673 73.6121 20.0219C73.6121 18.9378 73.9077 17.9459 74.7578 17.2374C75.133 16.9244 75.6726 16.641 76.1425 16.6295C78.6928 16.5718 81.2431 16.6031 83.7935 16.6064C83.874 16.6209 83.9529 16.643 84.0292 16.6723Z" fill="#B0B0B0"/>
<path d="M89.2943 20.4981H86.5829V16.6492H95.7149V20.4898H93.0583V49.4287H89.2959L89.2943 20.4981Z" fill="#B0B0B0"/>
<path d="M79.9664 59.873C79.2358 59.873 78.5468 59.9027 77.8627 59.8549C77.6668 59.8417 77.436 59.6374 77.3098 59.4594C76.4032 58.1743 75.5183 56.8743 74.5171 55.4178V59.8269H72.1378V51.6365C72.8633 51.6365 73.569 51.6102 74.2697 51.6563C74.444 51.6678 74.6449 51.8837 74.7678 52.0534C75.671 53.3451 76.5576 54.65 77.5588 56.1098V51.681H79.978L79.9664 59.873Z" fill="#B0B0B0"/>
<path d="M16.318 59.873C15.3433 59.873 14.5281 59.8977 13.7178 59.8565C13.6048 59.8351 13.4977 59.7902 13.4033 59.7249C13.3089 59.6596 13.2294 59.5754 13.1699 59.4776C12.7332 58.7477 12.3397 57.9947 11.9363 57.2434C11.6905 56.7969 11.3651 56.4773 10.7259 56.5843V59.8351H8.14899V51.6431C9.34113 51.6431 10.525 51.6332 11.7071 51.6431C12.3728 51.6306 13.0386 51.6642 13.6996 51.7436C14.8901 51.9282 15.4712 52.5773 15.5957 53.7208C15.6524 54.2203 15.5411 54.7243 15.2793 55.1545C15.0175 55.5848 14.6197 55.9172 14.1479 56.1C14.0532 56.1395 13.9536 56.1642 13.7826 56.2186C15.1873 57.0506 15.4562 58.5582 16.318 59.873ZM10.7524 55.0109C11.3336 54.9647 11.8466 54.9417 12.353 54.8758C12.7847 54.8181 13.0039 54.5331 13.0022 54.1031C13.0112 54.0095 13.0005 53.9151 12.9706 53.8259C12.9408 53.7368 12.8925 53.6547 12.8289 53.5851C12.7653 53.5155 12.6878 53.4598 12.6013 53.4216C12.5148 53.3834 12.4212 53.3635 12.3265 53.3632C11.8167 53.327 11.302 53.355 10.7524 53.355V55.0109Z" fill="#B0B0B0"/>
<path d="M20.5669 59.9949C17.8405 59.9867 16.2848 58.4461 16.2864 55.7523C16.2881 53.0584 17.902 51.4866 20.6515 51.508C23.4011 51.5294 24.9353 53.0782 24.9153 55.7737C24.8938 58.5285 23.3745 60.0031 20.5669 59.9949ZM22.3468 55.7556C22.2986 55.4046 22.2787 55.0504 22.1973 54.711C21.9997 53.9004 21.4601 53.472 20.6432 53.4357C19.8612 53.4011 19.1805 53.8114 19.0476 54.6336C18.925 55.4233 18.9345 56.2277 19.0758 57.0144C19.207 57.7558 19.9226 58.1479 20.6864 58.1133C21.4502 58.0787 22.0147 57.6471 22.1807 56.8628C22.2671 56.502 22.2936 56.1296 22.3468 55.7556Z" fill="#B0B0B0"/>
<path d="M66.705 59.9949C64.4519 59.9949 63.1485 59.1595 62.569 57.4213C61.9165 55.4656 62.4628 53.3022 63.8724 52.2725C65.8649 50.8127 69.2852 51.4091 70.4109 53.411C71.4238 55.2118 70.9505 58.0705 69.4479 59.2254C68.6094 59.8697 67.6365 60.0328 66.705 59.9949ZM68.3869 55.7391C68.3322 55.3898 68.3039 54.9943 68.206 54.617C68.02 53.9003 67.4588 53.4818 66.695 53.439C66.3475 53.406 65.9991 53.4924 65.7081 53.6837C65.417 53.8751 65.201 54.1597 65.0961 54.4902C64.8134 55.2772 64.7994 56.1346 65.0563 56.9303C65.1493 57.2955 65.3711 57.6156 65.6815 57.8326C65.9918 58.0496 66.3702 58.1492 66.7482 58.1133C67.5551 58.0589 68.0682 57.6009 68.2342 56.7672C68.2989 56.4443 68.3322 56.1147 68.3869 55.7391Z" fill="#B0B0B0"/>
<path d="M40.3551 53.383H36.1477V54.7143H40.0645V56.3833H36.1361V57.9766H40.4613V59.8367H33.5526V51.6711H40.36L40.3551 53.383Z" fill="#B0B0B0"/>
<path d="M49.776 57.1512L52.2184 56.9864C52.3844 57.8844 52.8493 58.4396 53.824 58.3721C54.2955 58.3391 54.704 58.1842 54.7936 57.6619C54.8833 57.1396 54.5296 56.8941 54.1095 56.759C53.3773 56.5234 52.6152 56.3619 51.8913 56.1C50.7058 55.6815 50.1363 54.9466 50.1313 53.9416C50.1133 53.3828 50.3086 52.8379 50.678 52.4157C51.0473 51.9936 51.5637 51.7253 52.1238 51.6646C53.0716 51.5292 54.0338 51.5248 54.9829 51.6514C56.2315 51.8162 56.8624 52.6103 57.0218 53.9581C56.3195 54.0026 55.6205 54.0684 54.9198 54.0734C54.7886 54.0734 54.6143 53.8592 54.528 53.7043C54.2191 53.154 53.5649 52.869 52.9921 53.1244C52.7995 53.21 52.5654 53.4539 52.5588 53.6351C52.5521 53.8164 52.7846 54.0817 52.9689 54.1443C53.7791 54.4128 54.6292 54.5891 55.4312 54.856C56.7595 55.2959 57.3506 56.0918 57.319 57.3126C57.2891 58.4792 56.4888 59.6193 55.2403 59.7923C54.0899 59.9629 52.9195 59.9496 51.7734 59.7527C50.4817 59.527 49.9902 58.4462 49.776 57.1512Z" fill="#B0B0B0"/>
<path d="M43.812 56.9962C44.2536 58.138 44.6421 58.4461 45.4989 58.3687C45.9422 58.3291 46.3291 58.1841 46.427 57.6898C46.525 57.1955 46.1962 56.9089 45.7778 56.7688C45.1867 56.5695 44.5741 56.4393 43.9747 56.2548C43.7138 56.1818 43.4595 56.0876 43.2142 55.973C42.1317 55.4524 41.6551 54.6895 41.7597 53.6664C41.8099 53.1744 42.0236 52.7131 42.3673 52.3551C42.7109 51.9971 43.1649 51.7628 43.6575 51.6892C44.7041 51.5418 45.7665 51.5446 46.8122 51.6975C47.9745 51.877 48.6038 52.8014 48.6154 53.9613L46.3473 54.0898C46.2859 53.9745 46.2178 53.8526 46.1547 53.729C45.8592 53.1474 45.2332 52.8623 44.6455 53.1144C44.5306 53.1669 44.4286 53.2434 44.3463 53.3386C44.2641 53.4339 44.2036 53.5457 44.1689 53.6664C44.1457 53.8031 44.4246 54.0848 44.6206 54.1491C45.4707 54.4259 46.3556 54.6038 47.2008 54.8971C48.5822 55.3766 49.1932 56.4525 48.8777 57.82C48.6154 58.9404 47.835 59.6736 46.7292 59.8252C45.6775 59.9647 44.6114 59.9592 43.5612 59.8087C42.3259 59.6308 41.5074 58.4807 41.4841 57.1495C41.866 57.1198 42.2529 57.0852 42.6464 57.0588C43.0399 57.0325 43.4334 57.0193 43.812 56.9962Z" fill="#B0B0B0"/>
<path d="M89.6263 59.8713C88.7961 59.8713 88.0274 59.8994 87.2603 59.8499C87.1059 59.8384 86.8718 59.5534 86.8419 59.3688C86.7273 58.6439 86.3338 58.4 85.6331 58.5203C85.426 58.5483 85.216 58.5483 85.0088 58.5203C84.1786 58.4363 83.4248 58.4676 83.3352 59.5731C83.3269 59.6819 83.0895 59.8516 82.9533 59.8565C82.2244 59.8845 81.4938 59.8697 80.6603 59.8697C80.8596 59.3145 81.0289 58.8202 81.2149 58.3308C81.9986 56.2565 82.7989 54.1887 83.5643 52.1078C83.7038 51.7288 83.8964 51.597 84.2882 51.6234C84.8094 51.6613 85.3327 51.6613 85.854 51.6234C86.3653 51.5805 86.6277 51.7436 86.8103 52.2462C87.6571 54.5528 88.5487 56.8595 89.4188 59.1662C89.4984 59.3787 89.5466 59.5978 89.6263 59.8713ZM85.1168 53.8378C84.8362 54.7604 84.5971 55.5447 84.363 56.3306C84.3335 56.4562 84.3108 56.5832 84.2949 56.7112H85.9967C85.8772 56.2828 85.7743 55.8874 85.6547 55.4953C85.497 54.9862 85.326 54.482 85.1168 53.8378Z" fill="#B0B0B0"/>
<path d="M2.77779 56.843V59.8087H0.229126V51.7024C1.91605 51.7024 3.60465 51.6003 5.27497 51.7354C6.55013 51.8408 7.18605 52.7701 7.2176 54.0849C7.24748 55.431 6.63314 56.3339 5.41776 56.6535C4.99283 56.7554 4.55926 56.8177 4.12268 56.8397C3.70925 56.871 3.2925 56.843 2.77779 56.843ZM2.79605 55.1229C3.46019 55.1229 4.16917 55.3107 4.55438 54.6615C4.62065 54.5078 4.64947 54.3407 4.63851 54.1738C4.62755 54.0069 4.57711 53.8449 4.49128 53.701C4.07287 53.1556 3.42533 53.3006 2.79605 53.3352V55.1229Z" fill="#B0B0B0"/>
<path d="M26.0909 51.6695H32.3538V53.383H28.6711V54.8659H31.7909V56.5036H28.6479V59.8499H26.0892L26.0909 51.6695Z" fill="#B0B0B0"/>
<path d="M93.0417 57.843H97V59.83H90.513V51.6809H93.0417V57.843Z" fill="#B0B0B0"/>
<path d="M58.7187 59.8252V51.6826H61.2541V59.8252H58.7187Z" fill="#B0B0B0"/>
<path d="M40.0745 5.43709L39.2925 5.22454C39.1846 5.10262 38.977 4.97576 38.987 4.86372C39.0019 4.65282 39.1314 4.28375 39.2327 4.27881C39.4718 4.26398 39.7225 4.42215 39.9699 4.50948L39.9267 4.70883C40.0064 4.6627 40.0928 4.57045 40.1675 4.57868C40.3777 4.57948 40.585 4.62794 40.7735 4.72038C40.8565 4.7731 40.8814 5.12075 40.8267 5.15205C40.5857 5.27065 40.3338 5.3661 40.0745 5.43709Z" fill="#B0B0B0"/>
<path d="M40.3385 3.51442C40.5975 3.46829 40.9246 3.35791 41.1155 3.77641C41.177 3.91151 40.9777 4.32505 40.9379 4.31846C40.6682 4.26956 40.4078 4.17952 40.1658 4.05155L39.3506 3.88679C39.3954 3.68742 39.4419 3.48641 39.4867 3.2854L40.3385 3.51442Z" fill="#B0B0B0"/>
<path d="M50.7655 5.4997C50.734 5.47499 50.6875 5.45687 50.6709 5.42392C50.5364 5.20694 50.4304 4.97383 50.3554 4.73026C50.3438 4.67753 50.7655 4.43698 50.817 4.47981C50.992 4.66365 51.1417 4.86977 51.262 5.09274L51.2752 5.07462L50.7539 5.49805L50.7655 5.4997Z" fill="#B0B0B0"/>
<path d="M44.3284 5.29218C43.6742 5.56569 43.4982 5.47179 43.4002 4.78802L43.3836 4.80779L44.0295 4.47827L44.0079 4.45685L44.3267 5.31195L44.3284 5.29218Z" fill="#B0B0B0"/>
<path d="M46.0053 5.06475C45.6483 4.35133 45.8143 4.09265 46.6046 4.13054H46.5947C46.9268 4.8209 46.774 5.04334 45.982 5.04828L46.0053 5.06475Z" fill="#B0B0B0"/>
<path d="M51.262 5.09277C51.3069 5.05652 51.3484 5.00215 51.4015 4.98567C51.6124 4.92306 51.8432 4.80279 52.0358 4.84398C52.1453 4.86869 52.2848 5.18668 52.2483 5.33002C52.2118 5.47336 51.9395 5.69745 51.8299 5.66779C51.6389 5.61671 51.4878 5.40416 51.3318 5.24764C51.2936 5.20974 51.2952 5.13395 51.2786 5.08288L51.262 5.09277Z" fill="#B0B0B0"/>
<path d="M35.9535 5.25915C35.8738 5.19489 35.7592 5.1471 35.7194 5.06307C35.6314 4.87689 35.5152 4.66599 35.5384 4.48145C35.5773 4.40578 35.6351 4.34133 35.7063 4.29429C35.7776 4.24725 35.8599 4.21921 35.9452 4.21289C36.1245 4.26232 36.2773 4.45181 36.4134 4.60175C36.4583 4.64953 36.4333 4.7665 36.44 4.84229L36.4616 4.82087C36.2955 4.96586 36.1129 5.11086 35.9419 5.25585L35.9535 5.25915Z" fill="#B0B0B0"/>
<path d="M45.381 5.564C44.9194 5.88199 44.5906 5.71227 44.3283 5.28884C44.3283 5.28884 44.3283 5.30531 44.3283 5.30696L45.0721 4.82916C45.1684 5.0829 45.2647 5.33498 45.3594 5.58871L45.381 5.564Z" fill="#B0B0B0"/>
<path d="M52.7115 6.08471C52.6968 6.06961 52.6845 6.05238 52.675 6.03362C52.5823 5.79362 52.5182 5.54367 52.4841 5.28889C52.4841 5.23781 52.8577 5.07964 52.9971 5.12413C53.1366 5.16861 53.3408 5.52615 53.301 5.57558C53.1186 5.76236 52.9133 5.92567 52.69 6.06164L52.7115 6.08471Z" fill="#B0B0B0"/>
<path d="M49.9338 4.10254C50.0085 4.33156 50.1795 4.58859 50.1247 4.77971C50.0832 4.91976 49.7412 4.97248 49.5353 5.06639L49.5585 5.08452C49.4772 4.85055 49.3028 4.59023 49.3476 4.38922C49.3759 4.26236 49.7378 4.20634 49.9487 4.11901L49.9338 4.10254Z" fill="#B0B0B0"/>
<path d="M37.4229 5.40914C36.8899 5.55413 36.5147 5.4454 36.4615 4.82095L36.4399 4.84237L37.2402 4.6051L37.4245 5.41574L37.4229 5.40914Z" fill="#B0B0B0"/>
<path d="M54.9297 4.90989C54.5578 5.11914 54.3503 5.33168 54.1859 5.30202C54.0215 5.27237 53.8804 5.01038 53.7293 4.85056C53.8953 4.70392 54.0614 4.45678 54.2274 4.44195C54.3935 4.42712 54.5827 4.66274 54.9297 4.90989Z" fill="#B0B0B0"/>
<path d="M57.4651 5.32512C57.3755 5.21473 57.1995 5.08951 57.2161 4.99559C57.2803 4.78435 57.3707 4.58181 57.485 4.39258C57.6843 4.48649 58.0014 4.54087 58.0496 4.68421C58.0977 4.82755 57.925 5.09446 57.7989 5.27075C57.754 5.33501 57.5681 5.29876 57.4469 5.30865L57.4651 5.32512Z" fill="#B0B0B0"/>
<path d="M47.3767 5.49481C47.2904 5.44044 47.1476 5.40254 47.126 5.33005C47.0659 5.09004 47.0194 4.84693 46.9865 4.60181L47.6507 4.57214C47.6403 4.81983 47.6164 5.06678 47.5793 5.31192C47.566 5.38442 47.4365 5.43385 47.3601 5.49481H47.3767Z" fill="#B0B0B0"/>
<path d="M63.8193 4.04817C63.6217 3.77961 63.376 3.58519 63.4059 3.45338C63.4474 3.26885 63.6964 3.12387 63.8558 2.97229C64.0053 3.13705 64.2443 3.30181 64.2726 3.4814C64.2942 3.62474 64.0351 3.7895 63.8193 4.04817Z" fill="#B0B0B0"/>
<path d="M61.5197 5.17851C61.5729 5.09118 61.6077 4.95937 61.6858 4.92807C61.9202 4.8438 62.1591 4.77229 62.4014 4.71387L62.4678 5.41246C62.2187 5.39433 61.9697 5.39104 61.7239 5.35315C61.6476 5.33996 61.5861 5.23452 61.5181 5.17191L61.5197 5.17851Z" fill="#B0B0B0"/>
<path d="M60.5684 4.68749C60.5202 4.72538 60.4771 4.79129 60.4256 4.79788C60.1998 4.82589 59.959 4.89014 59.7615 4.83248C59.6701 4.80612 59.5689 4.47989 59.627 4.36456C59.6984 4.21792 59.9673 4.03503 60.0802 4.07293C60.2712 4.13883 60.4123 4.35961 60.5618 4.52767C60.5916 4.56227 60.5618 4.6463 60.5618 4.70891L60.5684 4.68749Z" fill="#B0B0B0"/>
<path d="M52.1818 3.49628C52.3828 3.8604 52.582 4.05976 52.5637 4.23771C52.5291 4.33234 52.4699 4.41619 52.392 4.48073C52.3141 4.54526 52.2204 4.58818 52.1204 4.60512C52.0222 4.57735 51.9329 4.52459 51.8616 4.45205C51.7902 4.37951 51.7392 4.2897 51.7136 4.19157C51.7153 4.01198 51.9394 3.83569 52.1818 3.49628Z" fill="#B0B0B0"/>
<path d="M37.4246 5.41574C37.4777 5.33007 37.5142 5.19002 37.5906 5.16695C37.8346 5.1027 38.0818 5.05101 38.3311 5.01208L38.361 5.67113C38.1121 5.66214 37.8639 5.64069 37.6172 5.60687C37.5441 5.59369 37.4893 5.47342 37.4246 5.40422V5.41574Z" fill="#B0B0B0"/>
<path d="M43.4002 4.78797C43.1394 4.88279 42.8696 4.95124 42.595 4.99228C42.5418 4.99228 42.3758 4.63804 42.4206 4.49799C42.4654 4.35794 42.8108 4.15528 42.8506 4.18659C43.0482 4.37674 43.2262 4.58591 43.382 4.81102L43.4002 4.78797Z" fill="#B0B0B0"/>
<path d="M54.5545 3.19141C54.762 3.50281 54.9978 3.70382 54.9629 3.83398C54.923 3.93723 54.8598 4.03001 54.778 4.10514C54.6962 4.18027 54.5982 4.23576 54.4914 4.26731C54.3868 4.29038 54.0945 3.99214 54.0979 3.84386C54.1012 3.66427 54.3303 3.49127 54.5545 3.19141Z" fill="#B0B0B0"/>
<path d="M46.6047 4.13055C46.4951 4.03663 46.3191 3.96579 46.2909 3.84716C46.2636 3.64596 46.2636 3.44204 46.2909 3.24084L46.955 3.26884C46.965 3.47154 46.9494 3.67468 46.9085 3.87353C46.872 3.98062 46.696 4.03829 46.5848 4.12562L46.6047 4.13055Z" fill="#B0B0B0"/>
<path d="M36.1875 4.15204C36.073 3.9741 35.8555 3.79451 35.8704 3.62151C35.8969 3.52614 35.9481 3.43932 36.0189 3.36966C36.0896 3.3 36.1776 3.24992 36.2739 3.22443C36.3716 3.24327 36.4627 3.2873 36.5379 3.35208C36.613 3.41686 36.6697 3.50013 36.7023 3.59351C36.7222 3.75827 36.5263 3.96093 36.4233 4.14546L36.1875 4.15204Z" fill="#B0B0B0"/>
<path d="M56.605 3.85046C56.8309 4.16516 57.0633 4.35463 57.0334 4.48315C56.998 4.5845 56.9397 4.67643 56.8628 4.75185C56.7859 4.82727 56.6926 4.88415 56.5901 4.91812C56.4872 4.94283 56.1983 4.66768 56.1916 4.52104C56.1866 4.34968 56.3958 4.16846 56.605 3.85046Z" fill="#B0B0B0"/>
<path d="M62.4578 4.70721C62.2436 4.41558 62.0162 4.24259 62.0112 4.06136C62.0112 3.91801 62.3034 3.63133 62.418 3.65275C62.5241 3.68415 62.6213 3.73966 62.702 3.81488C62.7827 3.89009 62.8446 3.98296 62.8829 4.08607C62.9161 4.21459 62.6737 4.41229 62.4578 4.70721Z" fill="#B0B0B0"/>
<path d="M39.0003 4.39092C38.6682 4.58205 38.469 4.78799 38.288 4.77316C38.1435 4.76163 37.8829 4.44365 37.9177 4.33161C37.9607 4.23142 38.0268 4.14265 38.1107 4.07252C38.1947 4.00239 38.2941 3.95286 38.4009 3.92793C38.537 3.90816 38.7114 4.15531 39.0003 4.39092Z" fill="#B0B0B0"/>
<path d="M55.0758 5.69915C54.9928 5.60853 54.8301 5.50638 54.8417 5.43059C54.8654 5.19392 54.9494 4.96713 55.0858 4.77154C55.1339 4.71552 55.6171 4.8803 55.6188 4.95115C55.6066 5.19057 55.5347 5.42325 55.4096 5.62832C55.3764 5.69093 55.1788 5.6662 55.0576 5.68103L55.0758 5.69915Z" fill="#B0B0B0"/>
<path d="M45.8791 4.19153C45.6168 4.41891 45.4474 4.6743 45.313 4.65783C45.1253 4.63476 44.961 4.40904 44.7866 4.27064C44.941 4.10588 45.0705 3.87025 45.2532 3.82247C45.3877 3.78952 45.5886 4.00865 45.8791 4.19153Z" fill="#B0B0B0"/>
<path d="M51.7319 3.86535C51.4646 4.08284 51.2952 4.32505 51.1624 4.30527C50.9781 4.27891 50.8204 4.05814 50.651 3.92139C50.8054 3.75662 50.9349 3.5243 51.1176 3.47487C51.2437 3.44191 51.443 3.67093 51.7319 3.86535Z" fill="#B0B0B0"/>
<path d="M44.0295 4.47324C43.988 4.40569 43.9498 4.33648 43.9033 4.27387C43.6941 3.99377 43.6924 3.7005 44.0295 3.57528C44.1839 3.51761 44.428 3.70051 44.6322 3.773C44.5043 3.9872 44.3865 4.20633 44.242 4.40898C44.2088 4.45512 44.0876 4.43864 44.0062 4.45182L44.0295 4.47324Z" fill="#B0B0B0"/>
<path d="M49.9487 4.11907C49.8756 4.02516 49.7395 3.93125 49.7378 3.83733C49.7489 3.61543 49.7794 3.39491 49.8291 3.17828L50.4783 3.3282C50.4248 3.54154 50.3514 3.74949 50.2591 3.94936C50.2143 4.03174 50.045 4.04492 49.9271 4.0927L49.9487 4.11907Z" fill="#B0B0B0"/>
<path d="M34.5455 3.98234C34.2284 4.20147 34.0474 4.41565 33.8814 4.41894C33.7369 4.41894 33.4497 4.13885 33.4729 4.0367C33.5044 3.93493 33.559 3.84165 33.6323 3.76398C33.7057 3.6863 33.796 3.6263 33.8963 3.58855C34.0242 3.5556 34.2201 3.77638 34.5455 3.98234Z" fill="#B0B0B0"/>
<path d="M55.7002 3.64124C55.8097 3.82577 56.0123 4.01525 56.0007 4.19319C55.9681 4.28685 55.9114 4.37047 55.8363 4.43577C55.7611 4.50106 55.6702 4.54579 55.5723 4.56555C55.4765 4.54203 55.3886 4.4941 55.3173 4.42647C55.2459 4.35885 55.1936 4.27388 55.1655 4.18002C55.1655 4.00207 55.3598 3.81753 55.4727 3.63629L55.7002 3.64124Z" fill="#B0B0B0"/>
<path d="M65.5527 3.85543C65.1592 4.02019 64.945 4.19649 64.769 4.16189C64.6796 4.11935 64.6028 4.05444 64.5464 3.97355C64.4899 3.89266 64.4556 3.79857 64.4469 3.70054C64.4814 3.60751 64.5399 3.52507 64.6165 3.46146C64.6931 3.39786 64.7852 3.35532 64.8836 3.33807C65.0646 3.3562 65.2223 3.58522 65.5527 3.85543Z" fill="#B0B0B0"/>
<path d="M61.5446 3.25904C61.6476 3.44357 61.8402 3.63634 61.8253 3.81099C61.7944 3.90377 61.7395 3.98687 61.6661 4.05194C61.5926 4.11701 61.5032 4.16176 61.4068 4.1817C61.3095 4.15877 61.22 4.11072 61.1474 4.04244C61.0748 3.97416 61.0217 3.88807 60.9934 3.79287C60.9934 3.61492 61.1993 3.43368 61.3155 3.25244L61.5446 3.25904Z" fill="#B0B0B0"/>
<path d="M58.634 3.77804C58.3368 4.00541 58.1558 4.24431 58.0197 4.22289C57.9157 4.19345 57.8204 4.13981 57.7415 4.06645C57.6627 3.99309 57.6027 3.90211 57.5664 3.80109C57.5398 3.6841 57.8038 3.38095 57.9449 3.37601C58.1276 3.36942 58.3169 3.57867 58.634 3.77804Z" fill="#B0B0B0"/>
<path d="M43.196 4.31179C42.9652 3.95096 42.7577 3.76807 42.7627 3.59013C42.7908 3.49513 42.8437 3.40916 42.916 3.3409C42.9883 3.27263 43.0774 3.22449 43.1744 3.20129C43.2723 3.22045 43.3634 3.26475 43.4386 3.32981C43.5137 3.39487 43.5704 3.4784 43.6028 3.57201C43.6144 3.74995 43.4135 3.94108 43.196 4.31179Z" fill="#B0B0B0"/>
<path d="M60.3226 2.81091C60.5683 3.10089 60.8207 3.2706 60.8024 3.40735C60.7792 3.59353 60.5517 3.75499 60.4106 3.92799C60.2528 3.79453 59.9839 3.67261 59.9656 3.52268C59.944 3.34638 60.1433 3.14373 60.3226 2.81091Z" fill="#B0B0B0"/>
<path d="M35.5584 4.35472C35.2379 4.55903 35.0503 4.77157 34.8726 4.76498C34.7282 4.76498 34.4609 4.46181 34.4858 4.34483C34.5208 4.2432 34.5797 4.15133 34.6577 4.07683C34.7357 4.00233 34.8304 3.94735 34.9341 3.91645C35.0685 3.89174 35.2528 4.129 35.5584 4.35472Z" fill="#B0B0B0"/>
<path d="M48.7266 3.57861C48.9242 3.90814 49.1301 4.10091 49.1152 4.27391C49.1035 4.42219 48.8395 4.55236 48.6868 4.68911C48.5407 4.52435 48.3099 4.37936 48.2783 4.19482C48.2601 4.06301 48.4975 3.88507 48.7266 3.57861Z" fill="#B0B0B0"/>
<path d="M53.1731 5.17353C52.9556 4.86707 52.7331 4.68913 52.7381 4.51448C52.7431 4.33983 53.032 4.08444 53.1432 4.10915C53.2479 4.1417 53.3434 4.19796 53.4224 4.27345C53.5013 4.34894 53.5615 4.44159 53.5982 4.54413C53.6314 4.67099 53.394 4.86542 53.1731 5.17353Z" fill="#B0B0B0"/>
<path d="M59.0425 3.46002C59.245 3.83733 59.436 4.0334 59.4194 4.21135C59.385 4.30339 59.3269 4.38486 59.2509 4.44761C59.1748 4.51036 59.0835 4.55217 58.986 4.56887C58.8906 4.54298 58.8037 4.49268 58.7341 4.42299C58.6644 4.3533 58.6145 4.26667 58.5892 4.17179C58.5892 3.9889 58.8 3.81261 59.0425 3.46002Z" fill="#B0B0B0"/>
<path d="M37.9857 3.95427C37.6753 4.18659 37.5059 4.41232 37.3316 4.41562C37.1572 4.41891 37.0244 4.17011 36.8716 4.03171C37.0211 3.86695 37.1473 3.63134 37.3266 3.58191C37.4578 3.54401 37.6603 3.75821 37.9857 3.95427Z" fill="#B0B0B0"/>
<path d="M48.3763 3.89333C48.011 4.11081 47.8218 4.31182 47.6441 4.30358C47.5493 4.27341 47.4641 4.21925 47.3969 4.14644C47.3296 4.07364 47.2826 3.98469 47.2606 3.88838C47.2828 3.7912 47.3304 3.70153 47.3986 3.62836C47.4668 3.5552 47.5532 3.50111 47.6491 3.47152C47.8251 3.45999 48.0127 3.66925 48.3763 3.89333Z" fill="#B0B0B0"/>
<path d="M42.4654 4.31018C42.1433 4.51613 41.9424 4.73856 41.8145 4.70396C41.7135 4.66637 41.623 4.60556 41.5502 4.52651C41.4775 4.44746 41.4247 4.35244 41.3961 4.24922C41.3762 4.13553 41.6635 3.85709 41.8079 3.86038C41.9839 3.86368 42.1566 4.08445 42.4654 4.31018Z" fill="#B0B0B0"/>
<path d="M65.9296 3.42047C66.1256 3.70057 66.3647 3.91475 66.3248 4.01361C66.2484 4.20309 66.011 4.32995 65.84 4.48318C65.7155 4.31842 65.4946 4.16848 65.4946 4.00866C65.4946 3.84884 65.7138 3.69398 65.9296 3.42047Z" fill="#B0B0B0"/>
<path d="M42.7892 3.23432C42.497 3.4518 42.3409 3.65281 42.1732 3.66599C42.0404 3.66599 41.7631 3.43533 41.7764 3.33647C41.794 3.23864 41.835 3.14644 41.896 3.0676C41.9569 2.98876 42.0361 2.92558 42.1267 2.88337C42.2745 2.85207 42.4704 3.05308 42.7892 3.23432Z" fill="#B0B0B0"/>
<path d="M38.2431 3.00032C37.9941 3.16508 37.8147 3.38752 37.6952 3.35786C37.5292 3.31502 37.3996 3.09424 37.2552 2.9509C37.4212 2.82074 37.5607 2.62137 37.735 2.59006C37.8562 2.57194 38.0123 2.80096 38.2431 3.00032Z" fill="#B0B0B0"/>
<path d="M37.2519 2.60978C36.9596 2.81408 36.7969 3.01015 36.6259 3.01838C36.4981 3.01838 36.2374 2.76961 36.2523 2.66086C36.2732 2.56432 36.318 2.47445 36.3826 2.39938C36.4473 2.3243 36.5297 2.26638 36.6226 2.23084C36.772 2.21271 36.958 2.42195 37.2519 2.60978Z" fill="#B0B0B0"/>
<path d="M59.9839 3.13048C59.6867 3.33973 59.5107 3.55886 59.3629 3.54074C59.2681 3.50954 59.1826 3.4554 59.1142 3.3832C59.0458 3.31099 58.9966 3.223 58.971 3.12718C58.9495 3.02338 59.1985 2.75976 59.333 2.75647C59.5007 2.75647 59.6734 2.94265 59.9839 3.13048Z" fill="#B0B0B0"/>
<path d="M41.074 2.3396C41.2699 2.61146 41.4874 2.78612 41.4608 2.90969C41.4286 3.00349 41.3743 3.0883 41.3024 3.15708C41.2305 3.22585 41.1431 3.27661 41.0474 3.30512C40.9428 3.32654 40.6689 3.0695 40.6738 2.94428C40.6788 2.77458 40.8797 2.61146 41.074 2.3396Z" fill="#B0B0B0"/>
<path d="M66.8528 2.97884C66.6038 3.19633 66.4477 3.43194 66.3215 3.41547C66.2229 3.39297 66.131 3.34788 66.0532 3.28379C65.9753 3.2197 65.9137 3.13839 65.8732 3.0464C65.84 2.95084 66.0791 2.64933 66.2053 2.64109C66.3796 2.63615 66.5639 2.81573 66.8528 2.97884Z" fill="#B0B0B0"/>
<path d="M46.95 3.14859C46.7541 2.84543 46.5382 2.65431 46.5665 2.51756C46.6058 2.42478 46.6668 2.34263 46.7445 2.27788C46.8221 2.21313 46.9142 2.16765 47.0131 2.14519C47.1127 2.12872 47.3618 2.39728 47.3618 2.53733C47.3618 2.67738 47.1592 2.85696 46.95 3.14859Z" fill="#B0B0B0"/>
<path d="M65.7952 2.73998C65.5262 2.93934 65.3668 3.14364 65.2024 3.15023C65.0729 3.15023 64.8122 2.88991 64.8305 2.78282C64.8578 2.68709 64.9076 2.59914 64.9757 2.52612C65.0438 2.4531 65.1283 2.39709 65.2223 2.36267C65.3303 2.33136 65.5179 2.54721 65.7952 2.73998Z" fill="#B0B0B0"/>
<path d="M44.5757 2.30664C44.775 2.63617 44.9659 2.80093 44.9626 2.96569C44.9626 3.08761 44.7019 3.29521 44.5608 3.29521C44.4196 3.29521 44.1706 3.06784 44.1722 2.94262C44.1789 2.7828 44.3732 2.61475 44.5757 2.30664Z" fill="#B0B0B0"/>
<path d="M54.1095 3.57705C53.8156 3.74181 53.6347 3.92799 53.4736 3.90657C53.3391 3.89174 53.1017 3.60177 53.1415 3.50951C53.1808 3.41652 53.241 3.33368 53.3176 3.26741C53.3941 3.20114 53.485 3.1532 53.5832 3.12725C53.6895 3.11242 53.8488 3.34967 54.1095 3.57705Z" fill="#B0B0B0"/>
<path d="M47.9927 3.5144C47.8084 3.18487 47.6324 3.00529 47.6457 2.84382C47.6557 2.70707 47.9213 2.45992 48.006 2.48463C48.101 2.51464 48.1876 2.56635 48.2589 2.6356C48.3301 2.70485 48.384 2.78971 48.4161 2.88336C48.4344 3.02671 48.2169 3.1997 47.9927 3.5144Z" fill="#B0B0B0"/>
<path d="M53.0901 3.26884C52.7779 3.41547 52.582 3.58518 52.4259 3.55882C52.2914 3.5374 52.1935 3.28532 52.0789 3.13539C52.245 3.01676 52.411 2.81904 52.577 2.80586C52.6949 2.80092 52.8377 3.03323 53.0901 3.26884Z" fill="#B0B0B0"/>
<path d="M62.3881 2.80092C62.0759 2.98216 61.89 3.18646 61.7355 3.15516C61.6439 3.11498 61.5636 3.0531 61.5017 2.97497C61.4397 2.89684 61.398 2.80485 61.3802 2.70701C61.3669 2.60321 61.6426 2.36266 61.7787 2.37749C61.9447 2.38572 62.0992 2.59002 62.3881 2.80092Z" fill="#B0B0B0"/>
<path d="M52.0773 2.93111C51.7569 3.10741 51.5792 3.28699 51.4132 3.27381C51.2754 3.26227 51.0346 2.99043 51.0612 2.89157C51.0916 2.79641 51.1448 2.70998 51.2162 2.63968C51.2876 2.56938 51.3751 2.51729 51.4713 2.48789C51.6157 2.47141 51.7834 2.70374 52.0773 2.93111Z" fill="#B0B0B0"/>
<path d="M34.2815 2.38245C34.4475 2.68231 34.6335 2.86191 34.6136 3.02502C34.6003 3.16013 34.3546 3.27382 34.2118 3.39739C34.0823 3.24251 33.8797 3.09752 33.8481 2.92782C33.8315 2.80095 34.059 2.64936 34.2815 2.38245Z" fill="#B0B0B0"/>
<path d="M35.2926 2.68396C35.4736 3.02667 35.6496 3.21119 35.6247 3.37595C35.5891 3.46035 35.5316 3.5339 35.4582 3.58917C35.3847 3.64443 35.2978 3.67945 35.2063 3.69066C35.1189 3.6652 35.04 3.61714 34.9776 3.55142C34.9151 3.48569 34.8714 3.40466 34.851 3.31664C34.8676 3.15023 35.0668 2.99371 35.2926 2.68396Z" fill="#B0B0B0"/>
<path d="M46.2361 3.22444C45.919 3.43204 45.738 3.64623 45.5952 3.62152C45.5018 3.58496 45.4185 3.52691 45.3521 3.45215C45.2857 3.37739 45.2382 3.28805 45.2134 3.19149C45.1934 3.09758 45.4541 2.84879 45.5952 2.84385C45.7364 2.8389 45.914 3.02507 46.2361 3.22444Z" fill="#B0B0B0"/>
<path d="M40.1541 3.2409C39.9283 2.98057 39.6959 2.82734 39.7108 2.70212C39.7308 2.53736 39.9383 2.37259 40.0645 2.21936C40.2106 2.34128 40.4596 2.45167 40.4746 2.58678C40.4929 2.75154 40.3135 2.93938 40.1541 3.2409Z" fill="#B0B0B0"/>
<path d="M57.5764 3.53739C57.2593 3.71862 57.0617 3.92293 56.9222 3.88833C56.8317 3.84576 56.7527 3.78224 56.6921 3.70311C56.6314 3.62398 56.5907 3.53154 56.5735 3.43358C56.5619 3.33143 56.8359 3.09417 56.9687 3.10406C57.1331 3.11395 57.2858 3.3166 57.5764 3.53739Z" fill="#B0B0B0"/>
<path d="M32.9216 3.07935C33.0876 3.31825 33.2885 3.47809 33.3018 3.65438C33.3018 3.78125 33.0793 3.92789 32.9548 4.06629C32.7794 3.88438 32.6189 3.68877 32.475 3.48138C32.6122 3.33511 32.7616 3.20061 32.9216 3.07935Z" fill="#B0B0B0"/>
<path d="M64.7442 2.40229C64.515 2.59342 64.354 2.82409 64.2377 2.80432C64.0634 2.77466 63.919 2.56707 63.7629 2.43526C63.909 2.29026 64.0368 2.07278 64.2095 2.0283C64.3224 1.99864 64.5001 2.2227 64.7442 2.40229Z" fill="#B0B0B0"/>
<path d="M51.0196 2.54229C50.7506 2.73342 50.5746 2.94925 50.4501 2.92288C50.3551 2.89243 50.2688 2.83991 50.1983 2.76971C50.1278 2.6995 50.0753 2.61364 50.045 2.51922C50.025 2.41213 50.2841 2.13697 50.4103 2.14191C50.5813 2.14191 50.7456 2.34952 51.0196 2.54229Z" fill="#B0B0B0"/>
<path d="M33.2404 2.00354C33.4214 2.33306 33.6007 2.52583 33.5858 2.69224C33.556 2.77919 33.5036 2.85682 33.4339 2.91728C33.3643 2.97773 33.2798 3.01889 33.189 3.0366C33.0986 3.01165 33.0165 2.96346 32.9509 2.89692C32.8853 2.83038 32.8385 2.74784 32.8154 2.65764C32.817 2.48958 33.0196 2.32483 33.2404 2.00354Z" fill="#B0B0B0"/>
<path d="M58.3418 2.24078C58.5194 2.48134 58.7403 2.65598 58.7137 2.77461C58.6755 2.93937 58.453 3.06624 58.3102 3.20959C58.1791 3.05801 57.9699 2.91795 57.9449 2.74989C57.9267 2.63621 58.1525 2.47145 58.3418 2.24078Z" fill="#B0B0B0"/>
<path d="M49.6398 3.23924C49.3559 3.42707 49.1866 3.62477 49.0222 3.62148C48.8877 3.62148 48.632 3.34632 48.6569 3.24582C48.6895 3.15211 48.7437 3.06726 48.8152 2.99803C48.8867 2.9288 48.9735 2.87712 49.0687 2.8471C49.1882 2.82074 49.3609 3.03658 49.6398 3.23924Z" fill="#B0B0B0"/>
<path d="M60.7078 1.86182C60.922 2.13367 61.1478 2.30173 61.1229 2.41871C61.092 2.51301 61.0397 2.599 60.97 2.67012C60.9004 2.74124 60.8152 2.79559 60.7211 2.82897C60.6281 2.85533 60.3492 2.60984 60.3442 2.47968C60.3376 2.31656 60.5285 2.14191 60.7078 1.86182Z" fill="#B0B0B0"/>
<path d="M55.4478 2.81245C55.2087 3.00193 55.046 3.22601 54.9248 3.20624C54.7588 3.17823 54.6093 2.97063 54.4532 2.84047C54.6027 2.70207 54.7338 2.48788 54.9049 2.44998C55.0261 2.42362 55.2021 2.63616 55.4478 2.81245Z" fill="#B0B0B0"/>
<path d="M62.7965 2.47144C62.9908 2.74 63.2067 2.91301 63.1818 3.03658C63.1511 3.13087 63.0981 3.21652 63.0274 3.28644C62.9566 3.35636 62.8701 3.40852 62.775 3.43859C62.6687 3.46001 62.3914 3.20299 62.3947 3.07447C62.3997 2.90477 62.6023 2.74165 62.7965 2.47144Z" fill="#B0B0B0"/>
<path d="M56.5619 3.14864C56.2414 3.3546 56.0721 3.54737 55.8977 3.54408C55.8101 3.51613 55.7312 3.46604 55.6689 3.39874C55.6066 3.33144 55.563 3.24925 55.5424 3.16019C55.5424 3.01849 55.7599 2.7664 55.8894 2.76311C56.0621 2.75651 56.2365 2.94763 56.5619 3.14864Z" fill="#B0B0B0"/>
<path d="M38.6682 3.86534C38.4905 3.62808 38.2664 3.45014 38.2963 3.33811C38.3411 3.17334 38.5636 3.05142 38.7114 2.91138C38.8459 3.06461 39.0534 3.2063 39.085 3.3793C39.1049 3.48969 38.8641 3.64785 38.6682 3.86534Z" fill="#B0B0B0"/>
<path d="M43.5396 3.17989C43.3454 2.90473 43.1478 2.74491 43.1445 2.5818C43.1445 2.44999 43.4101 2.18802 43.5015 2.21108C43.5968 2.24035 43.684 2.29091 43.7566 2.35889C43.8291 2.42687 43.885 2.51046 43.9199 2.60322C43.9497 2.7202 43.7356 2.89814 43.5396 3.17989Z" fill="#B0B0B0"/>
<path d="M38.0073 1.3988C38.185 1.66737 38.3576 1.81566 38.356 1.9623C38.3543 2.10894 38.1202 2.32147 38.0388 2.3017C37.9507 2.27879 37.8692 2.23551 37.8011 2.17537C37.733 2.11524 37.6802 2.03996 37.647 1.9557C37.6238 1.83213 37.823 1.66737 38.0073 1.3988Z" fill="#B0B0B0"/>
<path d="M57.8403 2.47143C57.573 2.63619 57.4236 2.81578 57.2708 2.81742C57.1513 2.81742 56.9155 2.5884 56.9387 2.50272C56.9719 2.34785 57.143 2.13201 57.2791 2.11389C57.4153 2.09576 57.573 2.2836 57.8403 2.47143Z" fill="#B0B0B0"/>
<path d="M66.0841 1.6938C65.8333 1.87339 65.6906 2.04968 65.5378 2.05956C65.4166 2.05956 65.1642 1.84537 65.1792 1.76628C65.2107 1.60152 65.3701 1.38239 65.5112 1.35932C65.6524 1.33626 65.8151 1.52739 66.0841 1.6938Z" fill="#B0B0B0"/>
<path d="M59.1869 1.73825C58.9379 1.92114 58.7984 2.10238 58.6473 2.11062C58.5261 2.11062 58.2737 1.89642 58.2887 1.81569C58.3072 1.72606 58.347 1.64211 58.4048 1.57077C58.4625 1.49944 58.5366 1.44277 58.6207 1.40543C58.7469 1.38071 58.9196 1.57184 59.1869 1.73825Z" fill="#B0B0B0"/>
<path d="M43.8634 2.11391C43.6874 1.85029 43.5131 1.70367 43.5098 1.55374C43.5098 1.43511 43.7372 1.19784 43.8219 1.21432C43.9796 1.24562 44.2005 1.41203 44.2204 1.54384C44.2403 1.67565 44.0444 1.84535 43.8634 2.11391Z" fill="#B0B0B0"/>
<path d="M34.0739 1.59816C33.8166 1.7794 33.6721 1.96066 33.5244 1.96395C33.3766 1.96725 33.1508 1.73988 33.1674 1.65749C33.1872 1.56877 33.2275 1.48582 33.2851 1.4152C33.3427 1.34457 33.4161 1.28819 33.4994 1.25052C33.6323 1.2258 33.805 1.42351 34.0739 1.59816Z" fill="#B0B0B0"/>
<path d="M51.2952 1.46313C51.0395 1.66743 50.9017 1.85691 50.7457 1.87338C50.6377 1.88656 50.4136 1.67237 50.4036 1.54386C50.4134 1.46239 50.4446 1.38491 50.4941 1.31924C50.5437 1.25357 50.6098 1.20203 50.6859 1.16984C50.842 1.15337 51.0097 1.31814 51.2952 1.46313Z" fill="#B0B0B0"/>
<path d="M47.3203 0.968811C47.4864 1.24232 47.6524 1.40049 47.6358 1.54878C47.6358 1.67235 47.3784 1.90137 47.3037 1.8783C47.1377 1.82558 46.9401 1.65093 46.9235 1.50759C46.9069 1.36424 47.1227 1.22419 47.3203 0.968811Z" fill="#B0B0B0"/>
<path d="M32.6975 2.31489C32.4235 2.47966 32.2475 2.67902 32.1163 2.64442C32.0321 2.60632 31.9581 2.54899 31.9004 2.47712C31.8426 2.40526 31.8029 2.32088 31.7843 2.23086C31.7693 2.15178 32.025 1.93264 32.1479 1.93758C32.304 1.95406 32.4451 2.14189 32.6975 2.31489Z" fill="#B0B0B0"/>
<path d="M56.7778 2.11718C56.547 2.28194 56.3909 2.48132 56.2796 2.4599C56.1926 2.43425 56.1128 2.38846 56.047 2.32631C55.9812 2.26416 55.9312 2.18741 55.9011 2.10236C55.8778 2.00679 56.112 1.74647 56.2215 1.75141C56.3809 1.75965 56.5304 1.94253 56.7778 2.11718Z" fill="#B0B0B0"/>
<path d="M52.7979 2.67237C52.6318 2.42358 52.4509 2.27035 52.4509 2.11712C52.4509 2.00014 52.6783 1.88316 52.8045 1.76453C52.9307 1.90128 53.125 2.02485 53.1565 2.17808C53.1781 2.28682 52.9755 2.44005 52.7979 2.67237Z" fill="#B0B0B0"/>
<path d="M66.5589 1.45325C66.7482 1.70863 66.9308 1.85034 66.9391 2.00192C66.9391 2.12384 66.7216 2.37427 66.637 2.35944C66.5482 2.3406 66.4654 2.30083 66.3954 2.24347C66.3255 2.18611 66.2705 2.11284 66.2351 2.02992C66.2119 1.89646 66.3962 1.7251 66.5589 1.45325Z" fill="#B0B0B0"/>
<path d="M63.6699 2.05958C63.3893 2.22435 63.2282 2.38911 63.0804 2.38911C62.9327 2.38911 62.7284 2.13044 62.7484 2.04311C62.777 1.95658 62.8261 1.87816 62.8917 1.81449C62.9573 1.75082 63.0375 1.70378 63.1253 1.67734C63.2614 1.65757 63.4142 1.86352 63.6699 2.05958Z" fill="#B0B0B0"/>
<path d="M49.3742 2.72513C49.1949 2.48788 48.994 2.33465 49.0172 2.23085C49.0453 2.1446 49.0928 2.06582 49.1561 2.00046C49.2194 1.93509 49.2968 1.88485 49.3825 1.85354C49.4672 1.82882 49.7295 2.05785 49.7279 2.16989C49.7229 2.31982 49.5469 2.4714 49.3742 2.72513Z" fill="#B0B0B0"/>
<path d="M41.3829 2.44835C41.2168 2.18638 41.0143 2.01996 41.0342 1.88486C41.0541 1.74975 41.2833 1.59324 41.441 1.56523C41.529 1.5504 41.7531 1.79096 41.7465 1.90465C41.7365 2.05788 41.5605 2.19956 41.3829 2.44835Z" fill="#B0B0B0"/>
<path d="M51.7336 2.38737C51.5808 2.11552 51.4181 1.9557 51.4297 1.80906C51.4397 1.69043 51.6887 1.47953 51.7751 1.5026C51.8605 1.53087 51.9379 1.57895 52.0009 1.64285C52.0638 1.70675 52.1105 1.78462 52.137 1.87002C52.147 1.99853 51.9361 2.14188 51.7336 2.38737Z" fill="#B0B0B0"/>
<path d="M40.3717 2.15013C40.2056 1.87168 40.0396 1.71021 40.0612 1.56522C40.0827 1.42023 40.3252 1.21922 40.4065 1.23569C40.4934 1.26599 40.5718 1.31628 40.6352 1.38243C40.6987 1.44859 40.7455 1.52874 40.7718 1.6163C40.7867 1.74976 40.5742 1.89969 40.3717 2.15013Z" fill="#B0B0B0"/>
<path d="M37.4993 1.585C37.2436 1.7613 37.0992 1.9343 36.9464 1.94089C36.8319 1.94089 36.5961 1.71681 36.6143 1.62784C36.6339 1.54101 36.6743 1.46015 36.7321 1.39216C36.7899 1.32417 36.8635 1.27107 36.9464 1.23735C37.0759 1.21758 37.2403 1.412 37.4993 1.585Z" fill="#B0B0B0"/>
<path d="M54.3968 2.47141C54.1411 2.64935 53.995 2.82728 53.8439 2.83223C53.721 2.83223 53.4719 2.6098 53.4902 2.52742C53.5096 2.43855 53.5498 2.35544 53.6075 2.28476C53.6652 2.21408 53.7387 2.15781 53.8223 2.12046C53.9584 2.10069 54.1294 2.30665 54.3968 2.47141Z" fill="#B0B0B0"/>
<path d="M67.5668 1.85028C67.7611 2.10731 67.9686 2.26384 67.952 2.39071C67.9213 2.47663 67.871 2.55435 67.8051 2.6178C67.7391 2.68125 67.6593 2.7287 67.5718 2.75647C67.4987 2.77954 67.2513 2.54887 67.2397 2.42695C67.238 2.27866 67.4041 2.12214 67.5668 1.85028Z" fill="#B0B0B0"/>
<path d="M55.7483 1.75967C55.491 1.95903 55.3382 2.16663 55.2104 2.15181C55.0825 2.13698 54.8916 1.93924 54.8384 1.78272C54.8135 1.71187 55.041 1.46638 55.1705 1.4532C55.3 1.44001 55.471 1.60479 55.7483 1.75967Z" fill="#B0B0B0"/>
<path d="M48.9142 1.82884C48.6403 2.01008 48.4892 2.18474 48.3331 2.18968C48.2536 2.16818 48.1812 2.12647 48.123 2.06868C48.0647 2.01089 48.0227 1.93901 48.001 1.86015C48.001 1.73329 48.1953 1.50426 48.3099 1.50096C48.4659 1.49602 48.627 1.66078 48.9142 1.82884Z" fill="#B0B0B0"/>
<path d="M61.0216 1.97714C60.8556 1.69375 60.6995 1.53063 60.7061 1.37576C60.7061 1.26701 60.9519 1.08248 61.0797 1.09072C61.2076 1.09896 61.4251 1.3115 61.4118 1.42025C61.4002 1.57512 61.2192 1.71517 61.0216 1.97714Z" fill="#B0B0B0"/>
<path d="M64.9982 1.356C64.7973 1.54053 64.6545 1.75639 64.5549 1.73991C64.3889 1.7119 64.256 1.52901 64.1099 1.41038C64.2411 1.27528 64.3523 1.08085 64.5117 1.02977C64.6147 1.00176 64.7824 1.19948 64.9982 1.356Z" fill="#B0B0B0"/>
<path d="M62.6139 1.69872C62.3898 1.8849 62.247 2.08754 62.1407 2.07106C62.0525 2.0505 61.9703 2.0101 61.9003 1.95296C61.8303 1.89583 61.7745 1.82348 61.7372 1.74154C61.7074 1.65421 61.9232 1.38401 62.0411 1.37577C62.1905 1.36753 62.3516 1.54055 62.6139 1.69872Z" fill="#B0B0B0"/>
<path d="M45.9306 1.66907C46.0966 1.9228 46.2776 2.07273 46.2759 2.22267C46.2759 2.338 46.0153 2.56867 45.9439 2.55219C45.8577 2.51971 45.7799 2.46875 45.7159 2.40296C45.6519 2.33716 45.6033 2.25817 45.5736 2.1716C45.5421 2.06121 45.7479 1.90633 45.9306 1.66907Z" fill="#B0B0B0"/>
<path d="M60.2313 2.10892C59.974 2.27368 59.8295 2.45162 59.6801 2.45657C59.5605 2.45657 59.3214 2.23577 59.338 2.15339C59.3712 1.98863 59.5323 1.77445 59.6701 1.75468C59.8079 1.73491 59.9657 1.93098 60.2313 2.10892Z" fill="#B0B0B0"/>
<path d="M39.5399 2.25727C39.2958 2.45334 39.158 2.64777 39.0103 2.65601C38.8891 2.65601 38.7546 2.44841 38.6251 2.32648C38.7512 2.19467 38.8575 1.99695 39.0086 1.95247C39.1149 1.92775 39.2842 2.10405 39.5399 2.25727Z" fill="#B0B0B0"/>
<path d="M35.5583 2.83229C35.3922 2.57526 35.2262 2.42534 35.2179 2.27046C35.2179 2.16007 35.4553 1.94093 35.55 1.95246C35.7027 1.98377 35.9202 2.16172 35.9318 2.29188C35.9435 2.42205 35.7409 2.5835 35.5583 2.83229Z" fill="#B0B0B0"/>
<path d="M35.1 1.94913C34.8426 2.12542 34.6833 2.3182 34.5454 2.30502C34.4076 2.29184 34.2416 2.07106 34.2134 1.91948C34.1968 1.82721 34.4276 1.58995 34.5371 1.60148C34.6965 1.60972 34.8443 1.77942 35.1 1.94913Z" fill="#B0B0B0"/>
<path d="M43.0365 2.22267C42.7725 2.40555 42.6264 2.58185 42.472 2.59008C42.3591 2.59008 42.14 2.38084 42.14 2.26056C42.14 2.14028 42.3259 1.89149 42.4338 1.8882C42.5932 1.88655 42.7493 2.05461 43.0365 2.22267Z" fill="#B0B0B0"/>
<path d="M53.6695 1.13357C53.4172 1.28516 53.2594 1.45487 53.1416 1.43016C53.0663 1.39644 53 1.34584 52.9479 1.28237C52.8957 1.21889 52.8592 1.14426 52.841 1.06437C52.8261 0.99352 53.0552 0.790861 53.1731 0.795804C53.3026 0.804042 53.4321 0.965517 53.6695 1.13357Z" fill="#B0B0B0"/>
<path d="M47.6641 0C47.8135 0.22902 47.9679 0.365763 47.9729 0.505811C47.9729 0.604669 47.7504 0.805693 47.6657 0.787569C47.5246 0.757912 47.3253 0.59644 47.3154 0.474516C47.3054 0.352592 47.4947 0.220782 47.6641 0Z" fill="#B0B0B0"/>
<path d="M44.8464 1.4071C45.034 1.60811 45.2515 1.73662 45.2366 1.84701C45.2133 2.01177 45.0307 2.14359 44.9161 2.29023C44.7816 2.16171 44.584 2.05132 44.5342 1.89479C44.5043 1.79594 44.6969 1.62953 44.8464 1.4071Z" fill="#B0B0B0"/>
<path d="M52.6169 0.836997C52.3844 0.985283 52.2482 1.13853 52.1071 1.14182C52.0058 1.14182 51.8 0.927623 51.8182 0.843594C51.8464 0.705194 52.0075 0.514072 52.1287 0.495948C52.2499 0.477824 52.3927 0.66894 52.6169 0.836997Z" fill="#B0B0B0"/>
<path d="M67.4289 0.988561C67.1832 1.14014 67.0271 1.31809 66.9126 1.28514C66.8384 1.25203 66.7732 1.20189 66.7224 1.13886C66.6716 1.07584 66.6366 1.00173 66.6203 0.922652C66.6054 0.848509 66.8279 0.649148 66.9358 0.655738C67.0703 0.659033 67.1982 0.823799 67.4289 0.988561Z" fill="#B0B0B0"/>
<path d="M31.4921 0.507446C31.6332 0.729875 31.8009 0.886412 31.771 0.973736C31.7377 1.04924 31.6882 1.11664 31.626 1.17126C31.5638 1.22589 31.4903 1.26642 31.4108 1.29007C31.3394 1.30819 31.1169 1.07752 31.1285 0.978664C31.1434 0.840264 31.3161 0.721637 31.4921 0.507446Z" fill="#B0B0B0"/>
<path d="M45.738 0.840289C45.5055 1.00505 45.3677 1.19124 45.2498 1.17806C45.1718 1.1537 45.1009 1.11101 45.0431 1.05364C44.9853 0.996275 44.9423 0.925922 44.9177 0.848535C44.8962 0.777687 45.0971 0.556898 45.205 0.551955C45.3461 0.550307 45.4873 0.695298 45.738 0.840289Z" fill="#B0B0B0"/>
<path d="M56.1368 1.05948C56.3543 0.911197 56.5104 0.729952 56.5918 0.764552C56.668 0.797167 56.736 0.846149 56.7908 0.907974C56.8456 0.9698 56.886 1.04294 56.9089 1.12209C56.9272 1.20447 56.7047 1.42689 56.6084 1.417C56.4706 1.40218 56.3494 1.23248 56.1368 1.05948Z" fill="#B0B0B0"/>
<path d="M34.3712 0.637655C34.1188 0.76617 33.9677 0.907875 33.8315 0.894694C33.7269 0.883161 33.5443 0.631075 33.5742 0.56517C33.6111 0.492498 33.6637 0.428798 33.7283 0.378666C33.7929 0.328534 33.8678 0.293209 33.9478 0.275186C34.0441 0.262005 34.1653 0.451474 34.3712 0.637655Z" fill="#B0B0B0"/>
<path d="M60.0071 1.59487C59.861 1.33454 59.7016 1.17637 59.7249 1.05609C59.7594 0.983126 59.8105 0.919099 59.8741 0.869064C59.9378 0.81903 60.0123 0.784355 60.0918 0.767757C60.1599 0.754576 60.3575 0.983596 60.3492 1.09728C60.3409 1.21097 60.1831 1.35596 60.0071 1.59487Z" fill="#B0B0B0"/>
<path d="M65.3635 0.400149C65.1078 0.540197 64.96 0.685175 64.8222 0.675289C64.7126 0.675289 64.5134 0.439678 64.5366 0.365535C64.5814 0.22384 64.7491 0.0360107 64.8786 0.0360107C65.0081 0.0360107 65.1343 0.213968 65.3635 0.400149Z" fill="#B0B0B0"/>
<path d="M42.7925 0.711792C42.9585 0.925983 43.1428 1.04133 43.1245 1.15336C43.1096 1.29506 42.9485 1.42029 42.8506 1.55375C42.7327 1.45654 42.5268 1.36756 42.5185 1.26376C42.5168 1.12207 42.658 0.970469 42.7925 0.711792Z" fill="#B0B0B0"/>
<path d="M46.7907 1.15335C46.5416 1.31811 46.3955 1.50265 46.2759 1.48287C46.1992 1.45431 46.1304 1.40804 46.0753 1.34788C46.0201 1.28771 45.9802 1.21538 45.9588 1.13688C45.9406 1.06603 46.1498 0.851839 46.256 0.850192C46.4021 0.843601 46.535 0.988587 46.7907 1.15335Z" fill="#B0B0B0"/>
<path d="M39.8736 1.26702C39.6196 1.4219 39.4685 1.58667 39.3489 1.5669C39.2294 1.54713 39.1264 1.34776 39.0168 1.22748C39.1298 1.13027 39.2443 0.952343 39.3489 0.953991C39.49 0.953991 39.6245 1.1072 39.8736 1.26702Z" fill="#B0B0B0"/>
<path d="M41.7133 0.393799C41.8959 0.612933 42.0902 0.744735 42.0802 0.860069C42.0703 0.975403 41.881 1.14677 41.7481 1.17972C41.6651 1.19949 41.4426 1.01495 41.4377 0.907856C41.4211 0.774399 41.5722 0.632704 41.7133 0.393799Z" fill="#B0B0B0"/>
<path d="M38.3211 0.438232C38.5004 0.650776 38.6698 0.767755 38.6914 0.90945C38.7047 0.998422 38.4838 1.22249 38.3991 1.20766C38.3191 1.18737 38.2447 1.14943 38.1814 1.09666C38.1182 1.04389 38.0677 0.977641 38.0339 0.902853C38.004 0.823767 38.1767 0.659014 38.3211 0.438232Z" fill="#B0B0B0"/>
<path d="M56.0755 0.769468C55.8198 0.925992 55.6803 1.07428 55.5392 1.07592C55.4296 1.07592 55.2071 0.860073 55.2303 0.795816C55.2735 0.65412 55.4229 0.466297 55.5508 0.451468C55.6786 0.436639 55.8231 0.606353 56.0755 0.769468Z" fill="#B0B0B0"/>
<path d="M49.1733 0.823816C48.9541 0.978692 48.803 1.15334 48.7183 1.12862C48.6422 1.09818 48.574 1.0509 48.5191 0.990368C48.4641 0.929838 48.4238 0.857653 48.4012 0.779327C48.3829 0.696946 48.5955 0.474529 48.6901 0.482767C48.8279 0.4943 48.9524 0.659054 49.1733 0.823816Z" fill="#B0B0B0"/>
<path d="M65.8549 1.19619C65.7138 0.927627 65.571 0.776042 65.5809 0.635994C65.6075 0.566277 65.6522 0.504821 65.7105 0.457917C65.7689 0.411013 65.8388 0.380349 65.913 0.36908C65.9845 0.390205 66.0492 0.429643 66.1005 0.48344C66.1518 0.537236 66.1879 0.603491 66.2052 0.675535C66.1903 0.823821 66.0292 0.947399 65.8549 1.19619Z" fill="#B0B0B0"/>
<path d="M59.4891 0.698597C59.2599 0.878188 59.1238 1.06602 59.0076 1.05449C58.8913 1.04296 58.722 0.855127 58.6904 0.724965C58.6705 0.639289 58.8565 0.420155 58.9627 0.41686C59.0989 0.406974 59.24 0.551959 59.4891 0.698597Z" fill="#B0B0B0"/>
<path d="M40.8084 1.05613C40.6424 0.856763 40.4514 0.726589 40.463 0.632675C40.4813 0.492627 40.6457 0.370702 40.7486 0.24054C40.8682 0.334454 41.0807 0.42507 41.0807 0.525575C41.089 0.667271 40.9429 0.82381 40.8084 1.05613Z" fill="#B0B0B0"/>
<path d="M30.901 0.584866C30.6669 0.749628 30.5407 0.914386 30.4029 0.930862C30.3033 0.930862 30.1854 0.747979 30.0708 0.645827C30.1837 0.527198 30.2783 0.349255 30.4128 0.316302C30.5125 0.281702 30.6636 0.441522 30.901 0.584866Z" fill="#B0B0B0"/>
<path d="M58.1375 1.41858C57.8968 1.58334 57.7656 1.73657 57.6278 1.74811C57.5249 1.74811 57.3107 1.55038 57.3256 1.47295C57.343 1.39545 57.3789 1.32327 57.4304 1.26247C57.4818 1.20167 57.5473 1.15404 57.6212 1.12365C57.7424 1.09894 57.8935 1.267 58.1375 1.41858Z" fill="#B0B0B0"/>
<path d="M64.0019 0.950713C63.7412 1.13689 63.6117 1.29672 63.4722 1.30496C63.3997 1.28903 63.3327 1.25446 63.2779 1.20471C63.2232 1.15497 63.1825 1.0918 63.1601 1.02155C63.1689 0.948642 63.1975 0.879488 63.2428 0.821449C63.2881 0.76341 63.3485 0.718667 63.4175 0.692025C63.5619 0.687082 63.7163 0.823846 64.0019 0.950713Z" fill="#B0B0B0"/>
<path d="M51.5808 0.494292C51.3417 0.640931 51.2039 0.79252 51.0694 0.790872C50.9681 0.790872 50.7689 0.553599 50.7922 0.486046C50.8218 0.409349 50.8682 0.340077 50.9279 0.28313C50.9875 0.226183 51.0591 0.182955 51.1375 0.156521C51.2255 0.140045 51.365 0.32953 51.5808 0.494292Z" fill="#B0B0B0"/>
<path d="M40.6025 6.04517C40.6506 6.2989 40.6971 6.5543 40.7469 6.82451L40.3152 7.10295C39.8337 6.59877 40.453 6.39117 40.6141 6.05341L40.6025 6.04517Z" fill="#B0B0B0"/>
</svg>
