<?xml version="1.0" encoding="iso-8859-1"?>
<!-- Generator: Adobe Illustrator 18.0.0, SVG Export Plug-In . SVG Version: 6.00 Build 0)  -->
<!DOCTYPE svg PUBLIC "-//W3C//DTD SVG 1.1//EN" "http://www.w3.org/Graphics/SVG/1.1/DTD/svg11.dtd">
<svg version="1.1" id="Capa_1" xmlns="http://www.w3.org/2000/svg" xmlns:xlink="http://www.w3.org/1999/xlink" x="0px" y="0px"
	 viewBox="0 0 60 60" style="enable-background:new 0 0 60 60;" xml:space="preserve">
<g>
	<path d="M27,37h6c0.553,0,1-0.448,1-1v-5c0-0.552-0.447-1-1-1h-6c-0.553,0-1,0.448-1,1v5C26,36.552,26.447,37,27,37z M28,32h4v3h-4
		V32z"/>
	<path d="M52,58h-7V42h2c0.385,0,0.734-0.22,0.901-0.567c0.166-0.346,0.12-0.758-0.12-1.058l-12-15C35.591,25.138,35.304,25,35,25
		v-6h1c0.347,0,0.668-0.18,0.851-0.474c0.183-0.295,0.199-0.663,0.044-0.973l-4-8C32.725,9.214,32.379,9,32,9h-1V5h2
		c0.553,0,1-0.448,1-1s-0.447-1-1-1h-2V1c0-0.552-0.447-1-1-1s-1,0.448-1,1v2h-2c-0.553,0-1,0.448-1,1s0.447,1,1,1h2v4h-1
		c-0.379,0-0.725,0.214-0.895,0.553l-4,8c-0.155,0.31-0.139,0.678,0.044,0.973C23.332,18.82,23.653,19,24,19h1v6
		c-0.318,0-0.618,0.152-0.807,0.409l-11,15c-0.223,0.304-0.256,0.707-0.085,1.043C13.278,41.788,13.623,42,14,42h2v16H8
		c-0.553,0-1,0.448-1,1s0.447,1,1,1h9h9h9h9h8c0.553,0,1-0.448,1-1S52.553,58,52,58z M28.618,11h2.764l3,6H34h-8h-0.382L28.618,11z
		 M27,19h6v6h-6V19z M25.507,27H26h8h0.52l10.399,13H44H17h-1.026L25.507,27z M34,58h-7v-6.5c0-1.93,1.57-3.5,3.5-3.5
		s3.5,1.57,3.5,3.5V58z M36,58v-6.5c0-3.033-2.468-5.5-5.5-5.5S25,48.467,25,51.5V58h-7V42h25v16H36z"/>
</g>
<g>
</g>
<g>
</g>
<g>
</g>
<g>
</g>
<g>
</g>
<g>
</g>
<g>
</g>
<g>
</g>
<g>
</g>
<g>
</g>
<g>
</g>
<g>
</g>
<g>
</g>
<g>
</g>
<g>
</g>
</svg>
