<svg width="196" height="24" viewBox="0 0 196 24" fill="none" xmlns="http://www.w3.org/2000/svg">
<path d="M110.334 21.4447C111.158 13.6719 111.85 7.0974 112.562 0.356283H102.185C101.531 6.1234 100.878 11.6566 100.244 17.1899C99.7281 21.6754 102.132 23.8637 106.398 23.9182C119.56 24.0335 132.723 24.026 145.887 23.8957C149.399 23.8605 152.394 22.2425 152.989 18.5355C153.942 12.6114 154.485 6.6232 155.233 0.385107H144.453C143.741 6.44698 143.235 12.3006 142.235 18.0709C142.016 19.3301 140.19 20.8872 138.815 21.2524C136.783 21.7939 134.49 21.3934 132.001 21.3934C132.704 13.7905 133.324 7.08138 133.961 0.276184H123.623C122.969 6.21631 122.231 12.0251 121.777 17.8563C121.571 20.4707 120.549 21.6081 117.857 21.4831C115.509 21.3582 113.134 21.4447 110.334 21.4447Z" fill="#B0B0B0"/>
<path d="M194.081 23.6651C194.735 17.6256 195.493 11.6535 195.969 5.6621C196.227 2.43893 194.222 0.321112 191.07 0.253829C181.228 0.0519802 171.379 0.180105 161.207 0.180105C160.351 8.18998 159.531 15.841 158.689 23.7099H169.449C169.89 19.5064 170.285 15.5655 170.726 11.6342C171.778 2.23704 171.787 2.34277 181.309 2.41966C184.654 2.44209 186.049 3.23349 185.474 6.8091C184.592 12.2847 184.138 17.8275 183.465 23.6651H194.081Z" fill="#B0B0B0"/>
<path d="M27.1332 23.9439L27.0972 21.4736H10.4576C10.9639 16.7222 11.3853 12.9447 11.7642 9.16403C12.4371 2.43573 12.4175 2.43574 19.2021 2.41011C22.6809 2.41011 26.1565 2.31717 29.6353 2.26912C29.6125 1.72124 29.5896 1.17336 29.57 0.625487C21.7957 0.625487 13.9953 0.305107 6.26342 0.881819C4.58769 1.00677 2.5004 4.15627 1.7785 6.2965C0.677684 9.56454 0.527419 13.1562 0.0995061 16.626C-0.462334 21.2013 1.40613 23.5658 6.2177 23.8477C10.5785 24.1072 14.9687 23.9342 19.3425 23.9439C21.9362 23.9503 24.533 23.9439 27.1332 23.9439Z" fill="#B0B0B0"/>
<path d="M33.1143 23.665H43.6749C44.3282 18.1254 45.331 12.7972 45.5041 7.44665C45.6413 3.08607 47.598 1.99995 51.5472 2.33636C53.3372 2.48054 55.1861 1.94225 57.0088 1.71477C56.9533 1.27263 56.8945 0.830482 56.8389 0.391541H35.7569C34.8913 8.01054 34.0191 15.684 33.1143 23.665Z" fill="#B0B0B0"/>
<path d="M110.335 21.4447C113.134 21.4447 115.509 21.3582 117.874 21.4672C120.549 21.5921 121.571 20.4547 121.794 17.8403C122.248 12.0091 122.996 6.20032 123.639 0.260193H133.981C133.354 7.06539 132.733 13.7745 132.021 21.3774C134.51 21.3774 136.803 21.778 138.835 21.2365C140.21 20.8712 142.036 19.3141 142.255 18.055C143.255 12.2878 143.761 6.43103 144.473 0.369155H155.252C154.504 6.60725 153.962 12.5954 153.008 18.5195C152.414 22.2265 149.415 23.8445 145.907 23.8798C132.747 24.0143 119.584 24.0218 106.418 23.9022C102.152 23.8637 99.7478 21.6882 100.264 17.1739C100.898 11.6406 101.538 6.1042 102.204 0.340292H112.582C111.85 7.09743 111.158 13.6719 110.335 21.4447Z" fill="#B0B0B0"/>
<path d="M194.081 23.6651H183.475C184.148 17.8275 184.602 12.2847 185.484 6.8091C186.059 3.23349 184.664 2.44209 181.319 2.41966C171.797 2.35238 171.788 2.23704 170.736 11.6342C170.295 15.5655 169.899 19.5064 169.459 23.7099H158.699C159.541 15.841 160.361 8.18678 161.217 0.180105C171.389 0.180105 181.238 0.0519802 191.08 0.253829C194.222 0.321112 196.228 2.43893 195.979 5.6621C195.493 11.6503 194.732 17.6224 194.081 23.6651Z" fill="#B0B0B0"/>
<path d="M75.9512 23.9599C72.5541 23.9599 69.1504 24.0688 65.7564 23.9278C60.5594 23.7163 58.8086 21.7716 59.1875 16.751C59.39 14.0629 59.7755 11.3875 60.1021 8.71223C60.9481 1.84937 62.7872 0.128844 69.6305 0.0615615C75.9415 -0.00892543 82.2589 -0.0313531 88.5763 0.0615615C94.4561 0.15768 96.1579 2.0416 95.632 7.66774C95.3674 10.5096 94.9101 13.3323 94.5377 16.1678C93.7897 21.9157 91.6795 23.8061 85.6724 23.9534C82.4287 24.0303 79.1884 23.9663 75.9512 23.9599ZM69.0491 21.15C71.1952 21.2557 72.9232 21.4063 74.6544 21.4159C83.8268 21.4704 83.8268 21.4576 84.6728 12.3679C85.6528 1.92307 85.6528 1.92309 74.8733 2.37805C74.3866 2.40048 73.7431 2.21464 73.4393 2.45174C72.4299 3.24632 70.8685 4.09536 70.7248 5.09179C69.9768 10.2502 69.6011 15.463 69.0491 21.15Z" fill="#B0B0B0"/>
<path d="M27.1331 23.9438C24.5199 23.9438 21.9361 23.9438 19.3392 23.9438C14.9653 23.9438 10.5752 24.1072 6.21436 23.8476C1.41585 23.5657 -0.465653 21.2012 0.0961871 16.626C0.5241 13.1561 0.674345 9.57727 1.77516 6.29642C2.49706 4.15618 4.58438 1.00669 6.2601 0.881738C13.9919 0.301823 21.7924 0.625406 29.5667 0.625406C29.5863 1.17328 29.6091 1.72116 29.632 2.26904C26.1532 2.31709 22.6776 2.39721 19.1988 2.41003C12.4207 2.43566 12.4338 2.41002 11.7609 9.16395C11.3852 12.9446 10.9639 16.7221 10.4543 21.4735H27.0972L27.1331 23.9438Z" fill="#B0B0B0"/>
<path d="M33.1143 23.665C34.0191 15.6872 34.8913 8.01374 35.7569 0.391541H56.8389C56.8945 0.830482 56.9533 1.27263 57.0088 1.71477C55.1861 1.94225 53.3372 2.48054 51.5472 2.33636C47.598 2.01597 45.6413 3.08607 45.5041 7.44665C45.331 12.7972 44.338 18.1254 43.6749 23.665H33.1143Z" fill="#B0B0B0"/>
</svg>
