<svg width="80" height="80" viewBox="0 0 80 80" fill="none" xmlns="http://www.w3.org/2000/svg">
<g opacity="0.7">
<path d="M45.1721 12.8037C46.0913 11.782 47.2506 11.0073 48.5446 10.55C49.8385 10.0928 51.2259 9.9675 52.5804 10.1856C53.935 10.4038 55.2136 10.9584 56.2998 11.799C57.3861 12.6396 58.2454 13.7394 58.7996 14.9984C59.3538 16.2573 59.5853 17.6353 59.4729 19.0069C59.3605 20.3785 58.9078 21.7001 58.1561 22.8513C57.4044 24.0026 56.3776 24.9469 55.1691 25.5982C53.9606 26.2496 52.6089 26.5873 51.237 26.5807C50.3138 26.5792 49.3971 26.4259 48.5232 26.1269M31.5826 12.5768V10.5144C31.5054 9.8084 31.5865 9.09407 31.82 8.42361C32.0535 7.75316 32.4335 7.14356 32.9321 6.63941C33.4307 6.13525 34.0354 5.74931 34.7018 5.5098C35.3683 5.2703 36.0797 5.1833 36.784 5.25517H65.5667C66.2636 5.18811 66.9668 5.27648 67.6257 5.51395C68.2847 5.75143 68.8831 6.13214 69.3782 6.62881C69.8733 7.12548 70.2528 7.72584 70.4896 8.38688C70.7263 9.04792 70.8144 9.75329 70.7475 10.4525V62.2194C70.8139 62.9194 70.7256 63.6254 70.489 64.2873C70.2524 64.9492 69.8733 65.5507 69.3786 66.0489C68.8839 66.5471 68.2859 66.9298 67.6271 67.1698C66.9682 67.4097 66.2647 67.5011 65.5667 67.4373H48.4821M28.8688 17.4235C30.4953 17.4235 32.0852 17.9073 33.4376 18.8138C34.79 19.7203 35.844 21.0087 36.4664 22.5162C37.0889 24.0236 37.2517 25.6823 36.9344 27.2826C36.6171 28.8829 35.8339 30.3529 34.6838 31.5066C33.5337 32.6604 32.0684 33.4461 30.4732 33.7644C28.8779 34.0827 27.2244 33.9193 25.7218 33.2949C24.2191 32.6705 22.9348 31.6131 22.0311 30.2565C21.1275 28.8998 20.6452 27.3048 20.6452 25.6732C20.6452 23.4852 21.5116 21.3869 23.0538 19.8398C24.5961 18.2926 26.6878 17.4235 28.8688 17.4235ZM29.0538 37.8002C32.0227 37.8165 34.9202 38.7146 37.3808 40.3811C39.8414 42.0476 41.7548 44.4078 42.8797 47.1641C44.0046 49.9203 44.2905 52.949 43.7014 55.8681C43.1122 58.7871 41.6745 61.4658 39.5694 63.566C37.4644 65.6662 34.7864 67.0939 31.8734 67.669C28.9604 68.244 25.9429 67.9407 23.2016 66.7972C20.4602 65.6538 18.1179 63.7214 16.4702 61.2439C14.8224 58.7664 13.943 55.8549 13.943 52.8766C13.943 48.8781 15.5263 45.0434 18.3448 42.216C21.1632 39.3886 24.9858 37.8002 28.9716 37.8002H29.0538ZM29.0538 46.1737C30.3803 46.1737 31.6769 46.5686 32.7795 47.3083C33.8822 48.048 34.7412 49.0993 35.2479 50.329C35.7545 51.5588 35.886 52.9117 35.6258 54.2165C35.3655 55.5213 34.7251 56.7193 33.7857 57.6587C32.8463 58.5982 31.6502 59.2369 30.3487 59.494C29.0473 59.7511 27.699 59.615 26.4747 59.103C25.2504 58.5909 24.2051 57.7259 23.4711 56.6176C22.7372 55.5092 22.3475 54.2072 22.3516 52.8766C22.3516 51.9946 22.5251 51.1213 22.8622 50.3067C23.1993 49.4921 23.6933 48.7523 24.3159 48.1296C24.9385 47.5069 25.6775 47.0136 26.4906 46.678C27.3036 46.3424 28.1747 46.171 29.0538 46.1737ZM28.8688 22.0846C29.5763 22.0846 30.268 22.295 30.8562 22.6894C31.4445 23.0837 31.903 23.6441 32.1738 24.2999C32.4445 24.9556 32.5154 25.6772 32.3774 26.3733C32.2393 27.0694 31.8986 27.7088 31.3983 28.2107C30.898 28.7126 30.2606 29.0544 29.5667 29.1929C28.8728 29.3313 28.1535 29.2603 27.4999 28.9886C26.8462 28.717 26.2875 28.2571 25.8944 27.6669C25.5014 27.0768 25.2915 26.3829 25.2915 25.6732C25.2888 25.2012 25.3795 24.7333 25.5583 24.2967C25.7371 23.86 26.0005 23.4633 26.3332 23.1295C26.666 22.7958 27.0614 22.5315 27.4966 22.3522C27.9319 22.1728 28.3983 22.0818 28.8688 22.0846ZM14.4775 12.5768H43.2601C43.9603 12.5032 44.6681 12.5867 45.3322 12.8212C45.9963 13.0558 46.6001 13.4355 47.0999 13.933C47.5997 14.4304 47.983 15.0331 48.2221 15.6974C48.4611 16.3618 48.55 17.0711 48.4821 17.7741V69.541C48.5495 70.2421 48.461 70.9494 48.2231 71.6121C47.9852 72.2748 47.6038 72.8763 47.1064 73.3734C46.6089 73.8704 46.0078 74.2506 45.3463 74.4867C44.6847 74.7227 43.9793 74.8086 43.2807 74.7383H14.4981C13.7954 74.8191 13.0837 74.7408 12.4152 74.5091C11.7468 74.2775 11.1386 73.8983 10.6356 73.3996C10.1325 72.9009 9.74743 72.2954 9.50858 71.6276C9.26974 70.9598 9.18326 70.2467 9.25552 69.541V17.7741C9.18486 17.0741 9.27032 16.3671 9.5057 15.7043C9.74108 15.0415 10.1205 14.4395 10.6164 13.942C11.1124 13.4445 11.7124 13.0639 12.3731 12.8278C13.0338 12.5916 13.7386 12.5059 14.4364 12.5768H14.4775ZM48.5232 30.7674C50.7025 30.3333 52.9505 30.3893 55.1056 30.9313C57.2607 31.4734 59.2691 32.4881 60.9864 33.9024C62.7036 35.3166 64.0869 37.0952 65.0367 39.1101C65.9864 41.125 66.4791 43.3261 66.4791 45.555C66.4791 47.7838 65.9864 49.9849 65.0367 51.9998C64.0869 54.0148 62.7036 55.7934 60.9864 57.2076C59.2691 58.6218 57.2607 59.6365 55.1056 60.1786C52.9505 60.7207 50.7025 60.7767 48.5232 60.3426V30.7674ZM48.5232 39.5121C49.4125 39.0721 50.3894 38.8394 51.3809 38.8315C52.2909 38.7808 53.2017 38.9169 54.0575 39.2314C54.9132 39.5459 55.6961 40.0322 56.3581 40.6606C57.0202 41.2889 57.5475 42.0461 57.908 42.8859C58.2684 43.7257 58.4542 44.6304 58.4542 45.5447C58.4542 46.4589 58.2684 47.3636 57.908 48.2034C57.5475 49.0432 57.0202 49.8004 56.3581 50.4287C55.6961 51.0571 54.9132 51.5434 54.0575 51.8579C53.2017 52.1724 52.2909 52.3085 51.3809 52.2579C50.3783 52.2522 49.389 52.0269 48.4821 51.5979L48.5232 39.5121ZM48.3176 16.1448C48.7635 15.5546 49.3805 15.1173 50.0839 14.8928C50.7873 14.6682 51.5427 14.6675 52.2466 14.8906C52.9504 15.1138 53.5682 15.5499 54.0152 16.1392C54.4623 16.7285 54.7166 17.442 54.7435 18.182C54.7703 18.9221 54.5683 19.6523 54.1651 20.2726C53.7619 20.8928 53.1773 21.3728 52.4915 21.6467C51.8056 21.9205 51.0521 21.9748 50.3343 21.8021C49.6165 21.6294 48.9695 21.2382 48.4821 20.6821L48.3176 16.1448Z" stroke="#333333" stroke-width="2.5" stroke-linecap="round" stroke-linejoin="round"/>
</g>
</svg>
