<svg width="93" height="52" viewBox="0 0 93 52" fill="none" xmlns="http://www.w3.org/2000/svg">
<path fill-rule="evenodd" clip-rule="evenodd" d="M57.1328 24.1012C59.9387 22.3716 61.2264 19.8371 61.328 16.762C61.427 13.8263 61.4171 10.8564 61.224 7.91829C60.9218 3.39001 57.1452 0.062901 52.5017 0.050669C49.1732 0.0408831 45.8436 0.0441454 42.5144 0.0474074C40.8499 0.0490382 39.1855 0.050669 37.5214 0.050669C35.4783 0.050669 35.4733 0.0506646 35.4733 2.05182V36.71C35.4733 38.1574 35.4747 39.6049 35.4761 41.0523C35.4789 43.9472 35.4816 46.8421 35.4733 49.737C35.4733 50.6863 35.6987 51.2049 36.8379 51.1804C39.5087 51.1555 42.1801 51.1588 44.8515 51.1621H44.8525C47.6873 51.1656 50.522 51.1691 53.3561 51.1388C58.3091 51.085 61.3602 47.9805 61.375 43.0828C61.3794 41.6402 61.3727 40.1969 61.3659 38.7534V38.7533C61.3536 36.1066 61.3412 33.4594 61.3973 30.8141C61.4691 27.6436 60.3299 25.3195 57.1328 24.1012ZM66.9422 25.5813C66.9422 33.5916 66.9381 41.602 66.9298 49.6123C66.9298 50.5908 67.0685 51.1707 68.3092 51.1633C76.0805 51.1193 83.8517 51.1193 91.623 51.1633C92.5888 51.1633 93.0073 50.8966 92.9999 49.8814C92.9652 45.199 92.9652 40.5166 92.9999 35.8342C92.9999 34.814 92.5616 34.5082 91.6131 34.5229C89.565 34.5547 87.5145 34.562 85.4664 34.5229C84.4238 34.4984 84.0325 34.8801 84.0548 35.932C84.1117 38.5032 84.1043 41.0695 84.0548 43.6504C84.0127 46.0601 82.1479 47.7481 79.7308 47.6576C77.4302 47.5671 75.8502 45.7788 75.8427 43.1807C75.8328 39.2993 75.8361 35.4189 75.8394 31.5382V31.5379C75.8411 29.5974 75.8427 27.6568 75.8427 25.7159C75.8427 23.6916 75.8418 21.6672 75.8409 19.6427V19.6425C75.8381 13.5686 75.8353 7.49392 75.8576 1.42065C75.8576 0.402952 75.5802 -0.015388 74.4906 0.0237544C73.1389 0.0737177 71.7848 0.0630167 70.4308 0.0523168C69.8622 0.0478233 69.2936 0.04333 68.7253 0.04333C66.9521 0.04333 66.9422 0.0433252 66.9422 1.79005C66.9405 9.72128 66.9405 17.6517 66.9422 25.5813ZM20.7753 22.1539V42.2633C20.7839 42.8534 20.7449 43.4432 20.6589 44.0272C20.2553 46.4026 18.5044 47.8068 16.2012 47.6405C14.069 47.4864 12.5435 45.7347 12.5286 43.3837L12.5232 42.6351V42.6349C12.507 40.3945 12.4907 38.1559 12.5286 35.9173C12.5509 34.8605 12.1274 34.4935 11.0947 34.5155C9.04664 34.5571 6.9961 34.5498 4.94556 34.5155C3.98963 34.5009 3.55377 34.8189 3.58844 35.8366C3.64788 37.691 3.63549 39.5478 3.58844 41.4046C3.51167 45.0742 5.16845 47.8362 8.21454 49.7615C12.2909 52.34 16.8055 52.3743 21.34 51.4422C27.0854 50.2606 29.6511 46.953 29.6536 41.1526V25.9678C29.6536 23.886 29.6521 21.804 29.6506 19.7219V19.7217C29.6464 13.7053 29.6421 7.68829 29.6734 1.67263C29.6734 0.42986 29.3366 -0.0643103 28.0092 0.00663527C26.0895 0.103266 24.1661 0.103266 22.2464 0.00663527C21.0527 -0.0496319 20.7258 0.361359 20.7332 1.51117C20.7873 6.88707 20.7826 12.254 20.778 17.6179V17.6182C20.7767 19.1303 20.7753 20.6422 20.7753 22.1539ZM16.122 0.172986H0C2.67709 6.19602 5.26007 12.0013 7.84306 17.8066L8.3136 17.7822C9.78016 14.4874 11.2419 11.1888 12.718 7.85793L12.7181 7.85754L12.7189 7.85576C13.8422 5.32087 14.9738 2.76735 16.122 0.182774V0.172986ZM7.89755 29.5298C10.6044 29.6717 13.0165 27.4136 13.1849 24.5807C13.3409 21.9777 11.06 19.5558 8.28883 19.3846C5.58202 19.2182 3.06095 21.5056 2.92226 24.2578C2.78606 26.9513 5.08673 29.3903 7.89755 29.5371V29.5298ZM44.5051 34.0297V34.0292V34.0291C44.5112 31.9819 44.5172 29.9338 44.4854 27.8858C44.4705 26.9072 44.79 26.5036 45.8103 26.5672C46.4831 26.6089 47.1633 26.5998 47.8407 26.5907C48.2754 26.5849 48.7089 26.5791 49.1387 26.5868C51.0555 26.6186 51.7168 27.169 52.0684 29.0625C52.208 29.7648 52.2851 30.4778 52.2987 31.1933C52.3136 33.6659 52.3086 36.1396 52.3037 38.6129V38.6132C52.3012 39.8496 52.2987 41.0859 52.2987 42.322C52.2954 42.7427 52.2573 43.1624 52.1848 43.577C51.739 46.0992 51.1224 46.6081 48.532 46.6154C48.2814 46.6154 48.0302 46.6093 47.7789 46.6032H47.7787C47.2178 46.5896 46.6566 46.576 46.1025 46.6301C44.8915 46.7475 44.4408 46.3341 44.4755 45.0864C44.5318 43.051 44.5206 41.0131 44.5094 38.9754V38.9752V38.9751C44.5048 38.1449 44.5002 37.3148 44.5002 36.4849C44.5002 35.6667 44.5027 34.8482 44.5051 34.0297ZM44.506 11.5068C44.503 12.1841 44.5001 12.8613 44.5001 13.5377C44.5001 14.2169 44.5051 14.8964 44.5102 15.5762C44.5222 17.1734 44.5341 18.7726 44.4803 20.3754C44.4382 21.557 44.879 21.9386 46.038 21.8432C46.685 21.7902 47.338 21.8018 47.9913 21.8133C48.3633 21.8199 48.7353 21.8265 49.1064 21.8212C51.09 21.7967 51.9197 21.2365 52.0361 19.2574C52.1979 16.4816 52.2114 13.6962 52.2249 10.9116C52.2282 10.2456 52.2314 9.57971 52.2366 8.91397C52.1996 8.325 52.094 7.74219 51.9221 7.17703C51.6324 5.94405 50.8449 5.31043 49.5496 5.31043C49.2021 5.30974 48.8545 5.31214 48.5069 5.31454C47.6162 5.32068 46.7256 5.32683 45.8349 5.28107C44.8468 5.23215 44.4629 5.58198 44.4852 6.58255C44.5203 8.21668 44.5131 9.86186 44.506 11.5068Z" fill="#B0B0B0"/>
</svg>
