<?xml version="1.0" encoding="utf-8"?>
<!-- Generator: Adobe Illustrator 24.1.0, SVG Export Plug-In . SVG Version: 6.00 Build 0)  -->
<svg version="1.1" id="Layer_1" xmlns="http://www.w3.org/2000/svg" xmlns:xlink="http://www.w3.org/1999/xlink" x="0px" y="0px"
	 viewBox="0 0 712 264" style="enable-background:new 0 0 712 264;" xml:space="preserve">
<style type="text/css">
	.st0{fill:#FFFFFF;}
	.st1{fill:#FF4713;}
</style>
<g>
	<g>
		<g>
			<path class="st0" d="M459.2,27.11h-20.76c-8.82,0-15.96,7.2-15.96,16.07v47.69c0,0.29,0.22,0.54,0.53,0.54h14.91
				c0.29,0,0.52-0.24,0.52-0.54V43.18c0-2.96,2.39-5.35,5.33-5.35h5.86c5.59,0,10.12-4.57,10.12-10.18
				C459.74,27.35,459.5,27.11,459.2,27.11"/>
			<path class="st0" d="M393.69,75.32c0,2.97-2.39,5.37-5.33,5.37h-10.65c-2.94,0-5.33-2.4-5.33-5.37V43.18
				c0-2.96,2.39-5.35,5.33-5.35h10.65c2.94,0,5.33,2.39,5.33,5.35V75.32z M393.69,27.11h-21.3c-8.82,0-15.97,7.2-15.97,16.07v79.83
				c0,0.3,0.24,0.54,0.54,0.54c8.53,0,15.44-6.96,15.44-15.53V91.94c0-0.29,0.23-0.53,0.58-0.56l20.72,0.03
				c8.82,0,15.97-7.2,15.97-16.08V43.18C409.66,34.31,402.51,27.11,393.69,27.11"/>
			<path class="st0" d="M328.64,75.38c0,2.96-2.38,5.36-5.33,5.36h-10.64c-2.94,0-5.33-2.4-5.33-5.36V43.23
				c0-2.96,2.38-5.36,5.33-5.36h10.64c2.95,0,5.33,2.4,5.33,5.36V75.38z M328.64,27.16h-21.3c-8.82,0-15.98,7.19-15.98,16.07v32.15
				c0,8.87,7.16,16.08,15.98,16.08h21.3c8.82,0,15.97-7.2,15.97-16.08V43.23C344.61,34.36,337.46,27.16,328.64,27.16"/>
			<path class="st0" d="M286.24,27.11h-48.8c-5.58,0-10.11,4.57-10.11,10.19c0,0.28,0.24,0.53,0.53,0.53l20.86,0.04
				c-0.58,1.67-0.91,3.46-0.91,5.32v47.69c0,0.29,0.24,0.54,0.53,0.54h14.91c0.29,0,0.53-0.24,0.53-0.54V43.18
				c0-2.95,2.39-5.35,5.32-5.35h7.55c5.59,0,10.12-4.57,10.12-10.18C286.77,27.35,286.53,27.11,286.24,27.11"/>
			<path class="st0" d="M75.62,24.97c-6.95,0-13.02,3.84-16.23,9.52l-9.95,17.36c-0.1,0.13-0.25,0.22-0.86,0l-9.95-17.36
				c-3.2-5.68-9.28-9.52-16.24-9.52c-10.29,0-18.63,8.39-18.63,18.75v57.86c0,0.3,0.24,0.54,0.53,0.54
				c8.53,0,15.44-6.95,15.44-15.53v-43.4c0-2.96,2.38-5.36,5.33-5.36c1.74,0,3.29,0.83,4.25,2.14l11.72,20.42v19.77
				c0,0.29,0.23,0.54,0.52,0.54h14.91c0.3,0,0.54-0.25,0.54-0.54V60.39l11.72-20.42c0.97-1.31,2.52-2.14,4.25-2.14
				c2.94,0,5.32,2.4,5.32,5.36v47.68c0,0.3,0.24,0.53,0.53,0.53h14.91c0.29,0,0.53-0.24,0.53-0.53V43.72
				C94.26,33.36,85.92,24.97,75.62,24.97"/>
			<path class="st0" d="M215.82,54.32c-0.13-0.1-0.21-0.25-0.01-0.85c3.6-2.26,5.47-6.42,5.47-10.29c0-8.88-7.15-16.08-15.97-16.08
				h-27.18c-5.58,0.02-10.09,4.56-10.09,10.18c0,0.3,0.24,0.54,0.53,0.54h31.41c2.95,0,5.33,2.39,5.33,5.36
				c0,2.96-2.38,5.36-5.33,5.36h-11.2c-5.58,0.01-10.09,4.55-10.09,10.17c0,0.3,0.24,0.53,0.53,0.53h20.76
				c2.95,0,5.33,2.4,5.33,5.36v10.71c0,2.97-2.38,5.37-5.33,5.37h-31.41c-0.3,0-0.53,0.23-0.53,0.53c0,5.63,4.52,10.18,10.12,10.18
				h27.15c8.82,0,15.97-7.2,15.97-16.09V64.61C221.29,60.75,219.41,56.59,215.82,54.32"/>
			<path class="st0" d="M157.61,27.11h-14.91c-0.3,0-0.54,0.25-0.54,0.54v47.68c0,2.97-2.38,5.37-5.33,5.37H126.2
				c-2.94,0-5.33-2.4-5.33-5.37V27.65c0-0.29-0.24-0.54-0.53-0.54h-14.91c-0.29,0-0.53,0.25-0.53,0.54v47.68
				c0,8.88,7.15,16.08,15.97,16.08h20.76c0.3,0,0.53,0.24,0.53,0.53v31.07c0,0.3,0.24,0.54,0.54,0.54c8.52,0,15.44-6.96,15.44-15.54
				l0-80.36C158.14,27.35,157.9,27.11,157.61,27.11"/>
			<path class="st1" d="M502.85,5.07h180.61c13.5,0,24.54,11.12,24.54,24.7v57.96c0,13.58-11.04,24.7-24.54,24.7H502.85
				c-13.5,0-24.55-11.12-24.55-24.7V29.77C478.31,16.19,489.36,5.07,502.85,5.07"/>
			<path class="st0" d="M515,40.07h30.87v18.77H515V40.07z M515,89.89v-18.6h37.05l6.1-6.22V33.92l-6.1-6.31h-49.44v62.29H515z
				 M578.49,40.07h30.86v18.77h-30.86V40.07z M621.65,89.89l-12.3-18.6h6.19l6.11-6.22V33.92l-6.11-6.31h-49.43v62.29h12.37v-18.6
				h15.85l11.94,18.6H621.65z M642.88,40.07h30.86v37.37h-30.86V40.07z M679.93,89.89l6.11-6.13V33.92l-6.11-6.31H636.6l-6.11,6.31
				v49.84l6.11,6.13H679.93z"/>
		</g>
	</g>
</g>
<g>
	<path class="st0" d="M17.63,189.59h-3.89v14.37H9.52v-31.99h4.22v14.11h3.3l11.18-14.11h5.25l-12.22,15.51l13.12,16.48h-5.16
		L17.63,189.59z"/>
	<path class="st0" d="M62.62,189c0,3.13-0.53,5.87-1.58,8.21c-1.05,2.34-2.55,4.12-4.48,5.35s-4.19,1.85-6.77,1.85
		c-2.52,0-4.75-0.62-6.7-1.86c-1.95-1.24-3.46-3-4.54-5.3c-1.08-2.29-1.63-4.95-1.66-7.96v-2.31c0-3.08,0.53-5.79,1.6-8.15
		s2.58-4.16,4.54-5.42c1.96-1.25,4.19-1.88,6.71-1.88c2.56,0,4.82,0.62,6.78,1.86c1.96,1.24,3.46,3.03,4.52,5.38
		c1.05,2.35,1.58,5.09,1.58,8.21V189z M58.42,186.93c0-3.79-0.76-6.71-2.29-8.73c-1.52-2.03-3.65-3.04-6.39-3.04
		c-2.67,0-4.76,1.01-6.3,3.04c-1.53,2.03-2.32,4.84-2.36,8.45V189c0,3.68,0.77,6.57,2.32,8.67c1.55,2.1,3.67,3.15,6.38,3.15
		c2.72,0,4.83-0.99,6.33-2.98c1.49-1.99,2.26-4.83,2.31-8.54V186.93z"/>
	<path class="st0" d="M74.84,171.97l10.46,26.1l10.46-26.1h5.47v31.99h-4.22V191.5l0.4-13.45l-10.5,25.91h-3.23L73.2,178.12
		l0.42,13.38v12.46h-4.22v-31.99H74.84z"/>
	<path class="st0" d="M133.57,203.96h-4.24v-28.54h-15.78v28.54h-4.22v-31.99h24.24V203.96z"/>
	<path class="st0" d="M165.88,171.97v31.99h-4.22v-28.54h-11.47l-0.57,12.69c-0.22,4.25-0.66,7.45-1.31,9.59
		c-0.65,2.14-1.61,3.71-2.87,4.72c-1.26,1-2.94,1.52-5.05,1.55H139v-3.45l0.88-0.04c1.36-0.1,2.41-0.54,3.14-1.33
		c0.73-0.78,1.29-2.03,1.67-3.75s0.65-4.35,0.81-7.91l0.66-15.51H165.88z"/>
	<path class="st0" d="M192.06,189.17h-13.86v11.34h16.11v3.45h-20.32v-31.99h20.1v3.45h-15.89v10.31h13.86V189.17z"/>
	<path class="st0" d="M208.3,189.59h-3.89v14.37h-4.22v-31.99h4.22v14.11h3.3l11.18-14.11h5.25l-12.22,15.51l13.12,16.48h-5.16
		L208.3,189.59z"/>
	<path class="st0" d="M252.22,193.81c-0.4,3.38-1.64,6-3.75,7.83c-2.1,1.84-4.9,2.76-8.38,2.76c-3.78,0-6.81-1.35-9.09-4.06
		s-3.42-6.34-3.42-10.88v-3.08c0-2.97,0.53-5.59,1.59-7.84c1.06-2.26,2.57-3.99,4.52-5.2c1.95-1.21,4.2-1.81,6.77-1.81
		c3.4,0,6.12,0.95,8.17,2.85s3.24,4.52,3.58,7.88h-4.24c-0.37-2.56-1.16-4.41-2.38-5.55c-1.22-1.15-2.93-1.72-5.13-1.72
		c-2.7,0-4.81,1-6.34,2.99s-2.3,4.83-2.3,8.51v3.1c0,3.47,0.73,6.24,2.18,8.29s3.48,3.08,6.09,3.08c2.34,0,4.14-0.53,5.39-1.59
		c1.25-1.06,2.08-2.91,2.49-5.55H252.22z"/>
	<path class="st0" d="M283.01,203.96h-4.24v-14.79h-16.13v14.79h-4.22v-31.99h4.22v13.75h16.13v-13.75h4.24V203.96z"/>
	<path class="st0" d="M295.37,185.02h7.95c3.34,0.04,5.95,0.9,7.82,2.57s2.81,3.94,2.81,6.81c0,2.89-0.94,5.19-2.83,6.9
		c-1.89,1.71-4.47,2.6-7.73,2.66h-12.24v-31.99h4.22V185.02z M295.37,188.47v12.04h7.71c2.09,0,3.72-0.56,4.89-1.67
		c1.16-1.12,1.75-2.61,1.75-4.49c0-1.8-0.56-3.23-1.68-4.27c-1.12-1.04-2.71-1.58-4.78-1.61H295.37z M322.04,203.96h-4.22v-31.99
		h4.22V203.96z"/>
	<path class="st0" d="M348.4,189.17h-13.86v11.34h16.11v3.45h-20.32v-31.99h20.1v3.45h-15.89v10.31h13.86V189.17z"/>
	<path class="st0" d="M372.15,191.44v12.52h-4.22v-31.99h11.8c3.5,0,6.24,0.89,8.23,2.68s2.98,4.15,2.98,7.1
		c0,3.11-0.97,5.5-2.91,7.17c-1.94,1.68-4.72,2.52-8.34,2.52H372.15z M372.15,187.99h7.58c2.26,0,3.98-0.53,5.19-1.6
		c1.2-1.06,1.8-2.6,1.8-4.61c0-1.91-0.6-3.43-1.8-4.58s-2.85-1.74-4.94-1.78h-7.82V187.99z"/>
	<path class="st0" d="M414.85,189.17h-13.86v11.34h16.11v3.45h-20.32v-31.99h20.1v3.45h-15.89v10.31h13.86V189.17z"/>
	<path class="st0" d="M427.19,171.97v28.54h11.01v-28.54h4.2v28.54h10.94v-28.54h4.22v31.99h-34.61v-31.99H427.19z"/>
	<path class="st0" d="M483.67,189.17h-13.87v11.34h16.11v3.45h-20.33v-31.99h20.11v3.45h-15.89v10.31h13.87V189.17z"/>
	<path class="st0" d="M516.2,203.96h-4.24v-14.79h-16.13v14.79h-4.22v-31.99h4.22v13.75h16.13v-13.75h4.24V203.96z"/>
	<path class="st0" d="M544.32,171.97h4.22v31.99h-4.22v-24.65l-15.75,24.65h-4.24v-31.99h4.24v24.65L544.32,171.97z"/>
	<path class="st0" d="M573.42,203.96V191.5h-7.38l-6.61,12.46h-4.5l7.43-13.62c-4.13-1.63-6.2-4.53-6.2-8.72c0-3.05,1-5.42,3-7.11
		c2-1.69,4.78-2.54,8.34-2.54h10.17v31.99H573.42z M560.37,181.6c0,1.94,0.6,3.49,1.81,4.67c1.21,1.17,2.89,1.77,5.04,1.78h6.2
		v-12.63h-6c-2.29,0-4.03,0.54-5.24,1.63C560.97,178.13,560.37,179.65,560.37,181.6z"/>
	<path class="st0" d="M33.93,243c0,3.13-0.53,5.87-1.58,8.21c-1.05,2.34-2.55,4.12-4.48,5.35s-4.19,1.85-6.77,1.85
		c-2.52,0-4.75-0.62-6.7-1.86c-1.95-1.24-3.46-3-4.54-5.3c-1.08-2.29-1.63-4.95-1.66-7.96v-2.31c0-3.08,0.53-5.79,1.6-8.15
		s2.58-4.16,4.54-5.42c1.96-1.25,4.19-1.88,6.71-1.88c2.56,0,4.82,0.62,6.78,1.86c1.96,1.24,3.46,3.03,4.52,5.38
		c1.05,2.35,1.58,5.09,1.58,8.21V243z M29.73,240.93c0-3.79-0.76-6.71-2.29-8.73c-1.52-2.03-3.65-3.04-6.39-3.04
		c-2.67,0-4.76,1.01-6.3,3.04c-1.53,2.03-2.32,4.84-2.36,8.45V243c0,3.68,0.77,6.57,2.32,8.67c1.55,2.1,3.67,3.15,6.38,3.15
		c2.72,0,4.83-0.99,6.33-2.98c1.49-1.99,2.26-4.83,2.31-8.54V240.93z"/>
	<path class="st0" d="M61.08,229.42H50.8v28.54h-4.2v-28.54H36.34v-3.45h24.74V229.42z"/>
	<path class="st0" d="M84.9,243.59h-3.89v14.37h-4.22v-31.99h4.22v14.11h3.3l11.18-14.11h5.25l-12.22,15.51l13.12,16.48h-5.16
		L84.9,243.59z"/>
	<path class="st0" d="M129.88,243c0,3.13-0.53,5.87-1.58,8.21c-1.05,2.34-2.55,4.12-4.48,5.35s-4.19,1.85-6.77,1.85
		c-2.52,0-4.75-0.62-6.7-1.86c-1.95-1.24-3.46-3-4.54-5.3c-1.08-2.29-1.63-4.95-1.66-7.96v-2.31c0-3.08,0.53-5.79,1.6-8.15
		s2.58-4.16,4.54-5.42c1.96-1.25,4.19-1.88,6.71-1.88c2.56,0,4.82,0.62,6.78,1.86c1.96,1.24,3.46,3.03,4.52,5.38
		c1.05,2.35,1.58,5.09,1.58,8.21V243z M125.69,240.93c0-3.79-0.76-6.71-2.29-8.73c-1.52-2.03-3.65-3.04-6.39-3.04
		c-2.67,0-4.76,1.01-6.3,3.04c-1.53,2.03-2.32,4.84-2.36,8.45V243c0,3.68,0.77,6.57,2.32,8.67c1.55,2.1,3.67,3.15,6.38,3.15
		c2.72,0,4.83-0.99,6.33-2.98c1.49-1.99,2.26-4.83,2.31-8.54V240.93z"/>
	<path class="st0" d="M142.11,225.97l10.46,26.1l10.46-26.1h5.47v31.99h-4.22V245.5l0.4-13.45l-10.5,25.91h-3.23l-10.48-25.84
		l0.42,13.38v12.46h-4.22v-31.99H142.11z"/>
	<path class="st0" d="M200.83,257.96h-4.24v-28.54h-15.78v28.54h-4.22v-31.99h24.24V257.96z"/>
	<path class="st0" d="M226.62,249.59h-13.4l-3.01,8.37h-4.35l12.22-31.99h3.69L234,257.96h-4.33L226.62,249.59z M214.49,246.14
		h10.88l-5.45-14.96L214.49,246.14z"/>
	<path class="st0" d="M263.34,257.96h-4.24v-14.79h-16.13v14.79h-4.22v-31.99h4.22v13.75h16.13v-13.75h4.24V257.96z"/>
	<path class="st0" d="M291.46,225.97h4.22v31.99h-4.22v-24.65l-15.75,24.65h-4.24v-31.99h4.24v24.65L291.46,225.97z"/>
	<path class="st0" d="M323.99,225.97h4.22v31.99h-4.22v-24.65l-15.75,24.65h-4.24v-31.99h4.24v24.65L323.99,225.97z"/>
	<path class="st0" d="M353.39,225.97l10.46,26.1l10.46-26.1h5.47v31.99h-4.22V245.5l0.4-13.45l-10.5,25.91h-3.23l-10.48-25.84
		l0.42,13.38v12.46h-4.22v-31.99H353.39z"/>
	<path class="st0" d="M398.66,244.54l7.36-18.57h4.9l-11.32,26.65c-0.76,1.7-1.47,2.9-2.13,3.62c-0.66,0.71-1.43,1.25-2.32,1.63
		c-0.89,0.37-2,0.56-3.33,0.56c-1.16,0-1.9-0.07-2.22-0.2l0.13-3.34l2,0.09c1.54,0,2.68-0.74,3.43-2.22l0.55-1.14l0.83-1.96
		l-10.9-23.69h4.72L398.66,244.54z"/>
	<path class="st0" d="M432.82,234.55c0-1.7-0.62-3.06-1.86-4.06c-1.24-1-2.98-1.51-5.22-1.51c-1.88,0-3.45,0.52-4.71,1.56
		c-1.27,1.04-1.9,2.32-1.9,3.85h-4.22c0-1.7,0.46-3.22,1.4-4.57s2.23-2.4,3.9-3.15c1.67-0.75,3.52-1.13,5.54-1.13
		c3.57,0,6.35,0.8,8.33,2.4c1.98,1.6,2.97,3.83,2.97,6.69c0,1.48-0.45,2.83-1.36,4.04c-0.91,1.21-2.18,2.17-3.8,2.88
		c3.76,1.26,5.65,3.76,5.65,7.5c0,2.87-1.07,5.15-3.21,6.84s-5,2.53-8.57,2.53c-2.12,0-4.05-0.38-5.79-1.13
		c-1.74-0.75-3.09-1.83-4.05-3.22s-1.45-3.05-1.45-4.97h4.22c0,1.68,0.67,3.08,2,4.19s3.02,1.67,5.08,1.67c2.3,0,4.13-0.54,5.5-1.6
		s2.05-2.48,2.05-4.24c0-3.75-2.32-5.66-6.97-5.73h-3.96v-3.45h3.93c2.14-0.04,3.76-0.53,4.86-1.45S432.82,236.24,432.82,234.55z"/>
	<path class="st0" d="M465.33,229.42h-10.28v28.54h-4.2v-28.54h-10.26v-3.45h24.74V229.42z"/>
	<path class="st0" d="M494.51,243c0,3.13-0.53,5.87-1.58,8.21c-1.05,2.34-2.55,4.12-4.48,5.35s-4.19,1.85-6.77,1.85
		c-2.52,0-4.75-0.62-6.7-1.86c-1.95-1.24-3.46-3-4.54-5.3c-1.08-2.29-1.63-4.95-1.66-7.96v-2.31c0-3.08,0.53-5.79,1.6-8.15
		c1.07-2.36,2.58-4.16,4.54-5.42c1.96-1.25,4.19-1.88,6.71-1.88c2.56,0,4.82,0.62,6.78,1.86c1.96,1.24,3.46,3.03,4.51,5.38
		c1.05,2.35,1.58,5.09,1.58,8.21V243z M490.32,240.93c0-3.79-0.76-6.71-2.29-8.73c-1.52-2.03-3.66-3.04-6.39-3.04
		c-2.67,0-4.76,1.01-6.3,3.04c-1.53,2.03-2.32,4.84-2.36,8.45V243c0,3.68,0.77,6.57,2.32,8.67c1.55,2.1,3.67,3.15,6.38,3.15
		c2.72,0,4.83-0.99,6.33-2.98c1.49-1.99,2.26-4.83,2.31-8.54V240.93z"/>
	<path class="st0" d="M505.51,245.44v12.52h-4.22v-31.99h11.8c3.5,0,6.24,0.89,8.23,2.68c1.99,1.79,2.98,4.15,2.98,7.1
		c0,3.11-0.97,5.5-2.91,7.17c-1.94,1.68-4.72,2.52-8.34,2.52H505.51z M505.51,241.99h7.58c2.26,0,3.98-0.53,5.19-1.6
		c1.2-1.06,1.8-2.6,1.8-4.61c0-1.91-0.6-3.43-1.8-4.58s-2.85-1.74-4.94-1.78h-7.82V241.99z"/>
	<path class="st0" d="M549.97,229.42h-15.42v28.54h-4.24v-31.99h19.67V229.42z"/>
</g>
</svg>
