<?xml version="1.0" encoding="utf-8"?>
<!-- Generator: Adobe Illustrator 24.1.0, SVG Export Plug-In . SVG Version: 6.00 Build 0)  -->
<svg version="1.1" id="Layer_1" xmlns="http://www.w3.org/2000/svg" xmlns:xlink="http://www.w3.org/1999/xlink" x="0px" y="0px"
	 viewBox="0 0 712 128" style="enable-background:new 0 0 712 128;" xml:space="preserve">
<style type="text/css">
	.st0{fill:#FFFFFF;}
	.st1{fill:#FF4713;}
</style>
<g>
	<g>
		<g>
			<path class="st0" d="M459.2,27.11h-20.76c-8.82,0-15.96,7.2-15.96,16.07v47.69c0,0.29,0.22,0.54,0.53,0.54h14.91
				c0.29,0,0.52-0.24,0.52-0.54V43.18c0-2.96,2.39-5.35,5.33-5.35h5.86c5.59,0,10.12-4.57,10.12-10.18
				C459.74,27.35,459.5,27.11,459.2,27.11"/>
			<path class="st0" d="M393.69,75.32c0,2.97-2.39,5.37-5.33,5.37h-10.65c-2.94,0-5.33-2.4-5.33-5.37V43.18
				c0-2.96,2.39-5.35,5.33-5.35h10.65c2.94,0,5.33,2.39,5.33,5.35V75.32z M393.69,27.11h-21.3c-8.82,0-15.97,7.2-15.97,16.07v79.83
				c0,0.3,0.24,0.54,0.54,0.54c8.53,0,15.44-6.96,15.44-15.53V91.94c0-0.29,0.23-0.53,0.58-0.56l20.72,0.03
				c8.82,0,15.97-7.2,15.97-16.08V43.18C409.66,34.31,402.51,27.11,393.69,27.11"/>
			<path class="st0" d="M328.64,75.38c0,2.96-2.38,5.36-5.33,5.36h-10.64c-2.94,0-5.33-2.4-5.33-5.36V43.23
				c0-2.96,2.38-5.36,5.33-5.36h10.64c2.95,0,5.33,2.4,5.33,5.36V75.38z M328.64,27.16h-21.3c-8.82,0-15.98,7.19-15.98,16.07v32.15
				c0,8.87,7.16,16.08,15.98,16.08h21.3c8.82,0,15.97-7.2,15.97-16.08V43.23C344.61,34.36,337.46,27.16,328.64,27.16"/>
			<path class="st0" d="M286.24,27.11h-48.8c-5.58,0-10.11,4.57-10.11,10.19c0,0.28,0.24,0.53,0.53,0.53l20.86,0.04
				c-0.58,1.67-0.91,3.46-0.91,5.32v47.69c0,0.29,0.24,0.54,0.53,0.54h14.91c0.29,0,0.53-0.24,0.53-0.54V43.18
				c0-2.95,2.39-5.35,5.32-5.35h7.55c5.59,0,10.12-4.57,10.12-10.18C286.77,27.35,286.53,27.11,286.24,27.11"/>
			<path class="st0" d="M75.62,24.97c-6.95,0-13.02,3.84-16.23,9.52l-9.95,17.36c-0.1,0.13-0.25,0.22-0.86,0l-9.95-17.36
				c-3.2-5.68-9.28-9.52-16.24-9.52c-10.29,0-18.63,8.39-18.63,18.75v57.86c0,0.3,0.24,0.54,0.53,0.54
				c8.53,0,15.44-6.95,15.44-15.53v-43.4c0-2.96,2.38-5.36,5.33-5.36c1.74,0,3.29,0.83,4.25,2.14l11.72,20.42v19.77
				c0,0.29,0.23,0.54,0.52,0.54h14.91c0.3,0,0.54-0.25,0.54-0.54V60.39l11.72-20.42c0.97-1.31,2.52-2.14,4.25-2.14
				c2.94,0,5.32,2.4,5.32,5.36v47.68c0,0.3,0.24,0.53,0.53,0.53h14.91c0.29,0,0.53-0.24,0.53-0.53V43.72
				C94.26,33.36,85.92,24.97,75.62,24.97"/>
			<path class="st0" d="M215.82,54.32c-0.13-0.1-0.21-0.25-0.01-0.85c3.6-2.26,5.47-6.42,5.47-10.29c0-8.88-7.15-16.08-15.97-16.08
				h-27.18c-5.58,0.02-10.09,4.56-10.09,10.18c0,0.3,0.24,0.54,0.53,0.54h31.41c2.95,0,5.33,2.39,5.33,5.36
				c0,2.96-2.38,5.36-5.33,5.36h-11.2c-5.58,0.01-10.09,4.55-10.09,10.17c0,0.3,0.24,0.53,0.53,0.53h20.76
				c2.95,0,5.33,2.4,5.33,5.36v10.71c0,2.97-2.38,5.37-5.33,5.37h-31.41c-0.3,0-0.53,0.23-0.53,0.53c0,5.63,4.52,10.18,10.12,10.18
				h27.15c8.82,0,15.97-7.2,15.97-16.09V64.61C221.29,60.75,219.41,56.59,215.82,54.32"/>
			<path class="st0" d="M157.61,27.11h-14.91c-0.3,0-0.54,0.25-0.54,0.54v47.68c0,2.97-2.38,5.37-5.33,5.37H126.2
				c-2.94,0-5.33-2.4-5.33-5.37V27.65c0-0.29-0.24-0.54-0.53-0.54h-14.91c-0.29,0-0.53,0.25-0.53,0.54v47.68
				c0,8.88,7.15,16.08,15.97,16.08h20.76c0.3,0,0.53,0.24,0.53,0.53v31.07c0,0.3,0.24,0.54,0.54,0.54c8.52,0,15.44-6.96,15.44-15.54
				l0-80.36C158.14,27.35,157.9,27.11,157.61,27.11"/>
			<path class="st1" d="M502.85,5.07h180.61c13.5,0,24.54,11.12,24.54,24.7v57.96c0,13.58-11.04,24.7-24.54,24.7H502.85
				c-13.5,0-24.55-11.12-24.55-24.7V29.77C478.31,16.19,489.36,5.07,502.85,5.07"/>
			<path class="st0" d="M515,40.07h30.87v18.77H515V40.07z M515,89.89v-18.6h37.05l6.1-6.22V33.92l-6.1-6.31h-49.44v62.29H515z
				 M578.49,40.07h30.86v18.77h-30.86V40.07z M621.65,89.89l-12.3-18.6h6.19l6.11-6.22V33.92l-6.11-6.31h-49.43v62.29h12.37v-18.6
				h15.85l11.94,18.6H621.65z M642.88,40.07h30.86v37.37h-30.86V40.07z M679.93,89.89l6.11-6.13V33.92l-6.11-6.31H636.6l-6.11,6.31
				v49.84l6.11,6.13H679.93z"/>
		</g>
	</g>
</g>
</svg>
