<svg width="196" height="29" viewBox="0 0 196 29" fill="none" xmlns="http://www.w3.org/2000/svg">
<path fill-rule="evenodd" clip-rule="evenodd" d="M0.0130586 27.9764H9.15912L14.9113 11.8761C14.9113 11.8761 16.2506 6.37146 25.2758 6.37146C33.5791 6.37146 32.916 9.46218 32.916 9.95896C32.916 10.4557 32.364 13.173 25.8833 13.173C19.4027 13.173 16.489 12.0595 16.489 12.0595L17.8838 18.861C17.8838 18.861 24.1488 19.7312 26.9743 19.7312C29.4601 19.7312 42 18.3042 42 9.33548C42 3.64417 34.4872 0 25.4522 0C14.9081 0 8.89781 4.12096 6.24545 10.8892L0 27.9798L0.0130586 27.9764ZM44.0742 12.0295L38.2534 27.9764H46.7984L52.6159 12.0295H44.0742ZM83.1017 19.5945C83.1017 25.9993 72.6099 28.8133 66.5539 28.8133C63.5847 28.8133 52.1325 27.1463 52.1325 20.278C52.1325 13.4098 63.5357 11.1826 68.1381 11.1826C73.286 11.1826 83.1083 13.183 83.1083 19.5945H83.1017ZM67.5861 16.1904C65.525 16.1904 61.223 17.3673 61.223 20.088C61.223 22.8086 65.0383 23.7555 67.2823 23.7555C69.5264 23.7555 74.0112 22.6385 74.0112 19.9179C74.0112 17.1973 69.9477 16.2071 67.5861 16.2071V16.1904ZM82.553 27.9631H90.9151L94.3089 18.7277C94.5408 17.9608 95.7037 16.0604 99.3392 16.0604C103.559 16.0604 103.043 18.6776 102.795 19.3378L99.7051 27.9531H107.946L111.157 19.0877C111.157 19.0877 113.826 11.2959 101.1 11.2959C88.07 11.2959 86.1918 18.0975 86.1918 18.0975L82.553 27.9531V27.9631ZM129.642 15.5136C134.542 15.5136 134.734 17.0573 134.734 17.0573C134.734 17.0573 135.643 18.1075 130.126 18.1075C124.608 18.1075 122.433 16.7472 122.433 16.7472C122.433 16.7472 125.278 15.5136 129.642 15.5136ZM128.793 11.3059C122.972 11.3059 113.039 13.7832 113.039 20.7681C113.039 26.7095 123.877 28.8733 127.153 28.8733C135.76 28.8733 139.582 27.513 139.582 27.513L141.339 22.5652C141.339 22.5652 136.371 24.4189 129.28 24.4189C118.5 24.4189 119.278 19.7812 119.278 19.7812C119.278 19.7812 122.25 22.2551 129.462 22.2551C136.675 22.2551 142.979 20.7114 142.979 17.7407C142.979 14.7701 136.832 11.3059 128.793 11.3059ZM173.821 27.9764H182.124L185.152 19.3611C185.152 19.3611 185.76 16.9473 187.942 16.9473H194.426L196 12.0295H184.306C184.306 12.0295 179.58 12.3128 177.518 17.6307C176.201 21.0493 174.968 24.4979 173.821 27.9764ZM174.396 17.8674C174.396 20.8348 168.095 22.3818 160.882 22.3818C153.67 22.3818 150.701 19.9046 150.701 19.9046C150.701 19.9046 149.91 24.5456 160.699 24.5456C167.791 24.5456 172.762 22.6919 172.762 22.6919L171.002 27.6397C171.002 27.6397 167.18 29 158.573 29C155.307 29 144.459 26.8362 144.459 20.8948C144.459 13.8932 154.392 11.4326 160.213 11.4326C168.252 11.4326 174.396 14.8967 174.396 17.8674ZM153.853 16.8672C153.853 16.8672 156.032 18.2309 161.545 18.2309C167.059 18.2309 166.154 17.1773 166.154 17.1773C166.154 17.1773 165.968 15.6336 161.062 15.6336C156.698 15.6336 153.853 16.8672 153.853 16.8672Z" fill="#B0B0B0"/>
</svg>
