<svg width="76" height="66" viewBox="0 0 76 66" fill="none" xmlns="http://www.w3.org/2000/svg">
<path d="M20.4347 63.6692L21.8993 30.7806C21.9153 30.0715 22.2144 29.396 22.7338 28.8964C23.2532 28.3967 23.9524 28.1118 24.6842 28.1016H25.86C26.5951 28.1016 27.3003 28.3832 27.822 28.885C28.3436 29.3869 28.6395 30.0683 28.6449 30.7806L27.9023 63.7691" stroke="#1573D7" stroke-width="2.5" stroke-linecap="round" stroke-linejoin="round"/>
<path d="M48.0977 63.6693L47.355 30.7807C47.355 30.4272 47.4272 30.0772 47.5674 29.7509C47.7076 29.4245 47.9131 29.1283 48.172 28.8792C48.4308 28.6302 48.738 28.4333 49.0758 28.2998C49.4135 28.1664 49.7752 28.099 50.1399 28.1017H51.3158C52.0459 28.1168 52.7422 28.4033 53.2605 28.9019C53.7789 29.4005 54.0796 30.0732 54.1006 30.7807L55.5653 63.7692" stroke="#1573D7" stroke-width="2.5" stroke-linecap="round" stroke-linejoin="round"/>
<path d="M34.2559 63.6691L34.6272 30.7806C34.619 30.4219 34.6841 30.0651 34.8188 29.7309C34.9536 29.3966 35.1552 29.0915 35.4122 28.8332C35.6692 28.5749 35.9764 28.3684 36.316 28.2257C36.6557 28.0829 37.0212 28.0068 37.3914 28.0016H38.5673C38.941 28.0015 39.3109 28.0738 39.6554 28.2141C39.9999 28.3545 40.3119 28.5602 40.5733 28.8191C40.8346 29.0779 41.0399 29.3848 41.1772 29.7216C41.3145 30.0585 41.381 30.4185 41.3728 30.7806L41.7441 63.7691" stroke="#1573D7" stroke-width="2.5" stroke-linecap="round" stroke-linejoin="round"/>
<path d="M13.2146 14.7864C13.998 14.955 14.6857 15.4064 15.1379 16.0489C15.59 16.6915 15.7727 17.4768 15.6487 18.2452C15.6212 18.6211 15.5145 18.9875 15.3352 19.3219C15.156 19.6562 14.9079 19.9515 14.6064 20.1894C14.3049 20.4273 13.9563 20.6028 13.5821 20.7051C13.2079 20.8075 12.816 20.8344 12.4307 20.7843C10.8571 20.447 9.47451 19.5428 8.56295 18.2547C7.65138 16.9666 7.27894 15.3909 7.52103 13.8467C7.58123 13.0939 7.79963 12.361 8.16282 11.693C8.52601 11.025 9.0263 10.436 9.63296 9.96225C10.2396 9.48851 10.9398 9.14 11.6906 8.93815C12.4413 8.7363 13.2267 8.68537 13.9984 8.78848C16.3538 9.2899 18.4238 10.6416 19.7879 12.569C21.152 14.4963 21.7077 16.8547 21.3423 19.1649C21.2572 20.2953 20.9341 21.3968 20.3928 22.4016C19.8515 23.4063 19.1035 24.2929 18.195 25.0066C17.2866 25.7204 16.2368 26.2462 15.1106 26.5515C13.9844 26.8569 12.8055 26.9354 11.6468 26.7822C8.4935 26.1208 5.72113 24.3145 3.8989 21.7342C2.07666 19.1539 1.34285 15.9953 1.84812 12.907C2.71453 6.28936 6.65462 2.23077 13.0289 2.23077H62.9711C69.3454 2.23077 73.2854 6.22938 74.1519 12.907C74.6571 15.9953 73.9233 19.1539 72.1011 21.7342C70.2788 24.3145 67.5065 26.1208 64.3532 26.7822C63.1977 26.9354 62.022 26.8582 60.8984 26.5552C59.7748 26.2523 58.7269 25.73 57.819 25.0204C56.9111 24.3109 56.1624 23.4291 55.6188 22.429C55.0751 21.429 54.7481 20.3318 54.6577 19.2048C54.2808 16.8885 54.8312 14.52 56.1963 12.5839C57.5613 10.6477 59.6379 9.29004 62.0015 8.78848C62.7722 8.68534 63.5565 8.73636 64.306 8.93841C65.0556 9.14046 65.7544 9.48925 66.3595 9.96324C66.9645 10.4372 67.4629 11.0264 67.8239 11.6943C68.1849 12.3622 68.4008 13.0948 68.4583 13.8467C68.7113 15.3894 68.3458 16.9675 67.4368 18.2574C66.5277 19.5474 65.144 20.4514 63.5693 20.7843C63.1856 20.8344 62.7953 20.8081 62.4224 20.707C62.0495 20.6059 61.7018 20.4321 61.4006 20.1963C61.0994 19.9605 60.8509 19.6676 60.6705 19.3356C60.4901 19.0035 60.3814 18.6393 60.3512 18.2652C60.2215 17.4937 60.4015 16.7033 60.8542 16.0564C61.3068 15.4095 61.9979 14.955 62.7854 14.7864" stroke="#1573D7" stroke-width="2.5" stroke-linecap="round" stroke-linejoin="round"/>
<path d="M60.8257 27.0019L62.5585 63.6691" stroke="#1573D7" stroke-width="2.5" stroke-linecap="round" stroke-linejoin="round"/>
<path d="M21.2186 20.3646H54.9053" stroke="#1573D7" stroke-width="2.5" stroke-linecap="round" stroke-linejoin="round"/>
<path d="M13.4415 63.6695L15.1743 26.8623" stroke="#1573D7" stroke-width="2.5" stroke-linecap="round" stroke-linejoin="round"/>
<path d="M13.2559 8.78854H62.6205" stroke="#1573D7" stroke-width="2.5" stroke-linecap="round" stroke-linejoin="round"/>
</svg>
