<svg width="66" height="74" viewBox="0 0 66 74" fill="none" xmlns="http://www.w3.org/2000/svg">
<path d="M38.1721 9.8037C39.0913 8.78205 40.2506 8.00732 41.5446 7.55006C42.8385 7.0928 44.2259 6.96754 45.5804 7.18569C46.935 7.40384 48.2136 7.95846 49.2998 8.79905C50.3861 9.63963 51.2454 10.7395 51.7996 11.9984C52.3538 13.2573 52.5853 14.6353 52.4729 16.0069C52.3605 17.3785 51.9078 18.7001 51.1561 19.8514C50.4044 21.0026 49.3776 21.9469 48.1691 22.5983C46.9606 23.2497 45.6089 23.5874 44.237 23.5807C43.3138 23.5792 42.3971 23.4259 41.5232 23.127M24.5826 9.57683V7.5144C24.5054 6.80845 24.5865 6.09411 24.82 5.42366C25.0535 4.75321 25.4335 4.1436 25.9321 3.63945C26.4307 3.1353 27.0354 2.74935 27.7018 2.50985C28.3683 2.27035 29.0797 2.18335 29.784 2.25522H58.5667C59.2636 2.18815 59.9668 2.27652 60.6257 2.514C61.2847 2.75148 61.8831 3.13218 62.3782 3.62886C62.8733 4.12553 63.2528 4.72588 63.4896 5.38692C63.7263 6.04796 63.8144 6.75334 63.7475 7.45253V59.2194C63.8139 59.9194 63.7256 60.6255 63.489 61.2874C63.2524 61.9493 62.8733 62.5507 62.3786 63.0489C61.8839 63.5471 61.2859 63.9298 60.6271 64.1698C59.9682 64.4098 59.2647 64.5011 58.5667 64.4374H41.4821M21.8688 14.4235C23.4953 14.4235 25.0852 14.9074 26.4376 15.8139C27.79 16.7203 28.844 18.0088 29.4664 19.5162C30.0889 21.0236 30.2517 22.6824 29.9344 24.2827C29.6171 25.883 28.8339 27.3529 27.6838 28.5067C26.5337 29.6604 25.0684 30.4461 23.4732 30.7644C21.8779 31.0827 20.2244 30.9194 18.7218 30.295C17.2191 29.6706 15.9348 28.6132 15.0311 27.2565C14.1275 25.8999 13.6452 24.3049 13.6452 22.6732C13.6452 20.4853 14.5116 18.3869 16.0538 16.8398C17.5961 15.2927 19.6878 14.4235 21.8688 14.4235ZM22.0538 34.8003C25.0227 34.8166 27.9202 35.7146 30.3808 37.3811C32.8414 39.0476 34.7548 41.4079 35.8797 44.1641C37.0046 46.9203 37.2905 49.949 36.7014 52.8681C36.1122 55.7872 34.6745 58.4658 32.5694 60.566C30.4644 62.6662 27.7864 64.094 24.8734 64.669C21.9604 65.2441 18.9429 64.9408 16.2016 63.7973C13.4602 62.6538 11.1179 60.7214 9.47016 58.244C7.82239 55.7665 6.94302 52.8549 6.94297 49.8766C6.94297 45.8781 8.52634 42.0434 11.3448 39.2161C14.1632 36.3887 17.9858 34.8003 21.9716 34.8003H22.0538ZM22.0538 43.1737C23.3803 43.1737 24.6769 43.5686 25.7795 44.3083C26.8822 45.048 27.7412 46.0993 28.2479 47.3291C28.7545 48.5588 28.886 49.9118 28.6258 51.2165C28.3655 52.5213 27.7251 53.7193 26.7857 54.6588C25.8463 55.5983 24.6502 56.237 23.3487 56.4941C22.0473 56.7512 20.699 56.6151 19.4747 56.103C18.2504 55.591 17.2051 54.726 16.4711 53.6176C15.7372 52.5092 15.3475 51.2073 15.3516 49.8766C15.3516 48.9947 15.5251 48.1214 15.8622 47.3068C16.1993 46.4922 16.6933 45.7524 17.3159 45.1297C17.9385 44.507 18.6775 44.0137 19.4906 43.678C20.3036 43.3424 21.1747 43.171 22.0538 43.1737ZM21.8688 19.0846C22.5763 19.0846 23.268 19.2951 23.8562 19.6894C24.4445 20.0837 24.903 20.6442 25.1738 21.2999C25.4445 21.9557 25.5154 22.6772 25.3774 23.3733C25.2393 24.0695 24.8986 24.7089 24.3983 25.2108C23.898 25.7126 23.2606 26.0544 22.5667 26.1929C21.8728 26.3314 21.1535 26.2603 20.4999 25.9887C19.8462 25.7171 19.2875 25.2571 18.8944 24.667C18.5014 24.0768 18.2915 23.383 18.2915 22.6732C18.2888 22.2012 18.3795 21.7333 18.5583 21.2967C18.7371 20.8601 19.0005 20.4634 19.3332 20.1296C19.666 19.7958 20.0614 19.5316 20.4966 19.3522C20.9319 19.1728 21.3983 19.0819 21.8688 19.0846ZM7.47751 9.57683H36.2601C36.9603 9.50322 37.6681 9.58671 38.3322 9.82126C38.9963 10.0558 39.6001 10.4356 40.0999 10.933C40.5997 11.4304 40.983 12.0331 41.2221 12.6975C41.4611 13.3618 41.55 14.0711 41.4821 14.7741V66.541C41.5495 67.2421 41.461 67.9495 41.2231 68.6122C40.9852 69.2748 40.6038 69.8764 40.1064 70.3734C39.6089 70.8705 39.0078 71.2507 38.3463 71.4867C37.6847 71.7227 36.9793 71.8087 36.2807 71.7383H7.49807C6.79544 71.8192 6.08369 71.7409 5.41523 71.5092C4.74677 71.2775 4.13862 70.8983 3.63558 70.3996C3.13255 69.9009 2.74743 69.2954 2.50858 68.6276C2.26974 67.9598 2.18326 67.2468 2.25552 66.541V14.7741C2.18486 14.0741 2.27032 13.3671 2.5057 12.7043C2.74108 12.0415 3.12049 11.4396 3.61643 10.9421C4.11237 10.4445 4.71243 10.0639 5.37312 9.82781C6.03381 9.59168 6.73859 9.50595 7.43639 9.57683H7.47751ZM41.5232 27.7674C43.7025 27.3333 45.9505 27.3893 48.1056 27.9314C50.2607 28.4735 52.2691 29.4882 53.9864 30.9024C55.7036 32.3166 57.0869 34.0952 58.0367 36.1102C58.9864 38.1251 59.4791 40.3262 59.4791 42.555C59.4791 44.7839 58.9864 46.985 58.0367 48.9999C57.0869 51.0148 55.7036 52.7934 53.9864 54.2076C52.2691 55.6219 50.2607 56.6366 48.1056 57.1786C45.9505 57.7207 43.7025 57.7767 41.5232 57.3426V27.7674ZM41.5232 36.5121C42.4125 36.0721 43.3894 35.8394 44.3809 35.8315C45.2909 35.7809 46.2017 35.917 47.0575 36.2315C47.9132 36.546 48.6961 37.0323 49.3581 37.6606C50.0202 38.289 50.5475 39.0462 50.908 39.886C51.2684 40.7257 51.4542 41.6304 51.4542 42.5447C51.4542 43.459 51.2684 44.3637 50.908 45.2034C50.5475 46.0432 50.0202 46.8004 49.3581 47.4288C48.6961 48.0571 47.9132 48.5434 47.0575 48.8579C46.2017 49.1724 45.2909 49.3085 44.3809 49.2579C43.3783 49.2522 42.389 49.027 41.4821 48.5979L41.5232 36.5121ZM41.3176 13.1448C41.7635 12.5547 42.3805 12.1174 43.0839 11.8928C43.7873 11.6683 44.5427 11.6675 45.2466 11.8907C45.9504 12.1138 46.5682 12.55 47.0152 13.1392C47.4623 13.7285 47.7166 14.4421 47.7435 15.1821C47.7703 15.9221 47.5683 16.6523 47.1651 17.2726C46.7619 17.8929 46.1773 18.3729 45.4915 18.6467C44.8056 18.9206 44.0521 18.9749 43.3343 18.8022C42.6165 18.6295 41.9695 18.2383 41.4821 17.6822L41.3176 13.1448Z" stroke="#F58220" stroke-width="2.5" stroke-linecap="round" stroke-linejoin="round"/>
</svg>
