<svg width="60" height="42" viewBox="0 0 60 42" fill="none" xmlns="http://www.w3.org/2000/svg">
<path d="M46.7002 40.1487H37.8938C37.6531 40.1487 37.4222 40.2462 37.252 40.4198C37.0818 40.5934 36.9862 40.8288 36.9862 41.0743C36.9862 41.3198 37.0818 41.5553 37.252 41.7289C37.4222 41.9025 37.6531 42 37.8938 42H46.7002C46.9409 42 47.1718 41.9025 47.342 41.7289C47.5122 41.5553 47.6078 41.3198 47.6078 41.0743C47.6078 40.8288 47.5122 40.5934 47.342 40.4198C47.1718 40.2462 46.9409 40.1487 46.7002 40.1487V40.1487Z" fill="#F58220"/>
<path d="M46.7002 36.1308H37.8938C37.6531 36.1308 37.4222 36.2283 37.252 36.4019C37.0818 36.5755 36.9862 36.811 36.9862 37.0564C36.9862 37.3019 37.0818 37.5374 37.252 37.711C37.4222 37.8846 37.6531 37.9821 37.8938 37.9821H46.7002C46.9409 37.9821 47.1718 37.8846 47.342 37.711C47.5122 37.5374 47.6078 37.3019 47.6078 37.0564C47.6078 36.811 47.5122 36.5755 47.342 36.4019C47.1718 36.2283 46.9409 36.1308 46.7002 36.1308V36.1308Z" fill="#F58220"/>
<path d="M46.7003 32.1229H37.8938C37.7673 32.1094 37.6394 32.1231 37.5185 32.1631C37.3975 32.2032 37.2861 32.2688 37.1916 32.3556C37.097 32.4424 37.0215 32.5485 36.9697 32.667C36.918 32.7855 36.8912 32.9138 36.8912 33.0435C36.8912 33.1732 36.918 33.3015 36.9697 33.42C37.0215 33.5386 37.097 33.6446 37.1916 33.7314C37.2861 33.8182 37.3975 33.8838 37.5185 33.9239C37.6394 33.964 37.7673 33.9777 37.8938 33.9641H46.7003C46.8268 33.9777 46.9546 33.964 47.0756 33.9239C47.1966 33.8838 47.308 33.8182 47.4025 33.7314C47.497 33.6446 47.5726 33.5386 47.6244 33.42C47.6761 33.3015 47.7028 33.1732 47.7028 33.0435C47.7028 32.9138 47.6761 32.7855 47.6244 32.667C47.5726 32.5485 47.497 32.4424 47.4025 32.3556C47.308 32.2688 47.1966 32.2032 47.0756 32.1631C46.9546 32.1231 46.8268 32.1094 46.7003 32.1229V32.1229Z" fill="#F58220"/>
<path d="M22.1061 40.1487H13.2997C13.059 40.1487 12.8281 40.2462 12.6579 40.4198C12.4877 40.5934 12.3921 40.8288 12.3921 41.0743C12.3921 41.3198 12.4877 41.5553 12.6579 41.7289C12.8281 41.9025 13.059 42 13.2997 42H22.1061C22.3468 42 22.5776 41.9025 22.7479 41.7289C22.9181 41.5553 23.0137 41.3198 23.0137 41.0743C23.0137 40.8288 22.9181 40.5934 22.7479 40.4198C22.5776 40.2462 22.3468 40.1487 22.1061 40.1487V40.1487Z" fill="#F58220"/>
<path d="M22.1061 36.1308H13.2997C13.059 36.1308 12.8281 36.2283 12.6579 36.4019C12.4877 36.5755 12.3921 36.811 12.3921 37.0564C12.3921 37.3019 12.4877 37.5374 12.6579 37.711C12.8281 37.8846 13.059 37.9821 13.2997 37.9821H22.1061C22.3468 37.9821 22.5776 37.8846 22.7479 37.711C22.9181 37.5374 23.0137 37.3019 23.0137 37.0564C23.0137 36.811 22.9181 36.5755 22.7479 36.4019C22.5776 36.2283 22.3468 36.1308 22.1061 36.1308V36.1308Z" fill="#F58220"/>
<path d="M22.1061 32.1229H13.2997C13.1732 32.1094 13.0453 32.1231 12.9243 32.1631C12.8034 32.2032 12.692 32.2688 12.5975 32.3556C12.5029 32.4424 12.4273 32.5485 12.3756 32.667C12.3239 32.7855 12.2971 32.9138 12.2971 33.0435C12.2971 33.1732 12.3239 33.3015 12.3756 33.42C12.4273 33.5386 12.5029 33.6446 12.5975 33.7314C12.692 33.8182 12.8034 33.8838 12.9243 33.9239C13.0453 33.964 13.1732 33.9777 13.2997 33.9641H22.1061C22.3292 33.9401 22.5356 33.8328 22.6856 33.6628C22.8357 33.4929 22.9187 33.2722 22.9187 33.0435C22.9187 32.8148 22.8357 32.5942 22.6856 32.4242C22.5356 32.2542 22.3292 32.1469 22.1061 32.1229V32.1229Z" fill="#F58220"/>
<path d="M22.1061 28.1051H13.2997C13.059 28.1051 12.8281 28.2027 12.6579 28.3762C12.4877 28.5498 12.3921 28.7853 12.3921 29.0308C12.3921 29.2763 12.4877 29.5117 12.6579 29.6853C12.8281 29.8589 13.059 29.9564 13.2997 29.9564H22.1061C22.3468 29.9564 22.5776 29.8589 22.7479 29.6853C22.9181 29.5117 23.0137 29.2763 23.0137 29.0308C23.0137 28.7853 22.9181 28.5498 22.7479 28.3762C22.5776 28.2027 22.3468 28.1051 22.1061 28.1051Z" fill="#F58220"/>
<path d="M22.1061 24.0872H13.2997C13.059 24.0872 12.8281 24.1848 12.6579 24.3584C12.4877 24.532 12.3921 24.7674 12.3921 25.0129C12.3921 25.2584 12.4877 25.4938 12.6579 25.6674C12.8281 25.841 13.059 25.9385 13.2997 25.9385H22.1061C22.3468 25.9385 22.5776 25.841 22.7479 25.6674C22.9181 25.4938 23.0137 25.2584 23.0137 25.0129C23.0137 24.7674 22.9181 24.532 22.7479 24.3584C22.5776 24.1848 22.3468 24.0872 22.1061 24.0872V24.0872Z" fill="#F58220"/>
<path d="M22.1061 20.0692H13.2997C13.059 20.0692 12.8281 20.1668 12.6579 20.3404C12.4877 20.514 12.3921 20.7494 12.3921 20.9949C12.3921 21.2404 12.4877 21.4758 12.6579 21.6494C12.8281 21.823 13.059 21.9205 13.2997 21.9205H22.1061C22.3468 21.9205 22.5776 21.823 22.7479 21.6494C22.9181 21.4758 23.0137 21.2404 23.0137 20.9949C23.0137 20.7494 22.9181 20.514 22.7479 20.3404C22.5776 20.1668 22.3468 20.0692 22.1061 20.0692V20.0692Z" fill="#F58220"/>
<path d="M34.4032 40.1487H25.5968C25.3561 40.1487 25.1252 40.2462 24.955 40.4198C24.7848 40.5934 24.6892 40.8288 24.6892 41.0743C24.6892 41.3198 24.7848 41.5553 24.955 41.7289C25.1252 41.9025 25.3561 42 25.5968 42H34.4032C34.6439 42 34.8748 41.9025 35.045 41.7289C35.2152 41.5553 35.3108 41.3198 35.3108 41.0743C35.3108 40.8288 35.2152 40.5934 35.045 40.4198C34.8748 40.2462 34.6439 40.1487 34.4032 40.1487V40.1487Z" fill="#F58220"/>
<path d="M34.4032 36.1308H25.5968C25.3561 36.1308 25.1252 36.2283 24.955 36.4019C24.7848 36.5755 24.6892 36.811 24.6892 37.0564C24.6892 37.3019 24.7848 37.5374 24.955 37.711C25.1252 37.8846 25.3561 37.9821 25.5968 37.9821H34.4032C34.6439 37.9821 34.8748 37.8846 35.045 37.711C35.2152 37.5374 35.3108 37.3019 35.3108 37.0564C35.3108 36.811 35.2152 36.5755 35.045 36.4019C34.8748 36.2283 34.6439 36.1308 34.4032 36.1308V36.1308Z" fill="#F58220"/>
<path d="M34.4033 32.1229H25.5968C25.4703 32.1094 25.3424 32.1231 25.2215 32.1631C25.1005 32.2032 24.9891 32.2688 24.8946 32.3556C24.8 32.4424 24.7245 32.5485 24.6727 32.667C24.621 32.7855 24.5942 32.9138 24.5942 33.0435C24.5942 33.1732 24.621 33.3015 24.6727 33.42C24.7245 33.5386 24.8 33.6446 24.8946 33.7314C24.9891 33.8182 25.1005 33.8838 25.2215 33.9239C25.3424 33.964 25.4703 33.9777 25.5968 33.9641H34.4033C34.6263 33.9401 34.8327 33.8328 34.9828 33.6628C35.1328 33.4929 35.2158 33.2722 35.2158 33.0435C35.2158 32.8148 35.1328 32.5942 34.9828 32.4242C34.8327 32.2542 34.6263 32.1469 34.4033 32.1229V32.1229Z" fill="#F58220"/>
<path d="M34.4032 28.1051H25.5968C25.3561 28.1051 25.1252 28.2027 24.955 28.3762C24.7848 28.5498 24.6892 28.7853 24.6892 29.0308C24.6892 29.2763 24.7848 29.5117 24.955 29.6853C25.1252 29.8589 25.3561 29.9564 25.5968 29.9564H34.4032C34.6439 29.9564 34.8748 29.8589 35.045 29.6853C35.2152 29.5117 35.3108 29.2763 35.3108 29.0308C35.3108 28.7853 35.2152 28.5498 35.045 28.3762C34.8748 28.2027 34.6439 28.1051 34.4032 28.1051Z" fill="#F58220"/>
<path d="M34.4032 24.0872H25.5968C25.3561 24.0872 25.1252 24.1848 24.955 24.3584C24.7848 24.532 24.6892 24.7674 24.6892 25.0129C24.6892 25.2584 24.7848 25.4938 24.955 25.6674C25.1252 25.841 25.3561 25.9385 25.5968 25.9385H34.4032C34.6439 25.9385 34.8748 25.841 35.045 25.6674C35.2152 25.4938 35.3108 25.2584 35.3108 25.0129C35.3108 24.7674 35.2152 24.532 35.045 24.3584C34.8748 24.1848 34.6439 24.0872 34.4032 24.0872V24.0872Z" fill="#F58220"/>
<path d="M34.4032 20.0692H25.5968C25.3561 20.0692 25.1252 20.1668 24.955 20.3404C24.7848 20.514 24.6892 20.7494 24.6892 20.9949C24.6892 21.2404 24.7848 21.4758 24.955 21.6494C25.1252 21.823 25.3561 21.9205 25.5968 21.9205H34.4032C34.6439 21.9205 34.8748 21.823 35.045 21.6494C35.2152 21.4758 35.3108 21.2404 35.3108 20.9949C35.3108 20.7494 35.2152 20.514 35.045 20.3404C34.8748 20.1668 34.6439 20.0692 34.4032 20.0692V20.0692Z" fill="#F58220"/>
<path d="M34.4033 16.0616H25.5968C25.4703 16.048 25.3424 16.0617 25.2215 16.1018C25.1005 16.1418 24.9891 16.2074 24.8946 16.2942C24.8 16.381 24.7245 16.4871 24.6727 16.6056C24.621 16.7241 24.5942 16.8524 24.5942 16.9821C24.5942 17.1119 24.621 17.2402 24.6727 17.3587C24.7245 17.4772 24.8 17.5833 24.8946 17.6701C24.9891 17.7569 25.1005 17.8224 25.2215 17.8625C25.3424 17.9026 25.4703 17.9163 25.5968 17.9027H34.4033C34.6263 17.8788 34.8327 17.7714 34.9828 17.6015C35.1328 17.4315 35.2158 17.2109 35.2158 16.9821C35.2158 16.7534 35.1328 16.5328 34.9828 16.3628C34.8327 16.1928 34.6263 16.0855 34.4033 16.0616V16.0616Z" fill="#F58220"/>
<path d="M34.4032 12.0435H25.5968C25.3561 12.0435 25.1252 12.1411 24.955 12.3147C24.7848 12.4883 24.6892 12.7237 24.6892 12.9692C24.6892 13.2147 24.7848 13.4501 24.955 13.6237C25.1252 13.7973 25.3561 13.8948 25.5968 13.8948H34.4032C34.6439 13.8948 34.8748 13.7973 35.045 13.6237C35.2152 13.4501 35.3108 13.2147 35.3108 12.9692C35.3108 12.7237 35.2152 12.4883 35.045 12.3147C34.8748 12.1411 34.6439 12.0435 34.4032 12.0435V12.0435Z" fill="#F58220"/>
<path d="M34.4032 8.02567H25.5968C25.3561 8.02567 25.1252 8.12319 24.955 8.29678C24.7848 8.47037 24.6892 8.70582 24.6892 8.95131C24.6892 9.19681 24.7848 9.43225 24.955 9.60584C25.1252 9.77944 25.3561 9.87696 25.5968 9.87696H34.4032C34.6439 9.87696 34.8748 9.77944 35.045 9.60584C35.2152 9.43225 35.3108 9.19681 35.3108 8.95131C35.3108 8.70582 35.2152 8.47037 35.045 8.29678C34.8748 8.12319 34.6439 8.02567 34.4032 8.02567V8.02567Z" fill="#F58220"/>
<path d="M58.9974 40.1487H50.191C49.9503 40.1487 49.7194 40.2462 49.5492 40.4198C49.379 40.5934 49.2834 40.8288 49.2834 41.0743C49.2834 41.3198 49.379 41.5553 49.5492 41.7289C49.7194 41.9025 49.9503 42 50.191 42H58.9974C59.2381 42 59.469 41.9025 59.6392 41.7289C59.8094 41.5553 59.905 41.3198 59.905 41.0743C59.905 40.8288 59.8094 40.5934 59.6392 40.4198C59.469 40.2462 59.2381 40.1487 58.9974 40.1487V40.1487Z" fill="#F58220"/>
<path d="M58.9974 36.1308H50.191C49.9503 36.1308 49.7194 36.2283 49.5492 36.4019C49.379 36.5755 49.2834 36.811 49.2834 37.0564C49.2834 37.3019 49.379 37.5374 49.5492 37.711C49.7194 37.8846 49.9503 37.9821 50.191 37.9821H58.9974C59.2381 37.9821 59.469 37.8846 59.6392 37.711C59.8094 37.5374 59.905 37.3019 59.905 37.0564C59.905 36.811 59.8094 36.5755 59.6392 36.4019C59.469 36.2283 59.2381 36.1308 58.9974 36.1308V36.1308Z" fill="#F58220"/>
<path d="M58.9974 32.1229H50.1909C50.0644 32.1094 49.9365 32.1231 49.8156 32.1631C49.6946 32.2032 49.5832 32.2688 49.4887 32.3556C49.3942 32.4424 49.3186 32.5485 49.2668 32.667C49.2151 32.7855 49.1884 32.9138 49.1884 33.0435C49.1884 33.1732 49.2151 33.3015 49.2668 33.42C49.3186 33.5386 49.3942 33.6446 49.4887 33.7314C49.5832 33.8182 49.6946 33.8838 49.8156 33.9239C49.9365 33.964 50.0644 33.9777 50.1909 33.9641H58.9974C59.1239 33.9777 59.2518 33.964 59.3727 33.9239C59.4937 33.8838 59.6051 33.8182 59.6996 33.7314C59.7941 33.6446 59.8697 33.5386 59.9215 33.42C59.9732 33.3015 60 33.1732 60 33.0435C60 32.9138 59.9732 32.7855 59.9215 32.667C59.8697 32.5485 59.7941 32.4424 59.6996 32.3556C59.6051 32.2688 59.4937 32.2032 59.3727 32.1631C59.2518 32.1231 59.1239 32.1094 58.9974 32.1229V32.1229Z" fill="#F58220"/>
<path d="M58.9974 28.1051H50.191C49.9503 28.1051 49.7194 28.2027 49.5492 28.3762C49.379 28.5498 49.2834 28.7853 49.2834 29.0308C49.2834 29.2763 49.379 29.5117 49.5492 29.6853C49.7194 29.8589 49.9503 29.9564 50.191 29.9564H58.9974C59.2381 29.9564 59.469 29.8589 59.6392 29.6853C59.8094 29.5117 59.905 29.2763 59.905 29.0308C59.905 28.7853 59.8094 28.5498 59.6392 28.3762C59.469 28.2027 59.2381 28.1051 58.9974 28.1051Z" fill="#F58220"/>
<path d="M58.9974 24.0872H50.191C49.9503 24.0872 49.7194 24.1848 49.5492 24.3584C49.379 24.532 49.2834 24.7674 49.2834 25.0129C49.2834 25.2584 49.379 25.4938 49.5492 25.6674C49.7194 25.841 49.9503 25.9385 50.191 25.9385H58.9974C59.2381 25.9385 59.469 25.841 59.6392 25.6674C59.8094 25.4938 59.905 25.2584 59.905 25.0129C59.905 24.7674 59.8094 24.532 59.6392 24.3584C59.469 24.1848 59.2381 24.0872 58.9974 24.0872V24.0872Z" fill="#F58220"/>
<path d="M58.9974 20.0692H50.191C49.9503 20.0692 49.7194 20.1668 49.5492 20.3404C49.379 20.514 49.2834 20.7494 49.2834 20.9949C49.2834 21.2404 49.379 21.4758 49.5492 21.6494C49.7194 21.823 49.9503 21.9205 50.191 21.9205H58.9974C59.2381 21.9205 59.469 21.823 59.6392 21.6494C59.8094 21.4758 59.905 21.2404 59.905 20.9949C59.905 20.7494 59.8094 20.514 59.6392 20.3404C59.469 20.1668 59.2381 20.0692 58.9974 20.0692V20.0692Z" fill="#F58220"/>
<path d="M58.9974 16.0616H50.1909C50.0644 16.048 49.9365 16.0617 49.8156 16.1018C49.6946 16.1418 49.5832 16.2074 49.4887 16.2942C49.3942 16.381 49.3186 16.4871 49.2668 16.6056C49.2151 16.7241 49.1884 16.8524 49.1884 16.9821C49.1884 17.1119 49.2151 17.2402 49.2668 17.3587C49.3186 17.4772 49.3942 17.5833 49.4887 17.6701C49.5832 17.7569 49.6946 17.8224 49.8156 17.8625C49.9365 17.9026 50.0644 17.9163 50.1909 17.9027H58.9974C59.1239 17.9163 59.2518 17.9026 59.3727 17.8625C59.4937 17.8224 59.6051 17.7569 59.6996 17.6701C59.7941 17.5833 59.8697 17.4772 59.9215 17.3587C59.9732 17.2402 60 17.1119 60 16.9821C60 16.8524 59.9732 16.7241 59.9215 16.6056C59.8697 16.4871 59.7941 16.381 59.6996 16.2942C59.6051 16.2074 59.4937 16.1418 59.3727 16.1018C59.2518 16.0617 59.1239 16.048 58.9974 16.0616V16.0616Z" fill="#F58220"/>
<path d="M58.9974 12.0435H50.191C49.9503 12.0435 49.7194 12.1411 49.5492 12.3147C49.379 12.4883 49.2834 12.7237 49.2834 12.9692C49.2834 13.2147 49.379 13.4501 49.5492 13.6237C49.7194 13.7973 49.9503 13.8948 50.191 13.8948H58.9974C59.2381 13.8948 59.469 13.7973 59.6392 13.6237C59.8094 13.4501 59.905 13.2147 59.905 12.9692C59.905 12.7237 59.8094 12.4883 59.6392 12.3147C59.469 12.1411 59.2381 12.0435 58.9974 12.0435V12.0435Z" fill="#F58220"/>
<path d="M58.9974 8.02567H50.191C49.9503 8.02567 49.7194 8.12319 49.5492 8.29678C49.379 8.47037 49.2834 8.70582 49.2834 8.95131C49.2834 9.19681 49.379 9.43225 49.5492 9.60584C49.7194 9.77944 49.9503 9.87696 50.191 9.87696H58.9974C59.2381 9.87696 59.469 9.77944 59.6392 9.60584C59.8094 9.43225 59.905 9.19681 59.905 8.95131C59.905 8.70582 59.8094 8.47037 59.6392 8.29678C59.469 8.12319 59.2381 8.02567 58.9974 8.02567V8.02567Z" fill="#F58220"/>
<path d="M50.1909 5.85896H58.9974C59.1239 5.87255 59.2518 5.85885 59.3727 5.81878C59.4937 5.7787 59.6051 5.71314 59.6996 5.62634C59.7941 5.53954 59.8697 5.43344 59.9215 5.31493C59.9732 5.19642 60 5.06814 60 4.9384C60 4.80867 59.9732 4.68039 59.9215 4.56188C59.8697 4.44336 59.7941 4.33726 59.6996 4.25047C59.6051 4.16367 59.4937 4.0981 59.3727 4.05803C59.2518 4.01795 59.1239 4.00426 58.9974 4.01784H50.1909C50.0644 4.00426 49.9365 4.01795 49.8156 4.05803C49.6946 4.0981 49.5832 4.16367 49.4887 4.25047C49.3942 4.33726 49.3186 4.44336 49.2668 4.56188C49.2151 4.68039 49.1884 4.80867 49.1884 4.9384C49.1884 5.06814 49.2151 5.19642 49.2668 5.31493C49.3186 5.43344 49.3942 5.53954 49.4887 5.62634C49.5832 5.71314 49.6946 5.7787 49.8156 5.81878C49.9365 5.85885 50.0644 5.87255 50.1909 5.85896V5.85896Z" fill="#F58220"/>
<path d="M9.79901 40.1487H1.00254C0.76184 40.1487 0.530995 40.2462 0.360792 40.4198C0.19059 40.5934 0.0949707 40.8288 0.0949707 41.0743C0.0949707 41.3198 0.19059 41.5553 0.360792 41.7289C0.530995 41.9025 0.76184 42 1.00254 42H9.79901C10.0397 42 10.2706 41.9025 10.4408 41.7289C10.611 41.5553 10.7066 41.3198 10.7066 41.0743C10.7066 40.8288 10.611 40.5934 10.4408 40.4198C10.2706 40.2462 10.0397 40.1487 9.79901 40.1487V40.1487Z" fill="#F58220"/>
<path d="M9.79901 36.1308H1.00254C0.76184 36.1308 0.530995 36.2283 0.360792 36.4019C0.19059 36.5755 0.0949707 36.811 0.0949707 37.0564C0.0949707 37.3019 0.19059 37.5374 0.360792 37.711C0.530995 37.8846 0.76184 37.9821 1.00254 37.9821H9.79901C10.0397 37.9821 10.2706 37.8846 10.4408 37.711C10.611 37.5374 10.7066 37.3019 10.7066 37.0564C10.7066 36.811 10.611 36.5755 10.4408 36.4019C10.2706 36.2283 10.0397 36.1308 9.79901 36.1308V36.1308Z" fill="#F58220"/>
<path d="M9.79905 32.1229H1.00258C0.876081 32.1094 0.748196 32.1231 0.627218 32.1631C0.506241 32.2032 0.394874 32.2688 0.300341 32.3556C0.205807 32.4424 0.130219 32.5485 0.0784782 32.667C0.0267375 32.7855 0 32.9138 0 33.0435C0 33.1732 0.0267375 33.3015 0.0784782 33.42C0.130219 33.5386 0.205807 33.6446 0.300341 33.7314C0.394874 33.8182 0.506241 33.8838 0.627218 33.9239C0.748196 33.964 0.876081 33.9777 1.00258 33.9641H9.79905C9.92554 33.9777 10.0534 33.964 10.1744 33.9239C10.2954 33.8838 10.4068 33.8182 10.5013 33.7314C10.5958 33.6446 10.6714 33.5386 10.7231 33.42C10.7749 33.3015 10.8016 33.1732 10.8016 33.0435C10.8016 32.9138 10.7749 32.7855 10.7231 32.667C10.6714 32.5485 10.5958 32.4424 10.5013 32.3556C10.4068 32.2688 10.2954 32.2032 10.1744 32.1631C10.0534 32.1231 9.92554 32.1094 9.79905 32.1229V32.1229Z" fill="#F58220"/>
<path d="M9.79901 28.1051H1.00254C0.76184 28.1051 0.530995 28.2027 0.360792 28.3762C0.19059 28.5498 0.0949707 28.7853 0.0949707 29.0308C0.0949707 29.2763 0.19059 29.5117 0.360792 29.6853C0.530995 29.8589 0.76184 29.9564 1.00254 29.9564H9.79901C10.0397 29.9564 10.2706 29.8589 10.4408 29.6853C10.611 29.5117 10.7066 29.2763 10.7066 29.0308C10.7066 28.7853 10.611 28.5498 10.4408 28.3762C10.2706 28.2027 10.0397 28.1051 9.79901 28.1051V28.1051Z" fill="#F58220"/>
<path d="M9.79901 24.0872H1.00254C0.76184 24.0872 0.530995 24.1848 0.360792 24.3584C0.19059 24.532 0.0949707 24.7674 0.0949707 25.0129C0.0949707 25.2584 0.19059 25.4938 0.360792 25.6674C0.530995 25.841 0.76184 25.9385 1.00254 25.9385H9.79901C10.0397 25.9385 10.2706 25.841 10.4408 25.6674C10.611 25.4938 10.7066 25.2584 10.7066 25.0129C10.7066 24.7674 10.611 24.532 10.4408 24.3584C10.2706 24.1848 10.0397 24.0872 9.79901 24.0872V24.0872Z" fill="#F58220"/>
<path d="M9.79901 20.0692H1.00254C0.76184 20.0692 0.530995 20.1668 0.360792 20.3404C0.19059 20.514 0.0949707 20.7494 0.0949707 20.9949C0.0949707 21.2404 0.19059 21.4758 0.360792 21.6494C0.530995 21.823 0.76184 21.9205 1.00254 21.9205H9.79901C10.0397 21.9205 10.2706 21.823 10.4408 21.6494C10.611 21.4758 10.7066 21.2404 10.7066 20.9949C10.7066 20.7494 10.611 20.514 10.4408 20.3404C10.2706 20.1668 10.0397 20.0692 9.79901 20.0692V20.0692Z" fill="#F58220"/>
<path d="M9.79905 16.0616H1.00258C0.876081 16.048 0.748196 16.0617 0.627218 16.1018C0.506241 16.1418 0.394874 16.2074 0.300341 16.2942C0.205807 16.381 0.130219 16.4871 0.0784782 16.6056C0.0267375 16.7241 0 16.8524 0 16.9821C0 17.1119 0.0267375 17.2402 0.0784782 17.3587C0.130219 17.4772 0.205807 17.5833 0.300341 17.6701C0.394874 17.7569 0.506241 17.8224 0.627218 17.8625C0.748196 17.9026 0.876081 17.9163 1.00258 17.9027H9.79905C9.92554 17.9163 10.0534 17.9026 10.1744 17.8625C10.2954 17.8224 10.4068 17.7569 10.5013 17.6701C10.5958 17.5833 10.6714 17.4772 10.7231 17.3587C10.7749 17.2402 10.8016 17.1119 10.8016 16.9821C10.8016 16.8524 10.7749 16.7241 10.7231 16.6056C10.6714 16.4871 10.5958 16.381 10.5013 16.2942C10.4068 16.2074 10.2954 16.1418 10.1744 16.1018C10.0534 16.0617 9.92554 16.048 9.79905 16.0616V16.0616Z" fill="#F58220"/>
<path d="M9.79901 12.0435H1.00254C0.76184 12.0435 0.530995 12.1411 0.360792 12.3147C0.19059 12.4883 0.0949707 12.7237 0.0949707 12.9692C0.0949707 13.2147 0.19059 13.4501 0.360792 13.6237C0.530995 13.7973 0.76184 13.8948 1.00254 13.8948H9.79901C10.0397 13.8948 10.2706 13.7973 10.4408 13.6237C10.611 13.4501 10.7066 13.2147 10.7066 12.9692C10.7066 12.7237 10.611 12.4883 10.4408 12.3147C10.2706 12.1411 10.0397 12.0435 9.79901 12.0435V12.0435Z" fill="#F58220"/>
<path d="M9.79901 8.02567H1.00254C0.76184 8.02567 0.530995 8.12319 0.360792 8.29678C0.19059 8.47037 0.0949707 8.70582 0.0949707 8.95131C0.0949707 9.19681 0.19059 9.43225 0.360792 9.60584C0.530995 9.77944 0.76184 9.87696 1.00254 9.87696H9.79901C10.0397 9.87696 10.2706 9.77944 10.4408 9.60584C10.611 9.43225 10.7066 9.19681 10.7066 8.95131C10.7066 8.70582 10.611 8.47037 10.4408 8.29678C10.2706 8.12319 10.0397 8.02567 9.79901 8.02567V8.02567Z" fill="#F58220"/>
<path d="M9.79905 4.06884H1.00258C0.876081 4.05526 0.748196 4.06895 0.627218 4.10902C0.506241 4.1491 0.394874 4.21466 0.300341 4.30146C0.205807 4.38826 0.130219 4.49436 0.0784782 4.61287C0.0267375 4.73139 0 4.85967 0 4.9894C0 5.11913 0.0267375 5.24741 0.0784782 5.36593C0.130219 5.48444 0.205807 5.59054 0.300341 5.67734C0.394874 5.76414 0.506241 5.8297 0.627218 5.86978C0.748196 5.90985 0.876081 5.92354 1.00258 5.90996H9.79905C9.92554 5.92354 10.0534 5.90985 10.1744 5.86978C10.2954 5.8297 10.4068 5.76414 10.5013 5.67734C10.5958 5.59054 10.6714 5.48444 10.7231 5.36593C10.7749 5.24741 10.8016 5.11913 10.8016 4.9894C10.8016 4.85967 10.7749 4.73139 10.7231 4.61287C10.6714 4.49436 10.5958 4.38826 10.5013 4.30146C10.4068 4.21466 10.2954 4.1491 10.1744 4.10902C10.0534 4.06895 9.92554 4.05526 9.79905 4.06884V4.06884Z" fill="#F58220"/>
<path d="M9.79901 0H1.00254C0.76184 3.65819e-09 0.530995 0.0975233 0.360792 0.271116C0.19059 0.444709 0.0949707 0.680151 0.0949707 0.925648C0.0949707 1.17114 0.19059 1.40659 0.360792 1.58018C0.530995 1.75377 0.76184 1.8513 1.00254 1.8513H9.79901C9.91819 1.8513 10.0362 1.82735 10.1463 1.78083C10.2564 1.73432 10.3565 1.66613 10.4408 1.58018C10.525 1.49423 10.5919 1.39218 10.6375 1.27988C10.6831 1.16757 10.7066 1.04721 10.7066 0.925648C10.7066 0.80409 10.6831 0.683722 10.6375 0.571418C10.5919 0.459113 10.525 0.35707 10.4408 0.271116C10.3565 0.185162 10.2564 0.116979 10.1463 0.0704607C10.0362 0.0239426 9.91819 -1.81135e-09 9.79901 0V0Z" fill="#F58220"/>
</svg>
