<svg width="65" height="65" viewBox="0 0 65 65" fill="none" xmlns="http://www.w3.org/2000/svg">
<path d="M57.7561 0H7.25476C5.33156 0.00286831 3.48795 0.768127 2.12804 2.12804C0.768127 3.48795 0.00286831 5.33156 0 7.25476L0 57.7561C0.00287325 59.6783 0.76848 61.5208 2.1287 62.879C3.48892 64.2372 5.33255 65 7.25476 65H57.7561C59.6764 64.9971 61.5173 64.233 62.8751 62.8751C64.233 61.5173 64.9971 59.6764 65 57.7561V7.25476C65 5.33255 64.2372 3.48892 62.879 2.1287C61.5208 0.76848 59.6783 0.00287325 57.7561 0V0ZM63.0372 57.7561C63.0343 59.1558 62.477 60.4975 61.4872 61.4872C60.4975 62.477 59.1558 63.0343 57.7561 63.0372H7.25476C5.855 63.0343 4.51339 62.477 3.52361 61.4872C2.53383 60.4975 1.97651 59.1558 1.97364 57.7561V7.25476C1.97364 5.85412 2.53004 4.51084 3.52044 3.52044C4.51084 2.53004 5.85412 1.97364 7.25476 1.97364H57.7561C59.1558 1.97651 60.4975 2.53383 61.4872 3.52361C62.477 4.51339 63.0343 5.855 63.0372 7.25476V57.7561Z" fill="#F58220"/>
<path d="M54.2752 28.325C54.2277 28.0676 54.08 27.8396 53.8644 27.6911C53.6488 27.5427 53.3831 27.4859 53.1257 27.5334C52.8683 27.5808 52.6403 27.7286 52.4918 27.9442C52.3434 28.1597 52.2866 28.4254 52.3341 28.6829C52.5658 29.953 52.682 31.2415 52.6811 32.5325C52.6709 37.4541 50.9149 42.2124 47.7255 45.9607C44.5362 49.709 40.1205 52.2043 35.2641 53.0024C30.4077 53.8005 25.4256 52.8498 21.2044 50.3193C16.9832 47.7889 13.7967 43.8429 12.2119 39.1835C10.6271 34.5241 10.7467 29.4535 12.5496 24.8741C14.3525 20.2947 17.7216 16.5034 22.0575 14.1749C26.3933 11.8464 31.4147 11.1317 36.228 12.1581C41.0414 13.1844 45.3345 15.8852 48.3434 19.7798C48.4253 19.8809 48.5263 19.9649 48.6407 20.027C48.755 20.089 48.8805 20.128 49.0098 20.1416C49.1392 20.1552 49.27 20.1432 49.3948 20.1062C49.5195 20.0692 49.6358 20.0081 49.7369 19.9262C49.838 19.8443 49.922 19.7433 49.9841 19.629C50.0462 19.5146 50.0851 19.3892 50.0987 19.2598C50.1123 19.1304 50.1003 18.9996 50.0633 18.8748C50.0263 18.7501 49.9652 18.6338 49.8833 18.5327C46.5821 14.2722 41.8767 11.3207 36.604 10.2031C31.3314 9.08552 25.8332 9.87428 21.0874 12.4291C16.3416 14.984 12.6558 19.1393 10.6854 24.156C8.71513 29.1728 8.58804 34.7258 10.3268 39.8274C12.0655 44.9291 15.5574 49.2486 20.1814 52.0179C24.8053 54.7872 30.2616 55.8267 35.5799 54.9515C40.8982 54.0763 45.7337 51.3431 49.2263 47.2381C52.719 43.1331 54.6425 37.9223 54.6547 32.5325C54.6556 31.1214 54.5285 29.7132 54.2752 28.325Z" fill="#F58220"/>
<path d="M37.9546 32.5325C37.9546 31.3443 37.6022 30.1827 36.9421 29.1948C36.2819 28.2068 35.3437 27.4368 34.2459 26.9821C33.1482 26.5274 31.9402 26.4084 30.7748 26.6402C29.6095 26.872 28.539 27.4442 27.6988 28.2844C26.8586 29.1246 26.2865 30.195 26.0546 31.3604C25.8228 32.5258 25.9418 33.7337 26.3965 34.8315C26.8512 35.9293 27.6212 36.8675 28.6092 37.5277C29.5972 38.1878 30.7587 38.5401 31.9469 38.5401C33.5393 38.5373 35.0657 37.9034 36.1918 36.7774C37.3178 35.6513 37.9517 34.1249 37.9546 32.5325ZM31.9469 36.5665C31.1472 36.5751 30.3631 36.3458 29.694 35.9078C29.0249 35.4698 28.5011 34.8428 28.1891 34.1065C27.8772 33.3702 27.7911 32.5577 27.9418 31.7724C28.0925 30.987 28.4732 30.2642 29.0356 29.6957C29.598 29.1271 30.3167 28.7386 31.1004 28.5794C31.8841 28.4202 32.6974 28.4975 33.4371 28.8015C34.1767 29.1055 34.8093 29.6225 35.2546 30.2868C35.6998 30.9511 35.9375 31.7328 35.9375 32.5325C35.9261 33.5977 35.4949 34.6154 34.7376 35.3646C33.9803 36.1138 32.958 36.534 31.8927 36.534L31.9469 36.5665Z" fill="#F58220"/>
<path d="M53.3968 12.7744L47.1831 32.7277C46.6104 34.582 45.5192 36.2339 44.0383 37.4883L43.0732 38.3124L42.6611 37.8136C42.4925 37.615 42.2529 37.4902 41.9935 37.4658C41.7342 37.4415 41.4756 37.5196 41.273 37.6835L35.0159 42.8236C34.8173 42.9922 34.6925 43.2317 34.6682 43.4911C34.6439 43.7505 34.722 44.0091 34.8858 44.2116L36.9353 46.7058C37.1061 46.9002 37.3407 47.0271 37.5968 47.0637H37.6944C37.9244 47.0642 38.1471 46.9836 38.3234 46.8359L44.5696 41.6958C44.7723 41.5304 44.9011 41.2912 44.9275 41.031C44.9539 40.7707 44.8759 40.5105 44.7106 40.3077L44.3202 39.8306L45.307 38.9956C47.0834 37.4998 48.39 35.5229 49.07 33.3024L55.3054 13.3166C56.0813 13.2934 56.8234 12.9935 57.3976 12.4711C57.9717 11.9486 58.3402 11.2381 58.4363 10.4678C58.5325 9.69751 58.3501 8.91821 57.922 8.27065C57.4938 7.62309 56.8483 7.14996 56.1019 6.9367C55.3555 6.72344 54.5574 6.78411 53.8518 7.10775C53.1462 7.43139 52.5796 7.99668 52.2543 8.70151C51.929 9.40634 51.8665 10.2043 52.078 10.9512C52.2895 11.6981 52.7611 12.3447 53.4077 12.7744H53.3968ZM37.8246 44.6888L37.0329 43.7237L41.761 39.8306L42.5635 40.7957L37.8246 44.6888ZM55.1753 8.78371C55.4309 8.78372 55.6809 8.85969 55.8933 9.00197C56.1057 9.14425 56.2711 9.34644 56.3685 9.58287C56.4658 9.8193 56.4907 10.0793 56.4401 10.3299C56.3894 10.5806 56.2654 10.8105 56.0838 10.9905C55.9023 11.1705 55.6713 11.2926 55.4203 11.3411C55.1693 11.3897 54.9095 11.3626 54.6739 11.2633C54.4383 11.1639 54.2375 10.9968 54.097 10.7832C53.9565 10.5696 53.8826 10.319 53.8848 10.0633C53.8862 9.892 53.9217 9.72267 53.9892 9.56521C54.0567 9.40774 54.1549 9.2653 54.2781 9.14619C54.4012 9.02708 54.5468 8.93368 54.7065 8.87145C54.8661 8.80921 55.0365 8.77939 55.2078 8.78371H55.1753Z" fill="#F58220"/>
<path d="M55.2077 50.8916C54.3295 50.8916 53.4712 51.1523 52.7413 51.6406C52.0115 52.1289 51.443 52.8229 51.108 53.6346C50.7729 54.4463 50.6864 55.3392 50.8593 56.2002C51.0322 57.0611 51.4568 57.8513 52.0792 58.4708C52.7017 59.0902 53.494 59.5109 54.3558 59.6795C55.2176 59.8482 56.11 59.7573 56.9201 59.4183C57.7301 59.0792 58.4213 58.5074 58.906 57.7752C59.3908 57.0429 59.6472 56.1833 59.643 55.3052C59.6344 54.1335 59.1637 53.0126 58.3331 52.1861C57.5026 51.3596 56.3794 50.8944 55.2077 50.8916ZM55.2077 57.7885C54.7217 57.7885 54.2467 57.6446 53.8424 57.3751C53.438 57.1056 53.1225 56.7224 52.9356 56.2738C52.7486 55.8253 52.6986 55.3315 52.7919 54.8546C52.8851 54.3776 53.1174 53.939 53.4595 53.5939C53.8016 53.2488 54.2382 53.0126 54.7143 52.9152C55.1904 52.8178 55.6846 52.8635 56.1348 53.0465C56.5849 53.2294 56.9709 53.5416 57.2439 53.9435C57.517 54.3455 57.665 54.8193 57.6693 55.3052C57.6722 55.6303 57.6106 55.9527 57.4882 56.2539C57.3658 56.555 57.1849 56.829 56.956 57.0599C56.7272 57.2907 56.4548 57.474 56.1547 57.5991C55.8547 57.7241 55.5328 57.7885 55.2077 57.7885Z" fill="#F58220"/>
</svg>
