<svg width="70" height="52" viewBox="0 0 70 52" fill="none" xmlns="http://www.w3.org/2000/svg">
<path d="M48.024 0.625H21.9702C21.0204 0.624995 20.1094 1.00512 19.4367 1.68208C18.764 2.35905 18.3845 3.27763 18.3814 4.23656V47.7634C18.3845 48.7224 18.764 49.641 19.4367 50.3179C20.1094 50.9949 21.0204 51.375 21.9702 51.375H48.024C48.9738 51.375 49.8848 50.9949 50.5575 50.3179C51.2302 49.641 51.6097 48.7224 51.6128 47.7634V4.23656C51.6097 3.27763 51.2302 2.35905 50.5575 1.68208C49.8848 1.00512 48.9738 0.624995 48.024 0.625V0.625ZM49.4921 47.7399C49.4921 47.934 49.4541 48.1262 49.3801 48.3054C49.3062 48.4846 49.1979 48.6472 49.0614 48.7839C48.9249 48.9206 48.763 49.0287 48.5849 49.1019C48.4069 49.1751 48.2162 49.212 48.024 49.2104H21.9702C21.778 49.212 21.5873 49.1751 21.4093 49.1019C21.2312 49.0287 21.0693 48.9206 20.9328 48.7839C20.7963 48.6472 20.688 48.4846 20.614 48.3054C20.5401 48.1262 20.5021 47.934 20.5021 47.7399V4.21303C20.5021 4.01892 20.5401 3.82674 20.614 3.64756C20.688 3.46838 20.7963 3.30575 20.9328 3.16904C21.0693 3.03234 21.2312 2.92427 21.4093 2.85107C21.5873 2.77786 21.778 2.74097 21.9702 2.74252H48.024C48.2162 2.74097 48.4069 2.77786 48.5849 2.85107C48.763 2.92427 48.9249 3.03234 49.0614 3.16904C49.1979 3.30575 49.3062 3.46838 49.3801 3.64756C49.4541 3.82674 49.4921 4.01892 49.4921 4.21303V47.7399Z" fill="#1573D7"/>
<path d="M34.962 23.106C32.6303 23.1106 30.3523 23.8131 28.4159 25.1246C26.4796 26.4361 24.9719 28.2978 24.0833 30.4743C23.1947 32.6507 22.9652 35.0443 23.4238 37.3525C23.8823 39.6606 25.0084 41.7797 26.6596 43.4419C28.3108 45.104 30.413 46.2346 32.7005 46.6907C34.988 47.1469 37.3581 46.9081 39.5112 46.0045C41.6643 45.1009 43.5038 43.5732 44.797 41.6143C46.0903 39.6555 46.7793 37.3535 46.777 34.9994C46.7755 33.435 46.4686 31.8862 45.8739 30.4417C45.2791 28.9971 44.4082 27.685 43.3109 26.5804C42.2137 25.4759 40.9115 24.6005 39.4789 24.0043C38.0464 23.4082 36.5115 23.1029 34.962 23.106ZM34.962 44.7635C33.0487 44.7659 31.1777 44.1952 29.5858 43.1237C27.9939 42.0522 26.7525 40.5281 26.0187 38.7441C25.2849 36.9602 25.0917 34.9966 25.4636 33.1017C25.8354 31.2069 26.7556 29.466 28.1077 28.0993C29.4597 26.7326 31.1829 25.8015 33.0593 25.4238C34.9356 25.046 36.8807 25.2387 38.6486 25.9774C40.4164 26.7161 41.9275 27.9676 42.9907 29.5735C44.0539 31.1795 44.6214 33.0677 44.6214 34.9994C44.6183 37.586 43.6 40.066 41.7895 41.8961C39.979 43.7262 37.5239 44.7573 34.962 44.7635Z" fill="#1573D7"/>
<path d="M34.9621 20.3887C36.3448 20.3887 37.6965 19.9747 38.8462 19.1991C39.9959 18.4235 40.892 17.3212 41.4211 16.0314C41.9503 14.7416 42.0887 13.3224 41.819 11.9532C41.5492 10.584 40.8834 9.32635 39.9056 8.33921C38.9279 7.35208 37.6822 6.67983 36.326 6.40748C34.9699 6.13513 33.5642 6.27491 32.2867 6.80914C31.0092 7.34338 29.9174 8.24807 29.1492 9.40882C28.381 10.5696 27.9709 11.9342 27.9709 13.3303C27.9709 15.2023 28.7075 16.9976 30.0186 18.3213C31.3297 19.645 33.1079 20.3887 34.9621 20.3887ZM34.9621 8.42467C35.9254 8.42467 36.8671 8.71307 37.668 9.25339C38.469 9.79372 39.0933 10.5617 39.4619 11.4602C39.8305 12.3588 39.927 13.3475 39.7391 14.3014C39.5511 15.2552 39.0873 16.1314 38.4061 16.8191C37.7249 17.5068 36.8571 17.9752 35.9123 18.1649C34.9675 18.3546 33.9882 18.2573 33.0983 17.8851C32.2083 17.5129 31.4476 16.8826 30.9124 16.074C30.3773 15.2653 30.0916 14.3146 30.0916 13.342C30.0916 12.0379 30.6047 10.7871 31.5181 9.86493C32.4315 8.94275 33.6704 8.42467 34.9621 8.42467Z" fill="#1573D7"/>
<path d="M54.3511 14.4947C54.1083 14.6272 53.9263 14.85 53.8436 15.1157C53.7609 15.3815 53.7841 15.6694 53.9083 15.9182C55.5228 19.0182 56.3665 22.4681 56.3665 25.9705C56.3665 29.473 55.5228 32.9229 53.9083 36.0229C53.8436 36.1479 53.8041 36.2847 53.792 36.4252C53.7798 36.5657 53.7953 36.7073 53.8376 36.8418C53.8798 36.9762 53.9479 37.1009 54.038 37.2087C54.1282 37.3165 54.2385 37.4053 54.3627 37.4699C54.5126 37.5536 54.6808 37.5981 54.8521 37.5993C55.0447 37.5977 55.2332 37.5432 55.3974 37.4417C55.5616 37.3401 55.6954 37.1953 55.7842 37.0228C57.56 33.6168 58.4879 29.8255 58.4879 25.9764C58.4879 22.1273 57.56 18.3361 55.7842 14.93C55.7194 14.8055 55.6306 14.6952 55.5231 14.6058C55.4156 14.5163 55.2915 14.4493 55.1581 14.4088C55.0247 14.3682 54.8846 14.355 54.746 14.3697C54.6074 14.3845 54.4732 14.427 54.3511 14.4947Z" fill="#1573D7"/>
<path d="M60.8758 12.2361C60.8192 12.0983 60.7347 11.974 60.6277 11.8711C60.5208 11.7682 60.3937 11.689 60.2546 11.6386C60.1156 11.5882 59.9676 11.5677 59.8203 11.5784C59.6729 11.5892 59.5294 11.6308 59.3989 11.7008C59.2685 11.7708 59.1539 11.8675 59.0626 11.9848C58.9714 12.1021 58.9054 12.2373 58.8689 12.3819C58.8324 12.5264 58.8263 12.6771 58.8508 12.8242C58.8754 12.9712 58.9301 13.1115 59.0115 13.236C61.0588 17.1689 62.1286 21.5452 62.1286 25.9882C62.1286 30.4312 61.0588 34.8076 59.0115 38.7404C58.8813 38.9893 58.8523 39.2796 58.9306 39.5498C59.0089 39.8199 59.1884 40.0486 59.431 40.1874C59.5863 40.2679 59.7575 40.3121 59.932 40.3168C60.1246 40.3152 60.3131 40.2607 60.4773 40.1592C60.6415 40.0576 60.7753 39.9128 60.8642 39.7403C63.0679 35.4978 64.2192 30.7788 64.2192 25.9882C64.2192 21.1976 63.0679 16.4786 60.8642 12.2361H60.8758Z" fill="#1573D7"/>
<path d="M65.9563 9.5304C65.8265 9.2808 65.6038 9.09347 65.3372 9.00964C65.0706 8.9258 64.7819 8.95232 64.5347 9.08336C64.2875 9.2144 64.102 9.43923 64.0189 9.70839C63.9359 9.97754 63.9621 10.269 64.0919 10.5186C66.5712 15.2888 67.8665 20.5953 67.8665 25.9824C67.8665 31.3694 66.5712 36.676 64.0919 41.4462C63.9606 41.6974 63.9335 41.9909 64.0165 42.2623C64.0995 42.5336 64.2859 42.7606 64.5347 42.8932C64.7835 43.0258 65.0742 43.0532 65.343 42.9693C65.6118 42.8855 65.8366 42.6973 65.9679 42.4461C68.6162 37.3681 70 31.7154 70 25.9765C70 20.2376 68.6162 14.5849 65.9679 9.50687L65.9563 9.5304Z" fill="#1573D7"/>
<path d="M15.6315 14.4949C15.5096 14.4278 15.3755 14.3862 15.2374 14.3724C15.0992 14.3586 14.9596 14.373 14.8271 14.4147C14.6945 14.4564 14.5716 14.5245 14.4656 14.6151C14.3596 14.7057 14.2726 14.8168 14.21 14.9419C12.4343 18.348 11.5063 22.1392 11.5063 25.9883C11.5063 29.8374 12.4343 33.6287 14.21 37.0347C14.2978 37.2081 14.4313 37.3536 14.5958 37.4553C14.7603 37.557 14.9493 37.6109 15.1422 37.6112C15.324 37.6075 15.5019 37.5572 15.6592 37.4649C15.8164 37.3727 15.9479 37.2416 16.0411 37.0839C16.1343 36.9262 16.1863 36.7472 16.1921 36.5637C16.1979 36.3802 16.1574 36.1982 16.0743 36.0348C14.4674 32.9324 13.6281 29.4834 13.6281 25.9824C13.6281 22.4815 14.4674 19.0325 16.0743 15.9301C16.1407 15.807 16.182 15.6716 16.1956 15.5321C16.2093 15.3926 16.195 15.2517 16.1537 15.1179C16.1124 14.984 16.0449 14.8599 15.9552 14.7529C15.8655 14.6459 15.7555 14.5581 15.6315 14.4949Z" fill="#1573D7"/>
<path d="M7.87112 25.9883C7.86926 21.5459 8.93693 17.1695 10.9822 13.2361C11.0472 13.1118 11.0874 12.9757 11.1003 12.8357C11.1132 12.6957 11.0987 12.5544 11.0576 12.4201C11.0165 12.2857 10.9496 12.1608 10.8607 12.0526C10.7718 11.9443 10.6626 11.8548 10.5394 11.7892C10.4162 11.7235 10.2815 11.683 10.1428 11.6699C10.0041 11.6568 9.8642 11.6715 9.73112 11.713C9.59803 11.7545 9.47435 11.8221 9.36713 11.9118C9.25991 12.0016 9.17125 12.1118 9.10622 12.2362C6.89863 16.4775 5.74518 21.197 5.74518 25.9883C5.74518 30.7796 6.89863 35.4991 9.10622 39.7405C9.19408 39.9138 9.32757 40.0593 9.49203 40.161C9.65648 40.2627 9.84553 40.3167 10.0384 40.3169C10.2202 40.3132 10.3981 40.2629 10.5554 40.1707C10.7127 40.0784 10.8441 39.9473 10.9373 39.7896C11.0305 39.632 11.0825 39.453 11.0883 39.2694C11.0941 39.0859 11.0536 38.9039 10.9705 38.7405C8.92801 34.8066 7.86427 30.43 7.87112 25.9883Z" fill="#1573D7"/>
<path d="M2.12681 25.9883C2.12655 20.5992 3.42206 15.2907 5.90205 10.5186C6.01031 10.27 6.02094 9.98913 5.93178 9.73291C5.84262 9.47669 5.66034 9.26425 5.42186 9.13863C5.18338 9.01301 4.90652 8.98359 4.64736 9.05633C4.3882 9.12908 4.16612 9.29855 4.02608 9.53042C1.3817 14.6097 0 20.2619 0 26.0001C0 31.7382 1.3817 37.3904 4.02608 42.4697C4.11552 42.6408 4.24969 42.7839 4.41403 42.8835C4.57837 42.983 4.76659 43.0352 4.95824 43.0344C5.13213 43.0359 5.30388 42.9955 5.45927 42.9167C5.70586 42.7819 5.89032 42.5549 5.97309 42.2844C6.05586 42.014 6.03036 41.7215 5.90205 41.4697C3.41847 36.6948 2.1228 31.3815 2.12681 25.9883Z" fill="#1573D7"/>
</svg>
