<svg width="60" height="60" viewBox="0 0 60 60" fill="none" xmlns="http://www.w3.org/2000/svg">
<g opacity="0.7">
<path d="M53.3133 0H6.6967C4.92144 0.00264767 3.21964 0.709041 1.96434 1.96434C0.709041 3.21964 0.00264767 4.92144 0 6.6967L0 53.3133C0.00265223 55.0877 0.709366 56.7884 1.96495 58.0421C3.22054 59.2958 4.92236 60 6.6967 60H53.3133C55.0859 59.9974 56.7852 59.292 58.0386 58.0386C59.292 56.7852 59.9974 55.0859 60 53.3133V6.6967C60 4.92236 59.2958 3.22054 58.0421 1.96495C56.7884 0.709366 55.0877 0.00265223 53.3133 0V0ZM58.1882 53.3133C58.1855 54.6054 57.6711 55.8438 56.7575 56.7575C55.8438 57.6711 54.6054 58.1855 53.3133 58.1882H6.6967C5.40461 58.1855 4.1662 57.6711 3.25256 56.7575C2.33892 55.8438 1.82447 54.6054 1.82182 53.3133V6.6967C1.82182 5.4038 2.33542 4.16386 3.24964 3.24964C4.16386 2.33542 5.4038 1.82182 6.6967 1.82182H53.3133C54.6054 1.82447 55.8438 2.33892 56.7575 3.25256C57.6711 4.1662 58.1855 5.40461 58.1882 6.6967V53.3133Z" fill="#1573D7"/>
<path d="M50.1001 26.1462C50.0563 25.9086 49.9199 25.6981 49.7209 25.5611C49.5219 25.4241 49.2766 25.3717 49.039 25.4155C48.8014 25.4593 48.5909 25.5957 48.4539 25.7947C48.3169 25.9937 48.2645 26.239 48.3083 26.4766C48.5222 27.649 48.6294 28.8383 48.6286 30.0301C48.6192 34.5731 46.9982 38.9653 44.0543 42.4253C41.1103 45.8853 37.0342 48.1886 32.5514 48.9254C28.0686 49.6621 23.4697 48.7845 19.5732 46.4487C15.6767 44.1129 12.7353 40.4704 11.2724 36.1695C9.8095 31.8685 9.91996 27.188 11.5841 22.9608C13.2483 18.7336 16.3583 15.234 20.3606 13.0846C24.363 10.9352 28.9981 10.2755 33.4412 11.2229C37.8843 12.1703 41.8471 14.6633 44.6246 18.2583C44.7002 18.3517 44.7934 18.4292 44.899 18.4865C45.0045 18.5438 45.1203 18.5798 45.2398 18.5923C45.3592 18.6049 45.4799 18.5938 45.5951 18.5596C45.7103 18.5255 45.8176 18.4691 45.9109 18.3935C46.0042 18.3179 46.0818 18.2247 46.1391 18.1191C46.1964 18.0136 46.2323 17.8978 46.2449 17.7783C46.2574 17.6589 46.2463 17.5381 46.2122 17.423C46.1781 17.3078 46.1216 17.2005 46.046 17.1072C42.9987 13.1744 38.6553 10.45 33.7882 9.41833C28.9212 8.3867 23.846 9.1148 19.4652 11.4731C15.0844 13.8314 11.6822 17.6671 9.86339 22.2979C8.04464 26.9288 7.92733 32.0546 9.53232 36.7638C11.1373 41.473 14.3606 45.4604 18.6289 48.0166C22.8971 50.5729 27.9337 51.5324 32.8429 50.7245C37.7521 49.9166 42.2156 47.3937 45.4396 43.6045C48.6636 39.8152 50.4392 35.0053 50.4504 30.0301C50.4512 28.7276 50.3339 27.4276 50.1001 26.1462Z" fill="#1573D7"/>
<path d="M35.0349 30.0299C35.0349 28.9331 34.7097 27.8609 34.1003 26.949C33.491 26.037 32.6249 25.3262 31.6116 24.9065C30.5983 24.4868 29.4832 24.377 28.4075 24.5909C27.3318 24.8049 26.3437 25.3331 25.5681 26.1086C24.7925 26.8842 24.2644 27.8723 24.0504 28.948C23.8364 30.0238 23.9463 31.1388 24.366 32.1521C24.7857 33.1654 25.4965 34.0315 26.4085 34.6409C27.3204 35.2502 28.3926 35.5755 29.4894 35.5755C30.9594 35.5728 32.3683 34.9877 33.4078 33.9483C34.4472 32.9089 35.0323 31.4999 35.0349 30.0299ZM29.4894 33.7536C28.7513 33.7616 28.0274 33.55 27.4098 33.1456C26.7922 32.7413 26.3087 32.1626 26.0207 31.4829C25.7327 30.8032 25.6532 30.0533 25.7924 29.3283C25.9315 28.6034 26.2829 27.9361 26.8021 27.4113C27.3212 26.8866 27.9846 26.5279 28.708 26.381C29.4314 26.234 30.1822 26.3054 30.865 26.586C31.5477 26.8666 32.1317 27.3438 32.5426 27.957C32.9536 28.5702 33.173 29.2917 33.1731 30.0299C33.1625 31.0132 32.7645 31.9527 32.0654 32.6442C31.3664 33.3358 30.4227 33.7237 29.4393 33.7236L29.4894 33.7536Z" fill="#1573D7"/>
<path d="M49.2893 11.7918L43.5536 30.2102C43.025 31.9219 42.0177 33.4467 40.6507 34.6046L39.7598 35.3653L39.3794 34.9049C39.2238 34.7215 39.0026 34.6063 38.7632 34.5839C38.5238 34.5614 38.2851 34.6335 38.0981 34.7848L32.3223 39.5295C32.139 39.6851 32.0238 39.9063 32.0013 40.1457C31.9789 40.3851 32.051 40.6238 32.2022 40.8108L34.0941 43.1131C34.2517 43.2925 34.4683 43.4097 34.7047 43.4434H34.7948C35.0071 43.4439 35.2127 43.3695 35.3754 43.2332L41.1412 38.4885C41.3283 38.3358 41.4471 38.115 41.4715 37.8748C41.4959 37.6345 41.4239 37.3944 41.2713 37.2072L40.9109 36.7667L41.8218 35.996C43.4615 34.6152 44.6677 32.7904 45.2953 30.7407L51.0511 12.2923C51.7673 12.2708 52.4523 11.994 52.9823 11.5118C53.5123 11.0295 53.8524 10.3737 53.9412 9.66263C54.0299 8.95158 53.8615 8.23223 53.4664 7.63448C53.0712 7.03674 52.4753 6.6 51.7863 6.40314C51.0973 6.20629 50.3606 6.26229 49.7093 6.56104C49.058 6.85979 48.535 7.38159 48.2347 8.0322C47.9344 8.68282 47.8767 9.41936 48.0719 10.1088C48.2672 10.7983 48.7025 11.3952 49.2993 11.7918H49.2893ZM34.9149 41.2512L34.1842 40.3603L38.5486 36.7667L39.2893 37.6576L34.9149 41.2512ZM50.9309 8.10808C51.167 8.10809 51.3977 8.17821 51.5938 8.30955C51.7899 8.44089 51.9425 8.62752 52.0324 8.84576C52.1222 9.06401 52.1452 9.30403 52.0985 9.53537C52.0517 9.7667 51.9372 9.97893 51.7696 10.1451C51.602 10.3113 51.3889 10.424 51.1571 10.4688C50.9254 10.5136 50.6856 10.4886 50.4681 10.3969C50.2506 10.3052 50.0653 10.151 49.9356 9.95376C49.8059 9.75655 49.7378 9.52527 49.7397 9.28926C49.741 9.13112 49.7738 8.97481 49.8361 8.82946C49.8984 8.68411 49.9891 8.55262 50.1028 8.44267C50.2164 8.33272 50.3509 8.24651 50.4982 8.18906C50.6456 8.13162 50.8029 8.10409 50.961 8.10808H50.9309Z" fill="#1573D7"/>
<path d="M50.961 46.9768C50.1504 46.9768 49.3581 47.2174 48.6844 47.6682C48.0107 48.119 47.4859 48.7596 47.1767 49.5088C46.8674 50.2581 46.7875 51.0823 46.9471 51.877C47.1067 52.6717 47.4986 53.4012 48.0732 53.9729C48.6478 54.5447 49.3791 54.9331 50.1746 55.0888C50.9701 55.2445 51.7939 55.1605 52.5417 54.8476C53.2894 54.5346 53.9274 54.0068 54.3749 53.3309C54.8223 52.655 55.0591 51.8615 55.0551 51.0509C55.0472 49.9693 54.6127 48.9347 53.846 48.1718C53.0794 47.4089 52.0426 46.9794 50.961 46.9768ZM50.961 53.3432C50.5124 53.3432 50.0739 53.2104 49.7007 52.9616C49.3275 52.7128 49.0362 52.3591 48.8637 51.945C48.6911 51.531 48.645 51.0751 48.731 50.6349C48.8171 50.1947 49.0315 49.7898 49.3473 49.4712C49.6631 49.1527 50.0661 48.9347 50.5056 48.8448C50.945 48.7548 51.4012 48.797 51.8168 48.9659C52.2323 49.1348 52.5886 49.4229 52.8406 49.794C53.0927 50.165 53.2293 50.6023 53.2333 51.0509C53.2359 51.351 53.1791 51.6486 53.0661 51.9266C52.9531 52.2046 52.7861 52.4575 52.5749 52.6706C52.3636 52.8837 52.1122 53.0529 51.8352 53.1683C51.5582 53.2838 51.2611 53.3432 50.961 53.3432Z" fill="#1573D7"/>
</g>
</svg>
