<svg width="74" height="74" viewBox="0 0 74 74" fill="none" xmlns="http://www.w3.org/2000/svg">
<path d="M7.42598 2.23071L7.80128 6.77226L12.4258 5.8473L8.18898 7.59547L10.5152 11.6807L7.52833 8.22444L4.33676 11.6807L6.72191 7.78663L2.42926 5.83805L6.8894 6.88942L7.42598 2.23071ZM22.2114 2.23071L22.5867 6.77226L27.2113 5.8473L22.9806 7.60472L25.3007 11.69L22.3138 8.22444L19.1253 11.6807L21.5074 7.78663L17.2147 5.83805L21.6749 6.88942L22.2114 2.23071V2.23071ZM37 2.23071L37.3722 6.77226L41.9967 5.8473L37.7661 7.60472L40.0861 11.69L37.0992 8.23369L33.9108 11.6807L36.2928 7.78663L32.0002 5.83805L36.4634 6.88942L37 2.23071V2.23071ZM51.7854 2.23071L52.1576 6.77226L56.7822 5.8473L52.5422 7.59547L54.8654 11.6807L51.8754 8.22444L48.6962 11.6807L51.0814 7.78663L46.7856 5.83805L51.2489 6.88942L51.7854 2.23071V2.23071ZM66.5709 2.23071L66.9431 6.77226L71.5676 5.8473L67.337 7.60472L69.6601 11.69L66.6701 8.23369L63.4817 11.6807L65.8792 7.78663L61.5835 5.83805L66.0343 6.88942L66.5709 2.23071V2.23071Z" stroke="#1573D7" stroke-width="2.5" stroke-linecap="round" stroke-linejoin="round"/>
<path d="M17.0317 71.7692V20.4864C17.1223 19.695 17.4985 18.963 18.0904 18.4261C18.6824 17.8893 19.4501 17.5839 20.2512 17.5667H53.7488C54.548 17.5891 55.3125 17.8963 55.9029 18.4323C56.4933 18.9683 56.8703 19.6973 56.9652 20.4864V71.7692" stroke="#1573D7" stroke-width="2.5" stroke-linecap="round" stroke-linejoin="round"/>
<path d="M15.0746 25.7524H8.16108C6.37454 25.7524 4.90747 27.3896 4.90747 29.3875L6.76845 71.7167" stroke="#1573D7" stroke-width="2.5" stroke-linecap="round" stroke-linejoin="round"/>
<path d="M58.9254 25.7524H65.8358C67.6224 25.7524 69.0894 27.3896 69.0894 29.3875L67.244 71.7167" stroke="#1573D7" stroke-width="2.5" stroke-linecap="round" stroke-linejoin="round"/>
<path d="M23.1481 63.6233H50.8488M23.1481 25.7524H50.8488H23.1481ZM23.1481 33.3278H50.8488H23.1481ZM23.1481 40.9002H50.8488H23.1481ZM23.1481 48.4756H50.8488H23.1481ZM23.1481 56.051H50.8488H23.1481Z" stroke="#1573D7" stroke-width="2.5" stroke-linecap="round" stroke-linejoin="round"/>
<path d="M2.23077 71.769H71.7692" stroke="#1573D7" stroke-width="2.5" stroke-linecap="round" stroke-linejoin="round"/>
</svg>
