<svg width="76" height="66" viewBox="0 0 76 66" fill="none" xmlns="http://www.w3.org/2000/svg">
<path d="M20.4347 63.6691L21.8993 30.7806C21.9153 30.0715 22.2144 29.396 22.7338 28.8963C23.2533 28.3967 23.9524 28.1117 24.6842 28.1016H25.86C26.5951 28.1015 27.3003 28.3832 27.822 28.885C28.3437 29.3869 28.6395 30.0683 28.6449 30.7806L27.9023 63.7691" stroke="#FF3855" stroke-width="2.5" stroke-linecap="round" stroke-linejoin="round"/>
<path d="M48.0977 63.6692L47.3551 30.7807C47.355 30.4272 47.4272 30.0772 47.5674 29.7508C47.7076 29.4245 47.9131 29.1283 48.172 28.8792C48.4308 28.6302 48.738 28.4333 49.0758 28.2998C49.4135 28.1663 49.7752 28.099 50.1399 28.1016H51.3158C52.0459 28.1167 52.7422 28.4032 53.2605 28.9019C53.7789 29.4005 54.0797 30.0732 54.1007 30.7807L55.5653 63.7692" stroke="#FF3855" stroke-width="2.5" stroke-linecap="round" stroke-linejoin="round"/>
<path d="M34.2559 63.669L34.6272 30.7805C34.619 30.4217 34.6841 30.065 34.8188 29.7307C34.9536 29.3965 35.1552 29.0914 35.4122 28.8331C35.6692 28.5748 35.9764 28.3683 36.316 28.2255C36.6557 28.0828 37.0212 28.0067 37.3914 28.0015H38.5673C38.941 28.0014 39.3109 28.0736 39.6554 28.214C39.9999 28.3544 40.3119 28.5601 40.5733 28.8189C40.8346 29.0778 41.0399 29.3847 41.1772 29.7215C41.3145 30.0584 41.381 30.4184 41.3728 30.7805L41.7441 63.769" stroke="#FF3855" stroke-width="2.5" stroke-linecap="round" stroke-linejoin="round"/>
<path d="M13.2146 14.7863C13.998 14.9549 14.6857 15.4064 15.1379 16.0489C15.5901 16.6914 15.7727 17.4767 15.6488 18.2451C15.6212 18.621 15.5145 18.9874 15.3353 19.3218C15.156 19.6562 14.908 19.9514 14.6064 20.1893C14.3049 20.4272 13.9563 20.6028 13.5821 20.7051C13.2079 20.8074 12.816 20.8343 12.4307 20.7842C10.8571 20.447 9.47453 19.5427 8.56296 18.2547C7.6514 16.9666 7.27895 15.3909 7.52104 13.8467C7.58124 13.0938 7.79965 12.3609 8.16284 11.6929C8.52602 11.0249 9.02632 10.4359 9.63298 9.96219C10.2396 9.48844 10.9398 9.13994 11.6906 8.93809C12.4413 8.73624 13.2267 8.68531 13.9985 8.78842C16.3538 9.28983 18.4238 10.6415 19.7879 12.5689C21.152 14.4962 21.7077 16.8546 21.3423 19.1648C21.2572 20.2952 20.9341 21.3968 20.3928 22.4015C19.8515 23.4062 19.1035 24.2928 18.195 25.0066C17.2866 25.7203 16.2368 26.2461 15.1106 26.5515C13.9844 26.8569 12.8055 26.9354 11.6468 26.7821C8.49352 26.1208 5.72115 24.3145 3.89891 21.7341C2.07668 19.1538 1.34286 15.9952 1.84814 12.907C2.71454 6.2893 6.65463 2.23071 13.0289 2.23071H62.9711C69.3454 2.23071 73.2855 6.22932 74.1519 12.907C74.6571 15.9952 73.9233 19.1538 72.1011 21.7341C70.2789 24.3145 67.5065 26.1208 64.3532 26.7821C63.1977 26.9353 62.022 26.8581 60.8984 26.5552C59.7748 26.2522 58.7269 25.7299 57.819 25.0204C56.9111 24.3108 56.1624 23.429 55.6188 22.4289C55.0752 21.4289 54.7481 20.3317 54.6577 19.2048C54.2809 16.8884 54.8312 14.52 56.1963 12.5838C57.5613 10.6476 59.638 9.28998 62.0015 8.78842C62.7722 8.68528 63.5565 8.7363 64.306 8.93835C65.0556 9.1404 65.7544 9.48918 66.3595 9.96318C66.9645 10.4372 67.4629 11.0263 67.8239 11.6942C68.1849 12.3622 68.4008 13.0947 68.4583 13.8467C68.7113 15.3894 68.3458 16.9674 67.4368 18.2574C66.5278 19.5473 65.1441 20.4514 63.5693 20.7842C63.1856 20.8343 62.7953 20.808 62.4224 20.7069C62.0495 20.6058 61.7018 20.4321 61.4006 20.1963C61.0994 19.9605 60.8509 19.6676 60.6705 19.3355C60.4901 19.0035 60.3814 18.6392 60.3512 18.2651C60.2215 17.4936 60.4015 16.7033 60.8542 16.0563C61.3069 15.4094 61.9979 14.955 62.7854 14.7863" stroke="#FF3855" stroke-width="2.5" stroke-linecap="round" stroke-linejoin="round"/>
<path d="M60.8257 27.0018L62.5585 63.669" stroke="#FF3855" stroke-width="2.5" stroke-linecap="round" stroke-linejoin="round"/>
<path d="M21.2186 20.3645H54.9053" stroke="#FF3855" stroke-width="2.5" stroke-linecap="round" stroke-linejoin="round"/>
<path d="M13.4415 63.6694L15.1743 26.8623" stroke="#FF3855" stroke-width="2.5" stroke-linecap="round" stroke-linejoin="round"/>
<path d="M13.2559 8.78845H62.6205" stroke="#FF3855" stroke-width="2.5" stroke-linecap="round" stroke-linejoin="round"/>
</svg>
