<svg width="60" height="54" viewBox="0 0 60 54" fill="none" xmlns="http://www.w3.org/2000/svg">
<path d="M0.623394 1.77815L14.2858 5.59183C14.3638 5.60603 14.4437 5.60603 14.5217 5.59183C14.7397 5.59384 14.951 5.51614 15.1158 5.37332C15.2806 5.2305 15.3875 5.03241 15.4165 4.81628C15.4455 4.60016 15.3945 4.3809 15.2731 4.19972C15.1518 4.01854 14.9685 3.88792 14.7576 3.83243L1.10502 0.0285785C0.873019 -0.0311715 0.626792 0.00358224 0.420393 0.12521C0.213995 0.246837 0.0642963 0.445397 0.00416257 0.677297C-0.0593385 0.905385 -0.0298154 1.14935 0.0862604 1.3557C0.202336 1.56206 0.395494 1.71398 0.623394 1.77815V1.77815Z" fill="#FF3855"/>
<path d="M7.81834 48.191V6.7418L13.5192 8.3341C13.5976 8.34357 13.6768 8.34357 13.7551 8.3341C13.968 8.33028 14.1725 8.25065 14.3319 8.10952C14.4913 7.9684 14.5952 7.77504 14.6248 7.56421C14.6544 7.35337 14.6078 7.13889 14.4935 6.95931C14.3791 6.77974 14.2044 6.64685 14.0008 6.58453L0.338424 2.80034C0.115069 2.75072 -0.118807 2.78859 -0.315097 2.90614C-0.511388 3.0237 -0.655166 3.21201 -0.716857 3.43233C-0.778548 3.65266 -0.753461 3.88825 -0.646757 4.09064C-0.540052 4.29303 -0.359844 4.44684 -0.1432 4.52043L6.08843 6.24051V48.191L2.35338 52.4764C2.20011 52.6566 2.12441 52.89 2.14283 53.1258C2.16125 53.3616 2.27229 53.5805 2.45167 53.7346C2.61789 53.8637 2.82117 53.936 3.03159 53.941C3.16118 53.9441 3.28975 53.9173 3.40735 53.8628C3.52495 53.8082 3.62843 53.7274 3.70979 53.6264L6.08843 50.894V53.1055C6.11156 53.3253 6.21526 53.5288 6.37951 53.6766C6.54376 53.8245 6.75695 53.9063 6.97796 53.9063C7.19897 53.9063 7.41215 53.8245 7.57641 53.6766C7.74066 53.5288 7.84435 53.3253 7.86749 53.1055V50.9431L10.197 53.6756C10.2783 53.7765 10.3818 53.8574 10.4994 53.9119C10.617 53.9664 10.7456 53.9932 10.8752 53.9901C11.0856 53.9852 11.2889 53.9128 11.4551 53.7837C11.6345 53.6296 11.7455 53.4107 11.7639 53.1749C11.7824 52.9392 11.7067 52.7057 11.5534 52.5256L7.81834 48.191Z" fill="#FF3855"/>
<path d="M47.7931 5.27725C47.8747 5.28685 47.9572 5.28685 48.0388 5.27725L58.3298 2.36785C58.4441 2.33845 58.5513 2.28623 58.6448 2.21434C58.7384 2.14245 58.8165 2.05237 58.8743 1.94953C58.9322 1.84668 58.9686 1.7332 58.9815 1.6159C58.9943 1.49861 58.9833 1.37992 58.9491 1.26699C58.8849 1.03909 58.733 0.845937 58.5266 0.729861C58.3203 0.613785 58.0763 0.584262 57.8482 0.647763L47.5572 3.52768C47.3542 3.58962 47.1799 3.72169 47.0654 3.90029C46.9508 4.07889 46.9035 4.2924 46.9319 4.50268C46.9602 4.71296 47.0624 4.90631 47.2202 5.0482C47.3779 5.19009 47.581 5.27127 47.7931 5.27725Z" fill="#FF3855"/>
<path d="M59.6568 3.78341C59.5904 3.55695 59.4381 3.36544 59.2324 3.24974C59.0267 3.13404 58.7839 3.10334 58.5559 3.16418L48.2551 6.04409C48.0515 6.10641 47.8768 6.2393 47.7624 6.41887C47.6481 6.59845 47.6015 6.81293 47.6311 7.02377C47.6607 7.2346 47.7646 7.42796 47.924 7.56908C48.0834 7.71021 48.2879 7.78984 48.5008 7.79367H48.7367L52.7862 6.66332V19.7851L52.0589 15.5488C52.0404 15.4327 51.9986 15.3214 51.9361 15.2218C51.8736 15.1222 51.7917 15.0361 51.6952 14.9689C51.5008 14.8331 51.2604 14.78 51.0268 14.8215L46.0435 15.6766L39.232 16.8462L34.6516 17.6424C34.4272 17.6811 34.2263 17.8049 34.0908 17.9879C33.9553 18.171 33.8957 18.3993 33.9243 18.6253L34.514 22.095C30.8253 19.7983 26.3754 19.0611 22.1432 20.0454C17.911 21.0298 14.2431 23.655 11.9465 27.3437C9.64986 31.0323 8.91262 35.4823 9.89695 39.7145C10.8813 43.9467 13.5065 47.6146 17.1952 49.9112L15.5144 52.5749C15.4511 52.6734 15.4079 52.7835 15.3875 52.8989C15.367 53.0142 15.3696 53.1324 15.3953 53.2467C15.4209 53.361 15.4689 53.4691 15.5366 53.5647C15.6043 53.6603 15.6903 53.7415 15.7896 53.8035C15.9298 53.8951 16.094 53.943 16.2614 53.9411C16.4125 53.9435 16.5616 53.9068 16.6942 53.8344C16.8269 53.7621 16.9385 53.6566 17.0183 53.5283L18.758 50.786C20.985 51.8851 23.4351 52.4569 25.9185 52.4569C28.4019 52.4569 30.852 51.8851 33.079 50.786L34.8187 53.5283C34.8992 53.656 35.011 53.7609 35.1434 53.8332C35.2759 53.9054 35.4247 53.9426 35.5756 53.9411C35.7462 53.9444 35.914 53.8964 36.0572 53.8035C36.2557 53.6764 36.396 53.4759 36.4476 53.2458C36.4991 53.0158 36.4577 52.7746 36.3324 52.5749L34.6418 49.9112C36.4762 48.7615 38.0639 47.2588 39.3127 45.4904C40.5616 43.7221 41.4467 41.7232 41.9167 39.61C42.3867 37.4967 42.4323 35.3111 42.0507 33.1801C41.6691 31.0491 40.868 29.0151 39.6939 27.1962L43.2324 26.5868V48.1911L39.5072 52.4766C39.3551 52.658 39.281 52.8922 39.3013 53.128C39.3216 53.3638 39.4345 53.582 39.6153 53.7347C39.7759 53.8671 39.9773 53.94 40.1854 53.9411C40.3163 53.9435 40.4461 53.9165 40.5652 53.8621C40.6842 53.8077 40.7896 53.7272 40.8734 53.6266L43.1931 50.8941V53.1057C43.1931 53.3429 43.2873 53.5704 43.4551 53.7381C43.6228 53.9059 43.8503 54.0001 44.0875 54.0001C44.3247 54.0001 44.5523 53.9059 44.72 53.7381C44.8877 53.5704 44.982 53.3429 44.982 53.1057V50.9433L47.3704 53.6266C47.4523 53.727 47.5559 53.8074 47.6733 53.8619C47.7908 53.9164 47.9192 53.9435 48.0486 53.9411C48.2693 53.9445 48.4831 53.8643 48.6472 53.7167C48.8113 53.569 48.9134 53.3648 48.9333 53.145C48.9531 53.3648 49.0552 53.569 49.2193 53.7167C49.3834 53.8643 49.5972 53.9445 49.8179 53.9411C49.9474 53.9435 50.0757 53.9164 50.1932 53.8619C50.3107 53.8074 50.4142 53.727 50.4961 53.6266L52.8157 50.8941V53.1057C52.8157 53.3429 52.91 53.5704 53.0777 53.7381C53.2455 53.9059 53.473 54.0001 53.7102 54.0001C53.9474 54.0001 54.1749 53.9059 54.3426 53.7381C54.5104 53.5704 54.6046 53.3429 54.6046 53.1057V50.9433L56.9243 53.6758C57.0066 53.7756 57.1103 53.8556 57.2277 53.9101C57.345 53.9645 57.4731 53.9919 57.6025 53.9903C57.8138 53.9906 58.0188 53.9177 58.1824 53.7839C58.361 53.6297 58.4722 53.4119 58.4924 53.1768C58.5126 52.9418 58.4402 52.7081 58.2905 52.5258L54.5751 48.1911V6.13255L59.0375 4.88426C59.2654 4.82009 59.4586 4.66817 59.5747 4.46181C59.6907 4.25546 59.7203 4.01149 59.6568 3.78341V3.78341ZM38.6521 18.7629L39.0059 20.8565C39.0429 21.0639 39.152 21.2515 39.3138 21.3864C39.4756 21.5212 39.6799 21.5946 39.8905 21.5937H40.0379C40.2716 21.5528 40.4799 21.4216 40.6178 21.2286C40.7557 21.0355 40.8122 20.796 40.7751 20.5616L40.4115 18.468L45.4636 17.5932L45.8273 19.6868C45.8622 19.8934 45.9693 20.0809 46.1295 20.2159C46.2897 20.3509 46.4926 20.4246 46.7021 20.424H46.8593C47.0816 20.381 47.2796 20.2561 47.4143 20.0741C47.549 19.8921 47.6105 19.6663 47.5867 19.4411L47.223 17.3475L50.4568 16.7381L51.5871 23.3433L36.9615 25.8497L35.8213 19.2445L38.6521 18.7629ZM40.4901 36.0719C40.4893 39.3801 39.3663 42.5902 37.3045 45.1774C35.2428 47.7645 32.3644 49.5757 29.1398 50.3149C25.9152 51.054 22.5353 50.6773 19.5525 49.2465C16.5698 47.8156 14.1607 45.4151 12.7191 42.4375C11.2775 39.46 10.8887 36.0814 11.6163 32.8542C12.3438 29.627 14.1447 26.742 16.7244 24.671C19.3042 22.6 22.5102 21.4654 25.8184 21.4528C29.1265 21.4401 32.3411 22.5502 34.9367 24.6014L35.3495 27.039C35.3865 27.2464 35.4956 27.434 35.6574 27.5689C35.8192 27.7037 36.0234 27.7771 36.2341 27.7762H36.3815L37.7478 27.5501C39.5416 30.0284 40.5019 33.0125 40.4901 36.0719V36.0719ZM49.0807 52.4766C48.9393 52.6436 48.8657 52.8575 48.8743 53.0762C48.8829 52.8575 48.8092 52.6436 48.6679 52.4766L45.0213 48.1911V26.2821L52.7666 24.9454V48.1911L49.0807 52.4766Z" fill="#FF3855"/>
</svg>
