<svg width="60" height="42" viewBox="0 0 60 42" fill="none" xmlns="http://www.w3.org/2000/svg">
<path d="M46.7002 40.1487H37.8938C37.6531 40.1487 37.4222 40.2462 37.252 40.4198C37.0818 40.5934 36.9862 40.8288 36.9862 41.0743C36.9862 41.3198 37.0818 41.5553 37.252 41.7289C37.4222 41.9025 37.6531 42 37.8938 42H46.7002C46.9409 42 47.1718 41.9025 47.342 41.7289C47.5122 41.5553 47.6078 41.3198 47.6078 41.0743C47.6078 40.8288 47.5122 40.5934 47.342 40.4198C47.1718 40.2462 46.9409 40.1487 46.7002 40.1487Z" fill="#333333"/>
<path d="M46.7002 36.1309H37.8938C37.6531 36.1309 37.4222 36.2284 37.252 36.402C37.0818 36.5756 36.9862 36.811 36.9862 37.0565C36.9862 37.302 37.0818 37.5374 37.252 37.711C37.4222 37.8846 37.6531 37.9822 37.8938 37.9822H46.7002C46.9409 37.9822 47.1718 37.8846 47.342 37.711C47.5122 37.5374 47.6078 37.302 47.6078 37.0565C47.6078 36.811 47.5122 36.5756 47.342 36.402C47.1718 36.2284 46.9409 36.1309 46.7002 36.1309Z" fill="#333333"/>
<path d="M46.7003 32.123H37.8938C37.7673 32.1094 37.6394 32.1231 37.5185 32.1632C37.3975 32.2033 37.2861 32.2688 37.1916 32.3556C37.097 32.4424 37.0215 32.5485 36.9697 32.667C36.918 32.7856 36.8912 32.9138 36.8912 33.0436C36.8912 33.1733 36.918 33.3016 36.9697 33.4201C37.0215 33.5386 37.097 33.6447 37.1916 33.7315C37.2861 33.8183 37.3975 33.8839 37.5185 33.9239C37.6394 33.964 37.7673 33.9777 37.8938 33.9641H46.7003C46.8268 33.9777 46.9546 33.964 47.0756 33.9239C47.1966 33.8839 47.308 33.8183 47.4025 33.7315C47.497 33.6447 47.5726 33.5386 47.6244 33.4201C47.6761 33.3016 47.7028 33.1733 47.7028 33.0436C47.7028 32.9138 47.6761 32.7856 47.6244 32.667C47.5726 32.5485 47.497 32.4424 47.4025 32.3556C47.308 32.2688 47.1966 32.2033 47.0756 32.1632C46.9546 32.1231 46.8268 32.1094 46.7003 32.123Z" fill="#333333"/>
<path d="M22.1061 40.1487H13.2997C13.059 40.1487 12.8281 40.2462 12.6579 40.4198C12.4877 40.5934 12.3921 40.8288 12.3921 41.0743C12.3921 41.3198 12.4877 41.5553 12.6579 41.7289C12.8281 41.9025 13.059 42 13.2997 42H22.1061C22.3468 42 22.5776 41.9025 22.7479 41.7289C22.9181 41.5553 23.0137 41.3198 23.0137 41.0743C23.0137 40.8288 22.9181 40.5934 22.7479 40.4198C22.5776 40.2462 22.3468 40.1487 22.1061 40.1487Z" fill="#333333"/>
<path d="M22.1061 36.1309H13.2997C13.059 36.1309 12.8281 36.2284 12.6579 36.402C12.4877 36.5756 12.3921 36.811 12.3921 37.0565C12.3921 37.302 12.4877 37.5374 12.6579 37.711C12.8281 37.8846 13.059 37.9822 13.2997 37.9822H22.1061C22.3468 37.9822 22.5776 37.8846 22.7479 37.711C22.9181 37.5374 23.0137 37.302 23.0137 37.0565C23.0137 36.811 22.9181 36.5756 22.7479 36.402C22.5776 36.2284 22.3468 36.1309 22.1061 36.1309Z" fill="#333333"/>
<path d="M22.1061 32.123H13.2997C13.1732 32.1094 13.0453 32.1231 12.9243 32.1632C12.8034 32.2033 12.692 32.2688 12.5975 32.3556C12.5029 32.4424 12.4273 32.5485 12.3756 32.667C12.3239 32.7856 12.2971 32.9138 12.2971 33.0436C12.2971 33.1733 12.3239 33.3016 12.3756 33.4201C12.4273 33.5386 12.5029 33.6447 12.5975 33.7315C12.692 33.8183 12.8034 33.8839 12.9243 33.9239C13.0453 33.964 13.1732 33.9777 13.2997 33.9641H22.1061C22.3292 33.9402 22.5356 33.8329 22.6856 33.6629C22.8357 33.4929 22.9187 33.2723 22.9187 33.0436C22.9187 32.8149 22.8357 32.5942 22.6856 32.4242C22.5356 32.2543 22.3292 32.1469 22.1061 32.123Z" fill="#333333"/>
<path d="M22.1061 28.1052H13.2997C13.059 28.1052 12.8281 28.2027 12.6579 28.3763C12.4877 28.5499 12.3921 28.7854 12.3921 29.0309C12.3921 29.2764 12.4877 29.5118 12.6579 29.6854C12.8281 29.859 13.059 29.9565 13.2997 29.9565H22.1061C22.3468 29.9565 22.5776 29.859 22.7479 29.6854C22.9181 29.5118 23.0137 29.2764 23.0137 29.0309C23.0137 28.7854 22.9181 28.5499 22.7479 28.3763C22.5776 28.2027 22.3468 28.1052 22.1061 28.1052Z" fill="#333333"/>
<path d="M22.1061 24.0872H13.2997C13.059 24.0872 12.8281 24.1847 12.6579 24.3583C12.4877 24.5319 12.3921 24.7673 12.3921 25.0128C12.3921 25.2583 12.4877 25.4937 12.6579 25.6673C12.8281 25.8409 13.059 25.9385 13.2997 25.9385H22.1061C22.3468 25.9385 22.5776 25.8409 22.7479 25.6673C22.9181 25.4937 23.0137 25.2583 23.0137 25.0128C23.0137 24.7673 22.9181 24.5319 22.7479 24.3583C22.5776 24.1847 22.3468 24.0872 22.1061 24.0872Z" fill="#333333"/>
<path d="M22.1061 20.0693H13.2997C13.059 20.0693 12.8281 20.1669 12.6579 20.3405C12.4877 20.514 12.3921 20.7495 12.3921 20.995C12.3921 21.2405 12.4877 21.4759 12.6579 21.6495C12.8281 21.8231 13.059 21.9206 13.2997 21.9206H22.1061C22.3468 21.9206 22.5776 21.8231 22.7479 21.6495C22.9181 21.4759 23.0137 21.2405 23.0137 20.995C23.0137 20.7495 22.9181 20.514 22.7479 20.3405C22.5776 20.1669 22.3468 20.0693 22.1061 20.0693Z" fill="#333333"/>
<path d="M34.4032 40.1487H25.5968C25.3561 40.1487 25.1252 40.2462 24.955 40.4198C24.7848 40.5934 24.6892 40.8288 24.6892 41.0743C24.6892 41.3198 24.7848 41.5553 24.955 41.7289C25.1252 41.9025 25.3561 42 25.5968 42H34.4032C34.6439 42 34.8748 41.9025 35.045 41.7289C35.2152 41.5553 35.3108 41.3198 35.3108 41.0743C35.3108 40.8288 35.2152 40.5934 35.045 40.4198C34.8748 40.2462 34.6439 40.1487 34.4032 40.1487Z" fill="#333333"/>
<path d="M34.4032 36.1309H25.5968C25.3561 36.1309 25.1252 36.2284 24.955 36.402C24.7848 36.5756 24.6892 36.811 24.6892 37.0565C24.6892 37.302 24.7848 37.5374 24.955 37.711C25.1252 37.8846 25.3561 37.9822 25.5968 37.9822H34.4032C34.6439 37.9822 34.8748 37.8846 35.045 37.711C35.2152 37.5374 35.3108 37.302 35.3108 37.0565C35.3108 36.811 35.2152 36.5756 35.045 36.402C34.8748 36.2284 34.6439 36.1309 34.4032 36.1309Z" fill="#333333"/>
<path d="M34.4033 32.123H25.5968C25.4703 32.1094 25.3424 32.1231 25.2215 32.1632C25.1005 32.2033 24.9891 32.2688 24.8946 32.3556C24.8 32.4424 24.7245 32.5485 24.6727 32.667C24.621 32.7856 24.5942 32.9138 24.5942 33.0436C24.5942 33.1733 24.621 33.3016 24.6727 33.4201C24.7245 33.5386 24.8 33.6447 24.8946 33.7315C24.9891 33.8183 25.1005 33.8839 25.2215 33.9239C25.3424 33.964 25.4703 33.9777 25.5968 33.9641H34.4033C34.6263 33.9402 34.8327 33.8329 34.9828 33.6629C35.1328 33.4929 35.2158 33.2723 35.2158 33.0436C35.2158 32.8149 35.1328 32.5942 34.9828 32.4242C34.8327 32.2543 34.6263 32.1469 34.4033 32.123Z" fill="#333333"/>
<path d="M34.4032 28.1052H25.5968C25.3561 28.1052 25.1252 28.2027 24.955 28.3763C24.7848 28.5499 24.6892 28.7854 24.6892 29.0309C24.6892 29.2764 24.7848 29.5118 24.955 29.6854C25.1252 29.859 25.3561 29.9565 25.5968 29.9565H34.4032C34.6439 29.9565 34.8748 29.859 35.045 29.6854C35.2152 29.5118 35.3108 29.2764 35.3108 29.0309C35.3108 28.7854 35.2152 28.5499 35.045 28.3763C34.8748 28.2027 34.6439 28.1052 34.4032 28.1052Z" fill="#333333"/>
<path d="M34.4032 24.0872H25.5968C25.3561 24.0872 25.1252 24.1847 24.955 24.3583C24.7848 24.5319 24.6892 24.7673 24.6892 25.0128C24.6892 25.2583 24.7848 25.4937 24.955 25.6673C25.1252 25.8409 25.3561 25.9385 25.5968 25.9385H34.4032C34.6439 25.9385 34.8748 25.8409 35.045 25.6673C35.2152 25.4937 35.3108 25.2583 35.3108 25.0128C35.3108 24.7673 35.2152 24.5319 35.045 24.3583C34.8748 24.1847 34.6439 24.0872 34.4032 24.0872Z" fill="#333333"/>
<path d="M34.4032 20.0693H25.5968C25.3561 20.0693 25.1252 20.1669 24.955 20.3405C24.7848 20.514 24.6892 20.7495 24.6892 20.995C24.6892 21.2405 24.7848 21.4759 24.955 21.6495C25.1252 21.8231 25.3561 21.9206 25.5968 21.9206H34.4032C34.6439 21.9206 34.8748 21.8231 35.045 21.6495C35.2152 21.4759 35.3108 21.2405 35.3108 20.995C35.3108 20.7495 35.2152 20.514 35.045 20.3405C34.8748 20.1669 34.6439 20.0693 34.4032 20.0693Z" fill="#333333"/>
<path d="M34.4033 16.0615H25.5968C25.4703 16.0479 25.3424 16.0616 25.2215 16.1017C25.1005 16.1417 24.9891 16.2073 24.8946 16.2941C24.8 16.3809 24.7245 16.487 24.6727 16.6055C24.621 16.724 24.5942 16.8523 24.5942 16.982C24.5942 17.1118 24.621 17.2401 24.6727 17.3586C24.7245 17.4771 24.8 17.5832 24.8946 17.67C24.9891 17.7568 25.1005 17.8223 25.2215 17.8624C25.3424 17.9025 25.4703 17.9162 25.5968 17.9026H34.4033C34.6263 17.8787 34.8327 17.7714 34.9828 17.6014C35.1328 17.4314 35.2158 17.2108 35.2158 16.982C35.2158 16.7533 35.1328 16.5327 34.9828 16.3627C34.8327 16.1927 34.6263 16.0854 34.4033 16.0615Z" fill="#333333"/>
<path d="M34.4032 12.0435H25.5968C25.3561 12.0435 25.1252 12.141 24.955 12.3146C24.7848 12.4882 24.6892 12.7236 24.6892 12.9691C24.6892 13.2146 24.7848 13.45 24.955 13.6236C25.1252 13.7972 25.3561 13.8948 25.5968 13.8948H34.4032C34.6439 13.8948 34.8748 13.7972 35.045 13.6236C35.2152 13.45 35.3108 13.2146 35.3108 12.9691C35.3108 12.7236 35.2152 12.4882 35.045 12.3146C34.8748 12.141 34.6439 12.0435 34.4032 12.0435Z" fill="#333333"/>
<path d="M34.4032 8.02563H25.5968C25.3561 8.02563 25.1252 8.12316 24.955 8.29675C24.7848 8.47034 24.6892 8.70579 24.6892 8.95128C24.6892 9.19678 24.7848 9.43222 24.955 9.60581C25.1252 9.77941 25.3561 9.87693 25.5968 9.87693H34.4032C34.6439 9.87693 34.8748 9.77941 35.045 9.60581C35.2152 9.43222 35.3108 9.19678 35.3108 8.95128C35.3108 8.70579 35.2152 8.47034 35.045 8.29675C34.8748 8.12316 34.6439 8.02563 34.4032 8.02563Z" fill="#333333"/>
<path d="M58.9975 40.1487H50.191C49.9503 40.1487 49.7195 40.2462 49.5493 40.4198C49.3791 40.5934 49.2834 40.8288 49.2834 41.0743C49.2834 41.3198 49.3791 41.5553 49.5493 41.7289C49.7195 41.9025 49.9503 42 50.191 42H58.9975C59.2382 42 59.469 41.9025 59.6392 41.7289C59.8094 41.5553 59.905 41.3198 59.905 41.0743C59.905 40.8288 59.8094 40.5934 59.6392 40.4198C59.469 40.2462 59.2382 40.1487 58.9975 40.1487Z" fill="#333333"/>
<path d="M58.9975 36.1309H50.191C49.9503 36.1309 49.7195 36.2284 49.5493 36.402C49.3791 36.5756 49.2834 36.811 49.2834 37.0565C49.2834 37.302 49.3791 37.5374 49.5493 37.711C49.7195 37.8846 49.9503 37.9822 50.191 37.9822H58.9975C59.2382 37.9822 59.469 37.8846 59.6392 37.711C59.8094 37.5374 59.905 37.302 59.905 37.0565C59.905 36.811 59.8094 36.5756 59.6392 36.402C59.469 36.2284 59.2382 36.1309 58.9975 36.1309Z" fill="#333333"/>
<path d="M58.9974 32.123H50.1909C50.0644 32.1094 49.9365 32.1231 49.8156 32.1632C49.6946 32.2033 49.5832 32.2688 49.4887 32.3556C49.3942 32.4424 49.3186 32.5485 49.2668 32.667C49.2151 32.7856 49.1884 32.9138 49.1884 33.0436C49.1884 33.1733 49.2151 33.3016 49.2668 33.4201C49.3186 33.5386 49.3942 33.6447 49.4887 33.7315C49.5832 33.8183 49.6946 33.8839 49.8156 33.9239C49.9365 33.964 50.0644 33.9777 50.1909 33.9641H58.9974C59.1239 33.9777 59.2518 33.964 59.3727 33.9239C59.4937 33.8839 59.6051 33.8183 59.6996 33.7315C59.7941 33.6447 59.8697 33.5386 59.9215 33.4201C59.9732 33.3016 60 33.1733 60 33.0436C60 32.9138 59.9732 32.7856 59.9215 32.667C59.8697 32.5485 59.7941 32.4424 59.6996 32.3556C59.6051 32.2688 59.4937 32.2033 59.3727 32.1632C59.2518 32.1231 59.1239 32.1094 58.9974 32.123Z" fill="#333333"/>
<path d="M58.9975 28.1052H50.191C49.9503 28.1052 49.7195 28.2027 49.5493 28.3763C49.3791 28.5499 49.2834 28.7854 49.2834 29.0309C49.2834 29.2764 49.3791 29.5118 49.5493 29.6854C49.7195 29.859 49.9503 29.9565 50.191 29.9565H58.9975C59.2382 29.9565 59.469 29.859 59.6392 29.6854C59.8094 29.5118 59.905 29.2764 59.905 29.0309C59.905 28.7854 59.8094 28.5499 59.6392 28.3763C59.469 28.2027 59.2382 28.1052 58.9975 28.1052Z" fill="#333333"/>
<path d="M58.9975 24.0872H50.191C49.9503 24.0872 49.7195 24.1847 49.5493 24.3583C49.3791 24.5319 49.2834 24.7673 49.2834 25.0128C49.2834 25.2583 49.3791 25.4937 49.5493 25.6673C49.7195 25.8409 49.9503 25.9385 50.191 25.9385H58.9975C59.2382 25.9385 59.469 25.8409 59.6392 25.6673C59.8094 25.4937 59.905 25.2583 59.905 25.0128C59.905 24.7673 59.8094 24.5319 59.6392 24.3583C59.469 24.1847 59.2382 24.0872 58.9975 24.0872Z" fill="#333333"/>
<path d="M58.9975 20.0693H50.191C49.9503 20.0693 49.7195 20.1669 49.5493 20.3405C49.3791 20.514 49.2834 20.7495 49.2834 20.995C49.2834 21.2405 49.3791 21.4759 49.5493 21.6495C49.7195 21.8231 49.9503 21.9206 50.191 21.9206H58.9975C59.2382 21.9206 59.469 21.8231 59.6392 21.6495C59.8094 21.4759 59.905 21.2405 59.905 20.995C59.905 20.7495 59.8094 20.514 59.6392 20.3405C59.469 20.1669 59.2382 20.0693 58.9975 20.0693Z" fill="#333333"/>
<path d="M58.9974 16.0615H50.1909C50.0644 16.0479 49.9365 16.0616 49.8156 16.1017C49.6946 16.1417 49.5832 16.2073 49.4887 16.2941C49.3942 16.3809 49.3186 16.487 49.2668 16.6055C49.2151 16.724 49.1884 16.8523 49.1884 16.982C49.1884 17.1118 49.2151 17.2401 49.2668 17.3586C49.3186 17.4771 49.3942 17.5832 49.4887 17.67C49.5832 17.7568 49.6946 17.8223 49.8156 17.8624C49.9365 17.9025 50.0644 17.9162 50.1909 17.9026H58.9974C59.1239 17.9162 59.2518 17.9025 59.3727 17.8624C59.4937 17.8223 59.6051 17.7568 59.6996 17.67C59.7941 17.5832 59.8697 17.4771 59.9215 17.3586C59.9732 17.2401 60 17.1118 60 16.982C60 16.8523 59.9732 16.724 59.9215 16.6055C59.8697 16.487 59.7941 16.3809 59.6996 16.2941C59.6051 16.2073 59.4937 16.1417 59.3727 16.1017C59.2518 16.0616 59.1239 16.0479 58.9974 16.0615Z" fill="#333333"/>
<path d="M58.9975 12.0435H50.191C49.9503 12.0435 49.7195 12.141 49.5493 12.3146C49.3791 12.4882 49.2834 12.7236 49.2834 12.9691C49.2834 13.2146 49.3791 13.45 49.5493 13.6236C49.7195 13.7972 49.9503 13.8948 50.191 13.8948H58.9975C59.2382 13.8948 59.469 13.7972 59.6392 13.6236C59.8094 13.45 59.905 13.2146 59.905 12.9691C59.905 12.7236 59.8094 12.4882 59.6392 12.3146C59.469 12.141 59.2382 12.0435 58.9975 12.0435Z" fill="#333333"/>
<path d="M58.9975 8.02563H50.191C49.9503 8.02563 49.7195 8.12316 49.5493 8.29675C49.3791 8.47034 49.2834 8.70579 49.2834 8.95128C49.2834 9.19678 49.3791 9.43222 49.5493 9.60581C49.7195 9.77941 49.9503 9.87693 50.191 9.87693H58.9975C59.2382 9.87693 59.469 9.77941 59.6392 9.60581C59.8094 9.43222 59.905 9.19678 59.905 8.95128C59.905 8.70579 59.8094 8.47034 59.6392 8.29675C59.469 8.12316 59.2382 8.02563 58.9975 8.02563Z" fill="#333333"/>
<path d="M50.1909 5.8589H58.9974C59.1239 5.87248 59.2518 5.85879 59.3727 5.81872C59.4937 5.77864 59.6051 5.71308 59.6996 5.62628C59.7941 5.53948 59.8697 5.43338 59.9215 5.31487C59.9732 5.19636 60 5.06807 60 4.93834C60 4.80861 59.9732 4.68033 59.9215 4.56181C59.8697 4.4433 59.7941 4.3372 59.6996 4.2504C59.6051 4.1636 59.4937 4.09804 59.3727 4.05797C59.2518 4.01789 59.1239 4.0042 58.9974 4.01778H50.1909C50.0644 4.0042 49.9365 4.01789 49.8156 4.05797C49.6946 4.09804 49.5832 4.1636 49.4887 4.2504C49.3942 4.3372 49.3186 4.4433 49.2668 4.56181C49.2151 4.68033 49.1884 4.80861 49.1884 4.93834C49.1884 5.06807 49.2151 5.19636 49.2668 5.31487C49.3186 5.43338 49.3942 5.53948 49.4887 5.62628C49.5832 5.71308 49.6946 5.77864 49.8156 5.81872C49.9365 5.85879 50.0644 5.87248 50.1909 5.8589Z" fill="#333333"/>
<path d="M9.79901 40.1487H1.00254C0.76184 40.1487 0.530995 40.2462 0.360792 40.4198C0.19059 40.5934 0.0949707 40.8288 0.0949707 41.0743C0.0949707 41.3198 0.19059 41.5553 0.360792 41.7289C0.530995 41.9025 0.76184 42 1.00254 42H9.79901C10.0397 42 10.2706 41.9025 10.4408 41.7289C10.611 41.5553 10.7066 41.3198 10.7066 41.0743C10.7066 40.8288 10.611 40.5934 10.4408 40.4198C10.2706 40.2462 10.0397 40.1487 9.79901 40.1487Z" fill="#333333"/>
<path d="M9.79901 36.1309H1.00254C0.76184 36.1309 0.530995 36.2284 0.360792 36.402C0.19059 36.5756 0.0949707 36.811 0.0949707 37.0565C0.0949707 37.302 0.19059 37.5374 0.360792 37.711C0.530995 37.8846 0.76184 37.9822 1.00254 37.9822H9.79901C10.0397 37.9822 10.2706 37.8846 10.4408 37.711C10.611 37.5374 10.7066 37.302 10.7066 37.0565C10.7066 36.811 10.611 36.5756 10.4408 36.402C10.2706 36.2284 10.0397 36.1309 9.79901 36.1309Z" fill="#333333"/>
<path d="M9.79905 32.123H1.00258C0.876081 32.1094 0.748196 32.1231 0.627218 32.1632C0.506241 32.2033 0.394874 32.2688 0.300341 32.3556C0.205807 32.4424 0.130219 32.5485 0.0784782 32.667C0.0267375 32.7856 0 32.9138 0 33.0436C0 33.1733 0.0267375 33.3016 0.0784782 33.4201C0.130219 33.5386 0.205807 33.6447 0.300341 33.7315C0.394874 33.8183 0.506241 33.8839 0.627218 33.9239C0.748196 33.964 0.876081 33.9777 1.00258 33.9641H9.79905C9.92554 33.9777 10.0534 33.964 10.1744 33.9239C10.2954 33.8839 10.4068 33.8183 10.5013 33.7315C10.5958 33.6447 10.6714 33.5386 10.7231 33.4201C10.7749 33.3016 10.8016 33.1733 10.8016 33.0436C10.8016 32.9138 10.7749 32.7856 10.7231 32.667C10.6714 32.5485 10.5958 32.4424 10.5013 32.3556C10.4068 32.2688 10.2954 32.2033 10.1744 32.1632C10.0534 32.1231 9.92554 32.1094 9.79905 32.123Z" fill="#333333"/>
<path d="M9.79901 28.1052H1.00254C0.76184 28.1052 0.530995 28.2027 0.360792 28.3763C0.19059 28.5499 0.0949707 28.7854 0.0949707 29.0309C0.0949707 29.2764 0.19059 29.5118 0.360792 29.6854C0.530995 29.859 0.76184 29.9565 1.00254 29.9565H9.79901C10.0397 29.9565 10.2706 29.859 10.4408 29.6854C10.611 29.5118 10.7066 29.2764 10.7066 29.0309C10.7066 28.7854 10.611 28.5499 10.4408 28.3763C10.2706 28.2027 10.0397 28.1052 9.79901 28.1052Z" fill="#333333"/>
<path d="M9.79901 24.0872H1.00254C0.76184 24.0872 0.530995 24.1847 0.360792 24.3583C0.19059 24.5319 0.0949707 24.7673 0.0949707 25.0128C0.0949707 25.2583 0.19059 25.4937 0.360792 25.6673C0.530995 25.8409 0.76184 25.9385 1.00254 25.9385H9.79901C10.0397 25.9385 10.2706 25.8409 10.4408 25.6673C10.611 25.4937 10.7066 25.2583 10.7066 25.0128C10.7066 24.7673 10.611 24.5319 10.4408 24.3583C10.2706 24.1847 10.0397 24.0872 9.79901 24.0872Z" fill="#333333"/>
<path d="M9.79901 20.0693H1.00254C0.76184 20.0693 0.530995 20.1669 0.360792 20.3405C0.19059 20.514 0.0949707 20.7495 0.0949707 20.995C0.0949707 21.2405 0.19059 21.4759 0.360792 21.6495C0.530995 21.8231 0.76184 21.9206 1.00254 21.9206H9.79901C10.0397 21.9206 10.2706 21.8231 10.4408 21.6495C10.611 21.4759 10.7066 21.2405 10.7066 20.995C10.7066 20.7495 10.611 20.514 10.4408 20.3405C10.2706 20.1669 10.0397 20.0693 9.79901 20.0693Z" fill="#333333"/>
<path d="M9.79905 16.0615H1.00258C0.876081 16.0479 0.748196 16.0616 0.627218 16.1017C0.506241 16.1417 0.394874 16.2073 0.300341 16.2941C0.205807 16.3809 0.130219 16.487 0.0784782 16.6055C0.0267375 16.724 0 16.8523 0 16.982C0 17.1118 0.0267375 17.2401 0.0784782 17.3586C0.130219 17.4771 0.205807 17.5832 0.300341 17.67C0.394874 17.7568 0.506241 17.8223 0.627218 17.8624C0.748196 17.9025 0.876081 17.9162 1.00258 17.9026H9.79905C9.92554 17.9162 10.0534 17.9025 10.1744 17.8624C10.2954 17.8223 10.4068 17.7568 10.5013 17.67C10.5958 17.5832 10.6714 17.4771 10.7231 17.3586C10.7749 17.2401 10.8016 17.1118 10.8016 16.982C10.8016 16.8523 10.7749 16.724 10.7231 16.6055C10.6714 16.487 10.5958 16.3809 10.5013 16.2941C10.4068 16.2073 10.2954 16.1417 10.1744 16.1017C10.0534 16.0616 9.92554 16.0479 9.79905 16.0615Z" fill="#333333"/>
<path d="M9.79901 12.0435H1.00254C0.76184 12.0435 0.530995 12.141 0.360792 12.3146C0.19059 12.4882 0.0949707 12.7236 0.0949707 12.9691C0.0949707 13.2146 0.19059 13.45 0.360792 13.6236C0.530995 13.7972 0.76184 13.8948 1.00254 13.8948H9.79901C10.0397 13.8948 10.2706 13.7972 10.4408 13.6236C10.611 13.45 10.7066 13.2146 10.7066 12.9691C10.7066 12.7236 10.611 12.4882 10.4408 12.3146C10.2706 12.141 10.0397 12.0435 9.79901 12.0435Z" fill="#333333"/>
<path d="M9.79901 8.02563H1.00254C0.76184 8.02563 0.530995 8.12316 0.360792 8.29675C0.19059 8.47034 0.0949707 8.70579 0.0949707 8.95128C0.0949707 9.19678 0.19059 9.43222 0.360792 9.60581C0.530995 9.77941 0.76184 9.87693 1.00254 9.87693H9.79901C10.0397 9.87693 10.2706 9.77941 10.4408 9.60581C10.611 9.43222 10.7066 9.19678 10.7066 8.95128C10.7066 8.70579 10.611 8.47034 10.4408 8.29675C10.2706 8.12316 10.0397 8.02563 9.79901 8.02563Z" fill="#333333"/>
<path d="M9.79905 4.06881H1.00258C0.876081 4.05523 0.748196 4.06892 0.627218 4.10899C0.506241 4.14907 0.394874 4.21463 0.300341 4.30143C0.205807 4.38823 0.130219 4.49433 0.0784782 4.61284C0.0267375 4.73135 0 4.85964 0 4.98937C0 5.1191 0.0267375 5.24738 0.0784782 5.3659C0.130219 5.48441 0.205807 5.59051 0.300341 5.67731C0.394874 5.76411 0.506241 5.82967 0.627218 5.86975C0.748196 5.90982 0.876081 5.92351 1.00258 5.90993H9.79905C9.92554 5.92351 10.0534 5.90982 10.1744 5.86975C10.2954 5.82967 10.4068 5.76411 10.5013 5.67731C10.5958 5.59051 10.6714 5.48441 10.7231 5.3659C10.7749 5.24738 10.8016 5.1191 10.8016 4.98937C10.8016 4.85964 10.7749 4.73135 10.7231 4.61284C10.6714 4.49433 10.5958 4.38823 10.5013 4.30143C10.4068 4.21463 10.2954 4.14907 10.1744 4.10899C10.0534 4.06892 9.92554 4.05523 9.79905 4.06881Z" fill="#333333"/>
<path d="M9.79901 0H1.00254C0.76184 3.65819e-09 0.530995 0.0975233 0.360792 0.271116C0.19059 0.444709 0.0949707 0.680151 0.0949707 0.925648C0.0949707 1.17114 0.19059 1.40659 0.360792 1.58018C0.530995 1.75377 0.76184 1.8513 1.00254 1.8513H9.79901C9.91819 1.8513 10.0362 1.82735 10.1463 1.78083C10.2564 1.73432 10.3565 1.66613 10.4408 1.58018C10.525 1.49423 10.5919 1.39218 10.6375 1.27988C10.6831 1.16757 10.7066 1.04721 10.7066 0.925648C10.7066 0.80409 10.6831 0.683722 10.6375 0.571418C10.5919 0.459113 10.525 0.35707 10.4408 0.271116C10.3565 0.185162 10.2564 0.116979 10.1463 0.0704607C10.0362 0.0239426 9.91819 -1.81135e-09 9.79901 0V0Z" fill="#333333"/>
</svg>
