<svg width="74" height="64" viewBox="0 0 74 64" fill="none" xmlns="http://www.w3.org/2000/svg">
<path d="M1.72009 62.1538H72.2799" stroke="#FF3855" stroke-width="2.5" stroke-linecap="round" stroke-linejoin="round"/>
<path d="M64.8611 62.1507V35.5166M9.13885 62.1507V35.5166V62.1507ZM26.5355 62.1507V35.5166V62.1507Z" stroke="#FF3855" stroke-width="2.5" stroke-linecap="round" stroke-linejoin="round"/>
<path d="M16.2528 24.3611L19.7512 2.78247M9.6347 1.84615H64.3715L72.2645 19.834C72.3453 20.2837 72.3855 20.7398 72.3846 21.1968C72.3846 25.4519 68.8585 28.9006 64.5101 28.9006C63.1197 28.9088 61.7517 28.5493 60.5439 27.8581C59.3361 27.167 58.3311 26.1687 57.6302 24.9637C56.9256 26.1652 55.9204 27.1613 54.7143 27.8533C53.5082 28.5453 52.1429 28.9094 50.7535 28.9094C49.3641 28.9094 47.9988 28.5453 46.7927 27.8533C45.5866 27.1613 44.5814 26.1652 43.8768 24.9637C43.1721 26.1652 42.1669 27.1613 40.9608 27.8533C39.7547 28.5453 38.3894 28.9094 37 28.9094C35.6106 28.9094 34.2453 28.5453 33.0392 27.8533C31.8331 27.1613 30.828 26.1652 30.1233 24.9637C29.4182 26.1651 28.4127 27.1611 27.2064 27.8531C26 28.545 24.6345 28.909 23.245 28.909C21.8554 28.909 20.49 28.545 19.2836 27.8531C18.0773 27.1611 17.0718 26.1651 16.3667 24.9637C15.668 26.1706 14.6642 27.171 13.4567 27.8639C12.2492 28.5568 10.8809 28.9176 9.48996 28.9098C5.14156 28.9098 1.61542 25.4612 1.61542 21.206C1.61402 20.746 1.65422 20.2868 1.73553 19.834L9.6347 1.84615Z" stroke="#FF3855" stroke-width="2.5" stroke-linecap="round" stroke-linejoin="round"/>
<path d="M43.6612 24.361L42.4971 2.78234M29.957 24.361C30.345 17.1671 30.7341 9.97419 31.1242 2.78234L29.957 24.361Z" stroke="#FF3855" stroke-width="2.5" stroke-linecap="round" stroke-linejoin="round"/>
<path d="M57.3684 24.361L53.87 2.78234" stroke="#FF3855" stroke-width="2.5" stroke-linecap="round" stroke-linejoin="round"/>
<path d="M20.749 49.1751V44.1474" stroke="#FF3855" stroke-width="2.5" stroke-linecap="round" stroke-linejoin="round"/>
<path d="M40.9049 52.7535L56.8172 36.9751" stroke="#FF3855" stroke-width="2.5" stroke-linecap="round" stroke-linejoin="round"/>
<path d="M46.5221 57.1014L57.2853 46.428" stroke="#FF3855" stroke-width="2.5" stroke-linecap="round" stroke-linejoin="round"/>
</svg>
