<svg width="60" height="44" viewBox="0 0 60 44" fill="none" xmlns="http://www.w3.org/2000/svg">
<path d="M41.1634 0.25H18.8316C18.0175 0.249996 17.2366 0.575818 16.66 1.15607C16.0834 1.73632 15.7581 2.52368 15.7555 3.34562V40.6544C15.7581 41.4763 16.0834 42.2637 16.66 42.8439C17.2366 43.4242 18.0175 43.75 18.8316 43.75H41.1634C41.9775 43.75 42.7584 43.4242 43.335 42.8439C43.9116 42.2637 44.2369 41.4763 44.2395 40.6544V3.34562C44.2369 2.52368 43.9116 1.73632 43.335 1.15607C42.7584 0.575818 41.9775 0.249996 41.1634 0.25V0.25ZM42.4218 40.6342C42.4218 40.8006 42.3892 40.9653 42.3258 41.1189C42.2625 41.2725 42.1696 41.4119 42.0526 41.5291C41.9357 41.6462 41.7968 41.7389 41.6442 41.8016C41.4916 41.8644 41.3282 41.896 41.1634 41.8946H18.8316C18.6668 41.896 18.5034 41.8644 18.3508 41.8016C18.1982 41.7389 18.0594 41.6462 17.9424 41.5291C17.8254 41.4119 17.7325 41.2725 17.6692 41.1189C17.6058 40.9653 17.5732 40.8006 17.5732 40.6342V3.32545C17.5732 3.15908 17.6058 2.99435 17.6692 2.84077C17.7325 2.68718 17.8254 2.54778 17.9424 2.43061C18.0594 2.31343 18.1982 2.2208 18.3508 2.15806C18.5034 2.09531 18.6668 2.06369 18.8316 2.06502H41.1634C41.3282 2.06369 41.4916 2.09531 41.6442 2.15806C41.7968 2.2208 41.9357 2.31343 42.0526 2.43061C42.1696 2.54778 42.2625 2.68718 42.3258 2.84077C42.3892 2.99435 42.4218 3.15908 42.4218 3.32545V40.6342Z" fill="#333333"/>
<path d="M29.9674 19.5193C27.9688 19.5233 26.0162 20.1254 24.3565 21.2496C22.6968 22.3737 21.4045 23.9694 20.6428 25.835C19.8812 27.7005 19.6845 29.7522 20.0775 31.7306C20.4706 33.709 21.4358 35.5254 22.8511 36.9501C24.2664 38.3748 26.0683 39.3438 28.029 39.7348C29.9897 40.1258 32.0212 39.9211 33.8668 39.1466C35.7123 38.3721 37.2889 37.0626 38.3975 35.3836C39.506 33.7046 40.0966 31.7315 40.0946 29.7137C40.0933 28.3728 39.8302 27.0452 39.3205 25.807C38.8107 24.5688 38.0642 23.4442 37.1237 22.4974C36.1831 21.5507 35.067 20.8003 33.8391 20.2893C32.6112 19.7783 31.2955 19.5167 29.9674 19.5193ZM29.9674 38.0829C28.3274 38.0849 26.7238 37.5958 25.3593 36.6774C23.9947 35.759 22.9307 34.4526 22.3017 32.9234C21.6728 31.3943 21.5072 29.7112 21.8259 28.0871C22.1447 26.463 22.9334 24.9708 24.0923 23.7993C25.2512 22.6278 26.7282 21.8297 28.3365 21.506C29.9448 21.1822 31.6121 21.3474 33.1274 21.9805C34.6427 22.6137 35.9379 23.6864 36.8492 25.0629C37.7605 26.4395 38.2469 28.058 38.2469 29.7137C38.2443 31.9308 37.3715 34.0565 35.8196 35.6251C34.2677 37.1938 32.1634 38.0776 29.9674 38.0829Z" fill="#333333"/>
<path d="M29.9675 17.1902C31.1527 17.1902 32.3113 16.8354 33.2967 16.1706C34.2822 15.5058 35.0503 14.5609 35.5038 13.4554C35.9574 12.3499 36.076 11.1334 35.8448 9.95985C35.6136 8.78625 35.0429 7.70823 34.2048 6.86211C33.3668 6.016 32.299 5.43978 31.1366 5.20634C29.9742 4.9729 28.7693 5.09271 27.6743 5.55062C26.5794 6.00854 25.6435 6.78399 24.985 7.77892C24.3265 8.77385 23.9751 9.94357 23.9751 11.1402C23.9751 12.7447 24.6064 14.2836 25.7302 15.4182C26.854 16.5528 28.3782 17.1902 29.9675 17.1902ZM29.9675 6.93536C30.7932 6.93536 31.6004 7.18256 32.2869 7.6457C32.9734 8.10883 33.5085 8.76711 33.8245 9.53728C34.1405 10.3074 34.2231 11.1549 34.062 11.9725C33.901 12.7901 33.5034 13.5412 32.9195 14.1306C32.3357 14.7201 31.5918 15.1215 30.782 15.2841C29.9722 15.4468 29.1328 15.3633 28.3699 15.0443C27.6071 14.7253 26.9551 14.185 26.4964 13.4919C26.0376 12.7988 25.7928 11.9839 25.7928 11.1502C25.7928 10.0324 26.2326 8.96031 27.0156 8.16987C27.7985 7.37943 28.8603 6.93536 29.9675 6.93536Z" fill="#333333"/>
<path d="M46.5867 12.1383C46.3786 12.2518 46.2226 12.4428 46.1517 12.6706C46.0808 12.8984 46.1007 13.1451 46.2071 13.3584C47.591 16.0155 48.3142 18.9726 48.3142 21.9747C48.3142 24.9768 47.591 27.9338 46.2071 30.591C46.1517 30.6982 46.1178 30.8154 46.1074 30.9358C46.097 31.0563 46.1103 31.1776 46.1465 31.2929C46.1827 31.4081 46.2411 31.515 46.3184 31.6074C46.3956 31.6998 46.4902 31.7759 46.5966 31.8312C46.7251 31.903 46.8693 31.9411 47.0161 31.9422C47.1812 31.9408 47.3428 31.8941 47.4835 31.8071C47.6243 31.72 47.7389 31.5959 47.8151 31.4481C49.3372 28.5286 50.1325 25.2789 50.1325 21.9797C50.1325 18.6805 49.3372 15.4308 47.8151 12.5113C47.7595 12.4046 47.6834 12.3101 47.5913 12.2334C47.4991 12.1567 47.3928 12.0993 47.2784 12.0646C47.164 12.0299 47.044 12.0185 46.9252 12.0311C46.8064 12.0438 46.6913 12.0802 46.5867 12.1383Z" fill="#333333"/>
<path d="M52.1793 10.2023C52.1307 10.0842 52.0583 9.97762 51.9666 9.88943C51.8749 9.80125 51.766 9.73338 51.6468 9.69019C51.5276 9.64699 51.4008 9.62942 51.2745 9.6386C51.1482 9.64778 51.0252 9.6835 50.9134 9.74348C50.8015 9.80347 50.7034 9.88638 50.6251 9.98691C50.5469 10.0874 50.4903 10.2034 50.459 10.3273C50.4278 10.4512 50.4225 10.5803 50.4436 10.7064C50.4646 10.8324 50.5115 10.9527 50.5813 11.0594C52.3361 14.4304 53.2531 18.1816 53.2531 21.9898C53.2531 25.7981 52.3361 29.5493 50.5813 32.9203C50.4697 33.1336 50.4448 33.3825 50.512 33.614C50.5791 33.8456 50.7329 34.0416 50.9408 34.1605C51.0739 34.2295 51.2207 34.2674 51.3703 34.2715C51.5354 34.2701 51.6969 34.2234 51.8377 34.1364C51.9785 34.0493 52.0931 33.9252 52.1693 33.7774C54.0582 30.1409 55.045 26.096 55.045 21.9898C55.045 17.8836 54.0582 13.8387 52.1693 10.2023H52.1793Z" fill="#333333"/>
<path d="M56.534 7.88334C56.4227 7.66939 56.2318 7.50883 56.0033 7.43697C55.7748 7.36511 55.5274 7.38785 55.3155 7.50017C55.1036 7.61249 54.9446 7.8052 54.8734 8.0359C54.8022 8.2666 54.8247 8.5164 54.936 8.73035C57.0611 12.8191 58.1713 17.3676 58.1713 21.985C58.1713 26.6025 57.0611 31.151 54.936 35.2397C54.8234 35.455 54.8001 35.7066 54.8713 35.9392C54.9425 36.1718 55.1023 36.3663 55.3155 36.48C55.5287 36.5937 55.7779 36.6171 56.0083 36.5453C56.2387 36.4734 56.4314 36.3121 56.544 36.0968C58.8139 31.7442 60.0001 26.8991 60.0001 21.98C60.0001 17.0609 58.8139 12.2158 56.544 7.86317L56.534 7.88334Z" fill="#333333"/>
<path d="M13.3984 12.1384C13.2939 12.0809 13.179 12.0452 13.0606 12.0334C12.9421 12.0216 12.8225 12.0339 12.7089 12.0697C12.5952 12.1054 12.4899 12.1638 12.399 12.2414C12.3082 12.3191 12.2337 12.4143 12.18 12.5216C10.6579 15.4411 9.86255 18.6907 9.86255 21.9899C9.86255 25.2891 10.6579 28.5388 12.18 31.4583C12.2553 31.6068 12.3697 31.7316 12.5106 31.8187C12.6516 31.9059 12.8137 31.9521 12.979 31.9524C13.1348 31.9492 13.2873 31.9061 13.4221 31.827C13.5569 31.7479 13.6696 31.6356 13.7495 31.5004C13.8294 31.3653 13.8739 31.2118 13.8789 31.0545C13.8839 30.8972 13.8491 30.7412 13.7779 30.6012C12.4006 27.942 11.6812 24.9857 11.6812 21.9849C11.6812 18.984 12.4006 16.0278 13.7779 13.3686C13.8349 13.263 13.8702 13.147 13.8819 13.0275C13.8936 12.9079 13.8814 12.7871 13.846 12.6724C13.8106 12.5577 13.7528 12.4513 13.6759 12.3595C13.599 12.2678 13.5046 12.1926 13.3984 12.1384Z" fill="#333333"/>
<path d="M6.74667 21.99C6.74508 18.1822 7.66023 14.4311 9.4133 11.0596C9.46905 10.953 9.50344 10.8363 9.51454 10.7163C9.52563 10.5963 9.51321 10.4753 9.47796 10.3601C9.44272 10.2449 9.38536 10.1379 9.30914 10.0451C9.23293 9.95232 9.13936 9.87559 9.03378 9.81932C8.9282 9.76304 8.81268 9.72831 8.6938 9.71711C8.57493 9.70591 8.45503 9.71845 8.34096 9.75403C8.22688 9.78961 8.12087 9.84753 8.02897 9.92448C7.93707 10.0014 7.86108 10.0959 7.80533 10.2025C5.91311 13.8379 4.92444 17.8832 4.92444 21.99C4.92444 26.0969 5.91311 30.1422 7.80533 33.7776C7.88064 33.9262 7.99506 34.0509 8.13602 34.1381C8.27698 34.2252 8.43902 34.2715 8.60432 34.2717C8.76019 34.2685 8.91269 34.2254 9.04748 34.1463C9.18228 34.0673 9.29493 33.9549 9.37484 33.8197C9.45476 33.6846 9.4993 33.5311 9.50428 33.3738C9.50926 33.2165 9.47452 33.0605 9.40332 32.9205C7.65258 29.5486 6.7408 25.7972 6.74667 21.99Z" fill="#333333"/>
<path d="M1.82298 21.99C1.82276 17.3708 2.93319 12.8206 5.0589 8.73026C5.15169 8.51717 5.1608 8.27644 5.08438 8.05681C5.00796 7.83719 4.85172 7.65511 4.64731 7.54743C4.4429 7.43975 4.20559 7.41454 3.98345 7.47689C3.76132 7.53925 3.57096 7.68451 3.45093 7.88326C1.18432 12.2369 0 17.0816 0 22.0001C0 26.9185 1.18432 31.7633 3.45093 36.1169C3.52759 36.2636 3.64259 36.3863 3.78345 36.4716C3.92432 36.5569 4.08565 36.6017 4.24992 36.6009C4.39897 36.6022 4.54618 36.5676 4.67938 36.5001C4.89074 36.3845 5.04884 36.19 5.11979 35.9581C5.19074 35.7263 5.16888 35.4756 5.0589 35.2598C2.93012 31.167 1.81954 26.6128 1.82298 21.99Z" fill="#333333"/>
</svg>
