<svg width="60" height="60" viewBox="0 0 60 60" fill="none" xmlns="http://www.w3.org/2000/svg">
<path d="M14.66 45.6374C14.66 45.757 14.6836 45.8755 14.7294 45.986C14.7751 46.0966 14.8422 46.197 14.9268 46.2816C15.0113 46.3662 15.1117 46.4334 15.2222 46.4791C15.3327 46.5249 15.4511 46.5485 15.5707 46.5485C15.6903 46.5485 15.8087 46.5249 15.9192 46.4791C16.0296 46.4334 16.13 46.3662 16.2146 46.2816C16.2991 46.197 16.3662 46.0966 16.412 45.986C16.4578 45.8755 16.4813 45.757 16.4813 45.6374C16.4813 42.7437 18.0224 40.3006 19.8436 40.3006C19.9706 40.314 20.0989 40.3005 20.2203 40.2611C20.3417 40.2216 20.4534 40.1571 20.5482 40.0717C20.6431 39.9862 20.7189 39.8818 20.7709 39.7651C20.8228 39.6485 20.8496 39.5222 20.8496 39.3945C20.8496 39.2668 20.8228 39.1405 20.7709 39.0239C20.7189 38.9072 20.6431 38.8028 20.5482 38.7173C20.4534 38.6319 20.3417 38.5674 20.2203 38.5279C20.0989 38.4885 19.9706 38.475 19.8436 38.4883C18.0224 38.4883 16.4813 36.0353 16.4813 33.1416C16.4813 32.9 16.3854 32.6682 16.2146 32.4973C16.0438 32.3265 15.8122 32.2305 15.5707 32.2305C15.3292 32.2305 15.0975 32.3265 14.9268 32.4973C14.756 32.6682 14.66 32.9 14.66 33.1416C14.66 36.0353 13.119 38.4883 11.2977 38.4883C11.1708 38.475 11.0425 38.4885 10.9211 38.5279C10.7997 38.5674 10.688 38.6319 10.5931 38.7173C10.4982 38.8028 10.4224 38.9072 10.3705 39.0239C10.3186 39.1405 10.2917 39.2668 10.2917 39.3945C10.2917 39.5222 10.3186 39.6485 10.3705 39.7651C10.4224 39.8818 10.4982 39.9862 10.5931 40.0717C10.688 40.1571 10.7997 40.2216 10.9211 40.2611C11.0425 40.3005 11.1708 40.314 11.2977 40.3006C13.119 40.3006 14.66 42.7437 14.66 45.6374ZM15.5707 37.2368C15.9698 38.0754 16.555 38.8117 17.2819 39.3895C16.5571 39.9734 15.9723 40.7124 15.5707 41.5522C15.169 40.7124 14.5843 39.9734 13.8595 39.3895C14.5863 38.8117 15.1716 38.0754 15.5707 37.2368Z" fill="#F58220"/>
<path d="M58.8308 8.11021C58.5547 7.83015 58.2569 7.57236 57.9402 7.33924V1.82229H58.4105C58.652 1.82229 58.8837 1.7263 59.0544 1.55543C59.2252 1.38455 59.3212 1.1528 59.3212 0.911147C59.3212 0.669496 59.2252 0.437742 59.0544 0.266869C58.8837 0.0959956 58.652 3.60088e-09 58.4105 0L0.910632 0C0.669117 3.60088e-09 0.437495 0.0959956 0.266718 0.266869C0.0959413 0.437742 0 0.669496 0 0.911147C0 1.1528 0.0959413 1.38455 0.266718 1.55543C0.437495 1.7263 0.669117 1.82229 0.910632 1.82229H4.37303V7.24913C3.85161 7.52734 3.41639 7.94327 3.11469 8.45167C2.813 8.96008 2.65637 9.54151 2.66185 10.1328C2.65151 10.1789 2.65151 10.2268 2.66185 10.2729V10.353L6.14426 22.8988C6.4845 24.5109 8.46587 25.2017 10.8175 25.2017C11.8099 25.197 12.7992 25.0896 13.7696 24.8813C17.1919 24.1504 20.4042 22.228 19.9238 19.9651L18.2226 13.7673V1.82229H46.102V13.8374L43.9505 19.3644C43.3401 21.457 45.3815 23.84 48.6137 24.8012C49.4423 25.047 50.3013 25.1751 51.1655 25.1817C51.7033 25.1969 52.241 25.1464 52.7666 25.0315C53.3392 24.9359 53.8783 24.6966 54.3333 24.3358C54.7883 23.9751 55.1445 23.5048 55.3684 22.9689C55.3886 22.9446 55.4055 22.9177 55.4185 22.8888L57.7801 16.8212C57.8404 16.7304 57.8813 16.6281 57.9002 16.5208L59.9016 11.5145C60.0509 10.9033 60.03 10.2629 59.8412 9.66277C59.6525 9.06263 59.303 8.52568 58.8308 8.11021ZM58.1303 10.9137L57.9402 11.4144V9.95253C58.1253 10.2363 58.1934 10.5808 58.1303 10.9137ZM54.4078 19.4845C53.4001 18.4848 52.1528 17.7608 50.7852 17.3819C49.4898 16.9768 48.1132 16.9044 46.7825 17.1716L50.0347 8.62085C50.3149 7.67967 52.3363 7.13899 54.6379 7.81984C55.1313 7.96537 55.6077 8.16341 56.0589 8.41059V16.1603L54.6679 19.825C54.5779 19.7148 54.5078 19.5947 54.4078 19.4845ZM14.6802 7.76978L17.4921 18.0227L17.0718 17.9125C15.492 17.639 13.874 17.6764 12.3085 18.0227C10.4829 18.3567 8.76572 19.1299 7.30507 20.2755L6.1943 16.2304V8.22035C7.1382 7.72043 8.14934 7.35959 9.19638 7.149C10.509 6.84504 11.8675 6.79406 13.1992 6.99881C14.1698 7.21909 14.6302 7.5495 14.6802 7.76978ZM13.3993 23.1491C10.2271 23.82 8.05559 23.1491 7.9255 22.5784C7.79541 22.0077 9.5166 20.4958 12.6888 19.825C13.5268 19.6384 14.3821 19.541 15.2406 19.5346C15.7371 19.5337 16.2328 19.5773 16.7216 19.6648C17.6322 19.845 18.0926 20.1654 18.1526 20.3957C18.2727 21.0265 16.5615 22.4783 13.3993 23.1491ZM16.4014 7.12897C16.1912 6.50819 15.5408 5.59705 13.5994 5.21657C12.016 4.96452 10.399 5.01891 8.83613 5.37677C7.93148 5.5705 7.04699 5.84874 6.1943 6.20781V1.82229H16.4014V7.12897ZM47.9132 1.82229H56.1189V6.32797C55.8248 6.20474 55.5242 6.09778 55.2183 6.00756C52.0561 5.06638 49.1141 5.90744 48.4036 7.90996L47.9433 9.08143L47.9132 1.82229ZM52.3263 23.2693C51.2553 23.4882 50.1461 23.4296 49.1041 23.0991C46.8025 22.4182 45.4015 20.8663 45.6617 19.9251C45.8918 19.2943 46.8925 18.8537 48.2235 18.8537C48.9017 18.864 49.5753 18.9684 50.2248 19.1641C51.2817 19.4374 52.2502 19.9788 53.0368 20.7361C53.2653 20.9219 53.443 21.1626 53.5532 21.4358C53.6635 21.7089 53.7027 22.0056 53.6672 22.2981C53.5404 22.5575 53.3518 22.7818 53.1179 22.9511C52.8841 23.1205 52.6123 23.2297 52.3263 23.2693Z" fill="#F58220"/>
<path d="M8.0057 26.0328C7.88577 26.019 7.76428 26.0294 7.64846 26.0635C7.53264 26.0975 7.42485 26.1546 7.3315 26.2312C7.23815 26.3078 7.16114 26.4024 7.10505 26.5093C7.04896 26.6163 7.01494 26.7334 7.005 26.8538L4.15302 58.8941C4.13075 59.1371 4.20569 59.3789 4.3614 59.5666C4.51711 59.7543 4.74087 59.8726 4.9836 59.8954H5.06365C5.29019 59.8938 5.50799 59.8078 5.67453 59.6541C5.84106 59.5004 5.94437 59.2902 5.96428 59.0644L8.83627 27.034C8.84866 26.9135 8.8369 26.7917 8.80168 26.6758C8.76646 26.5599 8.70848 26.4521 8.63113 26.3589C8.55379 26.2657 8.45864 26.1888 8.35125 26.1328C8.24386 26.0768 8.12638 26.0428 8.0057 26.0328Z" fill="#F58220"/>
<path d="M52.2062 25.7725C52.0842 25.7556 51.96 25.7645 51.8417 25.7986C51.7233 25.8328 51.6135 25.8913 51.5192 25.9706C51.4248 26.0499 51.3482 26.148 51.2942 26.2588C51.2402 26.3695 51.21 26.4904 51.2055 26.6135L49.1641 58.9943C49.1532 59.1161 49.1666 59.2389 49.2036 59.3555C49.2406 59.4721 49.3004 59.5802 49.3796 59.6734C49.4587 59.7666 49.5557 59.8431 49.6647 59.8984C49.7738 59.9537 49.8927 59.9867 50.0147 59.9955H50.0347C50.1625 60.0083 50.2915 59.9938 50.4133 59.9531C50.5351 59.9124 50.6469 59.8464 50.7414 59.7594C50.8359 59.6724 50.911 59.5664 50.9616 59.4484C51.0123 59.3303 51.0374 59.2029 51.0354 59.0744L53.0368 26.7337C53.0507 26.4968 52.9717 26.2638 52.8166 26.0843C52.6615 25.9048 52.4425 25.7929 52.2062 25.7725Z" fill="#F58220"/>
<path d="M20.4341 45.227L18.0625 47.5899C17.8932 47.7622 17.7983 47.9941 17.7983 48.2357C17.7983 48.4773 17.8932 48.7093 18.0625 48.8816C18.2359 49.0486 18.4672 49.1419 18.7079 49.1419C18.9486 49.1419 19.18 49.0486 19.3534 48.8816L21.715 46.5186C21.7997 46.4348 21.867 46.335 21.9129 46.225C21.9588 46.115 21.9824 45.997 21.9824 45.8778C21.9824 45.7586 21.9588 45.6406 21.9129 45.5306C21.867 45.4206 21.7997 45.3208 21.715 45.237C21.5459 45.0669 21.3165 44.9704 21.0766 44.9685C20.8368 44.9667 20.6059 45.0595 20.4341 45.227Z" fill="#F58220"/>
<path d="M15.7009 49.9528L13.3293 52.3157C13.2443 52.4004 13.1768 52.501 13.1308 52.6119C13.0847 52.7227 13.061 52.8415 13.061 52.9615C13.061 53.0816 13.0847 53.2004 13.1308 53.3112C13.1768 53.4221 13.2443 53.5227 13.3293 53.6074C13.501 53.7737 13.7307 53.8668 13.9697 53.8668C14.2088 53.8668 14.4385 53.7737 14.6102 53.6074L17.0118 51.2444C17.1043 51.1621 17.1791 51.0618 17.2316 50.9496C17.284 50.8374 17.3131 50.7157 17.3169 50.5919C17.3208 50.4682 17.2994 50.3449 17.254 50.2296C17.2087 50.1144 17.1403 50.0096 17.0532 49.9217C16.966 49.8338 16.8618 49.7646 16.747 49.7183C16.6322 49.6721 16.5091 49.6497 16.3854 49.6526C16.2616 49.6555 16.1398 49.6836 16.0273 49.7352C15.9147 49.7868 15.8139 49.8609 15.731 49.9528H15.7009Z" fill="#F58220"/>
<path d="M25.1775 40.5008L22.8059 42.8637C22.7208 42.9484 22.6534 43.049 22.6073 43.1599C22.5613 43.2707 22.5376 43.3895 22.5376 43.5095C22.5376 43.6296 22.5613 43.7484 22.6073 43.8592C22.6534 43.9701 22.7208 44.0707 22.8059 44.1554C22.8895 44.2397 22.9894 44.3063 23.0995 44.351C23.2095 44.3958 23.3275 44.4178 23.4463 44.4157C23.565 44.4172 23.6828 44.3949 23.7928 44.3502C23.9028 44.3055 24.0027 44.2393 24.0867 44.1554L26.4584 41.7924C26.6145 41.6195 26.6984 41.3932 26.693 41.1603C26.6875 40.9273 26.5931 40.7053 26.429 40.5399C26.265 40.3745 26.0438 40.2782 25.811 40.271C25.5783 40.2637 25.3515 40.3459 25.1775 40.5008Z" fill="#F58220"/>
<path d="M11.0074 54.6789L9.67646 55.9605C9.59144 56.0452 9.52397 56.1458 9.47794 56.2567C9.4319 56.3675 9.4082 56.4863 9.4082 56.6063C9.4082 56.7264 9.4319 56.8452 9.47794 56.956C9.52397 57.0668 9.59144 57.1675 9.67646 57.2522C9.84889 57.425 10.0829 57.5222 10.3269 57.5225C10.4462 57.5221 10.5643 57.498 10.6742 57.4516C10.7842 57.4052 10.8838 57.3374 10.9674 57.2522L12.2582 55.9705C12.3666 55.8951 12.4572 55.797 12.5239 55.683C12.5906 55.5691 12.6317 55.442 12.6445 55.3105C12.6572 55.1791 12.6412 55.0464 12.5976 54.9218C12.554 54.7971 12.4839 54.6835 12.392 54.5886C12.3002 54.4938 12.1888 54.4201 12.0657 54.3725C11.9426 54.325 11.8106 54.3049 11.6788 54.3135C11.5471 54.322 11.4189 54.3592 11.3029 54.4223C11.187 54.4854 11.0861 54.5729 11.0074 54.6789Z" fill="#F58220"/>
<path d="M30.6712 37.5873L44.4407 23.85C44.5968 23.6771 44.6808 23.4509 44.6753 23.2179C44.6699 22.9849 44.5754 22.7629 44.4113 22.5975C44.2473 22.4321 44.0262 22.3358 43.7934 22.3286C43.5606 22.3213 43.3339 22.4035 43.1598 22.5584L29.6605 36.0453L21.4047 23.3494C21.272 23.1476 21.0646 23.0069 20.8282 22.958C20.5917 22.9092 20.3456 22.9563 20.1439 23.089C20.0433 23.1529 19.9566 23.2364 19.8888 23.3344C19.821 23.4325 19.7736 23.5431 19.7494 23.6598C19.7251 23.7765 19.7245 23.8969 19.7476 24.0138C19.7706 24.1308 19.8169 24.2419 19.8837 24.3406L28.3495 37.357L27.539 38.158C27.3697 38.3303 27.2748 38.5622 27.2748 38.8038C27.2748 39.0454 27.3697 39.2774 27.539 39.4496C27.7124 39.6167 27.9437 39.71 28.1844 39.71C28.4251 39.71 28.6565 39.6167 28.8299 39.4496L29.3602 38.919L29.7505 39.5097C29.8334 39.6358 29.9463 39.7393 30.079 39.811C30.2118 39.8826 30.3602 39.9202 30.511 39.9202C30.6947 39.9181 30.8732 39.8586 31.0214 39.75C31.1217 39.686 31.2084 39.6027 31.2763 39.5049C31.3443 39.4072 31.3922 39.297 31.4173 39.1806C31.4424 39.0642 31.4443 38.944 31.4227 38.8269C31.4011 38.7098 31.3565 38.5982 31.2916 38.4984L30.6712 37.5873Z" fill="#F58220"/>
<path d="M33.3131 41.6322C33.2472 41.5284 33.1612 41.4389 33.0601 41.3689C32.959 41.2989 32.845 41.2498 32.7247 41.2246C32.6043 41.1994 32.4802 41.1986 32.3596 41.2222C32.2389 41.2457 32.1242 41.2933 32.0222 41.3619C31.8206 41.4947 31.6799 41.7022 31.6311 41.9388C31.5823 42.1754 31.6294 42.4216 31.762 42.6235L33.7634 45.7574C33.8451 45.8854 33.9575 45.9909 34.0903 46.0643C34.2231 46.1378 34.3722 46.1768 34.524 46.178C34.7016 46.1762 34.875 46.1241 35.0243 46.0278C35.2259 45.8949 35.3666 45.6874 35.4154 45.4509C35.4642 45.2143 35.4171 44.968 35.2845 44.7662L33.3131 41.6322Z" fill="#F58220"/>
<path d="M37.3957 47.9103C37.3317 47.81 37.2485 47.7233 37.1508 47.6553C37.0531 47.5873 36.9429 47.5393 36.8266 47.5142C36.7103 47.4891 36.5902 47.4872 36.4731 47.5088C36.3561 47.5304 36.2445 47.575 36.1448 47.64C35.9437 47.773 35.8027 47.9796 35.7521 48.2156C35.7016 48.4515 35.7456 48.6978 35.8747 48.9016L37.876 52.0355C37.9605 52.1624 38.0751 52.2663 38.2096 52.338C38.3441 52.4096 38.4942 52.4468 38.6466 52.446C38.8213 52.4458 38.992 52.3935 39.1369 52.2959C39.3407 52.1731 39.4876 51.9748 39.5457 51.7441C39.6038 51.5133 39.5684 51.269 39.4471 51.0643L37.3957 47.9103Z" fill="#F58220"/>
<path d="M41.4887 54.1782C41.356 53.9764 41.1486 53.8357 40.9121 53.7869C40.6757 53.7381 40.4296 53.7852 40.2278 53.9179C40.1273 53.9818 40.0405 54.0652 39.9728 54.1633C39.905 54.2613 39.8576 54.3719 39.8334 54.4886C39.8091 54.6053 39.8085 54.7257 39.8316 54.8427C39.8546 54.9596 39.9009 55.0707 39.9677 55.1695L40.9683 56.6914C41.0494 56.82 41.1616 56.926 41.2946 56.9995C41.4275 57.073 41.577 57.1117 41.7289 57.1119C41.9065 57.1101 42.08 57.058 42.2292 56.9617C42.4309 56.8289 42.5716 56.6214 42.6203 56.3848C42.6691 56.1482 42.622 55.902 42.4894 55.7001L41.4887 54.1782Z" fill="#F58220"/>
</svg>
