<svg width="60" height="44" viewBox="0 0 60 44" fill="none" xmlns="http://www.w3.org/2000/svg">
<path d="M41.1634 0.25H18.8316C18.0175 0.249996 17.2366 0.575818 16.66 1.15607C16.0834 1.73632 15.7581 2.52368 15.7555 3.34562V40.6544C15.7581 41.4763 16.0834 42.2637 16.66 42.8439C17.2366 43.4242 18.0175 43.75 18.8316 43.75H41.1634C41.9775 43.75 42.7584 43.4242 43.335 42.8439C43.9116 42.2637 44.2369 41.4763 44.2395 40.6544V3.34562C44.2369 2.52368 43.9116 1.73632 43.335 1.15607C42.7584 0.575818 41.9775 0.249996 41.1634 0.25V0.25ZM42.4218 40.6342C42.4218 40.8006 42.3892 40.9653 42.3258 41.1189C42.2625 41.2725 42.1696 41.4119 42.0526 41.5291C41.9357 41.6462 41.7968 41.7389 41.6442 41.8016C41.4916 41.8644 41.3282 41.896 41.1634 41.8946H18.8316C18.6668 41.896 18.5034 41.8644 18.3508 41.8016C18.1982 41.7389 18.0594 41.6462 17.9424 41.5291C17.8254 41.4119 17.7325 41.2725 17.6692 41.1189C17.6058 40.9653 17.5732 40.8006 17.5732 40.6342V3.32545C17.5732 3.15908 17.6058 2.99435 17.6692 2.84077C17.7325 2.68718 17.8254 2.54778 17.9424 2.43061C18.0594 2.31343 18.1982 2.2208 18.3508 2.15806C18.5034 2.09531 18.6668 2.06369 18.8316 2.06502H41.1634C41.3282 2.06369 41.4916 2.09531 41.6442 2.15806C41.7968 2.2208 41.9357 2.31343 42.0526 2.43061C42.1696 2.54778 42.2625 2.68718 42.3258 2.84077C42.3892 2.99435 42.4218 3.15908 42.4218 3.32545V40.6342Z" fill="#FF3855"/>
<path d="M29.9674 19.5194C27.9688 19.5234 26.0162 20.1255 24.3565 21.2496C22.6968 22.3738 21.4045 23.9695 20.6428 25.835C19.8812 27.7006 19.6845 29.7522 20.0775 31.7307C20.4706 33.7091 21.4358 35.5254 22.8511 36.9501C24.2664 38.3748 26.0683 39.3439 28.029 39.7349C29.9897 40.1258 32.0212 39.9211 33.8668 39.1467C35.7123 38.3722 37.2889 37.0627 38.3975 35.3837C39.506 33.7047 40.0966 31.7316 40.0946 29.7137C40.0933 28.3728 39.8302 27.0453 39.3205 25.8071C38.8107 24.5689 38.0642 23.4442 37.1237 22.4975C36.1831 21.5507 35.067 20.8004 33.8391 20.2894C32.6112 19.7784 31.2955 19.5167 29.9674 19.5194V19.5194ZM29.9674 38.083C28.3274 38.085 26.7238 37.5958 25.3593 36.6774C23.9947 35.759 22.9307 34.4526 22.3017 32.9235C21.6728 31.3944 21.5072 29.7113 21.8259 28.0872C22.1447 26.463 22.9334 24.9708 24.0923 23.7993C25.2512 22.6279 26.7282 21.8298 28.3365 21.506C29.9448 21.1823 31.6121 21.3474 33.1274 21.9806C34.6427 22.6137 35.9379 23.6864 36.8492 25.063C37.7605 26.4395 38.2469 28.058 38.2469 29.7137C38.2443 31.9308 37.3715 34.0565 35.8196 35.6252C34.2677 37.1939 32.1634 38.0777 29.9674 38.083V38.083Z" fill="#FF3855"/>
<path d="M29.9675 17.1903C31.1527 17.1903 32.3113 16.8355 33.2967 16.1707C34.2822 15.5059 35.0503 14.561 35.5038 13.4555C35.9574 12.35 36.076 11.1335 35.8448 9.95991C35.6136 8.78631 35.0429 7.70829 34.2048 6.86218C33.3668 6.01606 32.299 5.43985 31.1366 5.2064C29.9742 4.97296 28.7693 5.09277 27.6743 5.55069C26.5794 6.0086 25.6435 6.78405 24.985 7.77898C24.3265 8.77391 23.9751 9.94363 23.9751 11.1402C23.9751 12.7448 24.6064 14.2837 25.7302 15.4183C26.854 16.5529 28.3782 17.1903 29.9675 17.1903V17.1903ZM29.9675 6.93542C30.7932 6.93542 31.6004 7.18262 32.2869 7.64576C32.9734 8.10889 33.5085 8.76717 33.8245 9.53734C34.1405 10.3075 34.2231 11.155 34.062 11.9726C33.901 12.7902 33.5034 13.5412 32.9195 14.1307C32.3357 14.7201 31.5918 15.1216 30.782 15.2842C29.9722 15.4468 29.1328 15.3634 28.3699 15.0443C27.6071 14.7253 26.9551 14.1851 26.4964 13.492C26.0376 12.7988 25.7928 11.9839 25.7928 11.1503C25.7928 10.0324 26.2326 8.96038 27.0156 8.16993C27.7985 7.37949 28.8603 6.93542 29.9675 6.93542V6.93542Z" fill="#FF3855"/>
<path d="M46.5866 12.1383C46.3785 12.2519 46.2225 12.4428 46.1516 12.6706C46.0808 12.8984 46.1007 13.1452 46.2071 13.3584C47.591 16.0156 48.3141 18.9726 48.3141 21.9747C48.3141 24.9768 47.591 27.9339 46.2071 30.591C46.1517 30.6982 46.1178 30.8154 46.1074 30.9359C46.097 31.0563 46.1103 31.1777 46.1464 31.2929C46.1826 31.4082 46.241 31.5151 46.3183 31.6075C46.3955 31.6999 46.4901 31.7759 46.5966 31.8313C46.725 31.9031 46.8692 31.9412 47.016 31.9422C47.1811 31.9409 47.3427 31.8942 47.4835 31.8071C47.6242 31.7201 47.7389 31.596 47.815 31.4481C49.3371 28.5286 50.1325 25.279 50.1325 21.9798C50.1325 18.6805 49.3371 15.4309 47.815 12.5114C47.7595 12.4047 47.6834 12.3102 47.5912 12.2335C47.4991 12.1568 47.3927 12.0994 47.2783 12.0647C47.164 12.0299 47.0439 12.0185 46.9251 12.0312C46.8064 12.0438 46.6913 12.0803 46.5866 12.1383V12.1383Z" fill="#FF3855"/>
<path d="M52.1793 10.2023C52.1307 10.0842 52.0583 9.97762 51.9666 9.88943C51.8749 9.80125 51.766 9.73338 51.6468 9.69019C51.5276 9.64699 51.4008 9.62942 51.2745 9.6386C51.1482 9.64778 51.0252 9.6835 50.9134 9.74348C50.8015 9.80347 50.7034 9.88638 50.6251 9.98691C50.5469 10.0874 50.4903 10.2034 50.459 10.3273C50.4278 10.4512 50.4225 10.5803 50.4436 10.7064C50.4646 10.8324 50.5115 10.9527 50.5813 11.0594C52.3361 14.4304 53.2531 18.1816 53.2531 21.9898C53.2531 25.7981 52.3361 29.5493 50.5813 32.9203C50.4697 33.1336 50.4448 33.3825 50.512 33.614C50.5791 33.8456 50.7329 34.0416 50.9408 34.1605C51.0739 34.2295 51.2207 34.2674 51.3703 34.2715C51.5354 34.2701 51.6969 34.2234 51.8377 34.1364C51.9785 34.0493 52.0931 33.9252 52.1693 33.7774C54.0582 30.1409 55.045 26.096 55.045 21.9898C55.045 17.8836 54.0582 13.8387 52.1693 10.2023H52.1793Z" fill="#FF3855"/>
<path d="M56.5339 7.88321C56.4227 7.66927 56.2318 7.50871 56.0033 7.43685C55.7748 7.36499 55.5273 7.38772 55.3154 7.50004C55.1035 7.61236 54.9445 7.80507 54.8733 8.03578C54.8022 8.26648 54.8247 8.51628 54.9359 8.73022C57.061 12.819 58.1712 17.3674 58.1712 21.9849C58.1712 26.6024 57.061 31.1509 54.9359 35.2396C54.8233 35.4549 54.8001 35.7065 54.8713 35.9391C54.9424 36.1717 55.1022 36.3662 55.3154 36.4799C55.5287 36.5935 55.7779 36.617 56.0083 36.5452C56.2386 36.4733 56.4313 36.312 56.5439 36.0967C58.8138 31.7441 60 26.899 60 21.9799C60 17.0608 58.8138 12.2157 56.5439 7.86305L56.5339 7.88321Z" fill="#FF3855"/>
<path d="M13.3985 12.1385C13.294 12.081 13.1791 12.0453 13.0606 12.0335C12.9422 12.0216 12.8226 12.034 12.7089 12.0697C12.5953 12.1055 12.4899 12.1639 12.3991 12.2415C12.3082 12.3191 12.2337 12.4144 12.18 12.5216C10.658 15.4411 9.86261 18.6908 9.86261 21.99C9.86261 25.2892 10.658 28.5388 12.18 31.4583C12.2553 31.6069 12.3697 31.7316 12.5107 31.8188C12.6517 31.906 12.8137 31.9522 12.979 31.9524C13.1349 31.9493 13.2874 31.9061 13.4222 31.8271C13.557 31.748 13.6696 31.6356 13.7495 31.5005C13.8294 31.3653 13.874 31.2119 13.879 31.0546C13.8839 30.8973 13.8492 30.7413 13.778 30.6012C12.4007 27.942 11.6813 24.9858 11.6813 21.9849C11.6813 18.9841 12.4007 16.0278 13.778 13.3686C13.8349 13.2631 13.8703 13.1471 13.882 13.0275C13.8937 12.9079 13.8815 12.7872 13.8461 12.6725C13.8107 12.5577 13.7528 12.4513 13.6759 12.3596C13.5991 12.2679 13.5047 12.1927 13.3985 12.1385V12.1385Z" fill="#FF3855"/>
<path d="M6.74667 21.99C6.74508 18.1822 7.66023 14.4311 9.4133 11.0596C9.46905 10.953 9.50344 10.8363 9.51454 10.7163C9.52563 10.5963 9.5132 10.4753 9.47796 10.3601C9.44272 10.2449 9.38536 10.1379 9.30914 10.0451C9.23293 9.95232 9.13936 9.87559 9.03378 9.81932C8.9282 9.76304 8.81268 9.72831 8.6938 9.71711C8.57493 9.70591 8.45503 9.71845 8.34096 9.75403C8.22688 9.78961 8.12087 9.84753 8.02897 9.92448C7.93707 10.0014 7.86108 10.0959 7.80533 10.2025C5.91311 13.8379 4.92444 17.8832 4.92444 21.99C4.92444 26.0969 5.91311 30.1422 7.80533 33.7776C7.88064 33.9262 7.99506 34.0509 8.13602 34.1381C8.27698 34.2252 8.43902 34.2715 8.60432 34.2717C8.76019 34.2685 8.91269 34.2254 9.04748 34.1463C9.18228 34.0673 9.29493 33.9549 9.37484 33.8197C9.45476 33.6846 9.4993 33.5311 9.50428 33.3738C9.50926 33.2165 9.47452 33.0605 9.40332 32.9205C7.65258 29.5486 6.7408 25.7972 6.74667 21.99V21.99Z" fill="#FF3855"/>
<path d="M1.82298 21.99C1.82276 17.3708 2.93319 12.8206 5.0589 8.73026C5.15169 8.51717 5.1608 8.27644 5.08438 8.05681C5.00796 7.83719 4.85172 7.65511 4.64731 7.54743C4.4429 7.43975 4.20559 7.41454 3.98345 7.47689C3.76132 7.53925 3.57096 7.68451 3.45093 7.88326C1.18432 12.2369 0 17.0816 0 22.0001C0 26.9185 1.18432 31.7633 3.45093 36.1169C3.52759 36.2636 3.64259 36.3863 3.78345 36.4716C3.92432 36.5569 4.08565 36.6017 4.24992 36.6009C4.39897 36.6022 4.54618 36.5676 4.67937 36.5001C4.89074 36.3845 5.04884 36.19 5.11979 35.9581C5.19074 35.7263 5.16888 35.4756 5.0589 35.2598C2.93012 31.167 1.81954 26.6128 1.82298 21.99V21.99Z" fill="#FF3855"/>
</svg>
