<svg width="60" height="60" viewBox="0 0 60 60" fill="none" xmlns="http://www.w3.org/2000/svg">
<g opacity="0.7">
<path d="M53.3133 0H6.6967C4.92144 0.00264767 3.21964 0.709041 1.96434 1.96434C0.709041 3.21964 0.00264767 4.92144 0 6.6967L0 53.3133C0.00265223 55.0877 0.709366 56.7884 1.96495 58.0421C3.22054 59.2958 4.92236 60 6.6967 60H53.3133C55.0859 59.9974 56.7852 59.292 58.0386 58.0386C59.292 56.7852 59.9974 55.0859 60 53.3133V6.6967C60 4.92236 59.2958 3.22054 58.0421 1.96495C56.7884 0.709366 55.0877 0.00265223 53.3133 0V0ZM58.1882 53.3133C58.1855 54.6054 57.6711 55.8438 56.7574 56.7574C55.8438 57.6711 54.6054 58.1855 53.3133 58.1882H6.6967C5.40461 58.1855 4.1662 57.6711 3.25256 56.7574C2.33892 55.8438 1.82447 54.6054 1.82182 53.3133V6.6967C1.82182 5.4038 2.33542 4.16386 3.24964 3.24964C4.16386 2.33542 5.4038 1.82182 6.6967 1.82182H53.3133C54.6054 1.82447 55.8438 2.33892 56.7574 3.25256C57.6711 4.1662 58.1855 5.40461 58.1882 6.6967V53.3133Z" fill="#FF3855"/>
<path d="M50.1002 26.1462C50.0564 25.9086 49.92 25.6981 49.721 25.561C49.522 25.424 49.2768 25.3716 49.0391 25.4154C48.8015 25.4592 48.5911 25.5956 48.454 25.7946C48.317 25.9936 48.2646 26.2389 48.3084 26.4765C48.5223 27.6489 48.6296 28.8383 48.6287 30.03C48.6193 34.573 46.9984 38.9653 44.0544 42.4253C41.1104 45.8853 37.0343 48.1886 32.5515 48.9253C28.0687 49.662 23.4698 48.7844 19.5734 46.4486C15.6769 44.1128 12.7355 40.4704 11.2725 36.1694C9.80962 31.8684 9.92009 27.1879 11.5843 22.9607C13.2485 18.7335 16.3584 15.2339 20.3608 13.0845C24.3631 10.9351 28.9982 10.2754 33.4413 11.2228C37.8844 12.1702 41.8473 14.6633 44.6247 18.2583C44.7003 18.3516 44.7935 18.4291 44.8991 18.4864C45.0046 18.5437 45.1204 18.5797 45.2399 18.5922C45.3593 18.6048 45.4801 18.5937 45.5952 18.5596C45.7104 18.5255 45.8177 18.469 45.911 18.3934C46.0043 18.3178 46.0819 18.2246 46.1392 18.1191C46.1965 18.0135 46.2324 17.8977 46.245 17.7783C46.2575 17.6588 46.2464 17.5381 46.2123 17.4229C46.1782 17.3078 46.1217 17.2005 46.0462 17.1071C42.9989 13.1744 38.6554 10.4499 33.7884 9.41827C28.9213 8.38664 23.8461 9.11473 19.4653 11.4731C15.0846 13.8314 11.6823 17.667 9.86352 22.2979C8.04476 26.9287 7.92745 32.0546 9.53245 36.7638C11.1374 41.473 14.3607 45.4603 18.629 48.0166C22.8973 50.5728 27.9339 51.5323 32.843 50.7244C37.7522 49.9166 42.2157 47.3937 45.4397 43.6044C48.6637 39.8152 50.4393 35.0052 50.4506 30.03C50.4513 28.7275 50.3341 27.4276 50.1002 26.1462Z" fill="#FF3855"/>
<path d="M35.035 30.03C35.035 28.9332 34.7098 27.861 34.1004 26.949C33.4911 26.0371 32.625 25.3263 31.6116 24.9066C30.5983 24.4868 29.4833 24.377 28.4076 24.591C27.3318 24.805 26.3437 25.3331 25.5682 26.1087C24.7926 26.8842 24.2644 27.8724 24.0505 28.9481C23.8365 30.0238 23.9463 31.1389 24.366 32.1522C24.7858 33.1655 25.4966 34.0316 26.4085 34.6409C27.3205 35.2503 28.3926 35.5755 29.4895 35.5755C30.9594 35.5729 32.3684 34.9878 33.4078 33.9484C34.4472 32.9089 35.0324 31.4999 35.035 30.03V30.03ZM29.4895 33.7537C28.7513 33.7616 28.0275 33.55 27.4099 33.1457C26.7923 32.7414 26.3088 32.1626 26.0208 31.483C25.7328 30.8033 25.6533 30.0533 25.7924 29.3284C25.9316 28.6034 26.283 27.9362 26.8022 27.4114C27.3213 26.8866 27.9847 26.528 28.7081 26.381C29.4315 26.2341 30.1823 26.3054 30.865 26.586C31.5478 26.8667 32.1317 27.3439 32.5427 27.9571C32.9537 28.5703 33.1731 29.2918 33.1731 30.03C33.1626 31.0133 32.7646 31.9527 32.0655 32.6443C31.3664 33.3359 30.4228 33.7237 29.4394 33.7237L29.4895 33.7537Z" fill="#FF3855"/>
<path d="M49.2893 11.7917L43.5536 30.2101C43.025 31.9219 42.0177 33.4467 40.6507 34.6045L39.7598 35.3653L39.3794 34.9048C39.2238 34.7215 39.0026 34.6063 38.7632 34.5838C38.5238 34.5614 38.2851 34.6335 38.0981 34.7847L32.3223 39.5294C32.139 39.6851 32.0238 39.9062 32.0013 40.1456C31.9789 40.385 32.051 40.6238 32.2022 40.8107L34.0941 43.113C34.2517 43.2925 34.4683 43.4096 34.7047 43.4434H34.7948C35.0071 43.4439 35.2127 43.3694 35.3754 43.2331L41.1412 38.4884C41.3283 38.3357 41.4471 38.115 41.4715 37.8747C41.4959 37.6344 41.4239 37.3943 41.2713 37.2071L40.9109 36.7667L41.8218 35.9959C43.4615 34.6152 44.6677 32.7903 45.2953 30.7407L51.0511 12.2922C51.7673 12.2708 52.4523 11.994 52.9823 11.5117C53.5123 11.0295 53.8524 10.3736 53.9412 9.66256C54.0299 8.95152 53.8615 8.23217 53.4664 7.63442C53.0712 7.03668 52.4753 6.59994 51.7863 6.40308C51.0973 6.20623 50.3606 6.26223 49.7093 6.56098C49.058 6.85973 48.535 7.38152 48.2347 8.03214C47.9344 8.68275 47.8767 9.4193 48.0719 10.1088C48.2672 10.7982 48.7025 11.3951 49.2993 11.7917H49.2893ZM34.9149 41.2512L34.1842 40.3603L38.5486 36.7667L39.2893 37.6576L34.9149 41.2512ZM50.9309 8.10802C51.167 8.10803 51.3977 8.17815 51.5938 8.30949C51.7899 8.44082 51.9425 8.62746 52.0324 8.8457C52.1222 9.06395 52.1452 9.30397 52.0985 9.53531C52.0517 9.76664 51.9372 9.97887 51.7696 10.1451C51.602 10.3112 51.3889 10.4239 51.1571 10.4687C50.9254 10.5135 50.6856 10.4885 50.4681 10.3968C50.2506 10.3051 50.0653 10.1509 49.9356 9.9537C49.8059 9.75649 49.7378 9.52521 49.7397 9.2892C49.741 9.13106 49.7738 8.97475 49.8361 8.8294C49.8984 8.68405 49.9891 8.55256 50.1028 8.44261C50.2164 8.33266 50.3509 8.24645 50.4982 8.189C50.6456 8.13156 50.8029 8.10403 50.961 8.10802H50.9309Z" fill="#FF3855"/>
<path d="M50.961 46.9769C50.1504 46.9769 49.3581 47.2175 48.6844 47.6683C48.0107 48.119 47.4859 48.7596 47.1767 49.5089C46.8674 50.2581 46.7875 51.0824 46.9471 51.8771C47.1067 52.6718 47.4986 53.4012 48.0732 53.973C48.6478 54.5448 49.3791 54.9331 50.1746 55.0888C50.9701 55.2445 51.7939 55.1606 52.5417 54.8476C53.2894 54.5347 53.9274 54.0068 54.3749 53.3309C54.8223 52.655 55.0591 51.8615 55.0551 51.0509C55.0472 49.9694 54.6127 48.9347 53.846 48.1718C53.0794 47.4089 52.0426 46.9795 50.961 46.9769ZM50.961 53.3432C50.5124 53.3432 50.0739 53.2104 49.7007 52.9616C49.3275 52.7128 49.0362 52.3591 48.8637 51.9451C48.6911 51.531 48.645 51.0752 48.731 50.635C48.8171 50.1948 49.0315 49.7899 49.3473 49.4713C49.6631 49.1527 50.0661 48.9347 50.5056 48.8448C50.945 48.7549 51.4012 48.797 51.8168 48.966C52.2323 49.1349 52.5886 49.423 52.8406 49.794C53.0927 50.1651 53.2293 50.6024 53.2333 51.0509C53.2359 51.351 53.1791 51.6487 53.0661 51.9267C52.9531 52.2047 52.7861 52.4575 52.5749 52.6706C52.3636 52.8838 52.1122 53.0529 51.8352 53.1684C51.5582 53.2838 51.2611 53.3432 50.961 53.3432V53.3432Z" fill="#FF3855"/>
</g>
</svg>
