<svg width="60" height="54" viewBox="0 0 60 54" fill="none" xmlns="http://www.w3.org/2000/svg">
<path d="M0.62344 1.77815L14.2858 5.59183C14.3638 5.60603 14.4437 5.60603 14.5217 5.59183C14.7398 5.59384 14.9511 5.51614 15.1158 5.37332C15.2806 5.2305 15.3875 5.03241 15.4165 4.81628C15.4455 4.60016 15.3945 4.3809 15.2732 4.19972C15.1519 4.01854 14.9685 3.88792 14.7576 3.83243L1.10506 0.0285785C0.873065 -0.0311715 0.626837 0.00358223 0.420439 0.12521C0.214041 0.246837 0.0643421 0.445397 0.00420835 0.677297C-0.0592927 0.905385 -0.0297696 1.14935 0.0863062 1.3557C0.202382 1.56206 0.39554 1.71398 0.62344 1.77815Z" fill="#333333"/>
<path d="M7.81833 48.191V6.7418L13.5192 8.3341C13.5975 8.34357 13.6767 8.34357 13.7551 8.3341C13.968 8.33028 14.1725 8.25065 14.3319 8.10952C14.4913 7.9684 14.5952 7.77504 14.6248 7.56421C14.6544 7.35337 14.6078 7.13889 14.4934 6.95931C14.3791 6.77974 14.2044 6.64685 14.0008 6.58453L0.338409 2.80034C0.115054 2.75072 -0.118822 2.78859 -0.315113 2.90614C-0.511403 3.0237 -0.655181 3.21201 -0.716872 3.43233C-0.778563 3.65266 -0.753476 3.88825 -0.646772 4.09064C-0.540067 4.29303 -0.359859 4.44684 -0.143215 4.52043L6.08841 6.24051V48.191L2.35337 52.4764C2.2001 52.6566 2.1244 52.89 2.14282 53.1258C2.16123 53.3616 2.27228 53.5805 2.45166 53.7346C2.61788 53.8637 2.82115 53.936 3.03157 53.941C3.16117 53.9441 3.28974 53.9173 3.40734 53.8628C3.52494 53.8082 3.62842 53.7274 3.70978 53.6264L6.08841 50.894V53.1055C6.11155 53.3253 6.21524 53.5288 6.37949 53.6766C6.54375 53.8245 6.75693 53.9063 6.97794 53.9063C7.19895 53.9063 7.41214 53.8245 7.57639 53.6766C7.74065 53.5288 7.84434 53.3253 7.86747 53.1055V50.9431L10.197 53.6756C10.2783 53.7765 10.3818 53.8574 10.4994 53.9119C10.617 53.9664 10.7456 53.9932 10.8752 53.9901C11.0856 53.9852 11.2889 53.9128 11.4551 53.7837C11.6345 53.6296 11.7455 53.4107 11.7639 53.1749C11.7823 52.9392 11.7066 52.7057 11.5534 52.5256L7.81833 48.191Z" fill="#333333"/>
<path d="M47.7931 5.27725C47.8747 5.28685 47.9572 5.28685 48.0388 5.27725L58.3298 2.36785C58.4441 2.33845 58.5513 2.28623 58.6448 2.21434C58.7384 2.14245 58.8165 2.05237 58.8743 1.94953C58.9322 1.84668 58.9686 1.7332 58.9814 1.6159C58.9943 1.49861 58.9833 1.37992 58.9491 1.26699C58.8849 1.03909 58.733 0.845937 58.5266 0.729861C58.3203 0.613785 58.0763 0.584262 57.8482 0.647763L47.5572 3.52768C47.3542 3.58962 47.1799 3.72169 47.0654 3.90029C46.9508 4.07889 46.9035 4.2924 46.9319 4.50268C46.9602 4.71296 47.0624 4.90631 47.2201 5.0482C47.3779 5.19009 47.581 5.27127 47.7931 5.27725Z" fill="#333333"/>
<path d="M59.6567 3.78335C59.5903 3.55689 59.438 3.36537 59.2323 3.24968C59.0267 3.13398 58.7839 3.10327 58.5559 3.16411L48.255 6.04403C48.0514 6.10635 47.8768 6.23924 47.7624 6.41881C47.648 6.59839 47.6015 6.81287 47.6311 7.02371C47.6607 7.23454 47.7645 7.4279 47.9239 7.56902C48.0834 7.71015 48.2879 7.78978 48.5007 7.79361H48.7366L52.7862 6.66326V19.7851L52.0589 15.5487C52.0403 15.4326 51.9986 15.3214 51.9361 15.2217C51.8736 15.1221 51.7917 15.0361 51.6952 14.9688C51.5008 14.833 51.2603 14.78 51.0268 14.8214L46.0435 15.6765L39.2319 16.8462L34.6516 17.6423C34.4271 17.681 34.2262 17.8048 34.0908 17.9879C33.9553 18.171 33.8956 18.3993 33.9242 18.6252L34.514 22.0949C30.8253 19.7983 26.3754 19.061 22.1432 20.0454C17.9109 21.0297 14.2431 23.655 11.9464 27.3436C9.64983 31.0323 8.91259 35.4822 9.89692 39.7144C10.8812 43.9467 13.5065 47.6145 17.1952 49.9112L15.5144 52.5748C15.451 52.6734 15.4079 52.7835 15.3874 52.8988C15.367 53.0141 15.3696 53.1324 15.3952 53.2467C15.4208 53.361 15.4689 53.4691 15.5366 53.5646C15.6043 53.6602 15.6903 53.7414 15.7896 53.8035C15.9298 53.8951 16.094 53.943 16.2614 53.9411C16.4125 53.9435 16.5616 53.9067 16.6942 53.8344C16.8268 53.762 16.9385 53.6566 17.0182 53.5283L18.758 50.7859C20.9849 51.8851 23.435 52.4568 25.9185 52.4568C28.4019 52.4568 30.852 51.8851 33.0789 50.7859L34.8187 53.5283C34.8992 53.6559 35.0109 53.7608 35.1434 53.8331C35.2759 53.9054 35.4246 53.9425 35.5755 53.9411C35.7462 53.9443 35.9139 53.8964 36.0571 53.8035C36.2557 53.6763 36.396 53.4759 36.4476 53.2458C36.4991 53.0157 36.4577 52.7746 36.3324 52.5748L34.6418 49.9112C36.4761 48.7614 38.0638 47.2587 39.3127 45.4904C40.5615 43.722 41.4467 41.7232 41.9167 39.6099C42.3867 37.4966 42.4323 35.3111 42.0507 33.18C41.6691 31.049 40.868 29.0151 39.6939 27.1962L43.2324 26.5868V48.1911L39.5071 52.4766C39.355 52.6579 39.281 52.8921 39.3013 53.128C39.3215 53.3638 39.4345 53.5819 39.6153 53.7347C39.7759 53.867 39.9772 53.9399 40.1854 53.9411C40.3163 53.9435 40.4461 53.9165 40.5651 53.862C40.6842 53.8076 40.7896 53.7271 40.8734 53.6266L43.1931 50.8941V53.1056C43.1931 53.3428 43.2873 53.5703 43.455 53.7381C43.6228 53.9058 43.8503 54.0001 44.0875 54.0001C44.3247 54.0001 44.5522 53.9058 44.72 53.7381C44.8877 53.5703 44.9819 53.3428 44.9819 53.1056V50.9432L47.3704 53.6266C47.4523 53.7269 47.5558 53.8074 47.6733 53.8619C47.7908 53.9163 47.9191 53.9434 48.0486 53.9411C48.2693 53.9445 48.4831 53.8643 48.6472 53.7166C48.8112 53.569 48.9134 53.3648 48.9332 53.1449C48.953 53.3648 49.0552 53.569 49.2193 53.7166C49.3833 53.8643 49.5971 53.9445 49.8178 53.9411C49.9473 53.9434 50.0756 53.9163 50.1931 53.8619C50.3106 53.8074 50.4142 53.7269 50.496 53.6266L52.8157 50.8941V53.1056C52.8157 53.3428 52.9099 53.5703 53.0777 53.7381C53.2454 53.9058 53.4729 54.0001 53.7102 54.0001C53.9474 54.0001 54.1749 53.9058 54.3426 53.7381C54.5104 53.5703 54.6046 53.3428 54.6046 53.1056V50.9432L56.9243 53.6757C57.0066 53.7755 57.1102 53.8556 57.2276 53.91C57.345 53.9645 57.4731 53.9919 57.6025 53.9902C57.8138 53.9905 58.0187 53.9176 58.1824 53.7838C58.361 53.6297 58.4722 53.4118 58.4924 53.1768C58.5126 52.9417 58.4402 52.7081 58.2905 52.5257L54.5751 48.1911V6.13249L59.0375 4.8842C59.2654 4.82003 59.4586 4.66811 59.5746 4.46175C59.6907 4.25539 59.7202 4.01143 59.6567 3.78335ZM38.652 18.7628L39.0059 20.8564C39.0429 21.0638 39.1519 21.2515 39.3138 21.3863C39.4756 21.5212 39.6798 21.5946 39.8905 21.5936H40.0379C40.2716 21.5527 40.4799 21.4216 40.6178 21.2285C40.7557 21.0354 40.8122 20.7959 40.7751 20.5616L40.4114 18.468L45.4636 17.5932L45.8272 19.6868C45.8622 19.8933 45.9692 20.0808 46.1294 20.2158C46.2896 20.3508 46.4925 20.4246 46.702 20.424H46.8593C47.0816 20.3809 47.2796 20.2561 47.4143 20.0741C47.549 19.8921 47.6105 19.6662 47.5866 19.4411L47.223 17.3475L50.4567 16.7381L51.5871 23.3432L36.9614 25.8496L35.8212 19.2445L38.652 18.7628ZM40.4901 36.0718C40.4893 39.38 39.3662 42.5901 37.3045 45.1773C35.2428 47.7645 32.3643 49.5757 29.1398 50.3148C25.9152 51.0539 22.5353 50.6773 19.5525 49.2464C16.5698 47.8155 14.1607 45.4151 12.7191 42.4375C11.2775 39.4599 10.8887 36.0813 11.6162 32.8541C12.3438 29.6269 14.1446 26.742 16.7244 24.671C19.3041 22.6 22.5102 21.4654 25.8183 21.4527C29.1265 21.4401 32.3411 22.5501 34.9366 24.6013L35.3495 27.0389C35.3865 27.2463 35.4955 27.4339 35.6574 27.5688C35.8192 27.7037 36.0234 27.7771 36.2341 27.7761H36.3815L37.7477 27.55C39.5416 30.0284 40.5019 33.0124 40.4901 36.0718ZM49.0807 52.4766C48.9393 52.6436 48.8656 52.8575 48.8742 53.0761C48.8829 52.8575 48.8092 52.6436 48.6678 52.4766L45.0213 48.1911V26.2821L52.7666 24.9453V48.1911L49.0807 52.4766Z" fill="#333333"/>
</svg>
