<svg width="76" height="74" viewBox="0 0 76 74" fill="none" xmlns="http://www.w3.org/2000/svg">
<path d="M5.90681 60.7313H69.5097" stroke="#FF3855" stroke-width="2.5" stroke-linecap="round" stroke-linejoin="round"/>
<path d="M3.70338 66.4057H72.3277" stroke="#FF3855" stroke-width="2.5" stroke-linecap="round" stroke-linejoin="round"/>
<path d="M1.69231 72.0769H74.3077" stroke="#FF3855" stroke-width="2.5" stroke-linecap="round" stroke-linejoin="round"/>
<path d="M73.78 15.6833L37.9999 1.92309L2.21674 15.6771V20.8468H73.78V15.6833Z" stroke="#FF3855" stroke-width="2.5" stroke-linecap="round" stroke-linejoin="round"/>
<path d="M37.4197 52.6052V56.3973M37.4197 32.2667V36.062V32.2667Z" stroke="#FF3855" stroke-width="2.5" stroke-linecap="round" stroke-linejoin="round"/>
<path d="M42.9314 38.0401C41.1779 37.4581 39.5983 36.9102 38.0124 36.7338C29.4716 35.7772 28.3916 44.3615 37.4693 44.3336C46.3049 44.3057 45.4732 52.8962 36.9106 51.9304C35.3248 51.7508 33.7451 51.2029 32.004 50.6271" stroke="#FF3855" stroke-width="2.5" stroke-linecap="round" stroke-linejoin="round"/>
<path d="M62.6882 27.3942C62.6882 38.5076 63.2685 49.621 63.2685 60.7344M13.3117 27.3942L12.7314 60.7344L13.3117 27.3942ZM21.9736 27.3942C21.9736 38.5076 22.5539 49.621 22.5539 60.7344L21.9736 27.3942ZM54.0233 27.3942L53.4429 60.7344L54.0233 27.3942Z" stroke="#FF3855" stroke-width="2.5" stroke-linecap="round" stroke-linejoin="round"/>
<path d="M57.0771 15.9248L38 8.58496L18.9198 15.9217" stroke="#FF3855" stroke-width="2.5" stroke-linecap="round" stroke-linejoin="round"/>
<path d="M51.1991 21.8405V26.8369H65.5124V20.8468M10.4845 21.8405V26.8369H24.7977V20.8468L10.4845 21.8405Z" stroke="#FF3855" stroke-width="2.5" stroke-linecap="round" stroke-linejoin="round"/>
</svg>
