<svg width="55" height="71" viewBox="0 0 55 71" fill="none" xmlns="http://www.w3.org/2000/svg">
<path fill-rule="evenodd" clip-rule="evenodd" d="M19.3801 9.94917L14.7284 1.95525C14.6624 1.72729 14.5412 1.52278 14.3803 1.35709L14.3068 1.23074L14.2679 1.25304C14.02 1.04699 13.7014 0.92308 13.3539 0.92308C12.5637 0.92308 11.9231 1.56366 11.9231 2.35385C11.9231 2.43307 11.9295 2.51078 11.9419 2.58649L11.9092 2.60526L11.9659 2.70284C12.0324 2.96799 12.1729 3.2038 12.3641 3.38704L13.8376 5.91928C8.74858 9.1769 4.77417 13.9076 2.4631 19.4861C-0.0179363 25.4748 -0.444011 32.1076 1.25065 38.3606C2.94531 44.6136 6.66647 50.1391 11.8397 54.0841C16.6388 57.7439 22.44 59.8547 28.4622 60.1523V68.0208H6.21354C6.13415 68.0071 6.05253 68 5.96924 68C5.17905 68 4.53847 68.6406 4.53847 69.4308C4.53847 70.2209 5.17905 70.8615 5.96924 70.8615C6.14789 70.8615 6.31889 70.8288 6.47657 70.769H52.8465C53.0042 70.8288 53.1752 70.8615 53.3539 70.8615C54.1441 70.8615 54.7846 70.2209 54.7846 69.4308C54.7846 68.785 54.3569 68.2392 53.7692 68.0612V68.0208H53.5982C53.5188 68.0071 53.4371 68 53.3539 68C53.2706 68 53.1889 68.0071 53.1096 68.0208H31.231V60.1643C35.5103 59.9887 39.6994 58.8847 43.5028 56.9299L45.3901 60.1733L45.4449 60.142C45.7062 60.4857 46.1195 60.7077 46.5846 60.7077C47.3748 60.7077 48.0154 60.0671 48.0154 59.2769C48.0154 58.7767 47.7587 58.3365 47.3699 58.0807L42.7813 50.1953C43.879 49.4743 44.9202 48.6585 45.8919 47.7529C50.2312 43.7091 52.859 38.1789 53.2426 32.2833C53.6262 26.3878 51.737 20.568 47.9578 16.0038C44.1787 11.4395 38.7924 8.47234 32.8909 7.7037C28.2349 7.09727 23.533 7.89512 19.3801 9.94917ZM15.2153 8.28669C12.5648 9.92569 10.2187 12.0115 8.28419 14.4532C6.07495 17.2417 4.44678 20.4386 3.49454 23.8578C2.54229 27.277 2.28499 30.85 2.73763 34.3689C3.19026 37.8877 4.34379 41.282 6.13101 44.354C7.91823 47.4261 10.3034 50.1144 13.1477 52.2625C15.9919 54.4106 19.2384 55.9755 22.6979 56.866C26.1574 57.7566 29.7609 57.955 33.2985 57.4497C36.3926 57.0077 39.3821 56.0352 42.1346 54.5787L40.386 51.5739C37.1519 53.19 33.5564 54.0549 29.8745 54.0603C27.8081 54.068 25.75 53.7999 23.7555 53.2634C18.0072 51.7307 13.0611 48.0858 9.91985 43.0677C6.77862 38.0496 5.67729 32.0337 6.83912 26.2395C8.00094 20.4453 11.339 15.3063 16.1766 11.8644C16.4408 11.6764 16.7084 11.4943 16.9792 11.318L15.2153 8.28669ZM16.1519 15.262C13.1119 17.9194 10.8959 21.4227 9.8224 25.3617C9.74774 25.6356 9.67893 25.9105 9.61593 26.1861C12.6371 26.0417 15.6125 25.4632 18.451 24.4759C17.8674 22.9276 17.3461 21.3552 16.8888 19.7626C16.4374 18.0371 16.1925 16.5366 16.1519 15.262ZM22.5894 33.2778L11.2055 39.7988C9.54696 36.424 8.85385 32.6764 9.17901 28.9635C12.7014 28.8251 16.1686 28.1594 19.4667 27.0003C20.3866 29.1481 21.429 31.2441 22.5894 33.2778ZM21.9852 26.0046C22.861 28.03 23.8501 30.0072 24.9483 31.9266L33.3265 27.1273C32.0719 25.0651 30.8301 23.2337 29.6338 21.6275C28.4503 22.4832 27.2086 23.2654 25.9151 23.9675C24.646 24.7307 23.3332 25.4105 21.9852 26.0046ZM34.7291 29.4969L26.3493 34.2971C27.6009 36.3572 28.8355 38.1811 30.0224 39.777C31.2092 38.9201 32.4542 38.1368 33.7509 37.4335C35.0151 36.6677 36.3237 35.9874 37.6678 35.3949C36.8006 33.3773 35.8197 31.4082 34.7291 29.4969ZM27.8609 41.4733C26.5095 39.6423 25.1993 37.668 23.985 35.6514L12.5878 42.18C14.704 45.3059 17.6354 47.7853 21.0493 49.365C22.9057 46.3944 25.2056 43.7351 27.8609 41.4733ZM40.2159 34.3914C39.2953 32.2535 38.2496 30.1688 37.0835 28.1482L48.5627 21.5727C49.1511 22.7621 49.6257 24.0117 49.9759 25.306C50.6138 27.6635 50.8198 30.0978 50.6016 32.4966C47.0496 32.5887 43.5462 33.2316 40.2159 34.3914ZM42.5053 14.2641C44.339 15.649 45.9143 17.3173 47.1791 19.1922L35.6816 25.7783C34.4632 23.7549 33.1473 21.772 31.7892 19.9328C34.4645 17.6492 36.776 14.9594 38.6322 11.953C39.9961 12.5773 41.2956 13.3504 42.5053 14.2641ZM23.6888 50.3753C25.3076 47.8568 27.2786 45.5904 29.5357 43.6406C31.8819 46.534 34.2832 48.8909 36.4692 50.2114C32.6188 51.5023 28.4399 51.6529 24.456 50.5948C24.1984 50.5264 23.9427 50.4532 23.6888 50.3753ZM31.7037 41.9289C35.8586 46.9789 39.1707 49.0185 40.119 48.4538C40.5066 48.2614 41.1988 46.7224 40.119 42.2429C39.6964 40.7815 39.2173 39.3383 38.6829 37.9164C37.436 38.4701 36.2229 39.1069 35.0522 39.8244C33.8885 40.4573 32.7704 41.1606 31.7037 41.9289ZM41.2352 36.9152C41.824 38.4749 42.3478 40.0597 42.8047 41.6657C43.2526 43.4055 43.4916 44.9208 43.523 46.2059C45.9319 44.1354 47.842 41.5292 49.084 38.5772C49.5387 37.4965 49.8972 36.3853 50.1587 35.2558C47.1088 35.3718 44.1025 35.9337 41.2352 36.9152ZM24.4753 21.6315C23.3408 22.3233 22.1671 22.94 20.9616 23.4795C20.4032 22.0056 19.9034 20.509 19.4638 18.9931C18.5905 15.2751 18.9189 13.6017 19.2616 13.0145C19.347 12.964 19.4329 12.9141 19.5192 12.8648C19.5803 12.8295 19.6415 12.7945 19.7029 12.7599C19.7528 12.7627 19.8025 12.7701 19.8514 12.7821C21.1525 12.7821 24.2245 14.9492 27.9435 19.4665C26.8401 20.2598 25.682 20.9835 24.4753 21.6315ZM23.1842 11.1992C25.3683 12.5185 27.7666 14.8726 30.1092 17.7598C32.3891 15.7941 34.3777 13.5052 36.0069 10.9593C34.0063 10.3527 31.9115 10.0458 29.7915 10.0616L29.8745 10.0891C27.5886 10.0892 25.3284 10.4673 23.1842 11.1992Z" fill="#FF3855"/>
</svg>
