<svg width="75" height="69" viewBox="0 0 75 69" fill="none" xmlns="http://www.w3.org/2000/svg">
<path d="M0.779238 2.97269L17.8572 7.73979C17.9547 7.75753 18.0546 7.75753 18.1521 7.73979C18.4247 7.74231 18.6888 7.64517 18.8947 7.46665C19.1007 7.28813 19.2344 7.04051 19.2706 6.77036C19.3068 6.5002 19.2431 6.22612 19.0914 5.99965C18.9398 5.77317 18.7106 5.6099 18.447 5.54053L1.38127 0.785723C1.09127 0.711036 0.783486 0.754478 0.525488 0.906512C0.26749 1.05855 0.0803666 1.30675 0.00519941 1.59662C-0.0741769 1.88173 -0.0372731 2.18668 0.107822 2.44463C0.252916 2.70257 0.494364 2.89247 0.779238 2.97269Z" fill="#1573D7"/>
<path d="M9.77291 60.9888V9.17731L16.899 11.1677C16.9969 11.1795 17.0959 11.1795 17.1939 11.1677C17.4599 11.1629 17.7156 11.0634 17.9149 10.887C18.1141 10.7106 18.2439 10.4689 18.281 10.2053C18.318 9.94178 18.2598 9.67367 18.1168 9.4492C17.9738 9.22473 17.7555 9.05862 17.501 8.98072L0.423011 4.25048C0.143818 4.18847 -0.148528 4.2358 -0.393891 4.38274C-0.639253 4.52968 -0.818976 4.76507 -0.89609 5.04047C-0.973204 5.31588 -0.941845 5.61037 -0.808465 5.86336C-0.675084 6.11635 -0.449824 6.30861 -0.179019 6.40059L7.61052 8.5507V60.9888L2.94171 66.3456C2.75012 66.5707 2.65549 66.8626 2.67852 67.1573C2.70154 67.452 2.84035 67.7256 3.06457 67.9183C3.27235 68.0797 3.52644 68.1701 3.78947 68.1763C3.95146 68.1801 4.11217 68.1467 4.25917 68.0785C4.40617 68.0103 4.53552 67.9093 4.63722 67.7831L7.61052 64.3675V67.1319C7.63944 67.4067 7.76905 67.661 7.97437 67.8458C8.17969 68.0307 8.44617 68.133 8.72243 68.133C8.99869 68.133 9.26517 68.0307 9.47049 67.8458C9.67581 67.661 9.80542 67.4067 9.83434 67.1319V64.4289L12.7462 67.8446C12.8479 67.9707 12.9773 68.0718 13.1243 68.1399C13.2713 68.2081 13.432 68.2416 13.594 68.2377C13.857 68.2315 14.1111 68.1411 14.3189 67.9797C14.5431 67.7871 14.6819 67.5135 14.7049 67.2187C14.7279 66.924 14.6333 66.6322 14.4417 66.407L9.77291 60.9888Z" fill="#1573D7"/>
<path d="M59.7413 7.34651C59.8434 7.35851 59.9465 7.35851 60.0485 7.34651L72.9123 3.70975C73.0551 3.673 73.1891 3.60773 73.306 3.51786C73.423 3.428 73.5206 3.3154 73.5929 3.18685C73.6652 3.05829 73.7107 2.91644 73.7268 2.76982C73.7429 2.6232 73.7291 2.47484 73.6863 2.33368C73.6061 2.04881 73.4162 1.80736 73.1583 1.66227C72.9003 1.51717 72.5954 1.48027 72.3103 1.55964L59.4465 5.15954C59.1928 5.23696 58.9749 5.40205 58.8317 5.6253C58.6885 5.84856 58.6294 6.11544 58.6648 6.37829C58.7003 6.64114 58.828 6.88283 59.0252 7.06019C59.2224 7.23755 59.4762 7.33903 59.7413 7.34651Z" fill="#1573D7"/>
<path d="M74.571 5.47924C74.488 5.19618 74.2976 4.95678 74.0405 4.81216C73.7834 4.66754 73.4799 4.62915 73.1949 4.7052L60.3188 8.3051C60.0644 8.38299 59.846 8.54911 59.703 8.77358C59.5601 8.99805 59.5019 9.26615 59.5389 9.5297C59.5759 9.79324 59.7057 10.0349 59.905 10.2113C60.1042 10.3877 60.3599 10.4873 60.626 10.4921H60.9209L65.9828 9.07914V25.4814L65.0736 20.186C65.0505 20.0408 64.9983 19.9018 64.9202 19.7772C64.8421 19.6527 64.7397 19.5452 64.619 19.4611C64.376 19.2913 64.0755 19.225 63.7836 19.2768L57.5544 20.3457L49.04 21.8078L43.3145 22.803C43.034 22.8513 42.7829 23.0061 42.6135 23.2349C42.4441 23.4638 42.3696 23.7492 42.4054 24.0316L43.1425 28.3687C38.5317 25.4979 32.9693 24.5764 27.679 25.8068C22.3887 27.0372 17.8039 30.3188 14.9331 34.9296C12.0623 39.5404 11.1408 45.1028 12.3712 50.3931C13.6016 55.6834 16.8832 60.2682 21.494 63.139L19.3931 66.4686C19.3139 66.5918 19.2599 66.7294 19.2343 66.8736C19.2088 67.0177 19.2121 67.1655 19.2441 67.3084C19.2761 67.4513 19.3361 67.5864 19.4208 67.7058C19.5054 67.8253 19.6129 67.9268 19.7371 68.0044C19.9123 68.1189 20.1175 68.1787 20.3268 68.1764C20.5156 68.1794 20.702 68.1335 20.8678 68.043C21.0336 67.9526 21.1732 67.8208 21.2729 67.6604L23.4475 64.2325C26.2312 65.6064 29.2939 66.3211 32.3981 66.3211C35.5024 66.3211 38.565 65.6064 41.3487 64.2325L43.5234 67.6604C43.624 67.8199 43.7637 67.9511 43.9293 68.0414C44.0949 68.1318 44.2808 68.1782 44.4695 68.1764C44.6828 68.1805 44.8925 68.1205 45.0715 68.0044C45.3197 67.8454 45.4951 67.5949 45.5595 67.3073C45.6239 67.0197 45.5722 66.7183 45.4155 66.4686L43.3023 63.139C45.5952 61.7018 47.5798 59.8235 49.1409 57.613C50.702 55.4026 51.8084 52.904 52.3959 50.2624C52.9834 47.6208 53.0404 44.8889 52.5634 42.2251C52.0864 39.5614 51.0851 37.0189 49.6174 34.7453L54.0405 33.9835V60.9889L49.384 66.3457C49.1939 66.5724 49.1013 66.8652 49.1267 67.16C49.152 67.4548 49.2931 67.7275 49.5191 67.9184C49.7199 68.0838 49.9716 68.175 50.2318 68.1764C50.3954 68.1794 50.5576 68.1457 50.7065 68.0776C50.8553 68.0096 50.987 67.909 51.0918 67.7832L53.9914 64.3676V67.1321C53.9914 67.4286 54.1092 67.713 54.3188 67.9227C54.5285 68.1323 54.8129 68.2501 55.1094 68.2501C55.406 68.2501 55.6903 68.1323 55.9 67.9227C56.1097 67.713 56.2275 67.4286 56.2275 67.1321V64.4291L59.2131 67.7832C59.3154 67.9087 59.4448 68.0093 59.5917 68.0774C59.7386 68.1455 59.899 68.1794 60.0608 68.1764C60.3367 68.1806 60.6039 68.0804 60.809 67.8958C61.0141 67.7113 61.1418 67.456 61.1666 67.1812C61.1914 67.456 61.3191 67.7113 61.5242 67.8958C61.7292 68.0804 61.9965 68.1806 62.2724 68.1764C62.4342 68.1794 62.5946 68.1455 62.7415 68.0774C62.8883 68.0093 63.0178 67.9087 63.1201 67.7832L66.0197 64.3676V67.1321C66.0197 67.4286 66.1375 67.713 66.3472 67.9227C66.5568 68.1323 66.8412 68.2501 67.1377 68.2501C67.4343 68.2501 67.7187 68.1323 67.9283 67.9227C68.138 67.713 68.2558 67.4286 68.2558 67.1321V64.4291L71.1554 67.8447C71.2583 67.9695 71.3879 68.0695 71.5346 68.1376C71.6813 68.2056 71.8414 68.2399 72.0031 68.2378C72.2673 68.2382 72.5235 68.1471 72.728 67.9798C72.9512 67.7871 73.0903 67.5148 73.1156 67.221C73.1408 66.9272 73.0502 66.6351 72.8632 66.4072L68.2189 60.9889V8.41568L73.7969 6.85531C74.0818 6.77509 74.3233 6.5852 74.4684 6.32725C74.6134 6.0693 74.6504 5.76435 74.571 5.47924ZM48.3151 24.2036L48.7574 26.8206C48.8037 27.0798 48.94 27.3144 49.1423 27.483C49.3446 27.6515 49.5998 27.7433 49.8632 27.7421H50.0475C50.3396 27.6909 50.5999 27.527 50.7723 27.2857C50.9447 27.0444 51.0153 26.7449 50.9689 26.452L50.5143 23.835L56.8295 22.7415L57.2841 25.3585C57.3278 25.6167 57.4616 25.8511 57.6619 26.0198C57.8621 26.1886 58.1157 26.2808 58.3776 26.28H58.5742C58.852 26.2262 59.0996 26.0701 59.2679 25.8427C59.4362 25.6152 59.5131 25.3328 59.4834 25.0514L59.0288 22.4344L63.071 21.6726L64.4839 29.929L46.2018 33.0621L44.7766 24.8056L48.3151 24.2036ZM50.6126 45.8399C50.6117 49.9751 49.2079 53.9877 46.6307 57.2217C44.0535 60.4556 40.4555 62.7197 36.4248 63.6436C32.3941 64.5675 28.1691 64.0967 24.4407 62.3081C20.7123 60.5195 17.7009 57.5189 15.8989 53.7969C14.0969 50.0749 13.6109 45.8517 14.5204 41.8177C15.4298 37.7837 17.6809 34.1775 20.9055 31.5888C24.1302 29 28.1378 27.5818 32.273 27.566C36.4082 27.5502 40.4265 28.9377 43.6708 31.5017L44.1869 34.5487C44.2332 34.8079 44.3695 35.0425 44.5718 35.2111C44.774 35.3796 45.0293 35.4714 45.2926 35.4702H45.4769L47.1847 35.1876C49.4271 38.2855 50.6274 42.0156 50.6126 45.8399ZM61.3509 66.3457C61.1742 66.5545 61.0821 66.8219 61.0929 67.0952C61.1036 66.8219 61.0116 66.5545 60.8349 66.3457L56.2766 60.9889V33.6027L65.9583 31.9317V60.9889L61.3509 66.3457Z" fill="#1573D7"/>
</svg>
