<svg width="74" height="58" viewBox="0 0 74 58" fill="none" xmlns="http://www.w3.org/2000/svg">
<path d="M1.92307 25.8146C1.92307 19.6506 17.628 13.0725 37 13.0725C56.372 13.0725 72.0769 19.6506 72.0769 25.8146L67.8836 46.2656C67.8836 51.681 54.0601 56.077 37 56.077C19.9398 56.077 6.11635 51.681 6.11635 46.2656L1.92307 25.8146Z" stroke="#1573D7" stroke-width="2.5" stroke-miterlimit="10" stroke-linecap="round" stroke-linejoin="round"/>
<path d="M72.0769 25.8145C72.0769 31.9784 56.372 36.9638 37 36.9638C17.628 36.9638 1.92307 31.9784 1.92307 25.8145" stroke="#1573D7" stroke-width="2.5" stroke-miterlimit="10" stroke-linecap="round" stroke-linejoin="round"/>
<path d="M51.5091 32.1856C46.993 29.9924 42.0205 28.9007 37 29.0001C32.0337 28.9311 27.1199 30.0219 22.6503 32.1856" stroke="#1573D7" stroke-width="2.5" stroke-miterlimit="10" stroke-linecap="round" stroke-linejoin="round"/>
<path d="M10.5169 28.9999C14.8537 24.3172 25.0738 21.0361 37 21.0361C48.9261 21.0361 59.1463 24.3172 63.4831 28.9999" stroke="#1573D7" stroke-width="2.5" stroke-miterlimit="10" stroke-linecap="round" stroke-linejoin="round"/>
<path d="M43.3776 55.7696V46.213H30.6223V55.7696" stroke="#1573D7" stroke-width="2.5" stroke-miterlimit="10" stroke-linecap="round" stroke-linejoin="round"/>
<path d="M37 13.0723V8.29407" stroke="#1573D7" stroke-width="2.5" stroke-miterlimit="10" stroke-linecap="round" stroke-linejoin="round"/>
<path d="M44.972 1.9231H29.028V8.29414H44.972V1.9231Z" stroke="#1573D7" stroke-width="2.5" stroke-miterlimit="10" stroke-linecap="round" stroke-linejoin="round"/>
<path d="M17.8671 15.35L19.4615 8.29407H22.6503" stroke="#1573D7" stroke-width="2.5" stroke-miterlimit="10" stroke-linecap="round" stroke-linejoin="round"/>
<path d="M5.49454 20.5902L8.30069 11.4796H11.4895" stroke="#1573D7" stroke-width="2.5" stroke-miterlimit="10" stroke-linecap="round" stroke-linejoin="round"/>
<path d="M56.1329 15.35L54.5384 8.29407H51.3496" stroke="#1573D7" stroke-width="2.5" stroke-miterlimit="10" stroke-linecap="round" stroke-linejoin="round"/>
<path d="M68.5054 20.5902L65.6993 11.4796H62.5105" stroke="#1573D7" stroke-width="2.5" stroke-miterlimit="10" stroke-linecap="round" stroke-linejoin="round"/>
</svg>
