<svg width="40" height="60" viewBox="0 0 40 60" fill="none" xmlns="http://www.w3.org/2000/svg">
<path d="M39.4351 47.856L28.8598 20.6309C28.8147 20.516 28.7469 20.4114 28.6603 20.3233C28.5738 20.2353 28.4703 20.1655 28.3562 20.1183C28.2435 20.0717 28.1227 20.0477 28.0007 20.0477C27.8787 20.0477 27.7579 20.0717 27.6452 20.1183L18.6696 24.3568C18.5583 24.4086 18.4589 24.4825 18.3774 24.574C18.2959 24.6655 18.234 24.7728 18.1956 24.8891C18.1534 25.0139 18.1386 25.1462 18.1522 25.2772C18.1659 25.4082 18.2076 25.5347 18.2746 25.6481L32.6317 51.0694C32.7109 51.2063 32.8245 51.3201 32.9613 51.3997C33.0982 51.4792 33.2535 51.5216 33.4118 51.5228C33.5441 51.5225 33.6751 51.4957 33.7969 51.4439L35.6137 50.5864C36.7591 53.0014 37.0356 54.7066 36.4432 55.643C35.7322 56.7766 33.55 57.299 29.5312 57.299C21.9478 57.299 20.3186 56.7766 20.3186 54.3419V44.4849C20.3186 44.247 20.2239 44.0188 20.0554 43.8506C19.8869 43.6824 19.6583 43.5879 19.42 43.5879C19.1817 43.5879 18.9531 43.6824 18.7846 43.8506C18.6161 44.0188 18.5214 44.247 18.5214 44.4849V54.3419C18.5214 59.093 23.3796 59.093 29.5312 59.093C34.3103 59.093 36.8283 58.3439 37.9243 56.5992C38.9117 55.0713 38.655 52.9028 37.1936 49.8175L39.0105 48.9895C39.2102 48.8876 39.3645 48.7148 39.4431 48.505C39.5217 48.2953 39.5188 48.0637 39.4351 47.856V47.856ZM33.787 49.4627L20.3087 25.5791L27.5366 22.1686L37.4602 47.7278L33.787 49.4627Z" fill="#FF3855"/>
<path d="M17.6128 23.1148C17.7418 23.1133 17.8693 23.0865 17.988 23.036L26.9637 18.7974C27.0982 18.7369 27.2141 18.6416 27.2994 18.5214C28.8582 16.4568 29.6789 13.9301 29.6302 11.3452C29.5816 8.76021 28.6665 6.26611 27.0311 4.26133C25.3957 2.25655 23.1344 0.856783 20.6084 0.285653C18.0825 -0.285477 15.4377 0.0049895 13.0966 1.11065C10.7554 2.2163 8.85304 4.07335 7.69336 6.3851C6.53368 8.69684 6.18361 11.3299 6.69909 13.8636C7.21457 16.3973 8.56584 18.6854 10.537 20.3624C12.5082 22.0394 14.9856 23.0084 17.5733 23.1148H17.6128ZM26.0355 17.2795L17.4746 21.3208C15.8854 21.2177 14.3457 20.7281 12.9895 19.8949C11.6333 19.0616 10.5019 17.9099 9.69367 16.5402L27.2698 8.24056C27.8198 9.73314 27.9949 11.3376 27.7797 12.9134C27.5645 14.4892 26.9657 15.9883 26.0355 17.2795V17.2795ZM13.9198 2.75019C15.2211 2.13053 16.6451 1.81052 18.0868 1.81377C19.7866 1.81793 21.4561 2.26361 22.9312 3.10699C24.4062 3.95037 25.636 5.16243 26.4996 6.624L8.91361 14.9236C8.07868 12.6366 8.12918 10.1209 9.05519 7.86912C9.98121 5.61737 11.716 3.79186 13.9198 2.75019V2.75019Z" fill="#FF3855"/>
<path d="M19.4594 40.8278C19.6977 40.8278 19.9262 40.7333 20.0947 40.5651C20.2632 40.3969 20.3579 40.1687 20.3579 39.9308C20.3579 37.3581 18.699 35.7317 17.2475 34.2926C15.796 32.8535 14.6704 31.7593 14.6704 29.9358C14.6704 29.6979 14.5757 29.4697 14.4072 29.3015C14.2387 29.1333 14.0101 29.0388 13.7718 29.0388C13.5335 29.0388 13.3049 29.1333 13.1364 29.3015C12.9679 29.4697 12.8733 29.6979 12.8733 29.9358V49.9653C11.8471 49.305 10.6806 48.8934 9.46674 48.7633C8.25291 48.6333 7.02542 48.7883 5.8823 49.2161C2.0906 50.468 -0.229845 53.7898 0.708207 56.6286C0.977907 57.3693 1.42471 58.033 2.00979 58.5621C2.59487 59.0912 3.30053 59.4696 4.06544 59.6646C4.80747 59.8922 5.58001 60.0052 6.35626 59.9997C7.36335 59.9997 8.36377 59.8366 9.31853 59.5167C11.018 58.9952 12.5147 57.9625 13.6039 56.5596C14.3577 55.6009 14.7461 54.4063 14.7 53.1885V34.194C15.1246 34.6869 15.5788 35.1797 16.0133 35.574C17.3956 36.9343 18.5904 38.1073 18.5904 39.9308C18.5903 40.1637 18.6809 40.3874 18.843 40.5548C19.0052 40.7222 19.2262 40.8201 19.4594 40.8278V40.8278ZM12.1327 55.4753C11.2638 56.5863 10.075 57.405 8.72608 57.8213C7.39758 58.2918 5.95571 58.34 4.59865 57.9593C4.11068 57.8424 3.65787 57.6104 3.27819 57.2829C2.89851 56.9553 2.60301 56.5417 2.41645 56.0766C1.79437 54.2333 3.64085 51.8381 6.42538 50.9214C7.18258 50.6654 7.97601 50.5322 8.77545 50.5271C10.691 50.5271 12.3005 51.3255 12.7251 52.6661C12.7916 52.87 12.8282 53.0825 12.8338 53.2969V53.4054C12.8316 54.1531 12.5855 54.8797 12.1327 55.4753V55.4753Z" fill="#FF3855"/>
</svg>
