<svg width="60" height="60" viewBox="0 0 60 60" fill="none" xmlns="http://www.w3.org/2000/svg">
<g opacity="0.7">
<path d="M14.6601 45.6374C14.6601 45.757 14.6837 45.8755 14.7294 45.986C14.7752 46.0966 14.8423 46.197 14.9268 46.2816C15.0114 46.3662 15.1118 46.4334 15.2223 46.4791C15.3327 46.5249 15.4511 46.5485 15.5707 46.5485C15.6903 46.5485 15.8087 46.5249 15.9192 46.4791C16.0297 46.4334 16.1301 46.3662 16.2146 46.2816C16.2992 46.197 16.3663 46.0966 16.412 45.986C16.4578 45.8755 16.4814 45.757 16.4814 45.6374C16.4814 42.7437 18.0224 40.3006 19.8437 40.3006C19.9706 40.314 20.0989 40.3005 20.2203 40.2611C20.3417 40.2216 20.4535 40.1571 20.5483 40.0717C20.6432 39.9862 20.719 39.8818 20.7709 39.7651C20.8228 39.6485 20.8497 39.5222 20.8497 39.3945C20.8497 39.2668 20.8228 39.1405 20.7709 39.0239C20.719 38.9072 20.6432 38.8028 20.5483 38.7173C20.4535 38.6319 20.3417 38.5674 20.2203 38.5279C20.0989 38.4885 19.9706 38.475 19.8437 38.4883C18.0224 38.4883 16.4814 36.0353 16.4814 33.1416C16.4814 32.9 16.3854 32.6682 16.2146 32.4973C16.0439 32.3265 15.8122 32.2305 15.5707 32.2305C15.3292 32.2305 15.0976 32.3265 14.9268 32.4973C14.756 32.6682 14.6601 32.9 14.6601 33.1416C14.6601 36.0353 13.119 38.4883 11.2978 38.4883C11.1708 38.475 11.0425 38.4885 10.9211 38.5279C10.7998 38.5674 10.688 38.6319 10.5932 38.7173C10.4983 38.8028 10.4225 38.9072 10.3706 39.0239C10.3186 39.1405 10.2918 39.2668 10.2918 39.3945C10.2918 39.5222 10.3186 39.6485 10.3706 39.7651C10.4225 39.8818 10.4983 39.9862 10.5932 40.0717C10.688 40.1571 10.7998 40.2216 10.9211 40.2611C11.0425 40.3005 11.1708 40.314 11.2978 40.3006C13.119 40.3006 14.6601 42.7437 14.6601 45.6374ZM15.5707 37.2368C15.9698 38.0754 16.5551 38.8117 17.2819 39.3895C16.5571 39.9734 15.9724 40.7124 15.5707 41.5522C15.1691 40.7124 14.5843 39.9734 13.8595 39.3895C14.5864 38.8117 15.1716 38.0754 15.5707 37.2368V37.2368Z" fill="#FF3855"/>
<path d="M58.8308 8.11021C58.5547 7.83015 58.2569 7.57236 57.9402 7.33924V1.82229H58.4105C58.652 1.82229 58.8837 1.7263 59.0544 1.55543C59.2252 1.38455 59.3212 1.1528 59.3212 0.911147C59.3212 0.669496 59.2252 0.437742 59.0544 0.266869C58.8837 0.0959956 58.652 3.60088e-09 58.4105 0L0.910632 0C0.669117 3.60088e-09 0.437495 0.0959956 0.266718 0.266869C0.0959413 0.437742 0 0.669496 0 0.911147C0 1.1528 0.0959413 1.38455 0.266718 1.55543C0.437495 1.7263 0.669117 1.82229 0.910632 1.82229H4.37303V7.24913C3.85161 7.52734 3.41639 7.94327 3.11469 8.45167C2.813 8.96008 2.65637 9.54151 2.66185 10.1328C2.65151 10.1789 2.65151 10.2268 2.66185 10.2729V10.353L6.14426 22.8988C6.4845 24.5109 8.46588 25.2017 10.8175 25.2017C11.8099 25.197 12.7992 25.0896 13.7696 24.8813C17.1919 24.1504 20.4042 22.228 19.9238 19.9651L18.2226 13.7673V1.82229H46.102V13.8374L43.9505 19.3644C43.3401 21.457 45.3815 23.84 48.6137 24.8012C49.4423 25.047 50.3013 25.1751 51.1655 25.1817C51.7033 25.1969 52.241 25.1464 52.7666 25.0315C53.3392 24.9359 53.8783 24.6966 54.3333 24.3358C54.7883 23.9751 55.1445 23.5048 55.3684 22.9689C55.3886 22.9446 55.4055 22.9177 55.4185 22.8888L57.7801 16.8212C57.8404 16.7304 57.8813 16.6281 57.9002 16.5208L59.9016 11.5145C60.0509 10.9033 60.03 10.2629 59.8412 9.66277C59.6525 9.06263 59.303 8.52568 58.8308 8.11021V8.11021ZM58.1303 10.9137L57.9402 11.4144V9.95253C58.1253 10.2363 58.1934 10.5808 58.1303 10.9137V10.9137ZM54.4078 19.4845C53.4001 18.4848 52.1528 17.7608 50.7852 17.3819C49.4898 16.9768 48.1132 16.9044 46.7825 17.1716L50.0347 8.62085C50.3149 7.67967 52.3363 7.13899 54.6379 7.81984C55.1313 7.96537 55.6077 8.16341 56.0589 8.41059V16.1603L54.6679 19.825C54.5779 19.7148 54.5078 19.5947 54.4078 19.4845ZM14.6802 7.76978L17.4921 18.0227L17.0718 17.9125C15.492 17.639 13.874 17.6764 12.3085 18.0227C10.4829 18.3567 8.76572 19.1299 7.30507 20.2755L6.1943 16.2304V8.22035C7.1382 7.72043 8.14934 7.35959 9.19638 7.149C10.509 6.84504 11.8675 6.79406 13.1992 6.99881C14.1698 7.21909 14.6302 7.5495 14.6802 7.76978ZM13.3993 23.1491C10.2271 23.82 8.05559 23.1491 7.9255 22.5784C7.79541 22.0077 9.5166 20.4958 12.6888 19.825C13.5268 19.6384 14.3821 19.541 15.2406 19.5346C15.7371 19.5337 16.2328 19.5773 16.7216 19.6648C17.6322 19.845 18.0926 20.1654 18.1526 20.3957C18.2727 21.0265 16.5615 22.4783 13.3993 23.1491ZM16.4014 7.12897C16.1912 6.50819 15.5408 5.59705 13.5994 5.21657C12.016 4.96452 10.399 5.01891 8.83613 5.37677C7.93148 5.5705 7.04699 5.84874 6.1943 6.20781V1.82229H16.4014V7.12897ZM47.9132 1.82229H56.1189V6.32797C55.8248 6.20474 55.5242 6.09778 55.2183 6.00756C52.0561 5.06638 49.1141 5.90744 48.4036 7.90996L47.9433 9.08143L47.9132 1.82229ZM52.3263 23.2693C51.2553 23.4882 50.1461 23.4296 49.1041 23.0991C46.8025 22.4182 45.4015 20.8663 45.6617 19.9251C45.8918 19.2943 46.8925 18.8537 48.2235 18.8537C48.9017 18.864 49.5753 18.9684 50.2249 19.1641C51.2817 19.4374 52.2502 19.9788 53.0368 20.7361C53.2653 20.9219 53.443 21.1626 53.5532 21.4358C53.6635 21.7089 53.7027 22.0056 53.6672 22.2981C53.5404 22.5575 53.3518 22.7818 53.1179 22.9511C52.8841 23.1205 52.6123 23.2298 52.3263 23.2693V23.2693Z" fill="#FF3855"/>
<path d="M8.0057 26.0328C7.88577 26.019 7.76428 26.0294 7.64846 26.0635C7.53264 26.0975 7.42485 26.1546 7.3315 26.2312C7.23815 26.3078 7.16114 26.4024 7.10505 26.5093C7.04896 26.6163 7.01494 26.7334 7.005 26.8538L4.15302 58.8941C4.13075 59.1371 4.20569 59.3789 4.3614 59.5666C4.51711 59.7543 4.74087 59.8726 4.9836 59.8954H5.06365C5.29019 59.8938 5.50799 59.8078 5.67453 59.6541C5.84106 59.5004 5.94437 59.2902 5.96428 59.0644L8.83627 27.034C8.84866 26.9135 8.8369 26.7917 8.80168 26.6758C8.76646 26.5599 8.70848 26.4521 8.63113 26.3589C8.55379 26.2657 8.45864 26.1888 8.35125 26.1328C8.24386 26.0768 8.12638 26.0428 8.0057 26.0328V26.0328Z" fill="#FF3855"/>
<path d="M52.2061 25.7724C52.0841 25.7556 51.96 25.7645 51.8416 25.7986C51.7233 25.8327 51.6134 25.8913 51.5191 25.9706C51.4248 26.0498 51.3481 26.148 51.2941 26.2587C51.2401 26.3695 51.2099 26.4903 51.2055 26.6135L49.164 58.9943C49.1531 59.1161 49.1665 59.2389 49.2035 59.3555C49.2405 59.4721 49.3003 59.5801 49.3795 59.6733C49.4587 59.7665 49.5556 59.843 49.6647 59.8984C49.7737 59.9537 49.8927 59.9867 50.0146 59.9955H50.0346C50.1624 60.0082 50.2914 59.9938 50.4132 59.9531C50.535 59.9124 50.6469 59.8464 50.7414 59.7594C50.8359 59.6724 50.9109 59.5664 50.9616 59.4483C51.0122 59.3303 51.0374 59.2028 51.0353 59.0744L53.0367 26.7336C53.0506 26.4968 52.9716 26.2638 52.8165 26.0843C52.6614 25.9048 52.4424 25.7929 52.2061 25.7724V25.7724Z" fill="#FF3855"/>
<path d="M20.4342 45.2269L18.0626 47.5899C17.8933 47.7622 17.7984 47.9941 17.7984 48.2357C17.7984 48.4773 17.8933 48.7092 18.0626 48.8815C18.236 49.0486 18.4673 49.1419 18.708 49.1419C18.9487 49.1419 19.18 49.0486 19.3535 48.8815L21.7151 46.5186C21.7998 46.4347 21.8671 46.335 21.913 46.225C21.9589 46.115 21.9825 45.9969 21.9825 45.8777C21.9825 45.7585 21.9589 45.6405 21.913 45.5305C21.8671 45.4205 21.7998 45.3207 21.7151 45.2369C21.5459 45.0668 21.3165 44.9704 21.0767 44.9685C20.8369 44.9666 20.606 45.0595 20.4342 45.2269V45.2269Z" fill="#FF3855"/>
<path d="M15.701 49.9528L13.3294 52.3158C13.2443 52.4005 13.1769 52.5011 13.1308 52.6119C13.0848 52.7228 13.0611 52.8416 13.0611 52.9616C13.0611 53.0816 13.0848 53.2005 13.1308 53.3113C13.1769 53.4221 13.2443 53.5228 13.3294 53.6074C13.5011 53.7738 13.7308 53.8668 13.9698 53.8668C14.2088 53.8668 14.4385 53.7738 14.6102 53.6074L17.0119 51.2444C17.1044 51.1622 17.1792 51.0619 17.2316 50.9497C17.2841 50.8375 17.3131 50.7158 17.317 50.592C17.3209 50.4682 17.2995 50.3449 17.2541 50.2297C17.2088 50.1145 17.1404 50.0097 17.0532 49.9218C16.966 49.8339 16.8619 49.7647 16.747 49.7184C16.6322 49.6721 16.5092 49.6498 16.3854 49.6527C16.2617 49.6556 16.1398 49.6837 16.0273 49.7353C15.9148 49.7869 15.814 49.8609 15.731 49.9528H15.701Z" fill="#FF3855"/>
<path d="M25.1774 40.5009L22.8058 42.8639C22.7208 42.9485 22.6533 43.0492 22.6073 43.16C22.5612 43.2708 22.5375 43.3896 22.5375 43.5097C22.5375 43.6297 22.5612 43.7485 22.6073 43.8593C22.6533 43.9702 22.7208 44.0708 22.8058 44.1555C22.8895 44.2398 22.9894 44.3064 23.0994 44.3511C23.2095 44.3959 23.3275 44.4179 23.4462 44.4158C23.5649 44.4173 23.6827 44.3951 23.7927 44.3504C23.9027 44.3056 24.0027 44.2394 24.0867 44.1555L26.4583 41.7925C26.6144 41.6196 26.6984 41.3934 26.6929 41.1604C26.6875 40.9274 26.593 40.7054 26.429 40.54C26.2649 40.3746 26.0438 40.2784 25.811 40.2711C25.5782 40.2638 25.3515 40.346 25.1774 40.5009Z" fill="#FF3855"/>
<path d="M11.0075 54.679L9.67658 55.9606C9.59156 56.0452 9.52409 56.1459 9.47806 56.2567C9.43202 56.3675 9.40833 56.4864 9.40833 56.6064C9.40833 56.7264 9.43202 56.8453 9.47806 56.9561C9.52409 57.0669 9.59156 57.1675 9.67658 57.2522C9.84901 57.425 10.083 57.5223 10.327 57.5226C10.4464 57.5222 10.5644 57.4981 10.6744 57.4517C10.7843 57.4053 10.8839 57.3375 10.9675 57.2522L12.2584 55.9706C12.3667 55.8952 12.4574 55.7971 12.524 55.6831C12.5907 55.5691 12.6319 55.442 12.6446 55.3106C12.6573 55.1791 12.6413 55.0465 12.5977 54.9219C12.5542 54.7972 12.484 54.6835 12.3922 54.5887C12.3003 54.4938 12.189 54.4201 12.0658 54.3726C11.9427 54.3251 11.8107 54.3049 11.679 54.3135C11.5473 54.3221 11.419 54.3592 11.3031 54.4223C11.1871 54.4854 11.0863 54.573 11.0075 54.679V54.679Z" fill="#FF3855"/>
<path d="M30.6712 37.5874L44.4407 23.8501C44.5968 23.6772 44.6808 23.451 44.6753 23.218C44.6699 22.985 44.5754 22.763 44.4113 22.5976C44.2473 22.4322 44.0262 22.3359 43.7934 22.3287C43.5606 22.3214 43.3339 22.4036 43.1598 22.5585L29.6605 36.0454L21.4047 23.3495C21.272 23.1477 21.0646 23.0069 20.8282 22.9581C20.5917 22.9093 20.3456 22.9564 20.1439 23.0891C20.0433 23.153 19.9566 23.2365 19.8888 23.3345C19.821 23.4326 19.7736 23.5432 19.7494 23.6599C19.7251 23.7766 19.7245 23.897 19.7476 24.0139C19.7706 24.1309 19.8169 24.242 19.8837 24.3407L28.3495 37.3571L27.539 38.1581C27.3697 38.3304 27.2748 38.5623 27.2748 38.8039C27.2748 39.0455 27.3697 39.2774 27.539 39.4497C27.7124 39.6168 27.9437 39.7101 28.1844 39.7101C28.4251 39.7101 28.6565 39.6168 28.8299 39.4497L29.3602 38.9191L29.7505 39.5098C29.8334 39.6359 29.9463 39.7394 30.079 39.8111C30.2118 39.8827 30.3602 39.9203 30.511 39.9203C30.6947 39.9182 30.8732 39.8587 31.0214 39.7501C31.1217 39.6861 31.2084 39.6028 31.2763 39.505C31.3443 39.4073 31.3922 39.2971 31.4173 39.1807C31.4424 39.0643 31.4443 38.9441 31.4227 38.827C31.4011 38.7099 31.3565 38.5983 31.2916 38.4985L30.6712 37.5874Z" fill="#FF3855"/>
<path d="M33.3131 41.6323C33.2471 41.5285 33.1611 41.439 33.06 41.369C32.959 41.299 32.8449 41.2499 32.7246 41.2247C32.6043 41.1995 32.4801 41.1987 32.3595 41.2223C32.2389 41.2458 32.1241 41.2933 32.0222 41.362C31.8205 41.4948 31.6798 41.7023 31.631 41.9389C31.5822 42.1755 31.6293 42.4217 31.762 42.6236L33.7634 45.7575C33.8451 45.8855 33.9574 45.991 34.0903 46.0644C34.2231 46.1378 34.3721 46.1769 34.5239 46.1781C34.7015 46.1763 34.875 46.1242 35.0242 46.0279C35.2259 45.895 35.3666 45.6875 35.4154 45.451C35.4641 45.2144 35.417 44.9681 35.2844 44.7663L33.3131 41.6323Z" fill="#FF3855"/>
<path d="M37.3958 47.9102C37.3318 47.8099 37.2485 47.7232 37.1508 47.6552C37.0532 47.5872 36.943 47.5393 36.8267 47.5141C36.7104 47.489 36.5902 47.4872 36.4732 47.5087C36.3562 47.5303 36.2446 47.5749 36.1449 47.6399C35.9437 47.7729 35.8027 47.9796 35.7522 48.2155C35.7017 48.4514 35.7457 48.6977 35.8747 48.9015L37.8761 52.0354C37.9606 52.1623 38.0752 52.2662 38.2097 52.3379C38.3441 52.4095 38.4943 52.4467 38.6466 52.446C38.8214 52.4457 38.992 52.3934 39.137 52.2958C39.3407 52.173 39.4877 51.9747 39.5458 51.744C39.6039 51.5132 39.5685 51.2689 39.4472 51.0642L37.3958 47.9102Z" fill="#FF3855"/>
<path d="M41.4888 54.1783C41.3561 53.9766 41.1487 53.8358 40.9123 53.787C40.6758 53.7382 40.4297 53.7853 40.228 53.918C40.1274 53.9819 40.0407 54.0653 39.9729 54.1634C39.9052 54.2614 39.8577 54.3721 39.8335 54.4888C39.8092 54.6055 39.8086 54.7258 39.8317 54.8428C39.8547 54.9597 39.901 55.0708 39.9678 55.1696L40.9685 56.6915C41.0495 56.8201 41.1617 56.9261 41.2947 56.9996C41.4277 57.0731 41.5771 57.1118 41.729 57.112C41.9066 57.1102 42.0801 57.0582 42.2293 56.9618C42.431 56.829 42.5717 56.6215 42.6205 56.3849C42.6693 56.1484 42.6222 55.9021 42.4895 55.7002L41.4888 54.1783Z" fill="#FF3855"/>
</g>
</svg>
