<svg width="74" height="64" viewBox="0 0 74 64" fill="none" xmlns="http://www.w3.org/2000/svg">
<path d="M1.61539 62.1537V6.3062C1.62053 5.71017 1.74287 5.12111 1.9753 4.57324C2.20773 4.02536 2.54561 3.5296 2.96933 3.11475C3.39304 2.69989 3.89414 2.37421 4.44352 2.15663C4.9929 1.93905 5.5796 1.83389 6.16955 1.84728H67.8904C68.4753 1.84196 69.0556 1.95307 69.598 2.17428C70.1405 2.39548 70.6344 2.72245 71.0518 3.1365C71.4691 3.55056 71.8016 4.04359 72.0303 4.58745C72.259 5.13131 72.3794 5.71534 72.3846 6.3062V62.1537" stroke="#F58220" stroke-width="2.5" stroke-linecap="round" stroke-linejoin="round"/>
<path d="M11.3429 2.59386C10.7836 12.6819 11.7024 22.3059 4.05222 42.5022C6.04965 48.9182 8.04709 55.4553 7.46783 62.1538" stroke="#F58220" stroke-width="2.5" stroke-linecap="round" stroke-linejoin="round"/>
<path d="M21.0705 2.59386C20.0717 12.6819 20.2715 22.3059 6.88864 42.5022C10.3842 48.9182 14.7386 55.4553 13.7399 62.1538" stroke="#F58220" stroke-width="2.5" stroke-linecap="round" stroke-linejoin="round"/>
<path d="M1.61539 62.1539H13.1406" stroke="#F58220" stroke-width="2.5" stroke-linecap="round" stroke-linejoin="round"/>
<path d="M14.6786 56.4646H59.3213" stroke="#F58220" stroke-width="2.5" stroke-linecap="round" stroke-linejoin="round"/>
<path d="M20.9506 3.8046C25.4631 7.54678 31.0926 9.6436 36.9301 9.75655C42.7464 9.53303 48.342 7.4488 52.9096 3.8046" stroke="#F58220" stroke-width="2.5" stroke-linecap="round" stroke-linejoin="round"/>
<path d="M53.5487 10.7648C49.03 14.9643 43.149 17.3533 37.01 17.4834C31.497 17.4834 26.1838 15.2439 20.4512 10.7648" stroke="#F58220" stroke-width="2.5" stroke-linecap="round" stroke-linejoin="round"/>
<path d="M62.6571 2.59386C63.2363 12.6819 62.3175 22.3059 69.9677 42.5022C67.9703 48.9182 65.9728 55.4553 66.5321 62.1538" stroke="#F58220" stroke-width="2.5" stroke-linecap="round" stroke-linejoin="round"/>
<path d="M52.9296 2.59386C53.9283 12.6819 53.7285 22.3059 67.1114 42.5022C63.6158 48.9182 59.2814 55.4553 60.2602 62.1538" stroke="#F58220" stroke-width="2.5" stroke-linecap="round" stroke-linejoin="round"/>
<path d="M72.3846 62.1539H60.8793" stroke="#F58220" stroke-width="2.5" stroke-linecap="round" stroke-linejoin="round"/>
</svg>
