<svg width="55" height="71" viewBox="0 0 55 71" fill="none" xmlns="http://www.w3.org/2000/svg">
<path fill-rule="evenodd" clip-rule="evenodd" d="M19.3801 9.94918L14.7284 1.95526C14.6624 1.72731 14.5412 1.52279 14.3803 1.35711L14.3068 1.23076L14.2679 1.25306C14.02 1.04701 13.7014 0.923096 13.3538 0.923096C12.5637 0.923096 11.9231 1.56367 11.9231 2.35387C11.9231 2.43308 11.9295 2.51079 11.9419 2.58651L11.9092 2.60527L11.9659 2.70285C12.0324 2.96801 12.1729 3.20382 12.3641 3.38705L13.8376 5.91929C8.74858 9.17692 4.77416 13.9076 2.46309 19.4861C-0.0179439 25.4748 -0.444018 32.1076 1.25064 38.3606C2.9453 44.6136 6.66647 50.1391 11.8397 54.0842C16.6388 57.7439 22.44 59.8547 28.4622 60.1523V68.0208H6.21353C6.13414 68.0071 6.05252 68 5.96923 68C5.17904 68 4.53846 68.6406 4.53846 69.4308C4.53846 70.221 5.17904 70.8615 5.96923 70.8615C6.14788 70.8615 6.31888 70.8288 6.47656 70.769H52.8465C53.0042 70.8288 53.1752 70.8615 53.3539 70.8615C54.144 70.8615 54.7846 70.221 54.7846 69.4308C54.7846 68.785 54.3569 68.2392 53.7692 68.0612V68.0208H53.5982C53.5188 68.0071 53.4371 68 53.3539 68C53.2706 68 53.1889 68.0071 53.1096 68.0208H31.231V60.1643C35.5103 59.9888 39.6994 58.8847 43.5028 56.9299L45.3901 60.1734L45.4449 60.142C45.7062 60.4858 46.1195 60.7077 46.5846 60.7077C47.3748 60.7077 48.0154 60.0671 48.0154 59.277C48.0154 58.7767 47.7587 58.3365 47.3699 58.0807L42.7812 50.1953C43.879 49.4743 44.9202 48.6585 45.8919 47.7529C50.2312 43.7091 52.859 38.1789 53.2426 32.2834C53.6262 26.3878 51.737 20.568 47.9578 16.0038C44.1787 11.4395 38.7924 8.47236 32.8909 7.70371C28.2349 7.09728 23.533 7.89513 19.3801 9.94918ZM15.2152 8.28671C12.5648 9.9257 10.2187 12.0115 8.28418 14.4532C6.07494 17.2417 4.44678 20.4386 3.49453 23.8578C2.54228 27.277 2.28498 30.8501 2.73762 34.3689C3.19026 37.8877 4.34378 41.282 6.131 44.3541C7.91823 47.4261 10.3034 50.1144 13.1477 52.2625C15.9919 54.4106 19.2383 55.9755 22.6979 56.866C26.1574 57.7566 29.7609 57.955 33.2985 57.4497C36.3926 57.0077 39.3821 56.0352 42.1346 54.5787L40.386 51.5739C37.1518 53.19 33.5564 54.0549 29.8745 54.0604C27.8081 54.068 25.75 53.7999 23.7555 53.2634C18.0072 51.7307 13.0611 48.0858 9.91985 43.0677C6.77861 38.0496 5.67728 32.0337 6.83911 26.2395C8.00094 20.4453 11.339 15.3064 16.1766 11.8644C16.4408 11.6764 16.7084 11.4943 16.9792 11.318L15.2152 8.28671ZM16.1519 15.262C13.1118 17.9194 10.8959 21.4227 9.82239 25.3617C9.74773 25.6356 9.67892 25.9105 9.61592 26.1861C12.6371 26.0417 15.6125 25.4632 18.451 24.4759C17.8674 22.9276 17.3461 21.3552 16.8888 19.7626C16.4374 18.0372 16.1925 16.5366 16.1519 15.262ZM22.5894 33.2778L11.2055 39.7988C9.54695 36.424 8.85385 32.6764 9.179 28.9636C12.7013 28.8251 16.1686 28.1594 19.4667 27.0003C20.3866 29.1482 21.429 31.2441 22.5894 33.2778ZM21.9852 26.0046C22.861 28.0301 23.8501 30.0072 24.9483 31.9266L33.3265 27.1273C32.0719 25.0652 30.8301 23.2337 29.6338 21.6275C28.4503 22.4833 27.2086 23.2654 25.9151 23.9675C24.646 24.7307 23.3332 25.4105 21.9852 26.0046ZM34.7291 29.4969L26.3493 34.2971C27.6009 36.3573 28.8355 38.1811 30.0223 39.777C31.2092 38.9201 32.4542 38.1369 33.7509 37.4335C35.0151 36.6677 36.3237 35.9874 37.6678 35.3949C36.8006 33.3773 35.8197 31.4082 34.7291 29.4969ZM27.8609 41.4734C26.5095 39.6423 25.1993 37.6681 23.985 35.6514L12.5878 42.18C14.704 45.3059 17.6354 47.7853 21.0493 49.365C22.9057 46.3944 25.2056 43.7351 27.8609 41.4734ZM40.2159 34.3914C39.2953 32.2535 38.2496 30.1688 37.0835 28.1483L48.5627 21.5727C49.1511 22.7621 49.6257 24.0117 49.9759 25.306C50.6138 27.6635 50.8198 30.0979 50.6016 32.4966C47.0496 32.5887 43.5462 33.2316 40.2159 34.3914ZM42.5053 14.2641C44.339 15.649 45.9143 17.3173 47.1791 19.1922L35.6816 25.7783C34.4632 23.7549 33.1472 21.772 31.7892 19.9328C34.4645 17.6492 36.776 14.9595 38.6322 11.953C39.9961 12.5773 41.2956 13.3505 42.5053 14.2641ZM23.6888 50.3753C25.3076 47.8568 27.2786 45.5904 29.5357 43.6407C31.8819 46.534 34.2832 48.8909 36.4692 50.2114C32.6188 51.5023 28.4399 51.6529 24.456 50.5948C24.1984 50.5264 23.9426 50.4532 23.6888 50.3753ZM31.7037 41.929C35.8586 46.979 39.1707 49.0185 40.1189 48.4538C40.5066 48.2614 41.1988 46.7225 40.1189 42.2429C39.6964 40.7816 39.2173 39.3384 38.6829 37.9164C37.436 38.4701 36.2229 39.1069 35.0522 39.8244C33.8885 40.4573 32.7704 41.1606 31.7037 41.929ZM41.2351 36.9153C41.824 38.4749 42.3478 40.0598 42.8047 41.6658C43.2526 43.4055 43.4916 44.9208 43.523 46.2059C45.9319 44.1354 47.842 41.5292 49.084 38.5772C49.5387 37.4966 49.8972 36.3853 50.1587 35.2558C47.1087 35.3718 44.1025 35.9337 41.2351 36.9153ZM24.4753 21.6316C23.3408 22.3233 22.167 22.94 20.9616 23.4795C20.4032 22.0056 19.9034 20.509 19.4637 18.9931C18.5905 15.2751 18.9189 13.6017 19.2616 13.0145C19.347 12.9641 19.4329 12.9141 19.5192 12.8648C19.5803 12.8295 19.6415 12.7945 19.7029 12.7599C19.7528 12.7627 19.8025 12.7701 19.8514 12.7822C21.1525 12.7822 24.2245 14.9492 27.9435 19.4665C26.8401 20.2598 25.682 20.9835 24.4753 21.6316ZM23.1842 11.1992C25.3683 12.5185 27.7666 14.8726 30.1092 17.7598C32.389 15.7941 34.3777 13.5052 36.0069 10.9593C34.0063 10.3527 31.9115 10.0458 29.7914 10.0617L29.8745 10.0891C27.5886 10.0892 25.3283 10.4673 23.1842 11.1992Z" fill="#1573D7"/>
</svg>
