<svg width="76" height="74" viewBox="0 0 76 74" fill="none" xmlns="http://www.w3.org/2000/svg">
<path d="M6.19861 60.7313H69.8015" stroke="#1573D7" stroke-width="2.5" stroke-linecap="round" stroke-linejoin="round"/>
<path d="M3.6879 66.4058H72.3122" stroke="#1573D7" stroke-width="2.5" stroke-linecap="round" stroke-linejoin="round"/>
<path d="M1.69232 72.0769H74.3077" stroke="#1573D7" stroke-width="2.5" stroke-linecap="round" stroke-linejoin="round"/>
<path d="M62.6882 27.3942C62.6882 38.5076 63.2686 49.621 63.2686 60.7344M13.3118 27.3942L12.7314 60.7344L13.3118 27.3942ZM21.9736 27.3942C21.9736 38.5076 22.554 49.621 22.554 60.7344L21.9736 27.3942ZM54.0233 27.3942L53.4429 60.7344L54.0233 27.3942Z" stroke="#1573D7" stroke-width="2.5" stroke-linecap="round" stroke-linejoin="round"/>
<path d="M73.7801 15.6833L38 1.9231L2.21991 15.6802V20.8469H73.7801V15.6833Z" stroke="#1573D7" stroke-width="2.5" stroke-linecap="round" stroke-linejoin="round"/>
<path d="M42.348 27.3942C42.348 38.5076 42.9283 49.621 42.9283 60.7344M33.6675 27.3942L33.1027 60.7344L33.6675 27.3942Z" stroke="#1573D7" stroke-width="2.5" stroke-linecap="round" stroke-linejoin="round"/>
<path d="M57.0772 15.9248L38 8.58496L18.9198 15.9217" stroke="#1573D7" stroke-width="2.5" stroke-linecap="round" stroke-linejoin="round"/>
<path d="M51.1991 21.8405V26.8369H65.5124V20.8468M30.8434 21.8405V26.8369H45.1567V20.8468L30.8434 21.8405ZM10.4845 21.8405V26.8369H24.7978V20.8468L10.4845 21.8405Z" stroke="#1573D7" stroke-width="2.5" stroke-linecap="round" stroke-linejoin="round"/>
</svg>
