<svg width="74" height="64" viewBox="0 0 74 64" fill="none" xmlns="http://www.w3.org/2000/svg">
<path d="M1.72009 62.1538H72.2799" stroke="#1573D7" stroke-width="2.5" stroke-linecap="round" stroke-linejoin="round"/>
<path d="M64.8611 62.1507V35.5166M9.13882 62.1507V35.5166V62.1507ZM26.5355 62.1507V35.5166V62.1507Z" stroke="#1573D7" stroke-width="2.5" stroke-linecap="round" stroke-linejoin="round"/>
<path d="M16.2527 24.3611L19.7512 2.78251M9.63467 1.84619H64.3715L72.2645 19.8341C72.3452 20.2838 72.3854 20.7399 72.3846 21.1968C72.3846 25.452 68.8584 28.9006 64.51 28.9006C63.1197 28.9089 61.7517 28.5493 60.5438 27.8582C59.336 27.167 58.3311 26.1687 57.6302 24.9637C56.9255 26.1652 55.9204 27.1613 54.7143 27.8533C53.5081 28.5454 52.1429 28.9094 50.7535 28.9094C49.3641 28.9094 47.9988 28.5454 46.7927 27.8533C45.5866 27.1613 44.5814 26.1652 43.8767 24.9637C43.172 26.1652 42.1669 27.1613 40.9608 27.8533C39.7547 28.5454 38.3894 28.9094 37 28.9094C35.6106 28.9094 34.2453 28.5454 33.0392 27.8533C31.8331 27.1613 30.8279 26.1652 30.1232 24.9637C29.4181 26.1652 28.4127 27.1611 27.2063 27.8531C26 28.5451 24.6345 28.909 23.245 28.909C21.8554 28.909 20.4899 28.5451 19.2836 27.8531C18.0772 27.1611 17.0718 26.1652 16.3667 24.9637C15.668 26.1706 14.6641 27.171 13.4567 27.8639C12.2492 28.5568 10.8809 28.9176 9.48993 28.9099C5.14153 28.9099 1.61539 25.4612 1.61539 21.2061C1.61399 20.746 1.65419 20.2868 1.7355 19.8341L9.63467 1.84619Z" stroke="#1573D7" stroke-width="2.5" stroke-linecap="round" stroke-linejoin="round"/>
<path d="M43.6612 24.361L42.4971 2.78235M29.957 24.361C30.345 17.1671 30.7341 9.9742 31.1241 2.78235L29.957 24.361Z" stroke="#1573D7" stroke-width="2.5" stroke-linecap="round" stroke-linejoin="round"/>
<path d="M57.3684 24.361L53.87 2.78235" stroke="#1573D7" stroke-width="2.5" stroke-linecap="round" stroke-linejoin="round"/>
<path d="M20.749 49.1752V44.1475" stroke="#1573D7" stroke-width="2.5" stroke-linecap="round" stroke-linejoin="round"/>
<path d="M40.9049 52.7536L56.8172 36.9752" stroke="#1573D7" stroke-width="2.5" stroke-linecap="round" stroke-linejoin="round"/>
<path d="M46.5221 57.1014L57.2853 46.428" stroke="#1573D7" stroke-width="2.5" stroke-linecap="round" stroke-linejoin="round"/>
</svg>
