<svg width="196" height="43" viewBox="0 0 196 43" fill="none" xmlns="http://www.w3.org/2000/svg">
<path d="M0 19.7806C0.303805 18.3319 0.516154 16.8579 0.931028 15.4379C3.36473 7.10823 11.0775 0.916593 19.9466 0.109679C25.5503 -0.441997 31.1599 1.10136 35.6359 4.42628C40.1118 7.7512 43.1185 12.6083 44.0452 18.0111C45.9726 29.0124 38.7302 39.8136 27.6201 42.5012C26.8851 42.6791 26.1436 42.8348 25.4053 43H18.9764C18.8118 42.9417 18.6438 42.8929 18.4733 42.8538C9.55189 41.0812 3.66199 35.9951 0.898348 27.5543C0.454074 26.1978 0.290738 24.7555 0 23.3545V19.7806ZM43.4213 21.5786C43.4144 16.107 41.1798 10.8607 37.2062 6.98697C33.2326 3.1132 27.8434 0.927218 22.217 0.907066C16.5785 0.901163 11.1684 3.07309 7.17616 6.94532C3.18394 10.8176 0.936416 16.0731 0.927758 21.5564C0.932895 27.0272 3.16544 32.2734 7.1372 36.1477C11.109 40.0221 16.4967 42.2094 22.1222 42.2312C27.7606 42.2337 33.1697 40.061 37.1627 36.1898C41.1558 32.3186 43.4066 27.065 43.4213 21.5818V21.5786Z" fill="#B0B0B0"/>
<path d="M114.218 12.7185C113.799 15.0037 113.38 17.2868 112.96 19.5677C111.986 24.8857 111.006 30.2005 110.02 35.5122C109.984 35.6244 109.921 35.7265 109.836 35.8095C109.75 35.8926 109.645 35.9541 109.53 35.9887C107.877 36.0237 106.224 36.0078 104.525 36.0078C102.928 28.4025 101.343 20.8448 99.7591 13.2871H99.6023V39.515H93.8398V3.61685H103.892C105.061 9.17417 106.233 14.7347 107.406 20.2984H107.55L109.432 9.93874C109.785 7.98817 110.128 6.03444 110.51 4.08705C110.549 3.89644 110.814 3.59781 110.977 3.59781C114.312 3.56922 117.648 3.57555 121.045 3.57555V39.5087H114.365V12.728L114.218 12.7185Z" fill="#B0B0B0"/>
<path d="M170.108 39.5341H163.604V23.8216H156.469V39.5182H150.044V3.64235H156.44V17.3408H163.545V3.63281H170.098L170.108 39.5341Z" fill="#B0B0B0"/>
<path d="M179.879 3.61682H189.908C191.933 15.5744 193.955 27.5129 196 39.5721H189.408C189.114 37.8185 188.83 36.1126 188.545 34.4066C188.392 33.5044 188.264 32.5958 188.072 31.7C188.032 31.5094 187.745 31.2298 187.591 31.2266C185.275 31.1949 182.959 31.2076 180.575 31.2076C180.317 32.6626 180.068 34.0667 179.82 35.4836C179.611 36.6781 179.421 37.8789 179.186 39.0702C179.15 39.2545 178.922 39.5436 178.778 39.5467C176.922 39.5785 175.067 39.569 173.123 39.569L179.879 3.61682ZM187.003 25.1462C186.131 19.8822 185.272 14.7008 184.413 9.52257H184.273C183.384 14.7103 182.499 19.898 181.604 25.1366L187.003 25.1462Z" fill="#B0B0B0"/>
<path d="M130.829 3.60095H140.822C142.854 15.567 144.887 27.5457 146.921 39.5372H140.351L138.947 31.2775H131.492C131.018 34.0191 130.541 36.767 130.061 39.5372H124.08C126.327 27.5383 128.591 15.5903 130.829 3.60095ZM137.947 25.1366C137.072 19.9139 136.212 14.777 135.353 9.64328L135.174 9.6655C134.292 14.8056 133.413 19.9457 132.524 25.1366H137.947Z" fill="#B0B0B0"/>
<path d="M84.6082 3.68358C86.6292 15.5924 88.6557 27.5415 90.6876 39.5309H84.0921C83.7066 37.2308 83.3178 34.9658 82.9552 32.6943C82.7168 31.2076 82.7364 31.2044 81.1781 31.2044C79.4435 31.2044 77.7089 31.2298 75.9775 31.2044C75.3797 31.2044 75.2098 31.395 75.1216 31.9414C74.7231 34.4606 74.2723 36.9703 73.815 39.5309H67.8401C68.1668 37.844 68.4641 36.173 68.7777 34.502C70.6397 24.5839 72.5028 14.6669 74.367 4.75099C74.3864 4.50391 74.4391 4.26037 74.5238 4.02667C74.612 3.85194 74.8276 3.61052 74.9877 3.61052C78.1237 3.59146 81.2598 3.61052 84.3991 3.61052C84.4612 3.60099 84.4906 3.63911 84.6082 3.68358ZM81.7172 25.1367C80.8351 19.8663 79.9727 14.6976 79.1038 9.52895H78.96L76.2879 25.1685H80.9723C81.1977 25.1748 81.4231 25.1525 81.7172 25.1367Z" fill="#B0B0B0"/>
<path d="M59.0101 17.5409C59.8888 15.0375 60.7022 12.7216 61.5124 10.4057C62.231 8.34394 62.9628 6.27583 63.6586 4.21725C63.8154 3.74708 64.0212 3.55014 64.5635 3.56284C66.321 3.60097 68.0785 3.56284 69.9372 3.56284C69.5583 4.67156 69.2055 5.71989 68.8396 6.76507C66.8273 12.531 64.802 18.2906 62.8093 24.0597C62.6173 24.6202 62.518 25.2067 62.5152 25.7974C62.4891 30.0639 62.5152 34.3272 62.5152 38.5905V39.5118H55.3285V38.6445C55.3285 34.6036 55.3285 30.5627 55.3285 26.5218C55.3247 25.9056 55.2279 25.2933 55.041 24.7046C52.8523 17.9274 50.6516 11.1565 48.4389 4.39199C48.3638 4.15691 48.305 3.92183 48.2037 3.56284H50.742C51.7612 3.56284 52.7837 3.59779 53.7996 3.56284C54.4072 3.53425 54.6718 3.70261 54.858 4.29985C56.1386 8.47102 57.4714 12.6295 58.7781 16.7911C58.8173 16.9818 58.8859 17.166 59.0101 17.5409Z" fill="#B0B0B0"/>
<path d="M3.35559 21.5221C3.35723 19.1105 3.84964 16.723 4.80446 14.4973C5.75927 12.2716 7.15761 10.2517 8.91886 8.55396C10.6801 6.85623 12.7695 5.51426 15.0665 4.60542C17.3635 3.69657 19.8228 3.23878 22.3026 3.25848C27.295 3.28454 32.0726 5.2374 35.585 8.68775C39.0975 12.1381 41.0574 16.8036 41.0339 21.6587C41.0211 24.0688 40.5195 26.4528 39.5579 28.6741C38.5962 30.8954 37.1934 32.9103 35.4297 34.6036C33.6661 36.2969 31.5763 37.6352 29.28 38.5418C26.9837 39.4485 24.526 39.9057 22.0478 39.8873C17.0659 39.8587 12.2994 37.9087 8.79472 34.4653C5.29009 31.022 3.33386 26.3669 3.35559 21.5221ZM10.3627 13.7452L18.5132 18.3294C19.0849 18.647 19.3789 19.4254 19.1012 19.8669C18.8235 20.3085 18.0526 20.4197 17.507 20.1147L10.0099 15.9372C9.77796 15.807 9.53623 15.6926 9.26182 15.5528L8.32753 17.1794L16.1285 21.5697C15.8835 21.7158 15.7463 21.8175 15.5927 21.8874C14.0933 22.6022 13.0708 23.6601 12.6821 25.3025C12.4665 26.2111 11.6433 26.516 10.611 26.3445C10.452 26.3176 10.2889 26.3229 10.1321 26.36C9.97525 26.3972 9.828 26.4655 9.69955 26.5605C8.74567 27.5581 7.84406 28.6064 6.94571 29.6516C6.83747 29.8333 6.76336 30.0323 6.72685 30.2393C6.92568 30.311 7.13549 30.3496 7.34751 30.3536C8.75547 30.1186 10.1602 29.8739 11.555 29.5848C11.6775 29.5431 11.7897 29.477 11.8842 29.3905C11.9787 29.3041 12.0536 29.1992 12.1039 29.0829C12.6037 27.7709 13.1721 27.4405 14.5408 27.79C15.107 27.9442 15.6997 27.9832 16.2821 27.9045C16.8644 27.8258 17.4238 27.6311 17.9252 27.3325C18.2878 27.1228 18.6569 26.9195 19.1567 26.6399V35.3889H21.1167V26.3667C21.1167 25.6297 21.5872 25.0134 22.1588 25.0007C22.7305 24.988 23.2434 25.6361 23.2434 26.4049V35.3953H25.2034V26.6876C25.5301 26.8559 25.7424 26.9354 25.9254 27.0529C27.232 27.8789 28.5943 28.1807 30.1394 27.6883C31.09 27.396 31.8381 27.9393 32.1844 28.8923C32.2791 29.156 32.5111 29.5054 32.7659 29.5563C34.1804 29.8739 35.6112 30.1027 37.042 30.3441C37.2352 30.3449 37.4272 30.3148 37.6104 30.2552C37.5856 30.0491 37.5201 29.8495 37.4177 29.6674C36.5259 28.6159 35.6275 27.5676 34.6835 26.5605C34.5714 26.4615 34.4387 26.3872 34.2943 26.3427C34.1499 26.2983 33.9974 26.2848 33.8472 26.3032C32.5209 26.5351 31.8675 26.1729 31.5311 24.9022C31.3996 24.3711 31.158 23.8717 30.8209 23.4346C30.4839 22.9976 30.0585 22.6321 29.571 22.3607L28.2023 21.5665L36.0195 17.1698L35.0395 15.5401L26.8041 20.1401C26.2814 20.4324 25.4746 20.2736 25.223 19.8225C24.9715 19.3713 25.223 18.6534 25.7784 18.3389C27.4117 17.4208 29.0451 16.509 30.6784 15.5878C31.7663 14.9746 32.8541 14.3552 33.9746 13.7198L32.9945 12.1123L25.2132 16.4582C25.1853 16.2602 25.1689 16.0608 25.1642 15.861C25.2688 14.2408 24.8375 12.8462 23.5701 11.6993C22.8938 11.0894 22.969 10.1586 23.6583 9.51049C23.8203 9.39255 23.937 9.22518 23.9897 9.03513C24.0424 8.84508 24.0281 8.64331 23.949 8.46213C23.4818 7.1914 23.0408 5.93976 22.5639 4.68491C22.4953 4.50383 22.296 4.3672 22.1556 4.21153C22.0151 4.3672 21.8093 4.50066 21.7407 4.68491C21.2637 5.93658 20.826 7.2041 20.3556 8.46213C20.2749 8.64199 20.259 8.84312 20.3106 9.03284C20.3622 9.22257 20.4782 9.38976 20.6398 9.50731C20.8058 9.64524 20.94 9.8157 21.0337 10.0075C21.1273 10.1994 21.1783 10.4083 21.1832 10.6206C21.1881 10.8329 21.1469 11.0438 21.0623 11.2395C20.9777 11.4353 20.8515 11.6114 20.6921 11.7565C20.1333 12.2499 19.7012 12.8639 19.4306 13.5492C19.16 14.2344 19.0584 14.9718 19.1338 15.7021C19.1338 15.9181 19.1143 16.1342 19.0979 16.4614L11.3166 12.1123L10.3627 13.7452Z" fill="#B0B0B0"/>
<path d="M21.1161 15.9275C21.1161 15.5049 21.0867 15.0823 21.1161 14.6565C21.1111 14.5252 21.134 14.3942 21.1835 14.2719C21.233 14.1495 21.3079 14.0385 21.4037 13.9457C21.4994 13.8529 21.6138 13.7803 21.7398 13.7326C21.8657 13.6849 22.0005 13.663 22.1355 13.6683C22.2717 13.6559 22.4091 13.6714 22.5388 13.7137C22.6685 13.756 22.7876 13.8242 22.8886 13.914C22.9895 14.0038 23.07 14.1132 23.1249 14.235C23.1798 14.3569 23.2078 14.4886 23.2072 14.6216C23.3021 15.5084 23.2922 16.4029 23.1778 17.2875C23.119 17.6052 22.4917 18.0596 22.1061 18.0755C21.7794 18.0755 21.3057 17.6148 21.1259 17.2525C20.9462 16.8903 21.0867 16.3755 21.0867 15.9307L21.1161 15.9275Z" fill="#B0B0B0"/>
<path d="M25.1798 24.1489C25.1798 22.97 25.9868 22.5093 26.7775 22.9541C27.431 23.3259 28.0845 23.6977 28.7379 24.0917C29.3914 24.4857 29.5123 25.01 29.1856 25.5311C28.8588 26.0522 28.3067 26.1666 27.6597 25.8488C27.0128 25.5311 26.3168 25.1434 25.6993 24.7335C25.4901 24.572 25.3139 24.3736 25.1798 24.1489Z" fill="#B0B0B0"/>
<path d="M19.4082 23.8852C19.1893 24.1959 18.9326 24.4797 18.6436 24.7304C18.0097 25.1371 17.3367 25.493 16.6832 25.8425C16.0297 26.1921 15.4939 26.0523 15.1639 25.5248C14.8339 24.9973 15.0071 24.4762 15.6409 24.0886C16.2748 23.7009 16.9217 23.38 17.5425 22.9923C17.9183 22.7604 18.2777 22.6238 18.6338 22.9637C18.9076 23.2582 19.166 23.5657 19.4082 23.8852Z" fill="#B0B0B0"/>
<path d="M23.4032 21.5821C23.4032 22.1827 22.7497 22.8912 22.1877 22.9103C21.6258 22.9294 20.9494 22.2239 20.9494 21.6043C20.9494 20.9847 21.6029 20.2762 22.1616 20.2698C22.7203 20.2635 23.4032 20.9784 23.4032 21.5821Z" fill="#B0B0B0"/>
</svg>
